<svg xmlns="http://www.w3.org/2000/svg" width="548" height="74" viewBox="0 0 548 74" fill="none">
  <path d="M4.48558 43.5082C1.50088 31.3524 0.751348 17.9515 0.56312 8.2759C4.22318 22.2167 16.9107 32.5 32 32.5H516C525.561 32.5 532.958 29.7741 538.269 25.1866C542.909 21.1783 545.923 15.7769 547.408 9.61033C547.176 19.1604 546.364 31.9018 543.514 43.5082C541.522 51.6209 538.545 59.1331 534.111 64.6081C529.692 70.0654 523.828 73.5 516 73.5H32C24.1722 73.5 18.3079 70.0654 13.8886 64.6081C9.45476 59.1331 6.47754 51.6209 4.48558 43.5082Z" stroke="#2B465B"/>
</svg>