<svg width="551" height="253" viewBox="0 0 551 253" fill="none" xmlns="http://www.w3.org/2000/svg">
<path d="M4.48558 222.508C1.50088 210.352 0.751348 196.951 0.56312 187.276C4.22318 201.217 16.9107 211.5 32 211.5H516C525.561 211.5 532.958 208.774 538.269 204.187C542.909 200.178 545.923 194.777 547.408 188.61C547.176 198.16 546.364 210.902 543.514 222.508C541.522 230.621 538.545 238.133 534.111 243.608C529.692 249.065 523.828 252.5 516 252.5H32C24.1722 252.5 18.3079 249.065 13.8886 243.608C9.45476 238.133 6.47754 230.621 4.48558 222.508Z" stroke="#2B465B"/>
<rect x="3" y="2" width="546" height="194" rx="30" stroke="#2B465B" stroke-width="4"/>
<rect x="13" y="12" width="526" height="174" rx="32" fill="#2B465B"/>
<path d="M101.165 60H107.445V61.28C106.045 61.36 105.405 62 104.925 63.52L97.1645 88H94.3245L87.6045 67.44L80.9245 88H78.0845L69.6045 63.44C69.0445 61.8 68.5645 61.4 67.0445 61.28V60H77.4045V61.28C76.1245 61.36 75.4045 62.44 75.9245 64.08L81.0845 80.12L87.6445 60H90.8445L97.3245 80.04L102.445 63.76C103.005 62 102.525 61.32 101.165 61.28V60ZM123.763 77.64V78.24C110.883 78.24 110.883 78.24 110.883 78.24C111.403 86.12 119.523 86.6 122.803 82.88L123.523 83.48C122.123 86.16 119.243 88.4 115.483 88.4C110.163 88.4 105.243 84.96 105.243 78.24C105.243 72.32 109.363 68.68 115.123 68.68C120.843 68.68 123.843 72.72 123.763 77.64ZM115.043 69.96C112.723 70.04 111.083 72.48 110.843 76.2H118.603C118.643 73.44 117.963 69.88 115.043 69.96ZM138.773 68.68C144.093 68.68 147.653 72.4 147.653 78.52C147.653 84.64 144.093 88.4 138.773 88.4C135.333 88.4 133.173 86.6 131.813 84.4L128.573 88H127.293V63.76C127.293 62.2 126.893 61.4 125.413 61.28V60L131.973 58.44H132.973V71.12C134.293 69.68 136.173 68.68 138.773 68.68ZM137.493 86.76C140.573 86.76 142.053 83.16 142.053 78.52C142.053 73.88 140.573 70.28 137.493 70.28C134.493 70.28 132.973 73.56 132.973 78.52C132.973 83.48 134.493 86.76 137.493 86.76ZM157.192 84.2C157.192 85.76 157.592 86.6 159.112 86.72V88H149.632V86.72C151.152 86.6 151.552 85.76 151.552 84.2V73.96C151.552 72.4 151.152 71.6 149.632 71.48V70.2L156.232 68.68H157.192V84.2ZM154.152 66.36C152.232 66.36 150.632 65.12 150.632 62.96C150.632 60.84 152.232 59.56 154.152 59.56C156.072 59.56 157.672 60.84 157.672 62.96C157.672 65.12 156.072 66.36 154.152 66.36ZM181.487 84.2C181.487 85.76 181.887 86.6 183.367 86.72V88H173.927V86.72C175.407 86.6 175.807 85.76 175.807 84.2V75.72C175.807 72.72 174.767 70.72 172.127 70.72C169.607 70.72 168.247 72.92 168.247 75.6V84.2C168.247 85.76 168.647 86.6 170.127 86.72V88H160.687V86.72C162.167 86.6 162.567 85.76 162.567 84.2V73.96C162.567 72.4 162.167 71.6 160.687 71.48V70.2L167.007 68.68H168.007V71.52C169.447 69.6 171.567 68.68 174.007 68.68C179.287 68.68 181.487 71.92 181.487 76.36V84.2ZM204.615 85.76L205.095 86.64C204.615 87.44 203.215 88.4 201.615 88.4C199.935 88.4 197.375 87.6 197.215 85.24C196.215 87.52 193.975 88.4 191.895 88.4C188.535 88.4 185.095 87.08 184.975 83.4C184.855 78.64 188.775 77.24 192.655 76.88C194.495 76.72 195.935 76.6 196.935 76.48C196.935 75.52 196.935 74.84 196.935 74.84C196.935 71.76 196.335 70.2 194.295 69.96C193.135 69.84 191.415 70.36 191.535 72.2C191.735 74.72 189.935 75.44 188.535 75C187.175 74.52 186.575 73.2 187.335 71.56C188.415 69.2 191.495 68.68 194.135 68.68C197.855 68.68 202.615 70.12 202.615 75.8V84.76C202.615 86.32 203.935 86.4 204.615 85.76ZM193.695 86.32C195.935 86.24 196.935 83.76 196.935 81.04C196.935 79.96 196.935 78.88 196.935 77.92C196.375 77.96 195.655 78.08 194.735 78.2C191.855 78.56 190.655 80.08 190.575 82.64C190.495 85.28 191.935 86.36 193.695 86.32ZM223.023 71.2C223.463 72.28 223.423 74.16 221.623 74.92C220.223 75.52 218.183 74.68 217.903 72.68C217.743 71.48 217.263 71.04 216.543 71.08C215.063 71.2 214.223 72.96 214.223 75.84V84.2C214.223 85.76 214.623 86.6 216.143 86.72V88H206.663V86.72C208.183 86.6 208.583 85.76 208.583 84.2V73.96C208.583 72.4 208.183 71.6 206.663 71.48V70.2L213.023 68.68H213.983V71.48C214.863 69.68 216.303 68.76 218.503 68.68C220.663 68.6 222.303 69.48 223.023 71.2ZM251.959 85.76L252.439 86.64C251.959 87.44 250.559 88.4 248.959 88.4C247.279 88.4 244.719 87.6 244.559 85.24C243.559 87.52 241.319 88.4 239.239 88.4C235.879 88.4 232.439 87.08 232.319 83.4C232.199 78.64 236.119 77.24 239.999 76.88C241.839 76.72 243.279 76.6 244.279 76.48C244.279 75.52 244.279 74.84 244.279 74.84C244.279 71.76 243.679 70.2 241.639 69.96C240.479 69.84 238.759 70.36 238.879 72.2C239.079 74.72 237.279 75.44 235.879 75C234.519 74.52 233.919 73.2 234.679 71.56C235.759 69.2 238.839 68.68 241.479 68.68C245.199 68.68 249.959 70.12 249.959 75.8V84.76C249.959 86.32 251.279 86.4 251.959 85.76ZM241.039 86.32C243.279 86.24 244.279 83.76 244.279 81.04C244.279 79.96 244.279 78.88 244.279 77.92C243.719 77.96 242.999 78.08 242.079 78.2C239.199 78.56 237.999 80.08 237.919 82.64C237.839 85.28 239.279 86.36 241.039 86.32ZM274.416 84.2C274.416 85.76 274.816 86.6 276.296 86.72V88H266.856V86.72C268.336 86.6 268.736 85.76 268.736 84.2V75.72C268.736 72.72 267.696 70.72 265.056 70.72C262.536 70.72 261.176 72.92 261.176 75.6V84.2C261.176 85.76 261.576 86.6 263.056 86.72V88H253.616V86.72C255.096 86.6 255.496 85.76 255.496 84.2V73.96C255.496 72.4 255.096 71.6 253.616 71.48V70.2L259.936 68.68H260.936V71.52C262.376 69.6 264.496 68.68 266.936 68.68C272.216 68.68 274.416 71.92 274.416 76.36V84.2ZM300.145 86.04L300.505 87.16C299.665 87.88 298.345 88.4 296.745 88.4C295.145 88.4 293.025 87.6 292.665 85.56C291.305 87.2 289.345 88.4 286.545 88.4C281.225 88.4 277.665 84.64 277.665 78.52C277.665 72.4 281.225 68.68 286.545 68.68C289.145 68.68 291.025 69.68 292.345 71.12V63.76C292.345 62.2 291.945 61.4 290.465 61.28V60L297.025 58.44H298.025V84.76C298.025 86.32 299.145 86.52 300.145 86.04ZM287.825 86.76C290.825 86.76 292.345 83.48 292.345 78.52C292.345 73.56 290.825 70.28 287.825 70.28C284.745 70.28 283.265 73.88 283.265 78.52C283.265 83.16 284.745 86.76 287.825 86.76ZM334.4 84.2C335.04 85.68 335.8 86.6 337.28 86.72V88H326.48V86.72C328.04 86.64 328.76 85.68 328.2 84.2L326.32 79.48H316L314.24 84.2C313.68 85.76 314.28 86.6 315.8 86.72V88H308.92V86.72C310.4 86.6 311.2 85.72 311.72 84.2L319.12 64.12C319.72 62.56 319.48 61.36 317.88 61.24V60H324.28L334.4 84.2ZM316.84 77.2H325.4L321 65.92L316.84 77.2ZM360.388 69.04H365.948V70.32C364.628 70.4 363.988 70.84 363.468 72.28L357.788 88H354.948L350.428 75.52L346.068 88H343.508L337.468 72.84C336.868 71.32 336.348 70.44 334.868 70.32V69.04H344.908V70.32C343.428 70.44 342.948 71.36 343.468 72.84L346.508 81.72L351.068 69.04H353.868L358.108 82.04L361.588 72.36C361.988 71.16 361.628 70.36 360.388 70.32V69.04ZM385.045 85.76L385.525 86.64C385.045 87.44 383.645 88.4 382.045 88.4C380.365 88.4 377.805 87.6 377.645 85.24C376.645 87.52 374.405 88.4 372.325 88.4C368.965 88.4 365.525 87.08 365.405 83.4C365.285 78.64 369.205 77.24 373.085 76.88C374.925 76.72 376.365 76.6 377.365 76.48C377.365 75.52 377.365 74.84 377.365 74.84C377.365 71.76 376.765 70.2 374.725 69.96C373.565 69.84 371.845 70.36 371.965 72.2C372.165 74.72 370.365 75.44 368.965 75C367.605 74.52 367.005 73.2 367.765 71.56C368.845 69.2 371.925 68.68 374.565 68.68C378.285 68.68 383.045 70.12 383.045 75.8V84.76C383.045 86.32 384.365 86.4 385.045 85.76ZM374.125 86.32C376.365 86.24 377.365 83.76 377.365 81.04C377.365 79.96 377.365 78.88 377.365 77.92C376.805 77.96 376.085 78.08 375.165 78.2C372.285 78.56 371.085 80.08 371.005 82.64C370.925 85.28 372.365 86.36 374.125 86.32ZM403.453 71.2C403.893 72.28 403.853 74.16 402.053 74.92C400.653 75.52 398.613 74.68 398.333 72.68C398.173 71.48 397.693 71.04 396.973 71.08C395.493 71.2 394.653 72.96 394.653 75.84V84.2C394.653 85.76 395.053 86.6 396.573 86.72V88H387.093V86.72C388.613 86.6 389.013 85.76 389.013 84.2V73.96C389.013 72.4 388.613 71.6 387.093 71.48V70.2L393.453 68.68H394.413V71.48C395.293 69.68 396.733 68.76 398.933 68.68C401.093 68.6 402.733 69.48 403.453 71.2ZM426.981 86.04L427.341 87.16C426.501 87.88 425.181 88.4 423.581 88.4C421.981 88.4 419.861 87.6 419.501 85.56C418.141 87.2 416.181 88.4 413.381 88.4C408.061 88.4 404.501 84.64 404.501 78.52C404.501 72.4 408.061 68.68 413.381 68.68C415.981 68.68 417.861 69.68 419.181 71.12V63.76C419.181 62.2 418.781 61.4 417.301 61.28V60L423.861 58.44H424.861V84.76C424.861 86.32 425.981 86.52 426.981 86.04ZM414.661 86.76C417.661 86.76 419.181 83.48 419.181 78.52C419.181 73.56 417.661 70.28 414.661 70.28C411.581 70.28 410.101 73.88 410.101 78.52C410.101 83.16 411.581 86.76 414.661 86.76ZM436.098 84.2C436.098 85.76 436.498 86.6 438.018 86.72V88H428.538V86.72C430.058 86.6 430.458 85.76 430.458 84.2V73.96C430.458 72.4 430.058 71.6 428.538 71.48V70.2L435.138 68.68H436.098V84.2ZM433.058 66.36C431.138 66.36 429.538 65.12 429.538 62.96C429.538 60.84 431.138 59.56 433.058 59.56C434.978 59.56 436.578 60.84 436.578 62.96C436.578 65.12 434.978 66.36 433.058 66.36ZM460.393 84.2C460.393 85.76 460.793 86.6 462.273 86.72V88H452.833V86.72C454.313 86.6 454.713 85.76 454.713 84.2V75.72C454.713 72.72 453.673 70.72 451.033 70.72C448.513 70.72 447.153 72.92 447.153 75.6V84.2C447.153 85.76 447.553 86.6 449.033 86.72V88H439.593V86.72C441.073 86.6 441.473 85.76 441.473 84.2V73.96C441.473 72.4 441.073 71.6 439.593 71.48V70.2L445.913 68.68H446.913V71.52C448.353 69.6 450.473 68.68 452.913 68.68C458.193 68.68 460.393 71.92 460.393 76.36V84.2ZM474.14 84.56C481.5 84.48 485.14 85.96 484.9 90.52C484.66 95.04 480.34 98.76 473.82 98.76C467.38 98.76 462.46 96.72 462.9 92.44C463.1 90.68 464.5 89.2 466.78 88.24C464.46 87.36 463.18 85.88 463.74 83.88C464.3 82.04 466.66 81.16 468.58 80.8C466.82 79.6 465.7 77.8 465.7 75.44C465.7 71.12 469.58 68.68 473.82 68.68C475.3 68.68 476.74 68.96 477.98 69.52C478.14 68.68 478.38 67.8 478.78 66.92C479.78 64.68 482.5 63.72 483.7 65.6C484.62 67.04 483.38 69.2 481.38 68.88C480.42 68.72 479.7 68.76 479.42 69.28C479.26 69.52 479.18 69.84 479.14 70.2C480.82 71.36 481.94 73.16 481.94 75.44C481.94 79.8 478.02 82.28 473.82 82.28C472.54 82.28 471.26 82.04 470.14 81.6C469.06 81.8 467.58 82.2 467.5 83.08C467.42 84.12 468.7 84.6 474.14 84.56ZM473.82 70.08C471.82 70.08 470.66 72 470.66 75.44C470.66 78.92 471.82 80.84 473.82 80.84C475.78 80.84 476.98 78.92 476.98 75.44C476.98 72 475.78 70.08 473.82 70.08ZM480.46 92.56C480.7 89.44 477.46 89.28 473.62 89.28C472.14 89.28 470.7 89.16 469.42 88.96C468.34 89.68 467.5 90.8 467.46 92.56C467.34 96.28 470.86 97.4 474.06 97.4C477.22 97.4 480.22 95.68 480.46 92.56Z" fill="#E2E6DF"/>
<path d="M165.595 114.28C172.347 114.28 177.499 119.08 177.499 125.8C177.499 132.488 172.347 137.32 165.595 137.32C158.843 137.32 153.659 132.488 153.659 125.8C153.659 119.08 158.843 114.28 165.595 114.28ZM165.595 136.456C170.171 136.456 173.883 132.616 173.883 125.8C173.883 118.952 170.171 115.144 165.595 115.144C161.019 115.144 157.307 118.952 157.307 125.8C157.307 132.616 161.019 136.456 165.595 136.456ZM193.154 133.32L193.602 133.672C192.514 135.816 190.274 137.32 187.458 137.32C183.202 137.32 179.586 134.216 179.586 129.192C179.586 124.424 183.266 121.544 187.394 121.544C190.082 121.544 192.13 122.44 193.09 124.04C193.634 124.968 193.57 126.44 192.354 126.856C191.362 127.208 190.082 126.568 190.178 124.808C190.274 123.176 189.09 122.12 187.298 122.28C184.898 122.504 182.658 125.032 182.882 129.192C183.234 136.264 190.37 136.936 193.154 133.32ZM204.026 134.952L204.442 135.528C203.738 136.52 202.618 137.32 201.018 137.32C198.714 137.32 196.922 136.104 196.922 132.84V122.984H194.554V121.832C197.242 121.832 198.746 120.008 199.258 117.416C199.642 117.416 200.25 117.416 200.25 117.416V121.832H203.546V122.984H200.25V132.84C200.25 134.248 200.698 135.112 201.626 135.4C202.554 135.72 203.386 135.432 204.026 134.952ZM213.114 121.544C217.37 121.544 221.146 124.424 221.146 129.416C221.146 134.408 217.37 137.32 213.114 137.32C208.858 137.32 205.082 134.408 205.082 129.416C205.082 124.424 208.858 121.544 213.114 121.544ZM213.114 136.392C215.994 136.392 217.69 133.576 217.69 129.416C217.69 125.256 215.994 122.44 213.114 122.44C210.234 122.44 208.538 125.256 208.538 129.416C208.538 133.576 210.234 136.392 213.114 136.392ZM232.957 121.544C236.765 121.544 239.869 124.584 239.869 129.416C239.869 134.248 236.765 137.32 232.957 137.32C230.173 137.32 228.445 135.784 227.389 133.928L225.085 137H224.413V117.192C224.413 115.944 224.093 115.4 222.909 115.304V114.6L227.229 113.448H227.773V124.328C228.829 122.728 230.461 121.544 232.957 121.544ZM232.125 136.136C234.941 136.136 236.477 133.288 236.477 129.416C236.477 125.544 234.941 122.696 232.125 122.696C229.309 122.696 227.773 125.32 227.773 129.416C227.773 133.512 229.309 136.136 232.125 136.136ZM256.108 128.712V128.904H245.1C245.1 129 245.1 129.096 245.132 129.192C245.484 136.264 252.684 136.936 255.468 133.32L255.916 133.704C254.828 135.816 252.396 137.32 249.676 137.32C245.452 137.32 241.804 134.216 241.804 129.192C241.804 124.328 245.1 121.544 249.356 121.544C253.996 121.544 256.172 124.776 256.108 128.712ZM249.292 122.248C247.052 122.28 245.356 124.392 245.132 127.752H253.036C253.132 124.904 251.948 122.216 249.292 122.248ZM270.294 123.528C270.55 124.392 270.262 125.544 269.366 125.864C268.31 126.216 267.158 125.832 267.03 124.264C266.902 123.08 266.262 122.856 265.366 123.016C264.086 123.24 262.742 124.968 262.742 127.272V134.408C262.742 135.656 263.062 136.2 264.246 136.296V137H257.878V136.296C259.062 136.2 259.382 135.656 259.382 134.408V125.288C259.382 124.04 259.062 123.464 257.878 123.368V122.664L262.134 121.544H262.646V124.264C263.542 122.504 264.982 121.576 266.838 121.544C268.342 121.512 269.846 122.184 270.294 123.528ZM293.326 132.136H293.934L293.326 137H278.702V136.2C284.654 130.056 289.166 126.728 289.518 120.68C289.71 117.384 288.398 115.24 285.806 115.144C283.566 115.048 282.446 116.168 282.446 117.608C282.446 118.92 282.318 119.528 281.838 119.88C281.038 120.488 279.758 120.072 279.438 119.4C279.022 118.536 279.406 117.544 279.822 116.904C280.718 115.528 282.766 114.28 285.806 114.28C289.934 114.28 293.358 116.328 293.102 120.68C292.814 126.088 287.086 130.44 282.126 134.536H289.006C291.95 134.536 292.814 133.768 293.326 132.136ZM304.579 114.28C309.635 114.28 313.123 118.856 313.123 125.8C313.123 132.744 309.635 137.32 304.579 137.32C299.491 137.32 296.003 132.744 296.003 125.8C296.003 118.856 299.491 114.28 304.579 114.28ZM304.579 136.456C307.811 136.456 309.763 132.712 309.763 125.8C309.763 118.856 307.811 115.144 304.579 115.144C301.315 115.144 299.395 118.856 299.395 125.8C299.395 132.712 301.315 136.456 304.579 136.456ZM317.282 133.544C318.338 133.544 319.17 134.344 319.202 135.688C319.266 138.568 317.506 140.584 316.194 141.608L315.65 141.032C317.058 139.528 317.442 138.6 317.602 137.32C317.57 137.32 317.282 137.32 317.282 137.32C316.226 137.32 315.362 136.648 315.362 135.432C315.362 134.216 316.226 133.544 317.282 133.544ZM342.982 132.136H343.59L342.982 137H328.358V136.2C334.31 130.056 338.822 126.728 339.174 120.68C339.366 117.384 338.054 115.24 335.462 115.144C333.222 115.048 332.102 116.168 332.102 117.608C332.102 118.92 331.974 119.528 331.494 119.88C330.694 120.488 329.414 120.072 329.094 119.4C328.678 118.536 329.062 117.544 329.478 116.904C330.374 115.528 332.422 114.28 335.462 114.28C339.59 114.28 343.014 116.328 342.758 120.68C342.47 126.088 336.742 130.44 331.782 134.536H338.662C341.606 134.536 342.47 133.768 342.982 132.136ZM354.235 114.28C359.291 114.28 362.779 118.856 362.779 125.8C362.779 132.744 359.291 137.32 354.235 137.32C349.147 137.32 345.659 132.744 345.659 125.8C345.659 118.856 349.147 114.28 354.235 114.28ZM354.235 136.456C357.467 136.456 359.419 132.712 359.419 125.8C359.419 118.856 357.467 115.144 354.235 115.144C350.971 115.144 349.051 118.856 349.051 125.8C349.051 132.712 350.971 136.456 354.235 136.456ZM379.17 132.136H379.778L379.17 137H364.546V136.2C370.498 130.056 375.01 126.728 375.362 120.68C375.554 117.384 374.242 115.24 371.65 115.144C369.41 115.048 368.29 116.168 368.29 117.608C368.29 118.92 368.162 119.528 367.682 119.88C366.882 120.488 365.602 120.072 365.282 119.4C364.866 118.536 365.25 117.544 365.666 116.904C366.562 115.528 368.61 114.28 371.65 114.28C375.778 114.28 379.202 116.328 378.946 120.68C378.658 126.088 372.93 130.44 367.97 134.536H374.85C377.794 134.536 378.658 133.768 379.17 132.136ZM398.327 131.432H395.255V134.376C395.255 135.624 395.575 136.2 396.791 136.296V137H390.583V136.296C391.799 136.2 392.119 135.624 392.119 134.376V131.432H381.367V130.28L392.119 114.6H395.255V130.28H398.327V131.432ZM382.775 130.28H392.119V116.712L382.775 130.28Z" fill="#E2E6DF"/>
</svg>
