<svg width="550" height="252" viewBox="0 0 550 252" fill="none" xmlns="http://www.w3.org/2000/svg">
<path d="M5.48558 221.508C2.50088 209.352 1.75135 195.951 1.56312 186.276C5.22318 200.217 17.9107 210.5 33 210.5H517C526.561 210.5 533.958 207.774 539.269 203.187C543.909 199.178 546.923 193.777 548.408 187.61C548.176 197.16 547.364 209.902 544.514 221.508C542.522 229.621 539.545 237.133 535.111 242.608C530.692 248.065 524.828 251.5 517 251.5H33C25.1722 251.5 19.3079 248.065 14.8886 242.608C10.4548 237.133 7.47754 229.621 5.48558 221.508Z" stroke="#2B465B"/>
<rect x="2" y="2" width="546" height="194" rx="30" stroke="#2B465B" stroke-width="4"/>
<rect x="12" y="12" width="526" height="174" rx="32" fill="#2B465B"/>
<path d="M85.4263 60L86.2263 67.52H85.1863C84.6263 65.4 83.3063 62.28 79.5863 62.28H73.2263V73.16H77.4263C80.1863 73.16 80.7063 72.24 80.9863 70.56H81.9863V78.08H80.9863C80.7063 76.4 80.1863 75.48 77.4263 75.48H73.2263V84.2C73.2263 85.76 73.6263 86.6 75.1063 86.72V88H65.5063V86.72C67.0263 86.6 67.4263 85.76 67.4263 84.2V63.76C67.4263 62.2 67.0263 61.4 65.5063 61.24V60H85.4263ZM95.3913 84.2C95.3913 85.76 95.7913 86.6 97.3112 86.72V88H87.8313V86.72C89.3513 86.6 89.7513 85.76 89.7513 84.2V73.96C89.7513 72.4 89.3513 71.6 87.8313 71.48V70.2L94.4313 68.68H95.3913V84.2ZM92.3513 66.36C90.4313 66.36 88.8313 65.12 88.8313 62.96C88.8313 60.84 90.4313 59.56 92.3513 59.56C94.2713 59.56 95.8713 60.84 95.8713 62.96C95.8713 65.12 94.2713 66.36 92.3513 66.36ZM119.686 84.2C119.686 85.76 120.086 86.6 121.566 86.72V88H112.126V86.72C113.606 86.6 114.006 85.76 114.006 84.2V75.72C114.006 72.72 112.966 70.72 110.326 70.72C107.806 70.72 106.446 72.92 106.446 75.6V84.2C106.446 85.76 106.846 86.6 108.326 86.72V88H98.8859V86.72C100.366 86.6 100.766 85.76 100.766 84.2V73.96C100.766 72.4 100.366 71.6 98.8859 71.48V70.2L105.206 68.68H106.206V71.52C107.646 69.6 109.766 68.68 112.206 68.68C117.486 68.68 119.686 71.92 119.686 76.36V84.2ZM142.814 85.76L143.294 86.64C142.814 87.44 141.414 88.4 139.814 88.4C138.134 88.4 135.574 87.6 135.414 85.24C134.414 87.52 132.174 88.4 130.094 88.4C126.734 88.4 123.294 87.08 123.174 83.4C123.054 78.64 126.974 77.24 130.854 76.88C132.694 76.72 134.134 76.6 135.134 76.48C135.134 75.52 135.134 74.84 135.134 74.84C135.134 71.76 134.534 70.2 132.494 69.96C131.334 69.84 129.614 70.36 129.734 72.2C129.934 74.72 128.134 75.44 126.734 75C125.374 74.52 124.774 73.2 125.534 71.56C126.614 69.2 129.694 68.68 132.334 68.68C136.054 68.68 140.814 70.12 140.814 75.8V84.76C140.814 86.32 142.134 86.4 142.814 85.76ZM131.894 86.32C134.134 86.24 135.134 83.76 135.134 81.04C135.134 79.96 135.134 78.88 135.134 77.92C134.574 77.96 133.854 78.08 132.934 78.2C130.054 78.56 128.854 80.08 128.774 82.64C128.694 85.28 130.134 86.36 131.894 86.32ZM152.072 84.2C152.072 85.76 152.432 86.6 153.952 86.72V88H144.472V86.72C145.992 86.6 146.392 85.76 146.392 84.2V63.76C146.392 62.2 145.992 61.4 144.472 61.28V60L151.072 58.44H152.072V84.2ZM174.784 60C181.744 60 186.064 63.56 186.064 68.84C186.064 74.16 181.744 77.68 174.784 77.68H171.664V84.2C171.664 85.76 172.064 86.6 173.544 86.72V88H163.944V86.72C165.464 86.6 165.864 85.76 165.864 84.2V63.76C165.864 62.2 165.464 61.4 163.944 61.28V60H174.784ZM173.504 75.4C178.024 75.4 179.944 72.44 179.944 68.84C179.944 65.24 178.024 62.32 173.504 62.32H171.664V75.4H173.504ZM205.744 85.76L206.224 86.64C205.744 87.44 204.344 88.4 202.744 88.4C201.064 88.4 198.504 87.6 198.344 85.24C197.344 87.52 195.104 88.4 193.024 88.4C189.664 88.4 186.224 87.08 186.104 83.4C185.984 78.64 189.904 77.24 193.784 76.88C195.624 76.72 197.064 76.6 198.064 76.48C198.064 75.52 198.064 74.84 198.064 74.84C198.064 71.76 197.464 70.2 195.424 69.96C194.264 69.84 192.544 70.36 192.664 72.2C192.864 74.72 191.064 75.44 189.664 75C188.304 74.52 187.704 73.2 188.464 71.56C189.544 69.2 192.624 68.68 195.264 68.68C198.984 68.68 203.744 70.12 203.744 75.8V84.76C203.744 86.32 205.064 86.4 205.744 85.76ZM194.824 86.32C197.064 86.24 198.064 83.76 198.064 81.04C198.064 79.96 198.064 78.88 198.064 77.92C197.504 77.96 196.784 78.08 195.864 78.2C192.984 78.56 191.784 80.08 191.704 82.64C191.624 85.28 193.064 86.36 194.824 86.32ZM220.362 68.68C225.682 68.68 228.962 72.4 228.962 78.52C228.962 84.64 225.682 88.4 220.362 88.4C217.762 88.4 215.882 87.36 214.562 85.92V93.28C214.562 94.84 214.962 95.64 216.442 95.76V97.04H207.002V95.76C208.482 95.64 208.882 94.84 208.882 93.28V73.96C208.882 72.4 208.482 71.6 207.002 71.48V70.2L213.562 68.68H214.562V71.12C215.882 69.68 217.762 68.68 220.362 68.68ZM219.082 86.76C222.162 86.76 223.362 83.16 223.362 78.52C223.362 73.88 222.162 70.28 219.082 70.28C216.082 70.28 214.522 73.56 214.522 78.52C214.522 83.48 216.082 86.76 219.082 86.76ZM249.267 77.64V78.24C236.387 78.24 236.387 78.24 236.387 78.24C236.907 86.12 245.027 86.6 248.307 82.88L249.027 83.48C247.627 86.16 244.747 88.4 240.987 88.4C235.667 88.4 230.747 84.96 230.747 78.24C230.747 72.32 234.867 68.68 240.627 68.68C246.347 68.68 249.347 72.72 249.267 77.64ZM240.547 69.96C238.227 70.04 236.587 72.48 236.347 76.2H244.107C244.147 73.44 243.467 69.88 240.547 69.96ZM267.668 71.2C268.108 72.28 268.068 74.16 266.268 74.92C264.868 75.52 262.828 74.68 262.548 72.68C262.388 71.48 261.908 71.04 261.188 71.08C259.708 71.2 258.868 72.96 258.868 75.84V84.2C258.868 85.76 259.268 86.6 260.788 86.72V88H251.308V86.72C252.828 86.6 253.228 85.76 253.228 84.2V73.96C253.228 72.4 252.828 71.6 251.308 71.48V70.2L257.668 68.68H258.628V71.48C259.508 69.68 260.948 68.76 263.148 68.68C265.308 68.6 266.948 69.48 267.668 71.2ZM290.243 71.16C295.243 74.08 299.043 76.28 297.363 82.32C296.163 86.76 291.923 88.4 287.483 88.4C283.883 88.4 280.323 87.52 277.723 85.68V79.12H278.723C280.163 83.72 282.883 86.68 286.683 86.92C290.083 87.08 291.883 85.32 292.163 82.88C292.563 79.28 289.963 78.36 286.523 76.4C282.483 74.08 277.443 71.08 279.083 64.92C280.083 61.04 283.923 59.6 288.003 59.6C291.203 59.6 293.403 60.52 296.043 62.32L296.083 68.08H295.083C293.843 63.12 291.763 61.24 288.523 61.08C285.443 60.92 283.963 62.6 283.883 64.56C283.763 67.32 286.603 69.04 290.243 71.16ZM320.175 84.2C320.175 85.76 320.575 86.6 322.055 86.72V88H314.495V85.84C313.055 87.56 311.055 88.4 308.775 88.4C303.495 88.4 301.295 85.12 301.295 80.68V73.96C301.295 72.4 300.895 71.6 299.375 71.48V70.2L305.975 68.68H306.935V81.32C306.935 84.32 308.015 86.32 310.655 86.32C313.175 86.32 314.495 84.12 314.495 81.44V73.96C314.495 72.4 314.095 71.6 312.615 71.48V70.2L319.215 68.68H320.175V84.2ZM337.402 68.68C342.722 68.68 346.282 72.4 346.282 78.52C346.282 84.64 342.722 88.4 337.402 88.4C333.962 88.4 331.802 86.6 330.442 84.4L327.202 88H325.922V63.76C325.922 62.2 325.522 61.4 324.042 61.28V60L330.602 58.44H331.602V71.12C332.922 69.68 334.802 68.68 337.402 68.68ZM336.122 86.76C339.202 86.76 340.682 83.16 340.682 78.52C340.682 73.88 339.202 70.28 336.122 70.28C333.122 70.28 331.602 73.56 331.602 78.52C331.602 83.48 333.122 86.76 336.122 86.76ZM381.261 84.2C381.261 85.76 381.661 86.6 383.141 86.72V88H373.701V86.72C375.181 86.6 375.581 85.76 375.581 84.2V75.72C375.581 72.72 374.621 70.72 372.141 70.72C369.821 70.72 368.541 72.92 368.541 75.6C368.541 75.76 368.541 84.2 368.541 84.2C368.541 85.76 368.941 86.6 370.421 86.72V88H360.981V86.72C362.461 86.6 362.861 85.76 362.861 84.2V75.72C362.861 72.72 361.941 70.72 359.421 70.72C357.141 70.72 355.821 72.92 355.821 75.6V84.2C355.821 85.76 356.221 86.6 357.741 86.72V88H348.261V86.72C349.781 86.6 350.181 85.76 350.181 84.2V73.96C350.181 72.4 349.781 71.6 348.261 71.48V70.2L354.581 68.68H355.581V71.4C356.981 69.56 358.941 68.68 361.301 68.68C364.661 68.68 366.701 70.04 367.741 72.24C369.141 69.84 371.301 68.68 374.021 68.68C379.141 68.68 381.261 71.92 381.261 76.36V84.2ZM392.305 84.2C392.305 85.76 392.705 86.6 394.225 86.72V88H384.745V86.72C386.265 86.6 386.665 85.76 386.665 84.2V73.96C386.665 72.4 386.265 71.6 384.745 71.48V70.2L391.345 68.68H392.305V84.2ZM389.265 66.36C387.345 66.36 385.745 65.12 385.745 62.96C385.745 60.84 387.345 59.56 389.265 59.56C391.185 59.56 392.785 60.84 392.785 62.96C392.785 65.12 391.185 66.36 389.265 66.36ZM400.671 72.08C400.391 74.16 402.751 75.08 405.391 76.28C408.391 77.64 412.031 79.32 410.751 83.72C409.911 86.76 406.871 88.4 402.991 88.4C400.511 88.4 397.351 87.68 395.591 86.32V81.48H396.511C397.391 85.28 400.391 87 402.991 87C404.591 87 405.991 86.32 406.271 84.96C406.711 82.88 404.671 82.2 402.111 81.04C398.271 79.28 395.151 77.4 396.351 72.64C397.151 69.52 400.551 68.6 403.431 68.68C405.431 68.72 407.591 69.36 409.351 70.72L409.391 75.04H408.471C407.511 71.44 406.031 70.04 403.431 70.04C402.391 70.04 400.911 70.4 400.671 72.08ZM417.507 72.08C417.227 74.16 419.587 75.08 422.227 76.28C425.227 77.64 428.867 79.32 427.587 83.72C426.747 86.76 423.707 88.4 419.827 88.4C417.347 88.4 414.187 87.68 412.427 86.32V81.48H413.347C414.227 85.28 417.227 87 419.827 87C421.427 87 422.827 86.32 423.107 84.96C423.547 82.88 421.507 82.2 418.947 81.04C415.107 79.28 411.987 77.4 413.187 72.64C413.987 69.52 417.387 68.6 420.267 68.68C422.267 68.72 424.427 69.36 426.187 70.72L426.227 75.04H425.307C424.347 71.44 422.867 70.04 420.267 70.04C419.227 70.04 417.747 70.4 417.507 72.08ZM437.032 84.2C437.032 85.76 437.432 86.6 438.952 86.72V88H429.472V86.72C430.992 86.6 431.392 85.76 431.392 84.2V73.96C431.392 72.4 430.992 71.6 429.472 71.48V70.2L436.072 68.68H437.032V84.2ZM433.992 66.36C432.072 66.36 430.472 65.12 430.472 62.96C430.472 60.84 432.072 59.56 433.992 59.56C435.912 59.56 437.512 60.84 437.512 62.96C437.512 65.12 435.912 66.36 433.992 66.36ZM450.677 68.68C456.237 68.68 461.037 72.08 461.037 78.52C461.037 84.96 456.237 88.4 450.677 88.4C445.117 88.4 440.317 84.96 440.317 78.52C440.317 72.08 445.117 68.68 450.677 68.68ZM450.677 86.76C453.597 86.76 455.197 83.28 455.197 78.52C455.197 73.76 453.597 70.32 450.677 70.32C447.757 70.32 446.117 73.76 446.117 78.52C446.117 83.28 447.757 86.76 450.677 86.76ZM483.827 84.2C483.827 85.76 484.227 86.6 485.707 86.72V88H476.267V86.72C477.747 86.6 478.147 85.76 478.147 84.2V75.72C478.147 72.72 477.107 70.72 474.467 70.72C471.947 70.72 470.587 72.92 470.587 75.6V84.2C470.587 85.76 470.987 86.6 472.467 86.72V88H463.027V86.72C464.507 86.6 464.907 85.76 464.907 84.2V73.96C464.907 72.4 464.507 71.6 463.027 71.48V70.2L469.347 68.68H470.347V71.52C471.787 69.6 473.907 68.68 476.347 68.68C481.627 68.68 483.827 71.92 483.827 76.36V84.2Z" fill="#E2E6DF"/>
<path d="M59.9126 123.912C63.9126 126.248 66.7606 128.136 65.6726 132.456C64.7126 136.104 61.3526 137.32 58.0246 137.32C55.1126 137.32 52.6806 136.52 50.6006 135.048V130.536H51.2086C52.3606 134.216 54.5366 136.296 57.5766 136.456C60.6486 136.616 62.1846 135.016 62.5366 133C63.0806 129.864 60.5206 128.488 57.5766 126.824C54.3446 125 50.8566 122.824 51.8166 118.536C52.5206 115.4 55.2086 114.248 58.2486 114.248C60.7126 114.248 62.5366 115.112 64.6486 116.52V120.84H64.0406C63.0806 116.872 61.2246 115.24 58.6646 115.144C56.1686 115.016 54.8886 116.296 54.7286 118.248C54.4726 121.032 57.0006 122.216 59.9126 123.912ZM82.1396 128.712V128.904H71.1316C71.1316 129 71.1316 129.096 71.1636 129.192C71.5156 136.264 78.7156 136.936 81.4996 133.32L81.9476 133.704C80.8596 135.816 78.4276 137.32 75.7076 137.32C71.4836 137.32 67.8356 134.216 67.8356 129.192C67.8356 124.328 71.1316 121.544 75.3876 121.544C80.0276 121.544 82.2036 124.776 82.1396 128.712ZM75.3236 122.248C73.0836 122.28 71.3876 124.392 71.1636 127.752H79.0676C79.1636 124.904 77.9796 122.216 75.3236 122.248ZM93.6694 121.544C97.4774 121.544 100.549 124.584 100.549 129.416C100.549 134.28 97.4774 137.32 93.6694 137.32C91.1734 137.32 89.5094 136.104 88.4534 134.536V141.64C88.4534 142.888 88.7734 143.432 89.9574 143.528V144.232H83.5894V143.528C84.8054 143.432 85.1254 142.888 85.1254 141.64V125.288C85.1254 124.04 84.8054 123.464 83.5894 123.368V122.664L87.9414 121.544H88.4534V124.328C89.5094 122.728 91.1734 121.544 93.6694 121.544ZM92.8374 136.136C95.6214 136.136 97.1574 133.288 97.1574 129.416C97.1574 125.544 95.6214 122.696 92.8374 122.696C90.0214 122.696 88.4534 125.32 88.4534 129.416C88.4534 133.512 90.0214 136.136 92.8374 136.136ZM111.308 134.952L111.724 135.528C111.02 136.52 109.9 137.32 108.3 137.32C105.996 137.32 104.204 136.104 104.204 132.84V122.984H101.836V121.832C104.524 121.832 106.028 120.008 106.54 117.416C106.924 117.416 107.532 117.416 107.532 117.416V121.832H110.828V122.984H107.532V132.84C107.532 134.248 107.98 135.112 108.908 135.4C109.836 135.72 110.668 135.432 111.308 134.952ZM126.827 128.712V128.904H115.819C115.819 129 115.819 129.096 115.851 129.192C116.203 136.264 123.403 136.936 126.187 133.32L126.635 133.704C125.547 135.816 123.115 137.32 120.395 137.32C116.171 137.32 112.523 134.216 112.523 129.192C112.523 124.328 115.819 121.544 120.075 121.544C124.715 121.544 126.891 124.776 126.827 128.712ZM120.011 122.248C117.771 122.28 116.075 124.392 115.851 127.752H123.755C123.851 124.904 122.667 122.216 120.011 122.248ZM154.069 134.376C154.069 135.624 154.389 136.2 155.605 136.296V137H149.205V136.296C150.421 136.2 150.741 135.624 150.741 134.376V127.24C150.741 124.648 149.749 122.76 147.285 122.76C145.141 122.76 143.765 124.552 143.765 126.952C143.765 127.048 143.765 134.376 143.765 134.376C143.765 135.624 144.085 136.2 145.269 136.296V137H138.901V136.296C140.085 136.2 140.405 135.624 140.405 134.376V127.24C140.405 124.648 139.445 122.76 136.981 122.76C134.837 122.76 133.429 124.552 133.429 126.952V134.376C133.429 135.624 133.749 136.2 134.965 136.296V137H128.597V136.296C129.781 136.2 130.101 135.624 130.101 134.376V125.288C130.101 124.04 129.781 123.464 128.597 123.368V122.664L132.821 121.544H133.333V123.816C134.485 122.28 136.149 121.544 138.037 121.544C140.661 121.544 142.357 122.728 143.157 124.552C144.309 122.504 146.165 121.544 148.373 121.544C152.245 121.544 154.069 124.2 154.069 127.56V134.376ZM166.926 121.544C170.734 121.544 173.838 124.584 173.838 129.416C173.838 134.248 170.734 137.32 166.926 137.32C164.142 137.32 162.414 135.784 161.358 133.928L159.054 137H158.382V117.192C158.382 115.944 158.062 115.4 156.878 115.304V114.6L161.198 113.448H161.742V124.328C162.798 122.728 164.43 121.544 166.926 121.544ZM166.094 136.136C168.91 136.136 170.446 133.288 170.446 129.416C170.446 125.544 168.91 122.696 166.094 122.696C163.278 122.696 161.742 125.32 161.742 129.416C161.742 133.512 163.278 136.136 166.094 136.136ZM190.077 128.712V128.904H179.069C179.069 129 179.069 129.096 179.101 129.192C179.453 136.264 186.653 136.936 189.437 133.32L189.885 133.704C188.797 135.816 186.365 137.32 183.645 137.32C179.421 137.32 175.773 134.216 175.773 129.192C175.773 124.328 179.069 121.544 183.325 121.544C187.965 121.544 190.141 124.776 190.077 128.712ZM183.261 122.248C181.021 122.28 179.325 124.392 179.101 127.752H187.005C187.101 124.904 185.917 122.216 183.261 122.248ZM204.263 123.528C204.519 124.392 204.231 125.544 203.335 125.864C202.279 126.216 201.127 125.832 200.999 124.264C200.871 123.08 200.231 122.856 199.335 123.016C198.055 123.24 196.711 124.968 196.711 127.272V134.408C196.711 135.656 197.031 136.2 198.215 136.296V137H191.847V136.296C193.031 136.2 193.351 135.656 193.351 134.408V125.288C193.351 124.04 193.031 123.464 191.847 123.368V122.664L196.103 121.544H196.615V124.264C197.511 122.504 198.951 121.576 200.807 121.544C202.311 121.512 203.815 122.184 204.263 123.528ZM212.831 125.832H224.223V127.048H212.831V125.832ZM244.814 114.28C251.566 114.28 256.718 119.08 256.718 125.8C256.718 132.488 251.566 137.32 244.814 137.32C238.062 137.32 232.878 132.488 232.878 125.8C232.878 119.08 238.062 114.28 244.814 114.28ZM244.814 136.456C249.39 136.456 253.102 132.616 253.102 125.8C253.102 118.952 249.39 115.144 244.814 115.144C240.238 115.144 236.526 118.952 236.526 125.8C236.526 132.616 240.238 136.456 244.814 136.456ZM272.372 133.32L272.82 133.672C271.732 135.816 269.492 137.32 266.676 137.32C262.42 137.32 258.804 134.216 258.804 129.192C258.804 124.424 262.484 121.544 266.612 121.544C269.3 121.544 271.348 122.44 272.308 124.04C272.852 124.968 272.788 126.44 271.572 126.856C270.58 127.208 269.3 126.568 269.396 124.808C269.492 123.176 268.308 122.12 266.516 122.28C264.116 122.504 261.876 125.032 262.1 129.192C262.452 136.264 269.588 136.936 272.372 133.32ZM283.245 134.952L283.661 135.528C282.957 136.52 281.837 137.32 280.237 137.32C277.933 137.32 276.141 136.104 276.141 132.84V122.984H273.773V121.832C276.461 121.832 277.965 120.008 278.477 117.416C278.861 117.416 279.469 117.416 279.469 117.416V121.832H282.765V122.984H279.469V132.84C279.469 134.248 279.917 135.112 280.845 135.4C281.773 135.72 282.605 135.432 283.245 134.952ZM292.333 121.544C296.589 121.544 300.365 124.424 300.365 129.416C300.365 134.408 296.589 137.32 292.333 137.32C288.077 137.32 284.301 134.408 284.301 129.416C284.301 124.424 288.077 121.544 292.333 121.544ZM292.333 136.392C295.213 136.392 296.909 133.576 296.909 129.416C296.909 125.256 295.213 122.44 292.333 122.44C289.453 122.44 287.757 125.256 287.757 129.416C287.757 133.576 289.453 136.392 292.333 136.392ZM312.176 121.544C315.984 121.544 319.088 124.584 319.088 129.416C319.088 134.248 315.984 137.32 312.176 137.32C309.392 137.32 307.664 135.784 306.608 133.928L304.304 137H303.632V117.192C303.632 115.944 303.312 115.4 302.128 115.304V114.6L306.448 113.448H306.992V124.328C308.048 122.728 309.68 121.544 312.176 121.544ZM311.344 136.136C314.16 136.136 315.696 133.288 315.696 129.416C315.696 125.544 314.16 122.696 311.344 122.696C308.528 122.696 306.992 125.32 306.992 129.416C306.992 133.512 308.528 136.136 311.344 136.136ZM335.327 128.712V128.904H324.319C324.319 129 324.319 129.096 324.351 129.192C324.703 136.264 331.903 136.936 334.687 133.32L335.135 133.704C334.047 135.816 331.615 137.32 328.895 137.32C324.671 137.32 321.023 134.216 321.023 129.192C321.023 124.328 324.319 121.544 328.575 121.544C333.215 121.544 335.391 124.776 335.327 128.712ZM328.511 122.248C326.271 122.28 324.575 124.392 324.351 127.752H332.255C332.351 124.904 331.167 122.216 328.511 122.248ZM349.513 123.528C349.769 124.392 349.481 125.544 348.585 125.864C347.529 126.216 346.377 125.832 346.249 124.264C346.121 123.08 345.481 122.856 344.585 123.016C343.305 123.24 341.961 124.968 341.961 127.272V134.408C341.961 135.656 342.281 136.2 343.465 136.296V137H337.097V136.296C338.281 136.2 338.601 135.656 338.601 134.408V125.288C338.601 124.04 338.281 123.464 337.097 123.368V122.664L341.353 121.544H341.865V124.264C342.761 122.504 344.201 121.576 346.057 121.544C347.561 121.512 349.065 122.184 349.513 123.528ZM372.545 132.136H373.153L372.545 137H357.921V136.2C363.873 130.056 368.385 126.728 368.737 120.68C368.929 117.384 367.617 115.24 365.025 115.144C362.785 115.048 361.665 116.168 361.665 117.608C361.665 118.92 361.537 119.528 361.057 119.88C360.257 120.488 358.977 120.072 358.657 119.4C358.241 118.536 358.625 117.544 359.041 116.904C359.937 115.528 361.985 114.28 365.025 114.28C369.153 114.28 372.577 116.328 372.321 120.68C372.033 126.088 366.305 130.44 361.345 134.536H368.225C371.169 134.536 372.033 133.768 372.545 132.136ZM381.102 134.376C381.102 135.624 381.422 136.2 382.606 136.296V137H376.43V136.296C377.614 136.2 377.934 135.624 377.934 134.376V117.928C377.486 117.928 376.75 117.928 376.014 117.928V117.224L380.526 114.6H381.102V134.376ZM385.487 125.832H396.879V127.048H385.487V125.832ZM413.263 132.136H413.871L413.263 137H398.639V136.2C404.591 130.056 409.103 126.728 409.455 120.68C409.647 117.384 408.335 115.24 405.743 115.144C403.503 115.048 402.383 116.168 402.383 117.608C402.383 118.92 402.255 119.528 401.775 119.88C400.975 120.488 399.695 120.072 399.375 119.4C398.959 118.536 399.343 117.544 399.759 116.904C400.655 115.528 402.703 114.28 405.743 114.28C409.871 114.28 413.295 116.328 413.039 120.68C412.751 126.088 407.023 130.44 402.063 134.536H408.943C411.887 134.536 412.751 133.768 413.263 132.136ZM418.501 133.544C419.557 133.544 420.389 134.344 420.421 135.688C420.485 138.568 418.725 140.584 417.413 141.608L416.869 141.032C418.277 139.528 418.661 138.6 418.821 137.32C418.789 137.32 418.501 137.32 418.501 137.32C417.445 137.32 416.581 136.648 416.581 135.432C416.581 134.216 417.445 133.544 418.501 133.544ZM444.201 132.136H444.809L444.201 137H429.577V136.2C435.529 130.056 440.041 126.728 440.393 120.68C440.585 117.384 439.273 115.24 436.681 115.144C434.441 115.048 433.321 116.168 433.321 117.608C433.321 118.92 433.193 119.528 432.713 119.88C431.913 120.488 430.633 120.072 430.313 119.4C429.897 118.536 430.281 117.544 430.697 116.904C431.593 115.528 433.641 114.28 436.681 114.28C440.809 114.28 444.233 116.328 443.977 120.68C443.689 126.088 437.961 130.44 433.001 134.536H439.881C442.825 134.536 443.689 133.768 444.201 132.136ZM455.454 114.28C460.51 114.28 463.998 118.856 463.998 125.8C463.998 132.744 460.51 137.32 455.454 137.32C450.366 137.32 446.878 132.744 446.878 125.8C446.878 118.856 450.366 114.28 455.454 114.28ZM455.454 136.456C458.686 136.456 460.638 132.712 460.638 125.8C460.638 118.856 458.686 115.144 455.454 115.144C452.19 115.144 450.27 118.856 450.27 125.8C450.27 132.712 452.19 136.456 455.454 136.456ZM480.388 132.136H480.996L480.388 137H465.764V136.2C471.716 130.056 476.228 126.728 476.58 120.68C476.772 117.384 475.46 115.24 472.868 115.144C470.628 115.048 469.508 116.168 469.508 117.608C469.508 118.92 469.38 119.528 468.9 119.88C468.1 120.488 466.82 120.072 466.5 119.4C466.084 118.536 466.468 117.544 466.884 116.904C467.78 115.528 469.828 114.28 472.868 114.28C476.996 114.28 480.42 116.328 480.164 120.68C479.876 126.088 474.148 130.44 469.188 134.536H476.068C479.012 134.536 479.876 133.768 480.388 132.136ZM499.546 131.432H496.474V134.376C496.474 135.624 496.794 136.2 498.01 136.296V137H491.802V136.296C493.018 136.2 493.338 135.624 493.338 134.376V131.432H482.586V130.28L493.338 114.6H496.474V130.28H499.546V131.432ZM483.994 130.28H493.338V116.712L483.994 130.28Z" fill="#E2E6DF"/>
</svg>
