<svg width="551" height="251" viewBox="0 0 551 251" fill="none" xmlns="http://www.w3.org/2000/svg">
<path d="M4.48558 220.508C1.50088 208.352 0.751348 194.951 0.56312 185.276C4.22318 199.217 16.9107 209.5 32 209.5H516C525.561 209.5 532.958 206.774 538.269 202.187C542.909 198.178 545.923 192.777 547.408 186.61C547.176 196.16 546.364 208.902 543.514 220.508C541.522 228.621 538.545 236.133 534.111 241.608C529.692 247.065 523.828 250.5 516 250.5H32C24.1722 250.5 18.3079 247.065 13.8886 241.608C9.45476 236.133 6.47754 228.621 4.48558 220.508Z" stroke="#2B465B"/>
<rect x="3" y="2" width="546" height="194" rx="30" stroke="#2B465B" stroke-width="4"/>
<rect x="13" y="12" width="526" height="174" rx="32" fill="#2B465B"/>
<path d="M85.1177 60L85.9177 67.52H84.8777C84.3177 65.4 82.9977 62.28 79.2777 62.28H72.9177V73.16H77.1177C79.8777 73.16 80.3977 72.24 80.6777 70.56H81.6777V78.08H80.6777C80.3977 76.4 79.8777 75.48 77.1177 75.48H72.9177V84.2C72.9177 85.76 73.3177 86.6 74.7977 86.72V88H65.1977V86.72C66.7177 86.6 67.1177 85.76 67.1177 84.2V63.76C67.1177 62.2 66.7177 61.4 65.1977 61.24V60H85.1177ZM95.0827 84.2C95.0827 85.76 95.4827 86.6 97.0027 86.72V88H87.5227V86.72C89.0427 86.6 89.4427 85.76 89.4427 84.2V73.96C89.4427 72.4 89.0427 71.6 87.5227 71.48V70.2L94.1227 68.68H95.0827V84.2ZM92.0427 66.36C90.1227 66.36 88.5227 65.12 88.5227 62.96C88.5227 60.84 90.1227 59.56 92.0427 59.56C93.9627 59.56 95.5627 60.84 95.5627 62.96C95.5627 65.12 93.9627 66.36 92.0427 66.36ZM119.377 84.2C119.377 85.76 119.777 86.6 121.257 86.72V88H111.817V86.72C113.297 86.6 113.697 85.76 113.697 84.2V75.72C113.697 72.72 112.657 70.72 110.017 70.72C107.497 70.72 106.137 72.92 106.137 75.6V84.2C106.137 85.76 106.537 86.6 108.017 86.72V88H98.5773V86.72C100.057 86.6 100.457 85.76 100.457 84.2V73.96C100.457 72.4 100.057 71.6 98.5773 71.48V70.2L104.897 68.68H105.897V71.52C107.337 69.6 109.457 68.68 111.897 68.68C117.177 68.68 119.377 71.92 119.377 76.36V84.2ZM142.506 85.76L142.986 86.64C142.506 87.44 141.106 88.4 139.506 88.4C137.826 88.4 135.266 87.6 135.106 85.24C134.106 87.52 131.866 88.4 129.786 88.4C126.426 88.4 122.986 87.08 122.866 83.4C122.746 78.64 126.666 77.24 130.546 76.88C132.386 76.72 133.826 76.6 134.826 76.48C134.826 75.52 134.826 74.84 134.826 74.84C134.826 71.76 134.226 70.2 132.186 69.96C131.026 69.84 129.306 70.36 129.426 72.2C129.626 74.72 127.826 75.44 126.426 75C125.066 74.52 124.466 73.2 125.226 71.56C126.306 69.2 129.386 68.68 132.026 68.68C135.746 68.68 140.506 70.12 140.506 75.8V84.76C140.506 86.32 141.826 86.4 142.506 85.76ZM131.586 86.32C133.826 86.24 134.826 83.76 134.826 81.04C134.826 79.96 134.826 78.88 134.826 77.92C134.266 77.96 133.546 78.08 132.626 78.2C129.746 78.56 128.546 80.08 128.466 82.64C128.386 85.28 129.826 86.36 131.586 86.32ZM151.763 84.2C151.763 85.76 152.123 86.6 153.643 86.72V88H144.163V86.72C145.683 86.6 146.083 85.76 146.083 84.2V63.76C146.083 62.2 145.683 61.4 144.163 61.28V60L150.763 58.44H151.763V84.2ZM162.778 84.2C162.778 85.76 163.178 86.6 164.698 86.72V88H155.218V86.72C156.738 86.6 157.138 85.76 157.138 84.2V73.96C157.138 72.4 156.738 71.6 155.218 71.48V70.2L161.818 68.68H162.778V84.2ZM159.738 66.36C157.818 66.36 156.218 65.12 156.218 62.96C156.218 60.84 157.818 59.56 159.738 59.56C161.658 59.56 163.258 60.84 163.258 62.96C163.258 65.12 161.658 66.36 159.738 66.36ZM171.143 72.08C170.863 74.16 173.223 75.08 175.863 76.28C178.863 77.64 182.503 79.32 181.223 83.72C180.383 86.76 177.343 88.4 173.463 88.4C170.983 88.4 167.823 87.68 166.063 86.32V81.48H166.983C167.863 85.28 170.863 87 173.463 87C175.063 87 176.463 86.32 176.743 84.96C177.183 82.88 175.143 82.2 172.583 81.04C168.743 79.28 165.623 77.4 166.823 72.64C167.623 69.52 171.023 68.6 173.903 68.68C175.903 68.72 178.063 69.36 179.823 70.72L179.863 75.04H178.943C177.983 71.44 176.503 70.04 173.903 70.04C172.863 70.04 171.383 70.4 171.143 72.08ZM195.189 84.64L195.829 85.72C194.989 87.08 193.269 88.4 190.869 88.4C188.109 88.4 185.269 87.32 185.269 82.8V71.08H182.509V69.04C186.029 69.04 188.389 66.48 189.189 63.28C190.309 63.28 190.909 63.28 190.909 63.28V69.04H194.709V71.08H190.909V82.8C190.909 84.12 191.589 84.84 192.429 85.16C193.349 85.48 194.389 85.24 195.189 84.64ZM230.532 84.2C231.172 85.68 231.932 86.6 233.412 86.72V88H222.612V86.72C224.172 86.64 224.892 85.68 224.332 84.2L222.452 79.48H212.132L210.372 84.2C209.812 85.76 210.412 86.6 211.932 86.72V88H205.052V86.72C206.532 86.6 207.332 85.72 207.852 84.2L215.252 64.12C215.852 62.56 215.612 61.36 214.012 61.24V60H220.412L230.532 84.2ZM212.972 77.2H221.532L217.132 65.92L212.972 77.2ZM255.393 84.2C255.393 85.76 255.793 86.6 257.273 86.72V88H247.833V86.72C249.313 86.6 249.713 85.76 249.713 84.2V75.72C249.713 72.72 248.673 70.72 246.033 70.72C243.513 70.72 242.153 72.92 242.153 75.6V84.2C242.153 85.76 242.553 86.6 244.033 86.72V88H234.593V86.72C236.073 86.6 236.473 85.76 236.473 84.2V73.96C236.473 72.4 236.073 71.6 234.593 71.48V70.2L240.913 68.68H241.913V71.52C243.353 69.6 245.473 68.68 247.913 68.68C253.193 68.68 255.393 71.92 255.393 76.36V84.2ZM279.651 84.2C279.651 85.76 280.051 86.6 281.531 86.72V88H272.091V86.72C273.571 86.6 273.971 85.76 273.971 84.2V75.72C273.971 72.72 272.931 70.72 270.291 70.72C267.771 70.72 266.411 72.92 266.411 75.6V84.2C266.411 85.76 266.811 86.6 268.291 86.72V88H258.851V86.72C260.331 86.6 260.731 85.76 260.731 84.2V73.96C260.731 72.4 260.331 71.6 258.851 71.48V70.2L265.171 68.68H266.171V71.52C267.611 69.6 269.731 68.68 272.171 68.68C277.451 68.68 279.651 71.92 279.651 76.36V84.2ZM293.259 68.68C298.819 68.68 303.619 72.08 303.619 78.52C303.619 84.96 298.819 88.4 293.259 88.4C287.699 88.4 282.899 84.96 282.899 78.52C282.899 72.08 287.699 68.68 293.259 68.68ZM293.259 86.76C296.179 86.76 297.779 83.28 297.779 78.52C297.779 73.76 296.179 70.32 293.259 70.32C290.339 70.32 288.699 73.76 288.699 78.52C288.699 83.28 290.339 86.76 293.259 86.76ZM325.999 84.2C325.999 85.76 326.399 86.6 327.879 86.72V88H320.319V85.84C318.879 87.56 316.879 88.4 314.599 88.4C309.319 88.4 307.119 85.12 307.119 80.68V73.96C307.119 72.4 306.719 71.6 305.199 71.48V70.2L311.799 68.68H312.759V81.32C312.759 84.32 313.839 86.32 316.479 86.32C318.999 86.32 320.319 84.12 320.319 81.44V73.96C320.319 72.4 319.919 71.6 318.439 71.48V70.2L325.039 68.68H325.999V84.2ZM350.666 84.2C350.666 85.76 351.066 86.6 352.546 86.72V88H343.106V86.72C344.586 86.6 344.986 85.76 344.986 84.2V75.72C344.986 72.72 343.946 70.72 341.306 70.72C338.786 70.72 337.426 72.92 337.426 75.6V84.2C337.426 85.76 337.826 86.6 339.306 86.72V88H329.866V86.72C331.346 86.6 331.746 85.76 331.746 84.2V73.96C331.746 72.4 331.346 71.6 329.866 71.48V70.2L336.186 68.68H337.186V71.52C338.626 69.6 340.746 68.68 343.186 68.68C348.466 68.68 350.666 71.92 350.666 76.36V84.2ZM371.435 82.88L372.195 83.48C370.795 86.16 367.875 88.4 364.115 88.4C358.835 88.4 353.915 84.96 353.915 78.24C353.915 72.16 358.275 68.68 364.035 68.68C367.555 68.68 370.115 69.84 371.275 71.72C372.235 73.28 372.155 75.6 370.195 76.28C368.595 76.88 366.475 75.88 366.675 73.24C366.835 71.24 366.115 69.84 363.955 69.96C361.235 70.16 359.115 73.4 359.515 78.24C360.195 86.2 368.155 86.6 371.435 82.88ZM392.122 77.64V78.24C379.242 78.24 379.242 78.24 379.242 78.24C379.762 86.12 387.882 86.6 391.162 82.88L391.882 83.48C390.482 86.16 387.602 88.4 383.842 88.4C378.522 88.4 373.602 84.96 373.602 78.24C373.602 72.32 377.722 68.68 383.482 68.68C389.202 68.68 392.202 72.72 392.122 77.64ZM383.402 69.96C381.082 70.04 379.442 72.48 379.202 76.2H386.962C387.002 73.44 386.322 69.88 383.402 69.96ZM427.163 84.2C427.163 85.76 427.563 86.6 429.043 86.72V88H419.603V86.72C421.083 86.6 421.483 85.76 421.483 84.2V75.72C421.483 72.72 420.523 70.72 418.043 70.72C415.723 70.72 414.443 72.92 414.443 75.6C414.443 75.76 414.443 84.2 414.443 84.2C414.443 85.76 414.843 86.6 416.323 86.72V88H406.883V86.72C408.363 86.6 408.763 85.76 408.763 84.2V75.72C408.763 72.72 407.843 70.72 405.323 70.72C403.043 70.72 401.723 72.92 401.723 75.6V84.2C401.723 85.76 402.123 86.6 403.643 86.72V88H394.163V86.72C395.683 86.6 396.083 85.76 396.083 84.2V73.96C396.083 72.4 395.683 71.6 394.163 71.48V70.2L400.483 68.68H401.483V71.4C402.883 69.56 404.843 68.68 407.203 68.68C410.563 68.68 412.603 70.04 413.643 72.24C415.043 69.84 417.203 68.68 419.923 68.68C425.043 68.68 427.163 71.92 427.163 76.36V84.2ZM448.958 77.64V78.24C436.078 78.24 436.078 78.24 436.078 78.24C436.598 86.12 444.718 86.6 447.998 82.88L448.718 83.48C447.318 86.16 444.438 88.4 440.678 88.4C435.358 88.4 430.438 84.96 430.438 78.24C430.438 72.32 434.558 68.68 440.318 68.68C446.038 68.68 449.038 72.72 448.958 77.64ZM440.238 69.96C437.918 70.04 436.278 72.48 436.038 76.2H443.798C443.838 73.44 443.158 69.88 440.238 69.96ZM471.799 84.2C471.799 85.76 472.199 86.6 473.679 86.72V88H464.239V86.72C465.719 86.6 466.119 85.76 466.119 84.2V75.72C466.119 72.72 465.079 70.72 462.439 70.72C459.919 70.72 458.559 72.92 458.559 75.6V84.2C458.559 85.76 458.959 86.6 460.439 86.72V88H450.999V86.72C452.479 86.6 452.879 85.76 452.879 84.2V73.96C452.879 72.4 452.479 71.6 450.999 71.48V70.2L457.319 68.68H458.319V71.52C459.759 69.6 461.879 68.68 464.319 68.68C469.599 68.68 471.799 71.92 471.799 76.36V84.2ZM486.946 84.64L487.586 85.72C486.746 87.08 485.026 88.4 482.626 88.4C479.866 88.4 477.026 87.32 477.026 82.8V71.08H474.266V69.04C477.786 69.04 480.146 66.48 480.946 63.28C482.066 63.28 482.666 63.28 482.666 63.28V69.04H486.466V71.08H482.666V82.8C482.666 84.12 483.346 84.84 484.186 85.16C485.106 85.48 486.146 85.24 486.946 84.64Z" fill="#E2E6DF"/>
<path d="M174.799 114.28C181.551 114.28 186.703 119.08 186.703 125.8C186.703 132.488 181.551 137.32 174.799 137.32C168.047 137.32 162.863 132.488 162.863 125.8C162.863 119.08 168.047 114.28 174.799 114.28ZM174.799 136.456C179.375 136.456 183.087 132.616 183.087 125.8C183.087 118.952 179.375 115.144 174.799 115.144C170.223 115.144 166.511 118.952 166.511 125.8C166.511 132.616 170.223 136.456 174.799 136.456ZM202.357 133.32L202.805 133.672C201.717 135.816 199.477 137.32 196.661 137.32C192.405 137.32 188.789 134.216 188.789 129.192C188.789 124.424 192.469 121.544 196.597 121.544C199.285 121.544 201.333 122.44 202.293 124.04C202.837 124.968 202.773 126.44 201.557 126.856C200.565 127.208 199.285 126.568 199.381 124.808C199.477 123.176 198.293 122.12 196.501 122.28C194.101 122.504 191.861 125.032 192.085 129.192C192.437 136.264 199.573 136.936 202.357 133.32ZM213.23 134.952L213.646 135.528C212.942 136.52 211.822 137.32 210.222 137.32C207.918 137.32 206.126 136.104 206.126 132.84V122.984H203.758V121.832C206.446 121.832 207.95 120.008 208.462 117.416C208.846 117.416 209.454 117.416 209.454 117.416V121.832H212.75V122.984H209.454V132.84C209.454 134.248 209.902 135.112 210.83 135.4C211.758 135.72 212.59 135.432 213.23 134.952ZM222.317 121.544C226.573 121.544 230.349 124.424 230.349 129.416C230.349 134.408 226.573 137.32 222.317 137.32C218.061 137.32 214.285 134.408 214.285 129.416C214.285 124.424 218.061 121.544 222.317 121.544ZM222.317 136.392C225.197 136.392 226.893 133.576 226.893 129.416C226.893 125.256 225.197 122.44 222.317 122.44C219.437 122.44 217.741 125.256 217.741 129.416C217.741 133.576 219.437 136.392 222.317 136.392ZM242.161 121.544C245.969 121.544 249.073 124.584 249.073 129.416C249.073 134.248 245.969 137.32 242.161 137.32C239.377 137.32 237.649 135.784 236.593 133.928L234.289 137H233.617V117.192C233.617 115.944 233.297 115.4 232.113 115.304V114.6L236.433 113.448H236.977V124.328C238.033 122.728 239.665 121.544 242.161 121.544ZM241.329 136.136C244.145 136.136 245.681 133.288 245.681 129.416C245.681 125.544 244.145 122.696 241.329 122.696C238.513 122.696 236.977 125.32 236.977 129.416C236.977 133.512 238.513 136.136 241.329 136.136ZM265.312 128.712V128.904H254.304C254.304 129 254.304 129.096 254.336 129.192C254.688 136.264 261.888 136.936 264.672 133.32L265.12 133.704C264.032 135.816 261.6 137.32 258.88 137.32C254.656 137.32 251.008 134.216 251.008 129.192C251.008 124.328 254.304 121.544 258.56 121.544C263.2 121.544 265.376 124.776 265.312 128.712ZM258.496 122.248C256.256 122.28 254.56 124.392 254.336 127.752H262.24C262.336 124.904 261.152 122.216 258.496 122.248ZM279.497 123.528C279.753 124.392 279.465 125.544 278.569 125.864C277.513 126.216 276.361 125.832 276.233 124.264C276.105 123.08 275.465 122.856 274.569 123.016C273.289 123.24 271.945 124.968 271.945 127.272V134.408C271.945 135.656 272.265 136.2 273.449 136.296V137H267.081V136.296C268.265 136.2 268.585 135.656 268.585 134.408V125.288C268.585 124.04 268.265 123.464 267.081 123.368V122.664L271.337 121.544H271.849V124.264C272.745 122.504 274.185 121.576 276.041 121.544C277.545 121.512 279.049 122.184 279.497 123.528ZM303.905 131.432H300.833V134.376C300.833 135.624 301.153 136.2 302.369 136.296V137H296.161V136.296C297.377 136.2 297.697 135.624 297.697 134.376V131.432H286.945V130.28L297.697 114.6H300.833V130.28H303.905V131.432ZM288.353 130.28H297.697V116.712L288.353 130.28ZM308.079 133.544C309.135 133.544 309.967 134.344 309.999 135.688C310.063 138.568 308.303 140.584 306.991 141.608L306.447 141.032C307.855 139.528 308.239 138.6 308.399 137.32C308.367 137.32 308.079 137.32 308.079 137.32C307.023 137.32 306.159 136.648 306.159 135.432C306.159 134.216 307.023 133.544 308.079 133.544ZM333.779 132.136H334.387L333.779 137H319.155V136.2C325.107 130.056 329.619 126.728 329.971 120.68C330.163 117.384 328.851 115.24 326.259 115.144C324.019 115.048 322.899 116.168 322.899 117.608C322.899 118.92 322.771 119.528 322.291 119.88C321.491 120.488 320.211 120.072 319.891 119.4C319.475 118.536 319.859 117.544 320.275 116.904C321.171 115.528 323.219 114.28 326.259 114.28C330.387 114.28 333.811 116.328 333.555 120.68C333.267 126.088 327.539 130.44 322.579 134.536H329.459C332.403 134.536 333.267 133.768 333.779 132.136ZM345.032 114.28C350.088 114.28 353.576 118.856 353.576 125.8C353.576 132.744 350.088 137.32 345.032 137.32C339.944 137.32 336.456 132.744 336.456 125.8C336.456 118.856 339.944 114.28 345.032 114.28ZM345.032 136.456C348.264 136.456 350.216 132.712 350.216 125.8C350.216 118.856 348.264 115.144 345.032 115.144C341.768 115.144 339.848 118.856 339.848 125.8C339.848 132.712 341.768 136.456 345.032 136.456ZM369.967 132.136H370.575L369.967 137H355.343V136.2C361.295 130.056 365.807 126.728 366.159 120.68C366.351 117.384 365.039 115.24 362.447 115.144C360.207 115.048 359.087 116.168 359.087 117.608C359.087 118.92 358.959 119.528 358.479 119.88C357.679 120.488 356.399 120.072 356.079 119.4C355.663 118.536 356.047 117.544 356.463 116.904C357.359 115.528 359.407 114.28 362.447 114.28C366.575 114.28 369.999 116.328 369.743 120.68C369.455 126.088 363.727 130.44 358.766 134.536H365.647C368.591 134.536 369.455 133.768 369.967 132.136ZM389.124 131.432H386.052V134.376C386.052 135.624 386.372 136.2 387.588 136.296V137H381.38V136.296C382.596 136.2 382.916 135.624 382.916 134.376V131.432H372.164V130.28L382.916 114.6H386.052V130.28H389.124V131.432ZM373.572 130.28H382.916V116.712L373.572 130.28Z" fill="#E2E6DF"/>
</svg>
