<svg width="550" height="255" viewBox="0 0 550 255" fill="none" xmlns="http://www.w3.org/2000/svg">
<path d="M5.48558 224.508C2.50088 212.352 1.75135 198.951 1.56312 189.276C5.22318 203.217 17.9107 213.5 33 213.5H517C526.561 213.5 533.958 210.774 539.269 206.187C543.909 202.178 546.923 196.777 548.408 190.61C548.176 200.16 547.364 212.902 544.514 224.508C542.522 232.621 539.545 240.133 535.111 245.608C530.692 251.065 524.828 254.5 517 254.5H33C25.1722 254.5 19.3079 251.065 14.8886 245.608C10.4548 240.133 7.47754 232.621 5.48558 224.508Z" stroke="#2B465B"/>
<rect x="2" y="2" width="546" height="194" rx="30" stroke="#2B465B" stroke-width="4"/>
<rect x="12" y="12" width="526" height="174" rx="32" fill="#2B465B"/>
<path d="M171.735 60L172.535 67.52H171.495C170.935 65.4 169.615 62.28 165.895 62.28H159.535V73.16H163.735C166.495 73.16 167.015 72.24 167.295 70.56H168.295V78.08H167.295C167.015 76.4 166.495 75.48 163.735 75.48H159.535V84.2C159.535 85.76 159.935 86.6 161.415 86.72V88H151.815V86.72C153.335 86.6 153.735 85.76 153.735 84.2V63.76C153.735 62.2 153.335 61.4 151.815 61.24V60H171.735ZM181.7 84.2C181.7 85.76 182.1 86.6 183.62 86.72V88H174.14V86.72C175.66 86.6 176.06 85.76 176.06 84.2V73.96C176.06 72.4 175.66 71.6 174.14 71.48V70.2L180.74 68.68H181.7V84.2ZM178.66 66.36C176.74 66.36 175.14 65.12 175.14 62.96C175.14 60.84 176.74 59.56 178.66 59.56C180.58 59.56 182.18 60.84 182.18 62.96C182.18 65.12 180.58 66.36 178.66 66.36ZM205.995 84.2C205.995 85.76 206.395 86.6 207.875 86.72V88H198.435V86.72C199.915 86.6 200.315 85.76 200.315 84.2V75.72C200.315 72.72 199.275 70.72 196.635 70.72C194.115 70.72 192.755 72.92 192.755 75.6V84.2C192.755 85.76 193.155 86.6 194.635 86.72V88H185.195V86.72C186.675 86.6 187.075 85.76 187.075 84.2V73.96C187.075 72.4 186.675 71.6 185.195 71.48V70.2L191.515 68.68H192.515V71.52C193.955 69.6 196.075 68.68 198.515 68.68C203.795 68.68 205.995 71.92 205.995 76.36V84.2ZM229.123 85.76L229.603 86.64C229.123 87.44 227.723 88.4 226.123 88.4C224.443 88.4 221.883 87.6 221.723 85.24C220.723 87.52 218.483 88.4 216.403 88.4C213.043 88.4 209.603 87.08 209.483 83.4C209.363 78.64 213.283 77.24 217.163 76.88C219.003 76.72 220.443 76.6 221.443 76.48C221.443 75.52 221.443 74.84 221.443 74.84C221.443 71.76 220.843 70.2 218.803 69.96C217.643 69.84 215.923 70.36 216.043 72.2C216.243 74.72 214.443 75.44 213.043 75C211.683 74.52 211.083 73.2 211.843 71.56C212.923 69.2 216.003 68.68 218.643 68.68C222.363 68.68 227.123 70.12 227.123 75.8V84.76C227.123 86.32 228.443 86.4 229.123 85.76ZM218.203 86.32C220.443 86.24 221.443 83.76 221.443 81.04C221.443 79.96 221.443 78.88 221.443 77.92C220.883 77.96 220.163 78.08 219.243 78.2C216.363 78.56 215.163 80.08 215.083 82.64C215.003 85.28 216.443 86.36 218.203 86.32ZM238.38 84.2C238.38 85.76 238.74 86.6 240.26 86.72V88H230.78V86.72C232.3 86.6 232.7 85.76 232.7 84.2V63.76C232.7 62.2 232.3 61.4 230.78 61.28V60L237.38 58.44H238.38V84.2ZM261.092 60C268.052 60 272.372 63.56 272.372 68.84C272.372 74.16 268.052 77.68 261.092 77.68H257.972V84.2C257.972 85.76 258.372 86.6 259.852 86.72V88H250.252V86.72C251.772 86.6 252.172 85.76 252.172 84.2V63.76C252.172 62.2 251.772 61.4 250.252 61.28V60H261.092ZM259.812 75.4C264.332 75.4 266.252 72.44 266.252 68.84C266.252 65.24 264.332 62.32 259.812 62.32H257.972V75.4H259.812ZM281.934 84.2C281.934 85.76 282.334 86.6 283.854 86.72V88H274.374V86.72C275.894 86.6 276.294 85.76 276.294 84.2V73.96C276.294 72.4 275.894 71.6 274.374 71.48V70.2L280.974 68.68H281.934V84.2ZM278.894 66.36C276.974 66.36 275.374 65.12 275.374 62.96C275.374 60.84 276.974 59.56 278.894 59.56C280.814 59.56 282.414 60.84 282.414 62.96C282.414 65.12 280.814 66.36 278.894 66.36ZM297.118 84.64L297.758 85.72C296.918 87.08 295.198 88.4 292.798 88.4C290.038 88.4 287.198 87.32 287.198 82.8V71.08H284.438V69.04C287.958 69.04 290.318 66.48 291.118 63.28C292.238 63.28 292.838 63.28 292.838 63.28V69.04H296.638V71.08H292.838V82.8C292.838 84.12 293.518 84.84 294.358 85.16C295.278 85.48 296.318 85.24 297.118 84.64ZM316.294 82.88L317.054 83.48C315.654 86.16 312.734 88.4 308.974 88.4C303.694 88.4 298.774 84.96 298.774 78.24C298.774 72.16 303.134 68.68 308.894 68.68C312.414 68.68 314.974 69.84 316.134 71.72C317.094 73.28 317.014 75.6 315.054 76.28C313.454 76.88 311.334 75.88 311.534 73.24C311.694 71.24 310.974 69.84 308.814 69.96C306.094 70.16 303.974 73.4 304.374 78.24C305.054 86.2 313.014 86.6 316.294 82.88ZM339.471 84.2C339.471 85.76 339.871 86.6 341.391 86.72V88H331.911V86.72C333.431 86.6 333.791 85.76 333.791 84.2V75.72C333.791 72.72 332.751 70.72 330.111 70.72C327.591 70.72 326.231 72.92 326.231 75.6V84.2C326.231 85.76 326.631 86.6 328.151 86.72V88H318.671V86.72C320.191 86.6 320.591 85.76 320.591 84.2V63.76C320.591 62.2 320.191 61.4 318.671 61.28V60L325.271 58.44H326.231V71.16C327.711 69.48 329.711 68.68 331.991 68.68C337.271 68.68 339.471 71.92 339.471 76.36V84.2ZM350.528 84.2C350.528 85.76 350.928 86.6 352.448 86.72V88H342.968V86.72C344.488 86.6 344.888 85.76 344.888 84.2V73.96C344.888 72.4 344.488 71.6 342.968 71.48V70.2L349.568 68.68H350.528V84.2ZM347.488 66.36C345.568 66.36 343.968 65.12 343.968 62.96C343.968 60.84 345.568 59.56 347.488 59.56C349.408 59.56 351.008 60.84 351.008 62.96C351.008 65.12 349.408 66.36 347.488 66.36ZM374.823 84.2C374.823 85.76 375.223 86.6 376.703 86.72V88H367.263V86.72C368.743 86.6 369.143 85.76 369.143 84.2V75.72C369.143 72.72 368.103 70.72 365.463 70.72C362.943 70.72 361.583 72.92 361.583 75.6V84.2C361.583 85.76 361.983 86.6 363.463 86.72V88H354.023V86.72C355.503 86.6 355.903 85.76 355.903 84.2V73.96C355.903 72.4 355.503 71.6 354.023 71.48V70.2L360.343 68.68H361.343V71.52C362.783 69.6 364.903 68.68 367.343 68.68C372.623 68.68 374.823 71.92 374.823 76.36V84.2ZM388.57 84.56C395.93 84.48 399.57 85.96 399.33 90.52C399.09 95.04 394.77 98.76 388.25 98.76C381.81 98.76 376.89 96.72 377.33 92.44C377.53 90.68 378.93 89.2 381.21 88.24C378.89 87.36 377.61 85.88 378.17 83.88C378.73 82.04 381.09 81.16 383.01 80.8C381.25 79.6 380.13 77.8 380.13 75.44C380.13 71.12 384.01 68.68 388.25 68.68C389.73 68.68 391.17 68.96 392.41 69.52C392.57 68.68 392.81 67.8 393.21 66.92C394.21 64.68 396.93 63.72 398.13 65.6C399.05 67.04 397.81 69.2 395.81 68.88C394.85 68.72 394.13 68.76 393.85 69.28C393.69 69.52 393.61 69.84 393.57 70.2C395.25 71.36 396.37 73.16 396.37 75.44C396.37 79.8 392.45 82.28 388.25 82.28C386.97 82.28 385.69 82.04 384.57 81.6C383.49 81.8 382.01 82.2 381.93 83.08C381.85 84.12 383.13 84.6 388.57 84.56ZM388.25 70.08C386.25 70.08 385.09 72 385.09 75.44C385.09 78.92 386.25 80.84 388.25 80.84C390.21 80.84 391.41 78.92 391.41 75.44C391.41 72 390.21 70.08 388.25 70.08ZM394.89 92.56C395.13 89.44 391.89 89.28 388.05 89.28C386.57 89.28 385.13 89.16 383.85 88.96C382.77 89.68 381.93 90.8 381.89 92.56C381.77 96.28 385.29 97.4 388.49 97.4C391.65 97.4 394.65 95.68 394.89 92.56Z" fill="#E2E6DF"/>
<path d="M168.705 114.28C175.457 114.28 180.609 119.08 180.609 125.8C180.609 132.488 175.457 137.32 168.705 137.32C161.953 137.32 156.769 132.488 156.769 125.8C156.769 119.08 161.953 114.28 168.705 114.28ZM168.705 136.456C173.281 136.456 176.993 132.616 176.993 125.8C176.993 118.952 173.281 115.144 168.705 115.144C164.129 115.144 160.417 118.952 160.417 125.8C160.417 132.616 164.129 136.456 168.705 136.456ZM196.263 133.32L196.711 133.672C195.623 135.816 193.383 137.32 190.567 137.32C186.311 137.32 182.695 134.216 182.695 129.192C182.695 124.424 186.375 121.544 190.503 121.544C193.191 121.544 195.239 122.44 196.199 124.04C196.743 124.968 196.679 126.44 195.463 126.856C194.471 127.208 193.191 126.568 193.287 124.808C193.383 123.176 192.199 122.12 190.407 122.28C188.007 122.504 185.767 125.032 185.991 129.192C186.343 136.264 193.479 136.936 196.263 133.32ZM207.136 134.952L207.552 135.528C206.848 136.52 205.728 137.32 204.128 137.32C201.824 137.32 200.032 136.104 200.032 132.84V122.984H197.664V121.832C200.352 121.832 201.856 120.008 202.368 117.416C202.752 117.416 203.36 117.416 203.36 117.416V121.832H206.656V122.984H203.36V132.84C203.36 134.248 203.808 135.112 204.736 135.4C205.664 135.72 206.496 135.432 207.136 134.952ZM216.223 121.544C220.479 121.544 224.255 124.424 224.255 129.416C224.255 134.408 220.479 137.32 216.223 137.32C211.967 137.32 208.191 134.408 208.191 129.416C208.191 124.424 211.967 121.544 216.223 121.544ZM216.223 136.392C219.103 136.392 220.799 133.576 220.799 129.416C220.799 125.256 219.103 122.44 216.223 122.44C213.343 122.44 211.647 125.256 211.647 129.416C211.647 133.576 213.343 136.392 216.223 136.392ZM236.067 121.544C239.875 121.544 242.979 124.584 242.979 129.416C242.979 134.248 239.875 137.32 236.067 137.32C233.283 137.32 231.555 135.784 230.499 133.928L228.195 137H227.523V117.192C227.523 115.944 227.203 115.4 226.019 115.304V114.6L230.339 113.448H230.883V124.328C231.939 122.728 233.571 121.544 236.067 121.544ZM235.235 136.136C238.051 136.136 239.587 133.288 239.587 129.416C239.587 125.544 238.051 122.696 235.235 122.696C232.419 122.696 230.883 125.32 230.883 129.416C230.883 133.512 232.419 136.136 235.235 136.136ZM259.218 128.712V128.904H248.21C248.21 129 248.21 129.096 248.242 129.192C248.594 136.264 255.794 136.936 258.578 133.32L259.026 133.704C257.938 135.816 255.506 137.32 252.786 137.32C248.562 137.32 244.914 134.216 244.914 129.192C244.914 124.328 248.21 121.544 252.466 121.544C257.106 121.544 259.282 124.776 259.218 128.712ZM252.402 122.248C250.162 122.28 248.466 124.392 248.242 127.752H256.146C256.242 124.904 255.058 122.216 252.402 122.248ZM273.404 123.528C273.66 124.392 273.372 125.544 272.476 125.864C271.42 126.216 270.268 125.832 270.14 124.264C270.012 123.08 269.372 122.856 268.476 123.016C267.196 123.24 265.852 124.968 265.852 127.272V134.408C265.852 135.656 266.172 136.2 267.356 136.296V137H260.988V136.296C262.172 136.2 262.492 135.656 262.492 134.408V125.288C262.492 124.04 262.172 123.464 260.988 123.368V122.664L265.244 121.544H265.756V124.264C266.652 122.504 268.092 121.576 269.948 121.544C271.452 121.512 272.956 122.184 273.404 123.528ZM286.899 134.376C286.899 135.624 287.219 136.2 288.403 136.296V137H282.227V136.296C283.411 136.2 283.731 135.624 283.731 134.376V117.928C283.283 117.928 282.547 117.928 281.811 117.928V117.224L286.323 114.6H286.899V134.376ZM307.508 122.696C307.828 131.56 304.18 137.032 298.772 137.32C295.764 137.48 293.204 135.976 292.436 134.664C291.892 133.736 291.764 132.936 292.116 132.2C292.468 131.464 293.652 131.112 294.516 131.688C294.996 132.008 295.284 132.52 295.156 133.96C295.06 135.336 296.34 136.584 298.836 136.456C301.716 136.296 303.796 133.48 304.276 126.088C303.156 127.72 301.108 128.904 298.836 128.904C294.58 128.904 291.06 126.024 291.156 121.576C291.284 117.064 294.708 114.28 299.06 114.28C303.572 114.28 307.316 117.384 307.508 122.696ZM299.252 127.816C302.324 127.816 304.18 125.512 304.18 121.576C304.18 117.576 302.292 115.112 299.252 115.112C296.244 115.112 294.324 117.576 294.324 121.576C294.324 125.512 296.212 127.816 299.252 127.816ZM312.173 133.544C313.229 133.544 314.061 134.344 314.093 135.688C314.157 138.568 312.397 140.584 311.085 141.608L310.541 141.032C311.949 139.528 312.333 138.6 312.493 137.32C312.461 137.32 312.173 137.32 312.173 137.32C311.117 137.32 310.253 136.648 310.253 135.432C310.253 134.216 311.117 133.544 312.173 133.544ZM337.873 132.136H338.481L337.873 137H323.249V136.2C329.201 130.056 333.713 126.728 334.065 120.68C334.257 117.384 332.945 115.24 330.353 115.144C328.113 115.048 326.993 116.168 326.993 117.608C326.993 118.92 326.865 119.528 326.385 119.88C325.585 120.488 324.305 120.072 323.985 119.4C323.569 118.536 323.953 117.544 324.369 116.904C325.265 115.528 327.313 114.28 330.353 114.28C334.481 114.28 337.905 116.328 337.649 120.68C337.361 126.088 331.633 130.44 326.673 134.536H333.553C336.497 134.536 337.361 133.768 337.873 132.136ZM349.126 114.28C354.182 114.28 357.67 118.856 357.67 125.8C357.67 132.744 354.182 137.32 349.126 137.32C344.038 137.32 340.55 132.744 340.55 125.8C340.55 118.856 344.038 114.28 349.126 114.28ZM349.126 136.456C352.358 136.456 354.31 132.712 354.31 125.8C354.31 118.856 352.358 115.144 349.126 115.144C345.862 115.144 343.942 118.856 343.942 125.8C343.942 132.712 345.862 136.456 349.126 136.456ZM374.06 132.136H374.668L374.06 137H359.436V136.2C365.388 130.056 369.9 126.728 370.252 120.68C370.444 117.384 369.132 115.24 366.54 115.144C364.3 115.048 363.18 116.168 363.18 117.608C363.18 118.92 363.052 119.528 362.572 119.88C361.772 120.488 360.492 120.072 360.172 119.4C359.756 118.536 360.14 117.544 360.556 116.904C361.452 115.528 363.5 114.28 366.54 114.28C370.668 114.28 374.092 116.328 373.836 120.68C373.548 126.088 367.82 130.44 362.86 134.536H369.74C372.684 134.536 373.548 133.768 374.06 132.136ZM393.218 131.432H390.146V134.376C390.146 135.624 390.466 136.2 391.682 136.296V137H385.474V136.296C386.69 136.2 387.01 135.624 387.01 134.376V131.432H376.258V130.28L387.01 114.6H390.146V130.28H393.218V131.432ZM377.666 130.28H387.01V116.712L377.666 130.28Z" fill="#E2E6DF"/>
</svg>
