<svg width="550" height="249" viewBox="0 0 550 249" fill="none" xmlns="http://www.w3.org/2000/svg">
<path d="M5.48558 218.508C2.50088 206.352 1.75135 192.951 1.56312 183.276C5.22318 197.217 17.9107 207.5 33 207.5H517C526.561 207.5 533.958 204.774 539.269 200.187C543.909 196.178 546.923 190.777 548.408 184.61C548.176 194.16 547.364 206.902 544.514 218.508C542.522 226.621 539.545 234.133 535.111 239.608C530.692 245.065 524.828 248.5 517 248.5H33C25.1722 248.5 19.3079 245.065 14.8886 239.608C10.4548 234.133 7.47754 226.621 5.48558 218.508Z" stroke="#2B465B"/>
<rect x="2" y="2" width="546" height="194" rx="30" stroke="#2B465B" stroke-width="4"/>
<rect x="12" y="12" width="526" height="174" rx="32" fill="#2B465B"/>
<path d="M114.337 84.2C114.977 85.68 115.737 86.6 117.217 86.72V88H106.417V86.72C107.977 86.64 108.697 85.68 108.137 84.2L106.257 79.48H95.937L94.177 84.2C93.617 85.76 94.217 86.6 95.737 86.72V88H88.857V86.72C90.337 86.6 91.137 85.72 91.657 84.2L99.057 64.12C99.657 62.56 99.417 61.36 97.817 61.24V60H104.217L114.337 84.2ZM96.777 77.2H105.337L100.937 65.92L96.777 77.2ZM130.976 68.68C136.296 68.68 139.856 72.4 139.856 78.52C139.856 84.64 136.296 88.4 130.976 88.4C127.536 88.4 125.376 86.6 124.016 84.4L120.776 88H119.496V63.76C119.496 62.2 119.096 61.4 117.616 61.28V60L124.176 58.44H125.176V71.12C126.496 69.68 128.376 68.68 130.976 68.68ZM129.696 86.76C132.776 86.76 134.256 83.16 134.256 78.52C134.256 73.88 132.776 70.28 129.696 70.28C126.696 70.28 125.176 73.56 125.176 78.52C125.176 83.48 126.696 86.76 129.696 86.76ZM146.706 72.08C146.426 74.16 148.786 75.08 151.426 76.28C154.426 77.64 158.066 79.32 156.786 83.72C155.946 86.76 152.906 88.4 149.026 88.4C146.546 88.4 143.386 87.68 141.626 86.32V81.48H142.546C143.426 85.28 146.426 87 149.026 87C150.626 87 152.026 86.32 152.306 84.96C152.746 82.88 150.706 82.2 148.146 81.04C144.306 79.28 141.186 77.4 142.386 72.64C143.186 69.52 146.586 68.6 149.466 68.68C151.466 68.72 153.626 69.36 155.386 70.72L155.426 75.04H154.506C153.546 71.44 152.066 70.04 149.466 70.04C148.426 70.04 146.946 70.4 146.706 72.08ZM170.751 84.64L171.391 85.72C170.551 87.08 168.831 88.4 166.431 88.4C163.671 88.4 160.831 87.32 160.831 82.8V71.08H158.071V69.04C161.591 69.04 163.951 66.48 164.751 63.28C165.871 63.28 166.471 63.28 166.471 63.28V69.04H170.271V71.08H166.471V82.8C166.471 84.12 167.151 84.84 167.991 85.16C168.911 85.48 169.951 85.24 170.751 84.64ZM189.367 71.2C189.807 72.28 189.767 74.16 187.967 74.92C186.567 75.52 184.527 74.68 184.247 72.68C184.087 71.48 183.607 71.04 182.887 71.08C181.407 71.2 180.567 72.96 180.567 75.84V84.2C180.567 85.76 180.967 86.6 182.487 86.72V88H173.007V86.72C174.527 86.6 174.927 85.76 174.927 84.2V73.96C174.927 72.4 174.527 71.6 173.007 71.48V70.2L179.367 68.68H180.327V71.48C181.207 69.68 182.647 68.76 184.847 68.68C187.007 68.6 188.647 69.48 189.367 71.2ZM209.084 85.76L209.564 86.64C209.084 87.44 207.684 88.4 206.084 88.4C204.404 88.4 201.844 87.6 201.684 85.24C200.684 87.52 198.444 88.4 196.364 88.4C193.004 88.4 189.564 87.08 189.444 83.4C189.324 78.64 193.244 77.24 197.124 76.88C198.964 76.72 200.404 76.6 201.404 76.48C201.404 75.52 201.404 74.84 201.404 74.84C201.404 71.76 200.804 70.2 198.764 69.96C197.604 69.84 195.884 70.36 196.004 72.2C196.204 74.72 194.404 75.44 193.004 75C191.644 74.52 191.044 73.2 191.804 71.56C192.884 69.2 195.964 68.68 198.604 68.68C202.324 68.68 207.084 70.12 207.084 75.8V84.76C207.084 86.32 208.404 86.4 209.084 85.76ZM198.164 86.32C200.404 86.24 201.404 83.76 201.404 81.04C201.404 79.96 201.404 78.88 201.404 77.92C200.844 77.96 200.124 78.08 199.204 78.2C196.324 78.56 195.124 80.08 195.044 82.64C194.964 85.28 196.404 86.36 198.164 86.32ZM228.052 82.88L228.812 83.48C227.412 86.16 224.492 88.4 220.732 88.4C215.452 88.4 210.532 84.96 210.532 78.24C210.532 72.16 214.892 68.68 220.652 68.68C224.172 68.68 226.732 69.84 227.892 71.72C228.852 73.28 228.772 75.6 226.812 76.28C225.212 76.88 223.092 75.88 223.292 73.24C223.452 71.24 222.732 69.84 220.572 69.96C217.852 70.16 215.732 73.4 216.132 78.24C216.812 86.2 224.772 86.6 228.052 82.88ZM242.509 84.64L243.149 85.72C242.309 87.08 240.589 88.4 238.189 88.4C235.429 88.4 232.589 87.32 232.589 82.8V71.08H229.829V69.04C233.349 69.04 235.709 66.48 236.509 63.28C237.629 63.28 238.229 63.28 238.229 63.28V69.04H242.029V71.08H238.229V82.8C238.229 84.12 238.909 84.84 239.749 85.16C240.669 85.48 241.709 85.24 242.509 84.64ZM265.693 71.16C270.693 74.08 274.493 76.28 272.813 82.32C271.613 86.76 267.373 88.4 262.933 88.4C259.333 88.4 255.773 87.52 253.173 85.68V79.12H254.173C255.613 83.72 258.333 86.68 262.133 86.92C265.533 87.08 267.333 85.32 267.613 82.88C268.013 79.28 265.413 78.36 261.973 76.4C257.933 74.08 252.893 71.08 254.533 64.92C255.533 61.04 259.373 59.6 263.453 59.6C266.653 59.6 268.853 60.52 271.493 62.32L271.533 68.08H270.533C269.293 63.12 267.213 61.24 263.973 61.08C260.893 60.92 259.413 62.6 259.333 64.56C259.213 67.32 262.053 69.04 265.693 71.16ZM295.624 84.2C295.624 85.76 296.024 86.6 297.504 86.72V88H289.944V85.84C288.504 87.56 286.504 88.4 284.224 88.4C278.944 88.4 276.744 85.12 276.744 80.68V73.96C276.744 72.4 276.344 71.6 274.824 71.48V70.2L281.424 68.68H282.384V81.32C282.384 84.32 283.464 86.32 286.104 86.32C288.624 86.32 289.944 84.12 289.944 81.44V73.96C289.944 72.4 289.544 71.6 288.064 71.48V70.2L294.664 68.68H295.624V84.2ZM312.851 68.68C318.171 68.68 321.731 72.4 321.731 78.52C321.731 84.64 318.171 88.4 312.851 88.4C309.411 88.4 307.251 86.6 305.891 84.4L302.651 88H301.371V63.76C301.371 62.2 300.971 61.4 299.491 61.28V60L306.051 58.44H307.051V71.12C308.371 69.68 310.251 68.68 312.851 68.68ZM311.571 86.76C314.651 86.76 316.131 83.16 316.131 78.52C316.131 73.88 314.651 70.28 311.571 70.28C308.571 70.28 307.051 73.56 307.051 78.52C307.051 83.48 308.571 86.76 311.571 86.76ZM356.71 84.2C356.71 85.76 357.11 86.6 358.59 86.72V88H349.15V86.72C350.63 86.6 351.03 85.76 351.03 84.2V75.72C351.03 72.72 350.07 70.72 347.59 70.72C345.27 70.72 343.99 72.92 343.99 75.6C343.99 75.76 343.99 84.2 343.99 84.2C343.99 85.76 344.39 86.6 345.87 86.72V88H336.43V86.72C337.91 86.6 338.31 85.76 338.31 84.2V75.72C338.31 72.72 337.39 70.72 334.87 70.72C332.59 70.72 331.27 72.92 331.27 75.6V84.2C331.27 85.76 331.67 86.6 333.19 86.72V88H323.71V86.72C325.23 86.6 325.63 85.76 325.63 84.2V73.96C325.63 72.4 325.23 71.6 323.71 71.48V70.2L330.03 68.68H331.03V71.4C332.43 69.56 334.39 68.68 336.75 68.68C340.11 68.68 342.15 70.04 343.19 72.24C344.59 69.84 346.75 68.68 349.47 68.68C354.59 68.68 356.71 71.92 356.71 76.36V84.2ZM367.755 84.2C367.755 85.76 368.155 86.6 369.675 86.72V88H360.195V86.72C361.715 86.6 362.115 85.76 362.115 84.2V73.96C362.115 72.4 361.715 71.6 360.195 71.48V70.2L366.795 68.68H367.755V84.2ZM364.715 66.36C362.795 66.36 361.195 65.12 361.195 62.96C361.195 60.84 362.795 59.56 364.715 59.56C366.635 59.56 368.235 60.84 368.235 62.96C368.235 65.12 366.635 66.36 364.715 66.36ZM376.12 72.08C375.84 74.16 378.2 75.08 380.84 76.28C383.84 77.64 387.48 79.32 386.2 83.72C385.36 86.76 382.32 88.4 378.44 88.4C375.96 88.4 372.8 87.68 371.04 86.32V81.48H371.96C372.84 85.28 375.84 87 378.44 87C380.04 87 381.44 86.32 381.72 84.96C382.16 82.88 380.12 82.2 377.56 81.04C373.72 79.28 370.6 77.4 371.8 72.64C372.6 69.52 376 68.6 378.88 68.68C380.88 68.72 383.04 69.36 384.8 70.72L384.84 75.04H383.92C382.96 71.44 381.48 70.04 378.88 70.04C377.84 70.04 376.36 70.4 376.12 72.08ZM392.956 72.08C392.676 74.16 395.036 75.08 397.676 76.28C400.676 77.64 404.316 79.32 403.036 83.72C402.196 86.76 399.156 88.4 395.276 88.4C392.796 88.4 389.636 87.68 387.876 86.32V81.48H388.796C389.676 85.28 392.676 87 395.276 87C396.876 87 398.276 86.32 398.556 84.96C398.996 82.88 396.956 82.2 394.396 81.04C390.556 79.28 387.436 77.4 388.636 72.64C389.436 69.52 392.836 68.6 395.716 68.68C397.716 68.72 399.876 69.36 401.636 70.72L401.676 75.04H400.756C399.796 71.44 398.316 70.04 395.716 70.04C394.676 70.04 393.196 70.4 392.956 72.08ZM412.481 84.2C412.481 85.76 412.881 86.6 414.401 86.72V88H404.921V86.72C406.441 86.6 406.841 85.76 406.841 84.2V73.96C406.841 72.4 406.441 71.6 404.921 71.48V70.2L411.521 68.68H412.481V84.2ZM409.441 66.36C407.521 66.36 405.921 65.12 405.921 62.96C405.921 60.84 407.521 59.56 409.441 59.56C411.361 59.56 412.961 60.84 412.961 62.96C412.961 65.12 411.361 66.36 409.441 66.36ZM426.126 68.68C431.686 68.68 436.486 72.08 436.486 78.52C436.486 84.96 431.686 88.4 426.126 88.4C420.566 88.4 415.766 84.96 415.766 78.52C415.766 72.08 420.566 68.68 426.126 68.68ZM426.126 86.76C429.046 86.76 430.646 83.28 430.646 78.52C430.646 73.76 429.046 70.32 426.126 70.32C423.206 70.32 421.566 73.76 421.566 78.52C421.566 83.28 423.206 86.76 426.126 86.76ZM459.276 84.2C459.276 85.76 459.676 86.6 461.156 86.72V88H451.716V86.72C453.196 86.6 453.596 85.76 453.596 84.2V75.72C453.596 72.72 452.556 70.72 449.916 70.72C447.396 70.72 446.036 72.92 446.036 75.6V84.2C446.036 85.76 446.436 86.6 447.916 86.72V88H438.476V86.72C439.956 86.6 440.356 85.76 440.356 84.2V73.96C440.356 72.4 439.956 71.6 438.476 71.48V70.2L444.796 68.68H445.796V71.52C447.236 69.6 449.356 68.68 451.796 68.68C457.076 68.68 459.276 71.92 459.276 76.36V84.2Z" fill="#E2E6DF"/>
<path d="M164.211 134.376C164.723 135.56 165.235 136.2 166.451 136.296V137H159.251V136.296C160.435 136.2 161.011 135.4 160.563 134.248L158.707 129.768H149.683L147.955 134.376C147.507 135.592 148.019 136.168 149.235 136.296V137H144.371V136.296C145.587 136.168 146.131 135.592 146.579 134.408L153.011 117.192C153.395 116.168 153.171 115.4 152.051 115.304V114.6H155.891L164.211 134.376ZM150.131 128.552H158.227L153.971 118.184L150.131 128.552ZM182.265 134.408C182.265 135.656 182.585 136.2 183.769 136.296V137H178.905V135.176C177.785 136.616 176.185 137.32 174.297 137.32C170.361 137.32 167.961 134.92 167.961 131.272V125.288C167.961 124.04 167.641 123.464 166.457 123.368V122.664L170.777 121.544H171.321V131.592C171.321 134.504 172.665 136.072 175.161 136.072C177.273 136.072 178.905 134.28 178.905 131.88V125.288C178.905 124.04 178.585 123.464 177.401 123.368V122.664L181.721 121.544H182.265V134.408ZM193.354 134.536C199.05 134.536 201.802 135.912 201.674 139.016C201.546 142.632 198.282 145.512 193.098 145.512C188.586 145.512 184.138 143.848 184.458 140.552C184.65 138.984 186.026 137.704 188.202 136.968C186.122 136.36 185.002 135.272 185.322 133.704C185.674 132.136 187.658 131.432 189.162 131.112C187.786 130.216 186.89 128.776 186.89 126.856C186.89 123.432 189.802 121.544 193.066 121.544C194.314 121.544 195.53 121.8 196.554 122.344C196.618 121.576 196.874 120.808 197.258 120.04C197.994 118.664 199.882 118.248 200.522 119.4C201.002 120.36 200.298 121.608 198.954 121.448C198.314 121.384 197.962 121.448 197.642 121.672C197.322 121.896 197.226 122.312 197.194 122.76C198.442 123.656 199.274 125.064 199.274 126.856C199.274 130.28 196.33 132.232 193.066 132.232C192.042 132.232 191.018 132.008 190.122 131.656C189.066 131.816 187.37 132.232 187.306 133.096C187.178 134.344 189.066 134.536 193.354 134.536ZM193.066 122.344C191.274 122.344 189.93 123.912 189.93 126.856C189.93 129.832 191.274 131.4 193.066 131.4C194.89 131.4 196.234 129.832 196.234 126.856C196.234 123.912 194.89 122.344 193.066 122.344ZM199.114 140.616C199.53 138.056 197.258 137.512 192.938 137.512C191.818 137.512 190.762 137.448 189.834 137.32C188.49 137.8 187.21 138.792 187.114 140.648C186.954 143.752 190.474 144.616 193.258 144.616C195.978 144.648 198.666 143.24 199.114 140.616ZM217.827 134.408C217.827 135.656 218.147 136.2 219.331 136.296V137H214.467V135.176C213.347 136.616 211.747 137.32 209.859 137.32C205.923 137.32 203.523 134.92 203.523 131.272V125.288C203.523 124.04 203.203 123.464 202.019 123.368V122.664L206.339 121.544H206.883V131.592C206.883 134.504 208.227 136.072 210.723 136.072C212.835 136.072 214.467 134.28 214.467 131.88V125.288C214.467 124.04 214.147 123.464 212.963 123.368V122.664L217.283 121.544H217.827V134.408ZM228.446 127.88C230.878 129 233.534 130.344 232.67 133.576C232.03 136.04 229.79 137.32 226.686 137.32C224.734 137.32 222.494 136.744 221.086 135.656V132.168H221.598C222.302 135.208 224.606 136.392 226.686 136.456C228.286 136.52 229.63 135.912 229.95 134.536C230.43 132.456 228.318 131.624 226.27 130.696C223.198 129.288 221.086 127.848 221.918 124.584C222.462 122.408 224.798 121.544 227.038 121.544C228.67 121.544 230.334 122.088 231.742 123.176V126.28H231.198C230.462 123.4 229.15 122.28 227.038 122.344C225.918 122.376 224.67 122.792 224.51 124.2C224.286 126.088 226.334 126.92 228.446 127.88ZM243.464 134.952L243.88 135.528C243.176 136.52 242.056 137.32 240.456 137.32C238.152 137.32 236.36 136.104 236.36 132.84V122.984H233.992V121.832C236.68 121.832 238.184 120.008 238.696 117.416C239.08 117.416 239.688 117.416 239.688 117.416V121.832H242.984V122.984H239.688V132.84C239.688 134.248 240.136 135.112 241.064 135.4C241.992 135.72 242.824 135.432 243.464 134.952ZM257.446 134.376C257.446 135.624 257.766 136.2 258.95 136.296V137H252.774V136.296C253.958 136.2 254.278 135.624 254.278 134.376V117.928C253.83 117.928 253.094 117.928 252.358 117.928V117.224L256.87 114.6H257.446V134.376ZM272.487 124.68C275.783 125.96 278.919 127.72 278.471 131.432C278.023 134.856 274.599 137.32 270.087 137.32C265.991 137.32 261.223 134.92 261.735 130.6C262.055 127.592 264.391 126.056 267.207 125.384C263.527 123.72 262.439 121.096 263.111 118.504C263.815 115.688 266.823 114.28 270.087 114.28C273.639 114.28 277.223 116.104 277.287 119.176C277.383 122.024 275.495 123.88 272.487 124.68ZM265.575 118.952C265.383 121.864 268.391 123.08 271.399 124.168C273.447 123.048 274.503 121.704 274.599 119.496C274.695 117.064 272.935 115.144 270.087 115.144C267.495 115.144 265.735 116.424 265.575 118.952ZM270.311 136.456C273.319 136.456 275.431 134.792 275.431 131.816C275.431 128.616 271.911 127.432 268.327 125.96C266.631 126.728 265.063 128.04 264.775 130.76C264.391 134.568 267.559 136.456 270.311 136.456ZM280.956 125.832H292.348V127.048H280.956V125.832ZM302.94 125C307.452 125.576 309.98 127.656 309.98 130.824C309.98 134.76 306.588 137.32 301.756 137.32C298.236 137.32 295.612 135.848 294.716 134.6C294.108 133.736 293.98 132.744 294.332 132.104C294.876 131.176 296.156 130.984 296.86 131.592C297.596 132.2 297.596 133.288 297.564 133.896C297.468 135.336 299.228 136.456 301.756 136.456C304.86 136.456 306.332 134.376 306.332 130.984C306.332 127.688 304.476 125.448 300.124 125.448V124.648C303.068 124.392 304.86 122.632 304.86 119.432C304.86 116.904 303.804 115.144 301.756 115.144C299.484 115.144 298.62 116.232 298.652 117.608C298.652 118.984 298.46 119.56 298.044 119.88C297.116 120.584 295.964 119.944 295.612 119.4C295.26 118.792 295.484 117.704 295.996 116.904C296.828 115.624 298.812 114.28 301.692 114.28C304.988 114.28 308.412 115.976 308.412 119.432C308.412 122.12 306.236 124.264 302.94 125ZM317.946 134.376C317.946 135.624 318.266 136.2 319.45 136.296V137H313.274V136.296C314.458 136.2 314.778 135.624 314.778 134.376V117.928C314.33 117.928 313.594 117.928 312.858 117.928V117.224L317.37 114.6H317.946V134.376ZM324.251 133.544C325.307 133.544 326.139 134.344 326.171 135.688C326.235 138.568 324.475 140.584 323.163 141.608L322.619 141.032C324.027 139.528 324.411 138.6 324.571 137.32C324.539 137.32 324.251 137.32 324.251 137.32C323.195 137.32 322.331 136.648 322.331 135.432C322.331 134.216 323.195 133.544 324.251 133.544ZM349.951 132.136H350.559L349.951 137H335.327V136.2C341.279 130.056 345.791 126.728 346.143 120.68C346.335 117.384 345.023 115.24 342.431 115.144C340.191 115.048 339.071 116.168 339.071 117.608C339.071 118.92 338.943 119.528 338.463 119.88C337.663 120.488 336.383 120.072 336.063 119.4C335.647 118.536 336.031 117.544 336.447 116.904C337.343 115.528 339.391 114.28 342.431 114.28C346.559 114.28 349.983 116.328 349.727 120.68C349.439 126.088 343.711 130.44 338.751 134.536H345.631C348.575 134.536 349.439 133.768 349.951 132.136ZM361.204 114.28C366.26 114.28 369.748 118.856 369.748 125.8C369.748 132.744 366.26 137.32 361.204 137.32C356.116 137.32 352.628 132.744 352.628 125.8C352.628 118.856 356.116 114.28 361.204 114.28ZM361.204 136.456C364.436 136.456 366.388 132.712 366.388 125.8C366.388 118.856 364.436 115.144 361.204 115.144C357.94 115.144 356.02 118.856 356.02 125.8C356.02 132.712 357.94 136.456 361.204 136.456ZM386.138 132.136H386.746L386.138 137H371.514V136.2C377.466 130.056 381.978 126.728 382.33 120.68C382.522 117.384 381.21 115.24 378.618 115.144C376.378 115.048 375.258 116.168 375.258 117.608C375.258 118.92 375.13 119.528 374.65 119.88C373.85 120.488 372.57 120.072 372.25 119.4C371.834 118.536 372.218 117.544 372.634 116.904C373.53 115.528 375.578 114.28 378.618 114.28C382.746 114.28 386.17 116.328 385.914 120.68C385.626 126.088 379.898 130.44 374.938 134.536H381.818C384.762 134.536 385.626 133.768 386.138 132.136ZM405.296 131.432H402.224V134.376C402.224 135.624 402.544 136.2 403.76 136.296V137H397.552V136.296C398.768 136.2 399.088 135.624 399.088 134.376V131.432H388.336V130.28L399.088 114.6H402.224V130.28H405.296V131.432ZM389.744 130.28H399.088V116.712L389.744 130.28Z" fill="#E2E6DF"/>
</svg>
