<svg width="551" height="255" viewBox="0 0 551 255" fill="none" xmlns="http://www.w3.org/2000/svg">
<path d="M4.48558 224.508C1.50088 212.352 0.751348 198.951 0.56312 189.276C4.22318 203.217 16.9107 213.5 32 213.5H516C525.561 213.5 532.958 210.774 538.269 206.187C542.909 202.178 545.923 196.777 547.408 190.61C547.176 200.16 546.364 212.902 543.514 224.508C541.522 232.621 538.545 240.133 534.111 245.608C529.692 251.065 523.828 254.5 516 254.5H32C24.1722 254.5 18.3079 251.065 13.8886 245.608C9.45476 240.133 6.47754 232.621 4.48558 224.508Z" stroke="#2B465B"/>
<rect x="3" y="2" width="546" height="194" rx="30" stroke="#2B465B" stroke-width="4"/>
<rect x="13" y="12" width="526" height="174" rx="32" fill="#2B465B"/>
<path d="M114.868 84.2C115.508 85.68 116.268 86.6 117.748 86.72V88H106.948V86.72C108.508 86.64 109.228 85.68 108.668 84.2L106.788 79.48H96.4683L94.7083 84.2C94.1483 85.76 94.7483 86.6 96.2683 86.72V88H89.3883V86.72C90.8683 86.6 91.6683 85.72 92.1883 84.2L99.5883 64.12C100.188 62.56 99.9483 61.36 98.3483 61.24V60H104.748L114.868 84.2ZM97.3083 77.2H105.868L101.468 65.92L97.3083 77.2ZM131.508 68.68C136.828 68.68 140.388 72.4 140.388 78.52C140.388 84.64 136.828 88.4 131.508 88.4C128.068 88.4 125.908 86.6 124.548 84.4L121.308 88H120.028V63.76C120.028 62.2 119.628 61.4 118.148 61.28V60L124.708 58.44H125.708V71.12C127.028 69.68 128.908 68.68 131.508 68.68ZM130.228 86.76C133.308 86.76 134.788 83.16 134.788 78.52C134.788 73.88 133.308 70.28 130.228 70.28C127.228 70.28 125.708 73.56 125.708 78.52C125.708 83.48 127.228 86.76 130.228 86.76ZM147.237 72.08C146.957 74.16 149.317 75.08 151.957 76.28C154.957 77.64 158.597 79.32 157.317 83.72C156.477 86.76 153.437 88.4 149.557 88.4C147.077 88.4 143.917 87.68 142.157 86.32V81.48H143.077C143.957 85.28 146.957 87 149.557 87C151.157 87 152.557 86.32 152.837 84.96C153.277 82.88 151.237 82.2 148.677 81.04C144.837 79.28 141.717 77.4 142.917 72.64C143.717 69.52 147.117 68.6 149.997 68.68C151.997 68.72 154.157 69.36 155.917 70.72L155.957 75.04H155.037C154.077 71.44 152.597 70.04 149.997 70.04C148.957 70.04 147.477 70.4 147.237 72.08ZM171.282 84.64L171.922 85.72C171.082 87.08 169.362 88.4 166.962 88.4C164.202 88.4 161.362 87.32 161.362 82.8V71.08H158.602V69.04C162.122 69.04 164.482 66.48 165.282 63.28C166.402 63.28 167.002 63.28 167.002 63.28V69.04H170.802V71.08H167.002V82.8C167.002 84.12 167.682 84.84 168.522 85.16C169.442 85.48 170.482 85.24 171.282 84.64ZM189.898 71.2C190.338 72.28 190.298 74.16 188.498 74.92C187.098 75.52 185.058 74.68 184.778 72.68C184.618 71.48 184.138 71.04 183.418 71.08C181.938 71.2 181.098 72.96 181.098 75.84V84.2C181.098 85.76 181.498 86.6 183.018 86.72V88H173.538V86.72C175.058 86.6 175.458 85.76 175.458 84.2V73.96C175.458 72.4 175.058 71.6 173.538 71.48V70.2L179.898 68.68H180.858V71.48C181.738 69.68 183.178 68.76 185.378 68.68C187.538 68.6 189.178 69.48 189.898 71.2ZM209.615 85.76L210.095 86.64C209.615 87.44 208.215 88.4 206.615 88.4C204.935 88.4 202.375 87.6 202.215 85.24C201.215 87.52 198.975 88.4 196.895 88.4C193.535 88.4 190.095 87.08 189.975 83.4C189.855 78.64 193.775 77.24 197.655 76.88C199.495 76.72 200.935 76.6 201.935 76.48C201.935 75.52 201.935 74.84 201.935 74.84C201.935 71.76 201.335 70.2 199.295 69.96C198.135 69.84 196.415 70.36 196.535 72.2C196.735 74.72 194.935 75.44 193.535 75C192.175 74.52 191.575 73.2 192.335 71.56C193.415 69.2 196.495 68.68 199.135 68.68C202.855 68.68 207.615 70.12 207.615 75.8V84.76C207.615 86.32 208.935 86.4 209.615 85.76ZM198.695 86.32C200.935 86.24 201.935 83.76 201.935 81.04C201.935 79.96 201.935 78.88 201.935 77.92C201.375 77.96 200.655 78.08 199.735 78.2C196.855 78.56 195.655 80.08 195.575 82.64C195.495 85.28 196.935 86.36 198.695 86.32ZM228.583 82.88L229.343 83.48C227.943 86.16 225.023 88.4 221.263 88.4C215.983 88.4 211.063 84.96 211.063 78.24C211.063 72.16 215.423 68.68 221.183 68.68C224.703 68.68 227.263 69.84 228.423 71.72C229.383 73.28 229.303 75.6 227.343 76.28C225.743 76.88 223.623 75.88 223.823 73.24C223.983 71.24 223.263 69.84 221.103 69.96C218.383 70.16 216.263 73.4 216.663 78.24C217.343 86.2 225.303 86.6 228.583 82.88ZM243.04 84.64L243.68 85.72C242.84 87.08 241.12 88.4 238.72 88.4C235.96 88.4 233.12 87.32 233.12 82.8V71.08H230.36V69.04C233.88 69.04 236.24 66.48 237.04 63.28C238.16 63.28 238.76 63.28 238.76 63.28V69.04H242.56V71.08H238.76V82.8C238.76 84.12 239.44 84.84 240.28 85.16C241.2 85.48 242.24 85.24 243.04 84.64ZM274.584 80.44H275.584L274.784 88H254.104V86.72C255.624 86.6 255.984 85.76 255.984 84.2V63.76C255.984 62.2 255.624 61.4 254.104 61.24V60H274.024L274.784 67.52H273.784C273.224 65.4 271.904 62.28 268.144 62.28H261.784V72.64H266.024C268.784 72.64 269.304 71.72 269.584 70.04H270.584V77.56H269.584C269.304 75.88 268.784 74.96 266.024 74.96H261.784V85.68H268.944C272.664 85.68 274.024 82.56 274.584 80.44ZM284.81 84.2C284.81 85.76 285.17 86.6 286.69 86.72V88H277.21V86.72C278.73 86.6 279.13 85.76 279.13 84.2V63.76C279.13 62.2 278.73 61.4 277.21 61.28V60L283.81 58.44H284.81V84.2ZM295.825 84.2C295.825 85.76 296.225 86.6 297.745 86.72V88H288.265V86.72C289.785 86.6 290.185 85.76 290.185 84.2V73.96C290.185 72.4 289.785 71.6 288.265 71.48V70.2L294.865 68.68H295.825V84.2ZM292.785 66.36C290.865 66.36 289.265 65.12 289.265 62.96C289.265 60.84 290.865 59.56 292.785 59.56C294.705 59.56 296.305 60.84 296.305 62.96C296.305 65.12 294.705 66.36 292.785 66.36ZM332.32 84.2C332.32 85.76 332.72 86.6 334.2 86.72V88H324.76V86.72C326.24 86.6 326.64 85.76 326.64 84.2V75.72C326.64 72.72 325.68 70.72 323.2 70.72C320.88 70.72 319.6 72.92 319.6 75.6C319.6 75.76 319.6 84.2 319.6 84.2C319.6 85.76 320 86.6 321.48 86.72V88H312.04V86.72C313.52 86.6 313.92 85.76 313.92 84.2V75.72C313.92 72.72 313 70.72 310.48 70.72C308.2 70.72 306.88 72.92 306.88 75.6V84.2C306.88 85.76 307.28 86.6 308.8 86.72V88H299.32V86.72C300.84 86.6 301.24 85.76 301.24 84.2V73.96C301.24 72.4 300.84 71.6 299.32 71.48V70.2L305.64 68.68H306.64V71.4C308.04 69.56 310 68.68 312.36 68.68C315.72 68.68 317.76 70.04 318.8 72.24C320.2 69.84 322.36 68.68 325.08 68.68C330.2 68.68 332.32 71.92 332.32 76.36V84.2ZM343.364 84.2C343.364 85.76 343.764 86.6 345.284 86.72V88H335.804V86.72C337.324 86.6 337.724 85.76 337.724 84.2V73.96C337.724 72.4 337.324 71.6 335.804 71.48V70.2L342.404 68.68H343.364V84.2ZM340.324 66.36C338.404 66.36 336.804 65.12 336.804 62.96C336.804 60.84 338.404 59.56 340.324 59.56C342.244 59.56 343.844 60.84 343.844 62.96C343.844 65.12 342.244 66.36 340.324 66.36ZM367.659 84.2C367.659 85.76 368.059 86.6 369.539 86.72V88H360.099V86.72C361.579 86.6 361.979 85.76 361.979 84.2V75.72C361.979 72.72 360.939 70.72 358.299 70.72C355.779 70.72 354.419 72.92 354.419 75.6V84.2C354.419 85.76 354.819 86.6 356.299 86.72V88H346.859V86.72C348.339 86.6 348.739 85.76 348.739 84.2V73.96C348.739 72.4 348.339 71.6 346.859 71.48V70.2L353.179 68.68H354.179V71.52C355.619 69.6 357.739 68.68 360.179 68.68C365.459 68.68 367.659 71.92 367.659 76.36V84.2ZM382.806 84.64L383.446 85.72C382.606 87.08 380.886 88.4 378.486 88.4C375.726 88.4 372.886 87.32 372.886 82.8V71.08H370.126V69.04C373.646 69.04 376.006 66.48 376.806 63.28C377.926 63.28 378.526 63.28 378.526 63.28V69.04H382.326V71.08H378.526V82.8C378.526 84.12 379.206 84.84 380.046 85.16C380.966 85.48 382.006 85.24 382.806 84.64ZM404.342 85.76L404.822 86.64C404.342 87.44 402.942 88.4 401.342 88.4C399.662 88.4 397.102 87.6 396.942 85.24C395.942 87.52 393.702 88.4 391.622 88.4C388.262 88.4 384.822 87.08 384.702 83.4C384.582 78.64 388.502 77.24 392.382 76.88C394.222 76.72 395.662 76.6 396.662 76.48C396.662 75.52 396.662 74.84 396.662 74.84C396.662 71.76 396.062 70.2 394.022 69.96C392.862 69.84 391.142 70.36 391.262 72.2C391.462 74.72 389.662 75.44 388.262 75C386.902 74.52 386.302 73.2 387.062 71.56C388.142 69.2 391.222 68.68 393.862 68.68C397.582 68.68 402.342 70.12 402.342 75.8V84.76C402.342 86.32 403.662 86.4 404.342 85.76ZM393.422 86.32C395.662 86.24 396.662 83.76 396.662 81.04C396.662 79.96 396.662 78.88 396.662 77.92C396.102 77.96 395.382 78.08 394.462 78.2C391.582 78.56 390.382 80.08 390.302 82.64C390.222 85.28 391.662 86.36 393.422 86.32ZM413.95 84.2C413.95 85.76 414.35 86.6 415.87 86.72V88H406.39V86.72C407.91 86.6 408.31 85.76 408.31 84.2V73.96C408.31 72.4 407.91 71.6 406.39 71.48V70.2L412.99 68.68H413.95V84.2ZM410.91 66.36C408.99 66.36 407.39 65.12 407.39 62.96C407.39 60.84 408.99 59.56 410.91 59.56C412.83 59.56 414.43 60.84 414.43 62.96C414.43 65.12 412.83 66.36 410.91 66.36ZM427.595 68.68C433.155 68.68 437.955 72.08 437.955 78.52C437.955 84.96 433.155 88.4 427.595 88.4C422.035 88.4 417.235 84.96 417.235 78.52C417.235 72.08 422.035 68.68 427.595 68.68ZM427.595 86.76C430.515 86.76 432.115 83.28 432.115 78.52C432.115 73.76 430.515 70.32 427.595 70.32C424.675 70.32 423.035 73.76 423.035 78.52C423.035 83.28 424.675 86.76 427.595 86.76ZM460.745 84.2C460.745 85.76 461.145 86.6 462.625 86.72V88H453.185V86.72C454.665 86.6 455.065 85.76 455.065 84.2V75.72C455.065 72.72 454.025 70.72 451.385 70.72C448.865 70.72 447.505 72.92 447.505 75.6V84.2C447.505 85.76 447.905 86.6 449.385 86.72V88H439.945V86.72C441.425 86.6 441.825 85.76 441.825 84.2V73.96C441.825 72.4 441.425 71.6 439.945 71.48V70.2L446.265 68.68H447.265V71.52C448.705 69.6 450.825 68.68 453.265 68.68C458.545 68.68 460.745 71.92 460.745 76.36V84.2Z" fill="#E2E6DF"/>
<path d="M153.303 123.912C157.303 126.248 160.151 128.136 159.063 132.456C158.103 136.104 154.743 137.32 151.415 137.32C148.503 137.32 146.071 136.52 143.991 135.048V130.536H144.599C145.751 134.216 147.927 136.296 150.967 136.456C154.039 136.616 155.575 135.016 155.927 133C156.471 129.864 153.911 128.488 150.967 126.824C147.735 125 144.247 122.824 145.207 118.536C145.911 115.4 148.599 114.248 151.639 114.248C154.103 114.248 155.927 115.112 158.039 116.52V120.84H157.431C156.471 116.872 154.615 115.24 152.055 115.144C149.559 115.016 148.279 116.296 148.119 118.248C147.863 121.032 150.391 122.216 153.303 123.912ZM175.53 128.712V128.904H164.522C164.522 129 164.522 129.096 164.554 129.192C164.906 136.264 172.106 136.936 174.89 133.32L175.338 133.704C174.25 135.816 171.818 137.32 169.098 137.32C164.874 137.32 161.226 134.216 161.226 129.192C161.226 124.328 164.522 121.544 168.778 121.544C173.418 121.544 175.594 124.776 175.53 128.712ZM168.714 122.248C166.474 122.28 164.778 124.392 164.554 127.752H172.458C172.554 124.904 171.37 122.216 168.714 122.248ZM187.06 121.544C190.868 121.544 193.94 124.584 193.94 129.416C193.94 134.28 190.868 137.32 187.06 137.32C184.564 137.32 182.9 136.104 181.844 134.536V141.64C181.844 142.888 182.164 143.432 183.348 143.528V144.232H176.98V143.528C178.196 143.432 178.516 142.888 178.516 141.64V125.288C178.516 124.04 178.196 123.464 176.98 123.368V122.664L181.332 121.544H181.844V124.328C182.9 122.728 184.564 121.544 187.06 121.544ZM186.228 136.136C189.012 136.136 190.548 133.288 190.548 129.416C190.548 125.544 189.012 122.696 186.228 122.696C183.412 122.696 181.844 125.32 181.844 129.416C181.844 133.512 183.412 136.136 186.228 136.136ZM204.698 134.952L205.114 135.528C204.41 136.52 203.29 137.32 201.69 137.32C199.386 137.32 197.594 136.104 197.594 132.84V122.984H195.226V121.832C197.914 121.832 199.418 120.008 199.93 117.416C200.314 117.416 200.922 117.416 200.922 117.416V121.832H204.218V122.984H200.922V132.84C200.922 134.248 201.37 135.112 202.298 135.4C203.226 135.72 204.058 135.432 204.698 134.952ZM220.218 128.712V128.904H209.21C209.21 129 209.21 129.096 209.242 129.192C209.594 136.264 216.794 136.936 219.578 133.32L220.026 133.704C218.938 135.816 216.506 137.32 213.786 137.32C209.562 137.32 205.914 134.216 205.914 129.192C205.914 124.328 209.21 121.544 213.466 121.544C218.106 121.544 220.282 124.776 220.218 128.712ZM213.402 122.248C211.162 122.28 209.466 124.392 209.242 127.752H217.146C217.242 124.904 216.058 122.216 213.402 122.248ZM247.46 134.376C247.46 135.624 247.78 136.2 248.996 136.296V137H242.596V136.296C243.812 136.2 244.132 135.624 244.132 134.376V127.24C244.132 124.648 243.14 122.76 240.676 122.76C238.532 122.76 237.156 124.552 237.156 126.952C237.156 127.048 237.156 134.376 237.156 134.376C237.156 135.624 237.476 136.2 238.66 136.296V137H232.292V136.296C233.476 136.2 233.796 135.624 233.796 134.376V127.24C233.796 124.648 232.836 122.76 230.372 122.76C228.228 122.76 226.82 124.552 226.82 126.952V134.376C226.82 135.624 227.14 136.2 228.356 136.296V137H221.988V136.296C223.172 136.2 223.492 135.624 223.492 134.376V125.288C223.492 124.04 223.172 123.464 221.988 123.368V122.664L226.212 121.544H226.724V123.816C227.876 122.28 229.54 121.544 231.428 121.544C234.052 121.544 235.748 122.728 236.548 124.552C237.7 122.504 239.556 121.544 241.764 121.544C245.636 121.544 247.46 124.2 247.46 127.56V134.376ZM260.317 121.544C264.125 121.544 267.229 124.584 267.229 129.416C267.229 134.248 264.125 137.32 260.317 137.32C257.533 137.32 255.805 135.784 254.749 133.928L252.445 137H251.773V117.192C251.773 115.944 251.453 115.4 250.269 115.304V114.6L254.589 113.448H255.133V124.328C256.189 122.728 257.821 121.544 260.317 121.544ZM259.485 136.136C262.301 136.136 263.837 133.288 263.837 129.416C263.837 125.544 262.301 122.696 259.485 122.696C256.669 122.696 255.133 125.32 255.133 129.416C255.133 133.512 256.669 136.136 259.485 136.136ZM283.468 128.712V128.904H272.46C272.46 129 272.46 129.096 272.492 129.192C272.844 136.264 280.044 136.936 282.828 133.32L283.276 133.704C282.188 135.816 279.756 137.32 277.036 137.32C272.812 137.32 269.164 134.216 269.164 129.192C269.164 124.328 272.46 121.544 276.716 121.544C281.356 121.544 283.532 124.776 283.468 128.712ZM276.652 122.248C274.412 122.28 272.716 124.392 272.492 127.752H280.396C280.492 124.904 279.308 122.216 276.652 122.248ZM297.654 123.528C297.91 124.392 297.622 125.544 296.726 125.864C295.67 126.216 294.518 125.832 294.39 124.264C294.262 123.08 293.622 122.856 292.726 123.016C291.446 123.24 290.102 124.968 290.102 127.272V134.408C290.102 135.656 290.422 136.2 291.606 136.296V137H285.238V136.296C286.422 136.2 286.742 135.656 286.742 134.408V125.288C286.742 124.04 286.422 123.464 285.238 123.368V122.664L289.494 121.544H290.006V124.264C290.902 122.504 292.342 121.576 294.198 121.544C295.702 121.512 297.206 122.184 297.654 123.528ZM314.733 122.696C319.021 122.696 322.541 125.544 322.445 129.992C322.317 134.44 319.117 137.32 314.541 137.32C309.741 137.32 306.253 134.184 306.093 128.872C305.805 119.848 309.453 114.536 315.053 114.28C318.157 114.152 320.589 115.592 321.357 116.904C321.933 117.864 322.029 118.664 321.677 119.4C321.357 120.136 320.205 120.52 319.277 119.88C318.829 119.56 318.541 119.048 318.637 117.608C318.733 116.232 317.549 114.92 314.957 115.144C311.949 115.368 309.773 118.12 309.293 125.48C310.413 123.88 312.493 122.696 314.733 122.696ZM314.317 136.456C317.357 136.456 319.245 134.024 319.245 129.992C319.245 126.088 317.389 123.752 314.317 123.752C311.277 123.752 309.421 126.088 309.421 129.992C309.421 134.024 311.309 136.456 314.317 136.456ZM327.11 133.544C328.166 133.544 328.998 134.344 329.03 135.688C329.094 138.568 327.334 140.584 326.022 141.608L325.478 141.032C326.886 139.528 327.27 138.6 327.43 137.32C327.398 137.32 327.11 137.32 327.11 137.32C326.054 137.32 325.19 136.648 325.19 135.432C325.19 134.216 326.054 133.544 327.11 133.544ZM352.81 132.136H353.418L352.81 137H338.186V136.2C344.138 130.056 348.65 126.728 349.002 120.68C349.194 117.384 347.882 115.24 345.29 115.144C343.05 115.048 341.93 116.168 341.93 117.608C341.93 118.92 341.802 119.528 341.322 119.88C340.522 120.488 339.242 120.072 338.922 119.4C338.506 118.536 338.89 117.544 339.306 116.904C340.202 115.528 342.25 114.28 345.29 114.28C349.418 114.28 352.842 116.328 352.586 120.68C352.298 126.088 346.57 130.44 341.61 134.536H348.49C351.434 134.536 352.298 133.768 352.81 132.136ZM364.064 114.28C369.12 114.28 372.608 118.856 372.608 125.8C372.608 132.744 369.12 137.32 364.064 137.32C358.976 137.32 355.488 132.744 355.488 125.8C355.488 118.856 358.976 114.28 364.064 114.28ZM364.064 136.456C367.296 136.456 369.248 132.712 369.248 125.8C369.248 118.856 367.296 115.144 364.064 115.144C360.8 115.144 358.88 118.856 358.88 125.8C358.88 132.712 360.8 136.456 364.064 136.456ZM388.998 132.136H389.606L388.998 137H374.374V136.2C380.326 130.056 384.838 126.728 385.19 120.68C385.382 117.384 384.07 115.24 381.478 115.144C379.238 115.048 378.118 116.168 378.118 117.608C378.118 118.92 377.99 119.528 377.51 119.88C376.71 120.488 375.43 120.072 375.11 119.4C374.694 118.536 375.078 117.544 375.494 116.904C376.39 115.528 378.438 114.28 381.478 114.28C385.606 114.28 389.03 116.328 388.774 120.68C388.486 126.088 382.758 130.44 377.798 134.536H384.678C387.622 134.536 388.486 133.768 388.998 132.136ZM408.155 131.432H405.083V134.376C405.083 135.624 405.403 136.2 406.619 136.296V137H400.411V136.296C401.627 136.2 401.947 135.624 401.947 134.376V131.432H391.195V130.28L401.947 114.6H405.083V130.28H408.155V131.432ZM392.603 130.28H401.947V116.712L392.603 130.28Z" fill="#E2E6DF"/>
</svg>
