<svg width="320" height="100" viewBox="0 0 320 100" fill="none" xmlns="http://www.w3.org/2000/svg">
<rect x="2" y="2" width="316" height="96" rx="30" stroke="#2B465B" stroke-width="4"/>
<rect x="12" y="12" width="296" height="76" rx="20" fill="#2B465B"/>
<path d="M46.2558 27.2L46.7358 31.712H46.1118C45.7758 30.44 44.9838 28.568 42.7518 28.568H38.9358V35.096H41.4558C43.1118 35.096 43.4238 34.544 43.5918 33.536H44.1918V38.048H43.5918C43.4238 37.04 43.1118 36.488 41.4558 36.488H38.9358V41.72C38.9358 42.656 39.1758 43.16 40.0638 43.232V44H34.3038V43.232C35.2158 43.16 35.4558 42.656 35.4558 41.72V29.456C35.4558 28.52 35.2158 28.04 34.3038 27.944V27.2H46.2558ZM52.2348 41.72C52.2348 42.656 52.4748 43.16 53.3867 43.232V44H47.6988V43.232C48.6108 43.16 48.8508 42.656 48.8508 41.72V35.576C48.8508 34.64 48.6108 34.16 47.6988 34.088V33.32L51.6588 32.408H52.2348V41.72ZM50.4108 31.016C49.2588 31.016 48.2988 30.272 48.2988 28.976C48.2988 27.704 49.2588 26.936 50.4108 26.936C51.5628 26.936 52.5228 27.704 52.5228 28.976C52.5228 30.272 51.5628 31.016 50.4108 31.016ZM66.8116 41.72C66.8116 42.656 67.0516 43.16 67.9396 43.232V44H62.2756V43.232C63.1636 43.16 63.4036 42.656 63.4036 41.72V36.632C63.4036 34.832 62.7796 33.632 61.1956 33.632C59.6836 33.632 58.8676 34.952 58.8676 36.56V41.72C58.8676 42.656 59.1076 43.16 59.9956 43.232V44H54.3316V43.232C55.2196 43.16 55.4596 42.656 55.4596 41.72V35.576C55.4596 34.64 55.2196 34.16 54.3316 34.088V33.32L58.1236 32.408H58.7236V34.112C59.5876 32.96 60.8596 32.408 62.3236 32.408C65.4916 32.408 66.8116 34.352 66.8116 37.016V41.72ZM80.6886 42.656L80.9766 43.184C80.6886 43.664 79.8486 44.24 78.8886 44.24C77.8806 44.24 76.3446 43.76 76.2486 42.344C75.6486 43.712 74.3046 44.24 73.0566 44.24C71.0406 44.24 68.9766 43.448 68.9046 41.24C68.8326 38.384 71.1846 37.544 73.5126 37.328C74.6166 37.232 75.4806 37.16 76.0806 37.088C76.0806 36.512 76.0806 36.104 76.0806 36.104C76.0806 34.256 75.7206 33.32 74.4966 33.176C73.8006 33.104 72.7686 33.416 72.8406 34.52C72.9606 36.032 71.8806 36.464 71.0406 36.2C70.2246 35.912 69.8646 35.12 70.3206 34.136C70.9686 32.72 72.8166 32.408 74.4006 32.408C76.6326 32.408 79.4886 33.272 79.4886 36.68V42.056C79.4886 42.992 80.2806 43.04 80.6886 42.656ZM74.1366 42.992C75.4806 42.944 76.0806 41.456 76.0806 39.824C76.0806 39.176 76.0806 38.528 76.0806 37.952C75.7446 37.976 75.3126 38.048 74.7606 38.12C73.0326 38.336 72.3126 39.248 72.2646 40.784C72.2166 42.368 73.0806 43.016 74.1366 42.992ZM86.2431 41.72C86.2431 42.656 86.4591 43.16 87.3711 43.232V44H81.6831V43.232C82.5951 43.16 82.8351 42.656 82.8351 41.72V29.456C82.8351 28.52 82.5951 28.04 81.6831 27.968V27.2L85.6431 26.264H86.2431V41.72ZM99.8703 27.2C104.046 27.2 106.638 29.336 106.638 32.504C106.638 35.696 104.046 37.808 99.8703 37.808H97.9983V41.72C97.9983 42.656 98.2383 43.16 99.1263 43.232V44H93.3663V43.232C94.2783 43.16 94.5183 42.656 94.5183 41.72V29.456C94.5183 28.52 94.2783 28.04 93.3663 27.968V27.2H99.8703ZM99.1023 36.44C101.814 36.44 102.966 34.664 102.966 32.504C102.966 30.344 101.814 28.592 99.1023 28.592H97.9983V36.44H99.1023ZM118.446 42.656L118.734 43.184C118.446 43.664 117.606 44.24 116.646 44.24C115.638 44.24 114.102 43.76 114.006 42.344C113.406 43.712 112.062 44.24 110.814 44.24C108.798 44.24 106.734 43.448 106.662 41.24C106.59 38.384 108.942 37.544 111.27 37.328C112.374 37.232 113.238 37.16 113.838 37.088C113.838 36.512 113.838 36.104 113.838 36.104C113.838 34.256 113.478 33.32 112.254 33.176C111.558 33.104 110.526 33.416 110.598 34.52C110.718 36.032 109.638 36.464 108.798 36.2C107.982 35.912 107.622 35.12 108.078 34.136C108.726 32.72 110.574 32.408 112.158 32.408C114.39 32.408 117.246 33.272 117.246 36.68V42.056C117.246 42.992 118.038 43.04 118.446 42.656ZM111.894 42.992C113.238 42.944 113.838 41.456 113.838 39.824C113.838 39.176 113.838 38.528 113.838 37.952C113.502 37.976 113.07 38.048 112.518 38.12C110.79 38.336 110.07 39.248 110.022 40.784C109.974 42.368 110.838 43.016 111.894 42.992ZM127.217 32.408C130.409 32.408 132.377 34.64 132.377 38.312C132.377 41.984 130.409 44.24 127.217 44.24C125.657 44.24 124.529 43.616 123.737 42.752V47.168C123.737 48.104 123.977 48.584 124.865 48.656V49.424H119.201V48.656C120.089 48.584 120.329 48.104 120.329 47.168V35.576C120.329 34.64 120.089 34.16 119.201 34.088V33.32L123.137 32.408H123.737V33.872C124.529 33.008 125.657 32.408 127.217 32.408ZM126.449 43.256C128.297 43.256 129.017 41.096 129.017 38.312C129.017 35.528 128.297 33.368 126.449 33.368C124.649 33.368 123.713 35.336 123.713 38.312C123.713 41.288 124.649 43.256 126.449 43.256ZM144.56 37.784V38.144C136.832 38.144 136.832 38.144 136.832 38.144C137.144 42.872 142.016 43.16 143.984 40.928L144.416 41.288C143.576 42.896 141.848 44.24 139.592 44.24C136.4 44.24 133.448 42.176 133.448 38.144C133.448 34.592 135.92 32.408 139.376 32.408C142.808 32.408 144.608 34.832 144.56 37.784ZM139.328 33.176C137.936 33.224 136.952 34.688 136.808 36.92H141.464C141.488 35.264 141.08 33.128 139.328 33.176ZM155.601 33.92C155.865 34.568 155.841 35.696 154.761 36.152C153.921 36.512 152.697 36.008 152.529 34.808C152.433 34.088 152.145 33.824 151.713 33.848C150.825 33.92 150.321 34.976 150.321 36.704V41.72C150.321 42.656 150.561 43.16 151.473 43.232V44H145.785V43.232C146.697 43.16 146.937 42.656 146.937 41.72V35.576C146.937 34.64 146.697 34.16 145.785 34.088V33.32L149.601 32.408H150.177V34.088C150.705 33.008 151.569 32.456 152.889 32.408C154.185 32.36 155.169 32.888 155.601 33.92ZM169.146 33.896C172.146 35.648 174.426 36.968 173.418 40.592C172.698 43.256 170.154 44.24 167.49 44.24C165.33 44.24 163.194 43.712 161.634 42.608V38.672H162.234C163.098 41.432 164.73 43.208 167.01 43.352C169.05 43.448 170.13 42.392 170.298 40.928C170.538 38.768 168.978 38.216 166.914 37.04C164.49 35.648 161.466 33.848 162.45 30.152C163.05 27.824 165.354 26.96 167.802 26.96C169.722 26.96 171.042 27.512 172.626 28.592L172.65 32.048H172.05C171.306 29.072 170.058 27.944 168.114 27.848C166.266 27.752 165.378 28.76 165.33 29.936C165.258 31.592 166.962 32.624 169.146 33.896ZM187.105 41.72C187.105 42.656 187.345 43.16 188.233 43.232V44H183.697V42.704C182.833 43.736 181.633 44.24 180.265 44.24C177.097 44.24 175.777 42.272 175.777 39.608V35.576C175.777 34.64 175.537 34.16 174.625 34.088V33.32L178.585 32.408H179.161V39.992C179.161 41.792 179.809 42.992 181.393 42.992C182.905 42.992 183.697 41.672 183.697 40.064V35.576C183.697 34.64 183.457 34.16 182.569 34.088V33.32L186.529 32.408H187.105V41.72ZM197.441 32.408C200.633 32.408 202.769 34.64 202.769 38.312C202.769 41.984 200.633 44.24 197.441 44.24C195.377 44.24 194.081 43.16 193.265 41.84L191.321 44H190.553V29.456C190.553 28.52 190.313 28.04 189.425 27.968V27.2L193.361 26.264H193.961V33.872C194.753 33.008 195.881 32.408 197.441 32.408ZM196.673 43.256C198.521 43.256 199.409 41.096 199.409 38.312C199.409 35.528 198.521 33.368 196.673 33.368C194.873 33.368 193.961 35.336 193.961 38.312C193.961 41.288 194.873 43.256 196.673 43.256ZM223.757 41.72C223.757 42.656 223.997 43.16 224.885 43.232V44H219.221V43.232C220.109 43.16 220.349 42.656 220.349 41.72V36.632C220.349 34.832 219.773 33.632 218.285 33.632C216.893 33.632 216.125 34.952 216.125 36.56C216.125 36.656 216.125 41.72 216.125 41.72C216.125 42.656 216.365 43.16 217.253 43.232V44H211.589V43.232C212.477 43.16 212.717 42.656 212.717 41.72V36.632C212.717 34.832 212.165 33.632 210.653 33.632C209.285 33.632 208.493 34.952 208.493 36.56V41.72C208.493 42.656 208.733 43.16 209.645 43.232V44H203.957V43.232C204.869 43.16 205.109 42.656 205.109 41.72V35.576C205.109 34.64 204.869 34.16 203.957 34.088V33.32L207.749 32.408H208.349V34.04C209.189 32.936 210.365 32.408 211.781 32.408C213.797 32.408 215.021 33.224 215.645 34.544C216.485 33.104 217.781 32.408 219.413 32.408C222.485 32.408 223.757 34.352 223.757 37.016V41.72ZM230.383 41.72C230.383 42.656 230.623 43.16 231.535 43.232V44H225.847V43.232C226.759 43.16 226.999 42.656 226.999 41.72V35.576C226.999 34.64 226.759 34.16 225.847 34.088V33.32L229.807 32.408H230.383V41.72ZM228.559 31.016C227.407 31.016 226.447 30.272 226.447 28.976C226.447 27.704 227.407 26.936 228.559 26.936C229.711 26.936 230.671 27.704 230.671 28.976C230.671 30.272 229.711 31.016 228.559 31.016ZM235.402 34.448C235.234 35.696 236.65 36.248 238.234 36.968C240.034 37.784 242.218 38.792 241.45 41.432C240.946 43.256 239.122 44.24 236.794 44.24C235.306 44.24 233.41 43.808 232.354 42.992V40.088H232.906C233.434 42.368 235.234 43.4 236.794 43.4C237.754 43.4 238.594 42.992 238.762 42.176C239.026 40.928 237.802 40.52 236.266 39.824C233.962 38.768 232.09 37.64 232.81 34.784C233.29 32.912 235.33 32.36 237.058 32.408C238.258 32.432 239.554 32.816 240.61 33.632L240.634 36.224H240.082C239.506 34.064 238.618 33.224 237.058 33.224C236.434 33.224 235.546 33.44 235.402 34.448ZM245.504 34.448C245.336 35.696 246.752 36.248 248.336 36.968C250.136 37.784 252.32 38.792 251.552 41.432C251.048 43.256 249.224 44.24 246.896 44.24C245.408 44.24 243.512 43.808 242.456 42.992V40.088H243.008C243.536 42.368 245.336 43.4 246.896 43.4C247.856 43.4 248.696 42.992 248.864 42.176C249.128 40.928 247.904 40.52 246.368 39.824C244.064 38.768 242.192 37.64 242.912 34.784C243.392 32.912 245.432 32.36 247.16 32.408C248.36 32.432 249.656 32.816 250.712 33.632L250.736 36.224H250.184C249.608 34.064 248.72 33.224 247.16 33.224C246.536 33.224 245.648 33.44 245.504 34.448ZM257.219 41.72C257.219 42.656 257.459 43.16 258.371 43.232V44H252.683V43.232C253.595 43.16 253.835 42.656 253.835 41.72V35.576C253.835 34.64 253.595 34.16 252.683 34.088V33.32L256.643 32.408H257.219V41.72ZM255.395 31.016C254.243 31.016 253.283 30.272 253.283 28.976C253.283 27.704 254.243 26.936 255.395 26.936C256.547 26.936 257.507 27.704 257.507 28.976C257.507 30.272 256.547 31.016 255.395 31.016ZM265.406 32.408C268.742 32.408 271.622 34.448 271.622 38.312C271.622 42.176 268.742 44.24 265.406 44.24C262.07 44.24 259.19 42.176 259.19 38.312C259.19 34.448 262.07 32.408 265.406 32.408ZM265.406 43.256C267.158 43.256 268.118 41.168 268.118 38.312C268.118 35.456 267.158 33.392 265.406 33.392C263.654 33.392 262.67 35.456 262.67 38.312C262.67 41.168 263.654 43.256 265.406 43.256ZM285.296 41.72C285.296 42.656 285.536 43.16 286.424 43.232V44H280.76V43.232C281.648 43.16 281.888 42.656 281.888 41.72V36.632C281.888 34.832 281.264 33.632 279.68 33.632C278.168 33.632 277.352 34.952 277.352 36.56V41.72C277.352 42.656 277.592 43.16 278.48 43.232V44H272.816V43.232C273.704 43.16 273.944 42.656 273.944 41.72V35.576C273.944 34.64 273.704 34.16 272.816 34.088V33.32L276.608 32.408H277.208V34.112C278.072 32.96 279.344 32.408 280.808 32.408C283.976 32.408 285.296 34.352 285.296 37.016V41.72Z" fill="#E2E6DF"/>
<path d="M51.9026 64.688C51.5506 67.84 58.6706 67.984 58.0146 71.552C57.6786 73.392 56.1906 74.192 54.2866 74.16C53.0706 74.128 51.3586 73.744 50.3666 73.04V70.928H50.5586C51.0386 72.928 52.7666 73.84 54.2866 73.872C55.5826 73.904 56.7186 73.376 56.9906 72.08C57.6626 68.72 50.2066 69.088 51.0546 64.832C51.3426 63.376 52.5266 62.624 54.1746 62.624C55.3426 62.624 56.4146 63.04 57.4386 63.824V65.824H57.2626C56.7666 63.824 55.6946 62.912 54.1746 62.912C53.0706 62.912 52.0306 63.488 51.9026 64.688ZM66.3038 69.68V69.792H60.5118C60.5118 69.92 60.5118 70.032 60.5118 70.16C60.5278 73.84 64.7038 74.544 66.0638 72.384L66.2558 72.512C65.5998 73.488 64.6398 74.176 63.2798 74.176C61.1678 74.176 59.4078 72.624 59.4078 70.16C59.4078 67.696 61.0398 66.272 63.1518 66.272C65.7118 66.272 66.3038 68.464 66.3038 69.68ZM63.1518 66.496C61.6958 66.496 60.7038 67.568 60.5438 69.504H65.3118C65.2798 68.32 64.9918 66.496 63.1518 66.496ZM71.5589 66.272C73.5909 66.272 75.1109 67.824 75.1109 70.208C75.1109 72.608 73.5909 74.16 71.5589 74.16C70.4229 74.16 69.4629 73.568 68.9189 72.512V76.432C68.9189 77.056 69.0789 77.376 69.6869 77.44V77.632H67.1109V77.44C67.7189 77.376 67.8789 77.056 67.8789 76.432V67.984C67.8789 67.36 67.7189 67.024 67.1109 66.976V66.784L68.7749 66.272H68.9189V67.92C69.4629 66.864 70.4229 66.272 71.5589 66.272ZM71.5589 73.92C73.1109 73.92 74.0069 72.432 74.0069 70.208C74.0069 68 73.1109 66.512 71.5589 66.512C70.0229 66.512 68.9189 67.904 68.9189 70.208C68.9189 72.528 70.0229 73.92 71.5589 73.92ZM80.5258 73.328L80.6218 73.488C80.3818 73.776 79.8538 74.16 79.2298 74.16C78.2378 74.16 77.3418 73.616 77.3418 71.936V66.72H76.0778V66.432C77.4698 66.432 78.0138 65.504 78.1258 64.336C78.1898 64.336 78.3978 64.336 78.3978 64.336V66.432H80.2218V66.72H78.3978V71.936C78.3978 72.848 78.6538 73.376 79.1178 73.6C79.5498 73.792 80.0778 73.712 80.5258 73.328ZM88.1632 69.68V69.792H82.3712C82.3712 69.92 82.3712 70.032 82.3712 70.16C82.3872 73.84 86.5632 74.544 87.9232 72.384L88.1152 72.512C87.4592 73.488 86.4992 74.176 85.1392 74.176C83.0272 74.176 81.2672 72.624 81.2672 70.16C81.2672 67.696 82.8992 66.272 85.0112 66.272C87.5712 66.272 88.1632 68.464 88.1632 69.68ZM85.0112 66.496C83.5552 66.496 82.5632 67.568 82.4032 69.504H87.1712C87.1392 68.32 86.8512 66.496 85.0112 66.496ZM102.327 73.808V74H99.7506V73.808C100.359 73.76 100.519 73.424 100.519 72.8V69.504C100.519 68.016 100.119 66.56 98.4706 66.56C97.2866 66.56 96.3266 67.696 96.3266 68.768C96.3266 68.944 96.3266 72.8 96.3266 72.8C96.3266 73.424 96.4866 73.76 97.0786 73.808V74H94.5186V73.808C95.1106 73.76 95.2706 73.424 95.2706 72.8V69.504C95.2706 68.016 94.8866 66.56 93.2226 66.56C92.0546 66.56 91.0786 67.696 91.0786 68.768V72.8C91.0786 73.424 91.2386 73.76 91.8466 73.808V74H89.2866V73.808C89.8786 73.76 90.0386 73.424 90.0386 72.8V67.984C90.0386 67.36 89.8786 67.024 89.2866 66.976V66.784L90.9506 66.272H91.0786V67.68C91.5746 66.832 92.3426 66.256 93.4466 66.256C94.7266 66.256 95.7346 66.848 96.1346 68.048C96.6946 66.864 97.5586 66.256 98.6946 66.256C100.359 66.256 101.559 67.248 101.559 69.312V72.8C101.559 73.424 101.719 73.76 102.327 73.808ZM107.735 66.272C109.751 66.272 111.271 67.824 111.271 70.224C111.271 72.608 109.751 74.16 107.735 74.16C106.583 74.16 105.623 73.552 105.079 72.512L104.247 74H104.039V64C104.039 63.376 103.879 63.056 103.287 62.992V62.8L104.951 62.288H105.095V67.92C105.639 66.864 106.583 66.272 107.735 66.272ZM107.735 73.92C109.271 73.92 110.167 72.432 110.167 70.224C110.167 68 109.271 66.512 107.735 66.512C106.199 66.512 105.095 67.904 105.095 70.224C105.095 72.528 106.199 73.92 107.735 73.92ZM119.273 69.68V69.792H113.481C113.481 69.92 113.481 70.032 113.481 70.16C113.497 73.84 117.673 74.544 119.033 72.384L119.225 72.512C118.569 73.488 117.609 74.176 116.249 74.176C114.137 74.176 112.377 72.624 112.377 70.16C112.377 67.696 114.009 66.272 116.121 66.272C118.681 66.272 119.273 68.464 119.273 69.68ZM116.121 66.496C114.665 66.496 113.673 67.568 113.513 69.504H118.281C118.249 68.32 117.961 66.496 116.121 66.496ZM125.872 67.072C126.016 67.392 125.984 67.84 125.68 68.016C125.296 68.24 124.816 68 124.8 67.552C124.768 67.008 124.544 66.752 124.096 66.72C123.136 66.656 122.032 67.872 122.032 69.984V72.8C122.032 73.44 122.192 73.76 122.8 73.808V74H120.24V73.808C120.832 73.76 120.992 73.44 120.992 72.8V67.984C120.992 67.36 120.832 67.024 120.24 66.976V66.784L121.904 66.272H122.032V68.4C122.448 67.168 123.216 66.304 124.368 66.272C125.072 66.256 125.648 66.576 125.872 67.072ZM130.292 68.672H135.684V69.024H130.292V68.672ZM146.032 62.64C149.28 62.64 151.92 65.04 151.92 68.4C151.92 71.776 149.28 74.16 146.032 74.16C142.8 74.16 140.16 71.776 140.16 68.4C140.16 65.04 142.8 62.64 146.032 62.64ZM146.032 73.888C148.512 73.888 150.8 71.872 150.8 68.4C150.8 64.944 148.512 62.928 146.032 62.928C143.552 62.928 141.264 64.944 141.264 68.4C141.264 71.872 143.552 73.888 146.032 73.888ZM159.827 72.384L160.019 72.512C159.379 73.488 158.531 74.16 157.155 74.16C155.043 74.16 153.283 72.624 153.283 70.16C153.283 67.696 155.027 66.272 157.139 66.272C158.467 66.272 159.443 66.768 159.827 67.536C160.003 67.856 160.003 68.32 159.603 68.496C159.219 68.64 158.771 68.448 158.803 67.792C158.835 67.056 158.227 66.496 157.187 66.496C155.571 66.496 154.387 67.808 154.387 70.16C154.403 73.84 158.467 74.544 159.827 72.384ZM165.182 73.328L165.278 73.488C165.038 73.776 164.51 74.16 163.886 74.16C162.894 74.16 161.998 73.616 161.998 71.936V66.72H160.734V66.432C162.126 66.432 162.67 65.504 162.782 64.336C162.846 64.336 163.054 64.336 163.054 64.336V66.432H164.878V66.72H163.054V71.936C163.054 72.848 163.31 73.376 163.774 73.6C164.206 73.792 164.734 73.712 165.182 73.328ZM169.856 66.272C171.968 66.272 173.712 67.76 173.712 70.224C173.712 72.672 171.968 74.16 169.856 74.16C167.728 74.16 166 72.672 166 70.224C166 67.76 167.728 66.272 169.856 66.272ZM169.856 73.92C171.472 73.92 172.608 72.512 172.608 70.224C172.608 67.92 171.472 66.512 169.856 66.512C168.24 66.512 167.104 67.92 167.104 70.224C167.104 72.512 168.24 73.92 169.856 73.92ZM179.125 66.272C181.141 66.272 182.661 67.824 182.661 70.224C182.661 72.608 181.141 74.16 179.125 74.16C177.973 74.16 177.013 73.552 176.469 72.512L175.637 74H175.429V64C175.429 63.376 175.269 63.056 174.677 62.992V62.8L176.341 62.288H176.485V67.92C177.029 66.864 177.973 66.272 179.125 66.272ZM179.125 73.92C180.661 73.92 181.557 72.432 181.557 70.224C181.557 68 180.661 66.512 179.125 66.512C177.589 66.512 176.485 67.904 176.485 70.224C176.485 72.528 177.589 73.92 179.125 73.92ZM190.663 69.68V69.792H184.871C184.871 69.92 184.871 70.032 184.871 70.16C184.887 73.84 189.063 74.544 190.423 72.384L190.615 72.512C189.959 73.488 188.999 74.176 187.639 74.176C185.527 74.176 183.767 72.624 183.767 70.16C183.767 67.696 185.399 66.272 187.511 66.272C190.071 66.272 190.663 68.464 190.663 69.68ZM187.511 66.496C186.055 66.496 185.063 67.568 184.903 69.504H189.671C189.639 68.32 189.351 66.496 187.511 66.496ZM197.262 67.072C197.406 67.392 197.374 67.84 197.07 68.016C196.686 68.24 196.206 68 196.19 67.552C196.158 67.008 195.934 66.752 195.486 66.72C194.526 66.656 193.422 67.872 193.422 69.984V72.8C193.422 73.44 193.582 73.76 194.19 73.808V74H191.63V73.808C192.222 73.76 192.382 73.44 192.382 72.8V67.984C192.382 67.36 192.222 67.024 191.63 66.976V66.784L193.294 66.272H193.422V68.4C193.838 67.168 194.606 66.304 195.758 66.272C196.462 66.256 197.038 66.576 197.262 67.072ZM208.515 72.24H208.691L208.483 74H201.603V73.712C204.515 70.64 207.059 68.752 207.219 65.856C207.299 64.208 206.531 62.912 204.947 62.912C203.731 62.896 203.107 63.744 203.075 64.432C203.059 64.656 203.011 64.928 202.819 65.12C202.643 65.28 202.307 65.296 202.099 65.12C201.827 64.88 201.843 64.56 201.987 64.224C202.291 63.52 203.363 62.64 204.947 62.64C207.011 62.64 208.467 63.808 208.291 65.856C208.035 68.704 204.867 70.944 202.243 73.392H206.563C207.891 73.392 208.291 72.96 208.515 72.24ZM213.01 73.808V74H210.466V73.808C211.058 73.76 211.218 73.44 211.218 72.816V64.048C211.122 64.048 210.93 64.048 210.37 64.048V63.856L212.114 62.8H212.242V72.816C212.242 73.44 212.402 73.76 213.01 73.808ZM214.527 68.672H219.919V69.024H214.527V68.672ZM227.859 72.24H228.035L227.827 74H220.947V73.712C223.859 70.64 226.403 68.752 226.563 65.856C226.643 64.208 225.875 62.912 224.291 62.912C223.075 62.896 222.451 63.744 222.419 64.432C222.403 64.656 222.355 64.928 222.163 65.12C221.987 65.28 221.651 65.296 221.443 65.12C221.171 64.88 221.187 64.56 221.331 64.224C221.635 63.52 222.707 62.64 224.291 62.64C226.355 62.64 227.811 63.808 227.635 65.856C227.379 68.704 224.211 70.944 221.587 73.392H225.907C227.235 73.392 227.635 72.96 227.859 72.24ZM230.39 72.608C230.822 72.608 231.174 72.944 231.19 73.504C231.206 74.72 230.326 75.76 229.782 76.176L229.558 75.936C230.198 75.264 230.47 74.672 230.518 74.16H230.39C229.958 74.16 229.59 73.888 229.59 73.392C229.59 72.896 229.958 72.608 230.39 72.608ZM242.843 72.24H243.019L242.811 74H235.931V73.712C238.843 70.64 241.387 68.752 241.547 65.856C241.627 64.208 240.859 62.912 239.275 62.912C238.059 62.896 237.435 63.744 237.403 64.432C237.387 64.656 237.339 64.928 237.147 65.12C236.971 65.28 236.635 65.296 236.427 65.12C236.155 64.88 236.171 64.56 236.315 64.224C236.619 63.52 237.691 62.64 239.275 62.64C241.339 62.64 242.795 63.808 242.619 65.856C242.363 68.704 239.195 70.944 236.571 73.392H240.891C242.219 73.392 242.619 72.96 242.843 72.24ZM248.366 62.64C250.814 62.64 252.446 64.928 252.446 68.4C252.446 71.888 250.814 74.16 248.366 74.16C245.934 74.16 244.302 71.888 244.302 68.4C244.302 64.928 245.934 62.64 248.366 62.64ZM248.366 73.888C250.126 73.888 251.374 72.016 251.374 68.4C251.374 64.8 250.126 62.928 248.366 62.928C246.622 62.928 245.358 64.8 245.358 68.4C245.358 72.016 246.622 73.888 248.366 73.888ZM260.484 72.24H260.66L260.452 74H253.572V73.712C256.484 70.64 259.028 68.752 259.188 65.856C259.268 64.208 258.5 62.912 256.916 62.912C255.7 62.896 255.076 63.744 255.044 64.432C255.028 64.656 254.98 64.928 254.788 65.12C254.612 65.28 254.276 65.296 254.068 65.12C253.796 64.88 253.812 64.56 253.956 64.224C254.26 63.52 255.332 62.64 256.916 62.64C258.98 62.64 260.436 63.808 260.26 65.856C260.004 68.704 256.836 70.944 254.212 73.392H258.532C259.86 73.392 260.26 72.96 260.484 72.24ZM269.707 71.12H268.091V72.816C268.091 73.44 268.251 73.76 268.843 73.808V74H266.299V73.808C266.907 73.76 267.067 73.44 267.067 72.816V71.12H261.547V70.816L267.067 62.8H268.091V70.816H269.707V71.12ZM261.915 70.816H267.067V63.36L261.915 70.816Z" fill="#E2E6DF"/>
</svg>
