<svg width="320" height="100" viewBox="0 0 320 100" fill="none" xmlns="http://www.w3.org/2000/svg">
<rect x="2" y="2" width="316" height="96" rx="30" stroke="#2B465B" stroke-width="4"/>
<rect x="12" y="12" width="296" height="76" rx="20" fill="#2B465B"/>
<path d="M63.321 41.72C63.705 42.608 64.161 43.16 65.049 43.232V44H58.569V43.232C59.505 43.184 59.937 42.608 59.601 41.72L58.473 38.888H52.281L51.225 41.72C50.889 42.656 51.249 43.16 52.161 43.232V44H48.033V43.232C48.921 43.16 49.401 42.632 49.713 41.72L54.153 29.672C54.513 28.736 54.369 28.016 53.409 27.944V27.2H57.249L63.321 41.72ZM52.785 37.52H57.921L55.281 30.752L52.785 37.52ZM73.3046 32.408C76.4966 32.408 78.6326 34.64 78.6326 38.312C78.6326 41.984 76.4966 44.24 73.3046 44.24C71.2406 44.24 69.9446 43.16 69.1286 41.84L67.1846 44H66.4166V29.456C66.4166 28.52 66.1766 28.04 65.2886 27.968V27.2L69.2246 26.264H69.8246V33.872C70.6166 33.008 71.7446 32.408 73.3046 32.408ZM72.5366 43.256C74.3846 43.256 75.2726 41.096 75.2726 38.312C75.2726 35.528 74.3846 33.368 72.5366 33.368C70.7366 33.368 69.8246 35.336 69.8246 38.312C69.8246 41.288 70.7366 43.256 72.5366 43.256ZM82.7422 34.448C82.5742 35.696 83.9902 36.248 85.5742 36.968C87.3742 37.784 89.5582 38.792 88.7902 41.432C88.2862 43.256 86.4622 44.24 84.1342 44.24C82.6462 44.24 80.7502 43.808 79.6942 42.992V40.088H80.2462C80.7742 42.368 82.5742 43.4 84.1342 43.4C85.0942 43.4 85.9342 42.992 86.1022 42.176C86.3662 40.928 85.1422 40.52 83.6062 39.824C81.3022 38.768 79.4302 37.64 80.1502 34.784C80.6302 32.912 82.6702 32.36 84.3982 32.408C85.5982 32.432 86.8942 32.816 87.9502 33.632L87.9742 36.224H87.4222C86.8462 34.064 85.9582 33.224 84.3982 33.224C83.7742 33.224 82.8862 33.44 82.7422 34.448ZM97.1694 41.984L97.5534 42.632C97.0494 43.448 96.0174 44.24 94.5774 44.24C92.9214 44.24 91.2174 43.592 91.2174 40.88V33.848H89.5614V32.624C91.6734 32.624 93.0894 31.088 93.5694 29.168C94.2414 29.168 94.6014 29.168 94.6014 29.168V32.624H96.8814V33.848H94.6014V40.88C94.6014 41.672 95.0094 42.104 95.5134 42.296C96.0654 42.488 96.6894 42.344 97.1694 41.984ZM108.339 33.92C108.603 34.568 108.579 35.696 107.499 36.152C106.659 36.512 105.435 36.008 105.267 34.808C105.171 34.088 104.883 33.824 104.451 33.848C103.563 33.92 103.059 34.976 103.059 36.704V41.72C103.059 42.656 103.299 43.16 104.211 43.232V44H98.523V43.232C99.435 43.16 99.675 42.656 99.675 41.72V35.576C99.675 34.64 99.435 34.16 98.523 34.088V33.32L102.339 32.408H102.915V34.088C103.443 33.008 104.307 32.456 105.627 32.408C106.923 32.36 107.907 32.888 108.339 33.92ZM120.169 42.656L120.457 43.184C120.169 43.664 119.329 44.24 118.369 44.24C117.361 44.24 115.825 43.76 115.729 42.344C115.129 43.712 113.785 44.24 112.537 44.24C110.521 44.24 108.457 43.448 108.385 41.24C108.313 38.384 110.665 37.544 112.993 37.328C114.097 37.232 114.961 37.16 115.561 37.088C115.561 36.512 115.561 36.104 115.561 36.104C115.561 34.256 115.201 33.32 113.977 33.176C113.281 33.104 112.249 33.416 112.321 34.52C112.441 36.032 111.361 36.464 110.521 36.2C109.705 35.912 109.345 35.12 109.801 34.136C110.449 32.72 112.297 32.408 113.881 32.408C116.113 32.408 118.969 33.272 118.969 36.68V42.056C118.969 42.992 119.761 43.04 120.169 42.656ZM113.617 42.992C114.961 42.944 115.561 41.456 115.561 39.824C115.561 39.176 115.561 38.528 115.561 37.952C115.225 37.976 114.793 38.048 114.241 38.12C112.513 38.336 111.793 39.248 111.745 40.784C111.697 42.368 112.561 43.016 113.617 42.992ZM131.55 40.928L132.006 41.288C131.166 42.896 129.414 44.24 127.158 44.24C123.99 44.24 121.038 42.176 121.038 38.144C121.038 34.496 123.654 32.408 127.11 32.408C129.222 32.408 130.758 33.104 131.454 34.232C132.03 35.168 131.982 36.56 130.806 36.968C129.846 37.328 128.574 36.728 128.694 35.144C128.79 33.944 128.358 33.104 127.062 33.176C125.43 33.296 124.158 35.24 124.398 38.144C124.806 42.92 129.582 43.16 131.55 40.928ZM140.224 41.984L140.608 42.632C140.104 43.448 139.072 44.24 137.632 44.24C135.976 44.24 134.272 43.592 134.272 40.88V33.848H132.616V32.624C134.728 32.624 136.144 31.088 136.624 29.168C137.296 29.168 137.656 29.168 137.656 29.168V32.624H139.936V33.848H137.656V40.88C137.656 41.672 138.064 42.104 138.568 42.296C139.12 42.488 139.744 42.344 140.224 41.984ZM159.15 39.464H159.75L159.27 44H146.862V43.232C147.774 43.16 147.99 42.656 147.99 41.72V29.456C147.99 28.52 147.774 28.04 146.862 27.944V27.2H158.814L159.27 31.712H158.67C158.334 30.44 157.542 28.568 155.286 28.568H151.47V34.784H154.014C155.67 34.784 155.982 34.232 156.15 33.224H156.75V37.736H156.15C155.982 36.728 155.67 36.176 154.014 36.176H151.47V42.608H155.766C157.998 42.608 158.814 40.736 159.15 39.464ZM165.286 41.72C165.286 42.656 165.502 43.16 166.414 43.232V44H160.726V43.232C161.638 43.16 161.878 42.656 161.878 41.72V29.456C161.878 28.52 161.638 28.04 160.726 27.968V27.2L164.686 26.264H165.286V41.72ZM171.895 41.72C171.895 42.656 172.135 43.16 173.047 43.232V44H167.359V43.232C168.271 43.16 168.511 42.656 168.511 41.72V35.576C168.511 34.64 168.271 34.16 167.359 34.088V33.32L171.319 32.408H171.895V41.72ZM170.071 31.016C168.919 31.016 167.959 30.272 167.959 28.976C167.959 27.704 168.919 26.936 170.071 26.936C171.223 26.936 172.183 27.704 172.183 28.976C172.183 30.272 171.223 31.016 170.071 31.016ZM193.792 41.72C193.792 42.656 194.032 43.16 194.92 43.232V44H189.256V43.232C190.144 43.16 190.384 42.656 190.384 41.72V36.632C190.384 34.832 189.808 33.632 188.32 33.632C186.928 33.632 186.16 34.952 186.16 36.56C186.16 36.656 186.16 41.72 186.16 41.72C186.16 42.656 186.4 43.16 187.288 43.232V44H181.624V43.232C182.512 43.16 182.752 42.656 182.752 41.72V36.632C182.752 34.832 182.2 33.632 180.688 33.632C179.32 33.632 178.528 34.952 178.528 36.56V41.72C178.528 42.656 178.768 43.16 179.68 43.232V44H173.992V43.232C174.904 43.16 175.144 42.656 175.144 41.72V35.576C175.144 34.64 174.904 34.16 173.992 34.088V33.32L177.784 32.408H178.384V34.04C179.224 32.936 180.4 32.408 181.816 32.408C183.832 32.408 185.056 33.224 185.68 34.544C186.52 33.104 187.816 32.408 189.448 32.408C192.52 32.408 193.792 34.352 193.792 37.016V41.72ZM200.418 41.72C200.418 42.656 200.658 43.16 201.57 43.232V44H195.882V43.232C196.794 43.16 197.034 42.656 197.034 41.72V35.576C197.034 34.64 196.794 34.16 195.882 34.088V33.32L199.842 32.408H200.418V41.72ZM198.594 31.016C197.442 31.016 196.482 30.272 196.482 28.976C196.482 27.704 197.442 26.936 198.594 26.936C199.746 26.936 200.706 27.704 200.706 28.976C200.706 30.272 199.746 31.016 198.594 31.016ZM214.995 41.72C214.995 42.656 215.235 43.16 216.123 43.232V44H210.459V43.232C211.347 43.16 211.587 42.656 211.587 41.72V36.632C211.587 34.832 210.963 33.632 209.379 33.632C207.867 33.632 207.051 34.952 207.051 36.56V41.72C207.051 42.656 207.291 43.16 208.179 43.232V44H202.515V43.232C203.403 43.16 203.643 42.656 203.643 41.72V35.576C203.643 34.64 203.403 34.16 202.515 34.088V33.32L206.307 32.408H206.907V34.112C207.771 32.96 209.043 32.408 210.507 32.408C213.675 32.408 214.995 34.352 214.995 37.016V41.72ZM224.083 41.984L224.467 42.632C223.963 43.448 222.931 44.24 221.491 44.24C219.835 44.24 218.131 43.592 218.131 40.88V33.848H216.475V32.624C218.587 32.624 220.003 31.088 220.483 29.168C221.155 29.168 221.515 29.168 221.515 29.168V32.624H223.795V33.848H221.515V40.88C221.515 41.672 221.923 42.104 222.427 42.296C222.979 42.488 223.603 42.344 224.083 41.984ZM237.005 42.656L237.293 43.184C237.005 43.664 236.165 44.24 235.205 44.24C234.197 44.24 232.661 43.76 232.565 42.344C231.965 43.712 230.621 44.24 229.373 44.24C227.357 44.24 225.293 43.448 225.221 41.24C225.149 38.384 227.501 37.544 229.829 37.328C230.933 37.232 231.797 37.16 232.397 37.088C232.397 36.512 232.397 36.104 232.397 36.104C232.397 34.256 232.037 33.32 230.813 33.176C230.117 33.104 229.085 33.416 229.157 34.52C229.277 36.032 228.197 36.464 227.357 36.2C226.541 35.912 226.181 35.12 226.637 34.136C227.285 32.72 229.133 32.408 230.717 32.408C232.949 32.408 235.805 33.272 235.805 36.68V42.056C235.805 42.992 236.597 43.04 237.005 42.656ZM230.453 42.992C231.797 42.944 232.397 41.456 232.397 39.824C232.397 39.176 232.397 38.528 232.397 37.952C232.061 37.976 231.629 38.048 231.077 38.12C229.349 38.336 228.629 39.248 228.581 40.784C228.533 42.368 229.397 43.016 230.453 42.992ZM242.77 41.72C242.77 42.656 243.01 43.16 243.922 43.232V44H238.234V43.232C239.146 43.16 239.386 42.656 239.386 41.72V35.576C239.386 34.64 239.146 34.16 238.234 34.088V33.32L242.194 32.408H242.77V41.72ZM240.946 31.016C239.794 31.016 238.834 30.272 238.834 28.976C238.834 27.704 239.794 26.936 240.946 26.936C242.098 26.936 243.058 27.704 243.058 28.976C243.058 30.272 242.098 31.016 240.946 31.016ZM250.957 32.408C254.293 32.408 257.173 34.448 257.173 38.312C257.173 42.176 254.293 44.24 250.957 44.24C247.621 44.24 244.741 42.176 244.741 38.312C244.741 34.448 247.621 32.408 250.957 32.408ZM250.957 43.256C252.709 43.256 253.669 41.168 253.669 38.312C253.669 35.456 252.709 33.392 250.957 33.392C249.205 33.392 248.221 35.456 248.221 38.312C248.221 41.168 249.205 43.256 250.957 43.256ZM270.847 41.72C270.847 42.656 271.087 43.16 271.975 43.232V44H266.311V43.232C267.199 43.16 267.439 42.656 267.439 41.72V36.632C267.439 34.832 266.815 33.632 265.231 33.632C263.719 33.632 262.903 34.952 262.903 36.56V41.72C262.903 42.656 263.143 43.16 264.031 43.232V44H258.367V43.232C259.255 43.16 259.495 42.656 259.495 41.72V35.576C259.495 34.64 259.255 34.16 258.367 34.088V33.32L262.159 32.408H262.759V34.112C263.623 32.96 264.895 32.408 266.359 32.408C269.527 32.408 270.847 34.352 270.847 37.016V41.72Z" fill="#E2E6DF"/>
<path d="M96.9729 64.688C96.6209 67.84 103.741 67.984 103.085 71.552C102.749 73.392 101.261 74.192 99.3569 74.16C98.1409 74.128 96.4289 73.744 95.4369 73.04V70.928H95.6289C96.1089 72.928 97.8369 73.84 99.3569 73.872C100.653 73.904 101.789 73.376 102.061 72.08C102.733 68.72 95.2769 69.088 96.1249 64.832C96.4129 63.376 97.5969 62.624 99.2449 62.624C100.413 62.624 101.485 63.04 102.509 63.824V65.824H102.333C101.837 63.824 100.765 62.912 99.2449 62.912C98.1409 62.912 97.1009 63.488 96.9729 64.688ZM111.374 69.68V69.792H105.582C105.582 69.92 105.582 70.032 105.582 70.16C105.598 73.84 109.774 74.544 111.134 72.384L111.326 72.512C110.67 73.488 109.71 74.176 108.35 74.176C106.238 74.176 104.478 72.624 104.478 70.16C104.478 67.696 106.11 66.272 108.222 66.272C110.782 66.272 111.374 68.464 111.374 69.68ZM108.222 66.496C106.766 66.496 105.774 67.568 105.614 69.504H110.382C110.35 68.32 110.062 66.496 108.222 66.496ZM116.629 66.272C118.661 66.272 120.181 67.824 120.181 70.208C120.181 72.608 118.661 74.16 116.629 74.16C115.493 74.16 114.533 73.568 113.989 72.512V76.432C113.989 77.056 114.149 77.376 114.757 77.44V77.632H112.181V77.44C112.789 77.376 112.949 77.056 112.949 76.432V67.984C112.949 67.36 112.789 67.024 112.181 66.976V66.784L113.845 66.272H113.989V67.92C114.533 66.864 115.493 66.272 116.629 66.272ZM116.629 73.92C118.181 73.92 119.077 72.432 119.077 70.208C119.077 68 118.181 66.512 116.629 66.512C115.093 66.512 113.989 67.904 113.989 70.208C113.989 72.528 115.093 73.92 116.629 73.92ZM125.596 73.328L125.692 73.488C125.452 73.776 124.924 74.16 124.3 74.16C123.308 74.16 122.412 73.616 122.412 71.936V66.72H121.148V66.432C122.54 66.432 123.084 65.504 123.196 64.336C123.26 64.336 123.468 64.336 123.468 64.336V66.432H125.292V66.72H123.468V71.936C123.468 72.848 123.724 73.376 124.188 73.6C124.62 73.792 125.148 73.712 125.596 73.328ZM133.234 69.68V69.792H127.442C127.442 69.92 127.442 70.032 127.442 70.16C127.458 73.84 131.634 74.544 132.994 72.384L133.186 72.512C132.53 73.488 131.57 74.176 130.21 74.176C128.098 74.176 126.338 72.624 126.338 70.16C126.338 67.696 127.97 66.272 130.082 66.272C132.642 66.272 133.234 68.464 133.234 69.68ZM130.082 66.496C128.626 66.496 127.634 67.568 127.474 69.504H132.242C132.21 68.32 131.922 66.496 130.082 66.496ZM147.397 73.808V74H144.821V73.808C145.429 73.76 145.589 73.424 145.589 72.8V69.504C145.589 68.016 145.189 66.56 143.541 66.56C142.357 66.56 141.397 67.696 141.397 68.768C141.397 68.944 141.397 72.8 141.397 72.8C141.397 73.424 141.557 73.76 142.149 73.808V74H139.589V73.808C140.181 73.76 140.341 73.424 140.341 72.8V69.504C140.341 68.016 139.957 66.56 138.293 66.56C137.125 66.56 136.149 67.696 136.149 68.768V72.8C136.149 73.424 136.309 73.76 136.917 73.808V74H134.357V73.808C134.949 73.76 135.109 73.424 135.109 72.8V67.984C135.109 67.36 134.949 67.024 134.357 66.976V66.784L136.021 66.272H136.149V67.68C136.645 66.832 137.413 66.256 138.517 66.256C139.797 66.256 140.805 66.848 141.205 68.048C141.765 66.864 142.629 66.256 143.765 66.256C145.429 66.256 146.629 67.248 146.629 69.312V72.8C146.629 73.424 146.789 73.76 147.397 73.808ZM152.805 66.272C154.821 66.272 156.341 67.824 156.341 70.224C156.341 72.608 154.821 74.16 152.805 74.16C151.653 74.16 150.693 73.552 150.149 72.512L149.317 74H149.109V64C149.109 63.376 148.949 63.056 148.357 62.992V62.8L150.021 62.288H150.165V67.92C150.709 66.864 151.653 66.272 152.805 66.272ZM152.805 73.92C154.341 73.92 155.237 72.432 155.237 70.224C155.237 68 154.341 66.512 152.805 66.512C151.269 66.512 150.165 67.904 150.165 70.224C150.165 72.528 151.269 73.92 152.805 73.92ZM164.343 69.68V69.792H158.551C158.551 69.92 158.551 70.032 158.551 70.16C158.567 73.84 162.743 74.544 164.103 72.384L164.295 72.512C163.639 73.488 162.679 74.176 161.319 74.176C159.207 74.176 157.447 72.624 157.447 70.16C157.447 67.696 159.079 66.272 161.191 66.272C163.751 66.272 164.343 68.464 164.343 69.68ZM161.191 66.496C159.735 66.496 158.743 67.568 158.583 69.504H163.351C163.319 68.32 163.031 66.496 161.191 66.496ZM170.942 67.072C171.086 67.392 171.054 67.84 170.75 68.016C170.366 68.24 169.886 68 169.87 67.552C169.838 67.008 169.614 66.752 169.166 66.72C168.206 66.656 167.102 67.872 167.102 69.984V72.8C167.102 73.44 167.262 73.76 167.87 73.808V74H165.31V73.808C165.902 73.76 166.062 73.44 166.062 72.8V67.984C166.062 67.36 165.902 67.024 165.31 66.976V66.784L166.974 66.272H167.102V68.4C167.518 67.168 168.286 66.304 169.438 66.272C170.142 66.256 170.718 66.576 170.942 67.072ZM179.251 66.96C181.299 66.912 182.995 68.288 182.947 70.512C182.883 72.72 181.267 74.16 179.203 74.16C177.187 74.16 175.411 72.64 175.299 70.048C175.107 65.584 176.771 62.768 179.571 62.64C181.123 62.576 182.291 63.312 182.595 64.016C182.739 64.352 182.739 64.672 182.483 64.912C182.275 65.088 181.923 65.072 181.747 64.912C181.571 64.72 181.507 64.448 181.507 64.224C181.459 63.536 180.819 62.816 179.523 62.912C177.827 63.04 176.499 64.704 176.275 68.672C176.979 67.584 178.035 66.976 179.251 66.96ZM179.203 73.888C180.787 73.888 181.907 72.576 181.907 70.512C181.907 68.448 180.787 67.296 179.203 67.296C177.635 67.296 176.339 68.448 176.339 70.512C176.339 72.576 177.635 73.888 179.203 73.888ZM185.32 72.608C185.752 72.608 186.104 72.944 186.12 73.504C186.136 74.72 185.256 75.76 184.712 76.176L184.488 75.936C185.128 75.264 185.4 74.672 185.448 74.16H185.32C184.888 74.16 184.52 73.888 184.52 73.392C184.52 72.896 184.888 72.608 185.32 72.608ZM197.773 72.24H197.949L197.741 74H190.861V73.712C193.773 70.64 196.317 68.752 196.477 65.856C196.557 64.208 195.789 62.912 194.205 62.912C192.989 62.896 192.365 63.744 192.333 64.432C192.317 64.656 192.269 64.928 192.077 65.12C191.901 65.28 191.565 65.296 191.357 65.12C191.085 64.88 191.101 64.56 191.245 64.224C191.549 63.52 192.621 62.64 194.205 62.64C196.269 62.64 197.725 63.808 197.549 65.856C197.293 68.704 194.125 70.944 191.501 73.392H195.821C197.149 73.392 197.549 72.96 197.773 72.24ZM203.296 62.64C205.744 62.64 207.376 64.928 207.376 68.4C207.376 71.888 205.744 74.16 203.296 74.16C200.864 74.16 199.232 71.888 199.232 68.4C199.232 64.928 200.864 62.64 203.296 62.64ZM203.296 73.888C205.056 73.888 206.304 72.016 206.304 68.4C206.304 64.8 205.056 62.928 203.296 62.928C201.552 62.928 200.288 64.8 200.288 68.4C200.288 72.016 201.552 73.888 203.296 73.888ZM215.413 72.24H215.589L215.381 74H208.501V73.712C211.413 70.64 213.957 68.752 214.117 65.856C214.197 64.208 213.429 62.912 211.845 62.912C210.629 62.896 210.005 63.744 209.973 64.432C209.957 64.656 209.909 64.928 209.717 65.12C209.541 65.28 209.205 65.296 208.997 65.12C208.725 64.88 208.741 64.56 208.885 64.224C209.189 63.52 210.261 62.64 211.845 62.64C213.909 62.64 215.365 63.808 215.189 65.856C214.933 68.704 211.765 70.944 209.141 73.392H213.461C214.789 73.392 215.189 72.96 215.413 72.24ZM224.636 71.12H223.02V72.816C223.02 73.44 223.18 73.76 223.772 73.808V74H221.228V73.808C221.836 73.76 221.996 73.44 221.996 72.816V71.12H216.476V70.816L221.996 62.8H223.02V70.816H224.636V71.12ZM216.844 70.816H221.996V63.36L216.844 70.816Z" fill="#E2E6DF"/>
</svg>
