<svg width="320" height="100" viewBox="0 0 320 100" fill="none" xmlns="http://www.w3.org/2000/svg">
<rect x="2" y="2" width="316" height="96" rx="30" stroke="#2B465B" stroke-width="4"/>
<rect x="12" y="12" width="296" height="76" rx="20" fill="#2B465B"/>
<path d="M63.6022 41.72C63.9862 42.608 64.4422 43.16 65.3302 43.232V44H58.8502V43.232C59.7862 43.184 60.2182 42.608 59.8822 41.72L58.7542 38.888H52.5622L51.5062 41.72C51.1702 42.656 51.5302 43.16 52.4422 43.232V44H48.3142V43.232C49.2022 43.16 49.6822 42.632 49.9942 41.72L54.4342 29.672C54.7942 28.736 54.6502 28.016 53.6902 27.944V27.2H57.5302L63.6022 41.72ZM53.0662 37.52H58.2022L55.5622 30.752L53.0662 37.52ZM73.5858 32.408C76.7778 32.408 78.9138 34.64 78.9138 38.312C78.9138 41.984 76.7778 44.24 73.5858 44.24C71.5218 44.24 70.2258 43.16 69.4098 41.84L67.4658 44H66.6978V29.456C66.6978 28.52 66.4578 28.04 65.5698 27.968V27.2L69.5058 26.264H70.1058V33.872C70.8978 33.008 72.0258 32.408 73.5858 32.408ZM72.8178 43.256C74.6658 43.256 75.5538 41.096 75.5538 38.312C75.5538 35.528 74.6658 33.368 72.8178 33.368C71.0178 33.368 70.1058 35.336 70.1058 38.312C70.1058 41.288 71.0178 43.256 72.8178 43.256ZM83.0235 34.448C82.8555 35.696 84.2715 36.248 85.8555 36.968C87.6555 37.784 89.8395 38.792 89.0715 41.432C88.5675 43.256 86.7435 44.24 84.4155 44.24C82.9275 44.24 81.0315 43.808 79.9755 42.992V40.088H80.5275C81.0555 42.368 82.8555 43.4 84.4155 43.4C85.3755 43.4 86.2155 42.992 86.3835 42.176C86.6475 40.928 85.4235 40.52 83.8875 39.824C81.5835 38.768 79.7115 37.64 80.4315 34.784C80.9115 32.912 82.9515 32.36 84.6795 32.408C85.8795 32.432 87.1755 32.816 88.2315 33.632L88.2555 36.224H87.7035C87.1275 34.064 86.2395 33.224 84.6795 33.224C84.0555 33.224 83.1675 33.44 83.0235 34.448ZM97.4507 41.984L97.8347 42.632C97.3307 43.448 96.2987 44.24 94.8587 44.24C93.2027 44.24 91.4987 43.592 91.4987 40.88V33.848H89.8427V32.624C91.9547 32.624 93.3707 31.088 93.8507 29.168C94.5227 29.168 94.8827 29.168 94.8827 29.168V32.624H97.1627V33.848H94.8827V40.88C94.8827 41.672 95.2907 42.104 95.7947 42.296C96.3467 42.488 96.9707 42.344 97.4507 41.984ZM108.62 33.92C108.884 34.568 108.86 35.696 107.78 36.152C106.94 36.512 105.716 36.008 105.548 34.808C105.452 34.088 105.164 33.824 104.732 33.848C103.844 33.92 103.34 34.976 103.34 36.704V41.72C103.34 42.656 103.58 43.16 104.492 43.232V44H98.8042V43.232C99.7162 43.16 99.9562 42.656 99.9562 41.72V35.576C99.9562 34.64 99.7162 34.16 98.8042 34.088V33.32L102.62 32.408H103.196V34.088C103.724 33.008 104.588 32.456 105.908 32.408C107.204 32.36 108.188 32.888 108.62 33.92ZM120.45 42.656L120.738 43.184C120.45 43.664 119.61 44.24 118.65 44.24C117.642 44.24 116.106 43.76 116.01 42.344C115.41 43.712 114.066 44.24 112.818 44.24C110.802 44.24 108.738 43.448 108.666 41.24C108.594 38.384 110.946 37.544 113.274 37.328C114.378 37.232 115.242 37.16 115.842 37.088C115.842 36.512 115.842 36.104 115.842 36.104C115.842 34.256 115.482 33.32 114.258 33.176C113.562 33.104 112.53 33.416 112.602 34.52C112.722 36.032 111.642 36.464 110.802 36.2C109.986 35.912 109.626 35.12 110.082 34.136C110.73 32.72 112.578 32.408 114.162 32.408C116.394 32.408 119.25 33.272 119.25 36.68V42.056C119.25 42.992 120.042 43.04 120.45 42.656ZM113.898 42.992C115.242 42.944 115.842 41.456 115.842 39.824C115.842 39.176 115.842 38.528 115.842 37.952C115.506 37.976 115.074 38.048 114.522 38.12C112.794 38.336 112.074 39.248 112.026 40.784C111.978 42.368 112.842 43.016 113.898 42.992ZM131.831 40.928L132.287 41.288C131.447 42.896 129.695 44.24 127.439 44.24C124.271 44.24 121.319 42.176 121.319 38.144C121.319 34.496 123.935 32.408 127.391 32.408C129.503 32.408 131.039 33.104 131.735 34.232C132.311 35.168 132.263 36.56 131.087 36.968C130.127 37.328 128.855 36.728 128.975 35.144C129.071 33.944 128.639 33.104 127.343 33.176C125.711 33.296 124.439 35.24 124.679 38.144C125.087 42.92 129.863 43.16 131.831 40.928ZM140.505 41.984L140.889 42.632C140.385 43.448 139.353 44.24 137.913 44.24C136.257 44.24 134.553 43.592 134.553 40.88V33.848H132.897V32.624C135.009 32.624 136.425 31.088 136.905 29.168C137.577 29.168 137.937 29.168 137.937 29.168V32.624H140.217V33.848H137.937V40.88C137.937 41.672 138.345 42.104 138.849 42.296C139.401 42.488 140.025 42.344 140.505 41.984ZM154.416 33.896C157.416 35.648 159.696 36.968 158.688 40.592C157.968 43.256 155.424 44.24 152.76 44.24C150.6 44.24 148.464 43.712 146.904 42.608V38.672H147.504C148.368 41.432 150 43.208 152.28 43.352C154.32 43.448 155.4 42.392 155.568 40.928C155.808 38.768 154.248 38.216 152.184 37.04C149.76 35.648 146.736 33.848 147.72 30.152C148.32 27.824 150.624 26.96 153.072 26.96C154.992 26.96 156.312 27.512 157.896 28.592L157.92 32.048H157.32C156.576 29.072 155.328 27.944 153.384 27.848C151.536 27.752 150.648 28.76 150.6 29.936C150.528 31.592 152.232 32.624 154.416 33.896ZM172.375 41.72C172.375 42.656 172.615 43.16 173.503 43.232V44H168.967V42.704C168.103 43.736 166.903 44.24 165.535 44.24C162.367 44.24 161.047 42.272 161.047 39.608V35.576C161.047 34.64 160.807 34.16 159.895 34.088V33.32L163.855 32.408H164.431V39.992C164.431 41.792 165.079 42.992 166.663 42.992C168.175 42.992 168.967 41.672 168.967 40.064V35.576C168.967 34.64 168.727 34.16 167.839 34.088V33.32L171.799 32.408H172.375V41.72ZM182.711 32.408C185.903 32.408 188.039 34.64 188.039 38.312C188.039 41.984 185.903 44.24 182.711 44.24C180.647 44.24 179.351 43.16 178.535 41.84L176.591 44H175.823V29.456C175.823 28.52 175.583 28.04 174.695 27.968V27.2L178.631 26.264H179.231V33.872C180.023 33.008 181.151 32.408 182.711 32.408ZM181.943 43.256C183.791 43.256 184.679 41.096 184.679 38.312C184.679 35.528 183.791 33.368 181.943 33.368C180.143 33.368 179.231 35.336 179.231 38.312C179.231 41.288 180.143 43.256 181.943 43.256ZM209.026 41.72C209.026 42.656 209.266 43.16 210.154 43.232V44H204.49V43.232C205.378 43.16 205.618 42.656 205.618 41.72V36.632C205.618 34.832 205.042 33.632 203.554 33.632C202.162 33.632 201.394 34.952 201.394 36.56C201.394 36.656 201.394 41.72 201.394 41.72C201.394 42.656 201.634 43.16 202.522 43.232V44H196.858V43.232C197.746 43.16 197.986 42.656 197.986 41.72V36.632C197.986 34.832 197.434 33.632 195.922 33.632C194.554 33.632 193.762 34.952 193.762 36.56V41.72C193.762 42.656 194.002 43.16 194.914 43.232V44H189.226V43.232C190.138 43.16 190.378 42.656 190.378 41.72V35.576C190.378 34.64 190.138 34.16 189.226 34.088V33.32L193.018 32.408H193.618V34.04C194.458 32.936 195.634 32.408 197.05 32.408C199.066 32.408 200.29 33.224 200.914 34.544C201.754 33.104 203.05 32.408 204.682 32.408C207.754 32.408 209.026 34.352 209.026 37.016V41.72ZM215.653 41.72C215.653 42.656 215.893 43.16 216.805 43.232V44H211.117V43.232C212.029 43.16 212.269 42.656 212.269 41.72V35.576C212.269 34.64 212.029 34.16 211.117 34.088V33.32L215.077 32.408H215.653V41.72ZM213.829 31.016C212.677 31.016 211.717 30.272 211.717 28.976C211.717 27.704 212.677 26.936 213.829 26.936C214.981 26.936 215.941 27.704 215.941 28.976C215.941 30.272 214.981 31.016 213.829 31.016ZM220.672 34.448C220.504 35.696 221.92 36.248 223.504 36.968C225.304 37.784 227.488 38.792 226.72 41.432C226.216 43.256 224.392 44.24 222.064 44.24C220.576 44.24 218.68 43.808 217.624 42.992V40.088H218.176C218.704 42.368 220.504 43.4 222.064 43.4C223.024 43.4 223.864 42.992 224.032 42.176C224.296 40.928 223.072 40.52 221.536 39.824C219.232 38.768 217.36 37.64 218.08 34.784C218.56 32.912 220.6 32.36 222.328 32.408C223.528 32.432 224.824 32.816 225.88 33.632L225.904 36.224H225.352C224.776 34.064 223.888 33.224 222.328 33.224C221.704 33.224 220.816 33.44 220.672 34.448ZM230.773 34.448C230.605 35.696 232.021 36.248 233.605 36.968C235.405 37.784 237.589 38.792 236.821 41.432C236.317 43.256 234.493 44.24 232.165 44.24C230.677 44.24 228.781 43.808 227.725 42.992V40.088H228.277C228.805 42.368 230.605 43.4 232.165 43.4C233.125 43.4 233.965 42.992 234.133 42.176C234.397 40.928 233.173 40.52 231.637 39.824C229.333 38.768 227.461 37.64 228.181 34.784C228.661 32.912 230.701 32.36 232.429 32.408C233.629 32.432 234.925 32.816 235.981 33.632L236.005 36.224H235.453C234.877 34.064 233.989 33.224 232.429 33.224C231.805 33.224 230.917 33.44 230.773 34.448ZM242.489 41.72C242.489 42.656 242.729 43.16 243.641 43.232V44H237.953V43.232C238.865 43.16 239.105 42.656 239.105 41.72V35.576C239.105 34.64 238.865 34.16 237.953 34.088V33.32L241.913 32.408H242.489V41.72ZM240.665 31.016C239.513 31.016 238.553 30.272 238.553 28.976C238.553 27.704 239.513 26.936 240.665 26.936C241.817 26.936 242.777 27.704 242.777 28.976C242.777 30.272 241.817 31.016 240.665 31.016ZM250.676 32.408C254.012 32.408 256.892 34.448 256.892 38.312C256.892 42.176 254.012 44.24 250.676 44.24C247.34 44.24 244.46 42.176 244.46 38.312C244.46 34.448 247.34 32.408 250.676 32.408ZM250.676 43.256C252.428 43.256 253.388 41.168 253.388 38.312C253.388 35.456 252.428 33.392 250.676 33.392C248.924 33.392 247.94 35.456 247.94 38.312C247.94 41.168 248.924 43.256 250.676 43.256ZM270.565 41.72C270.565 42.656 270.805 43.16 271.693 43.232V44H266.029V43.232C266.917 43.16 267.157 42.656 267.157 41.72V36.632C267.157 34.832 266.533 33.632 264.949 33.632C263.437 33.632 262.621 34.952 262.621 36.56V41.72C262.621 42.656 262.861 43.16 263.749 43.232V44H258.085V43.232C258.973 43.16 259.213 42.656 259.213 41.72V35.576C259.213 34.64 258.973 34.16 258.085 34.088V33.32L261.877 32.408H262.477V34.112C263.341 32.96 264.613 32.408 266.077 32.408C269.245 32.408 270.565 34.352 270.565 37.016V41.72Z" fill="#E2E6DF"/>
<path d="M106.294 72.8C106.518 73.344 106.854 73.76 107.462 73.808V74H104.566V73.808C105.158 73.76 105.446 73.376 105.206 72.8L104.102 70.192H99.2215L98.2135 72.8C97.9735 73.456 98.2615 73.76 98.8535 73.808V74H96.7575V73.808C97.3655 73.76 97.6855 73.344 97.8935 72.8L101.19 64.16C101.446 63.488 101.222 63.072 100.726 63.008V62.8H102.118L106.294 72.8ZM99.3335 69.888H103.974L101.558 64.096H101.542L99.3335 69.888ZM114.785 72.8C114.785 73.44 114.945 73.76 115.553 73.808V74H113.745V72.752C113.265 73.6 112.497 74.16 111.377 74.16C109.665 74.16 108.305 73.232 108.305 71.12V67.984C108.305 67.36 108.145 67.024 107.537 66.976V66.784L109.201 66.272H109.345V71.024C109.345 72.528 109.905 73.888 111.601 73.872C112.769 73.872 113.745 72.736 113.745 71.664V67.984C113.745 67.36 113.585 67.024 112.993 66.976V66.784L114.657 66.272H114.785V72.8ZM120.281 72.944C122.489 72.944 124.233 73.344 124.265 75.024C124.297 76.736 122.857 78.208 120.137 78.208C117.369 78.208 115.865 77.04 115.881 75.792C115.897 74.864 116.745 74.192 118.153 73.888C117.161 73.728 116.297 73.296 116.441 72.256C116.553 71.424 117.657 71.136 118.377 71.04C117.673 70.592 117.209 69.856 117.209 68.896C117.209 67.248 118.537 66.272 120.137 66.272C120.809 66.272 121.417 66.432 121.913 66.736C121.961 66.24 122.137 65.84 122.345 65.552C122.729 65.04 123.273 64.944 123.529 65.312C123.769 65.632 123.481 66.16 122.905 66.128C122.425 66.096 122.153 66.432 122.121 66.88C122.713 67.344 123.081 68.016 123.081 68.896C123.081 70.528 121.753 71.52 120.137 71.52C119.625 71.52 119.145 71.408 118.713 71.216C118.105 71.28 117.017 71.472 116.889 72.032C116.713 72.8 117.785 72.944 120.281 72.944ZM118.249 68.896C118.249 70.352 119.033 71.248 120.137 71.248C121.257 71.248 122.025 70.352 122.025 68.896C122.025 67.424 121.257 66.528 120.137 66.528C119.033 66.528 118.249 67.424 118.249 68.896ZM120.233 77.872C121.497 77.872 123.481 77.328 123.529 75.52C123.593 73.744 120.985 74 119.865 74C119.529 74 119.113 74 118.697 73.952C117.817 74.144 116.873 74.624 116.873 75.824C116.873 77.712 118.969 77.872 120.233 77.872ZM131.691 72.8C131.691 73.44 131.851 73.76 132.459 73.808V74H130.651V72.752C130.171 73.6 129.403 74.16 128.283 74.16C126.571 74.16 125.211 73.232 125.211 71.12V67.984C125.211 67.36 125.051 67.024 124.443 66.976V66.784L126.107 66.272H126.251V71.024C126.251 72.528 126.811 73.888 128.507 73.872C129.675 73.872 130.651 72.736 130.651 71.664V67.984C130.651 67.36 130.491 67.024 129.899 66.976V66.784L131.563 66.272H131.691V72.8ZM136.868 69.664C138.1 70.24 139.412 70.752 139.14 72.288C138.916 73.504 137.812 74.16 136.324 74.16C135.332 74.16 134.196 73.856 133.492 73.328V71.808H133.652C133.988 73.168 135.284 73.904 136.324 73.936C137.348 73.968 138.116 73.472 138.292 72.736C138.58 71.584 137.492 71.2 136.388 70.672C135.108 70.08 133.62 69.328 134.036 67.712C134.26 66.8 135.188 66.272 136.436 66.272C137.252 66.272 138.084 66.544 138.788 67.088V68.496H138.628C138.292 67.12 137.492 66.48 136.436 66.496C135.62 66.496 134.884 66.832 134.82 67.6C134.724 68.592 135.78 69.152 136.868 69.664ZM144.518 73.328L144.614 73.488C144.374 73.776 143.846 74.16 143.222 74.16C142.23 74.16 141.334 73.616 141.334 71.936V66.72H140.07V66.432C141.462 66.432 142.006 65.504 142.118 64.336C142.182 64.336 142.39 64.336 142.39 64.336V66.432H144.214V66.72H142.39V71.936C142.39 72.848 142.646 73.376 143.11 73.6C143.542 73.792 144.07 73.712 144.518 73.328ZM151.815 73.808V74H149.271V73.808C149.863 73.76 150.023 73.44 150.023 72.816V64.048C149.927 64.048 149.735 64.048 149.175 64.048V63.856L150.919 62.8H151.047V72.816C151.047 73.44 151.207 73.76 151.815 73.808ZM158.147 67.76C160.451 68.48 161.539 69.52 161.315 71.296C161.091 72.96 159.731 74.16 157.331 74.16C155.091 74.16 153.251 73.008 153.251 71.024C153.251 69.392 154.579 68.304 156.195 68C154.611 67.296 153.875 66.336 154.051 65.008C154.227 63.552 155.603 62.64 157.331 62.64C159.059 62.64 160.675 63.616 160.723 65.104C160.771 66.576 159.587 67.456 158.147 67.76ZM154.963 65.184C154.995 66.352 156.035 67.056 157.667 67.536C158.867 67.184 159.795 66.464 159.795 65.152C159.795 63.904 158.851 62.928 157.443 62.928C156.019 62.928 154.931 63.76 154.963 65.184ZM160.307 71.408C160.451 69.52 158.707 68.864 156.691 68.256C155.411 68.528 154.451 69.456 154.355 70.88C154.243 72.912 155.971 73.888 157.443 73.888C159.059 73.888 160.179 73.024 160.307 71.408ZM163.019 68.672H168.411V69.024H163.019V68.672ZM173.739 68C175.963 68.288 177.019 69.376 177.019 70.928C177.019 72.88 175.531 74.16 173.259 74.16C171.499 74.16 170.027 73.184 169.723 72.48C169.579 72.144 169.563 71.824 169.835 71.6C170.043 71.408 170.379 71.424 170.555 71.6C170.747 71.776 170.795 72.048 170.811 72.272C170.843 72.96 171.867 73.904 173.259 73.904C174.987 73.904 175.931 72.848 175.931 71.008C175.931 69.248 174.859 68.16 172.507 68.16V67.92C173.963 67.888 175.195 66.944 175.195 65.232C175.195 63.728 174.395 62.912 173.227 62.912C172.075 62.912 171.467 63.744 171.435 64.432C171.419 64.656 171.371 64.928 171.179 65.12C171.003 65.28 170.667 65.296 170.459 65.12C170.187 64.88 170.203 64.56 170.347 64.224C170.651 63.52 171.755 62.64 173.195 62.64C174.811 62.64 176.283 63.584 176.283 65.232C176.283 66.528 175.291 67.616 173.739 68ZM181.331 73.808V74H178.787V73.808C179.379 73.76 179.539 73.44 179.539 72.816V64.048C179.443 64.048 179.251 64.048 178.691 64.048V63.856L180.435 62.8H180.563V72.816C180.563 73.44 180.723 73.76 181.331 73.808ZM183.679 72.608C184.111 72.608 184.463 72.944 184.479 73.504C184.495 74.72 183.615 75.76 183.071 76.176L182.847 75.936C183.487 75.264 183.759 74.672 183.807 74.16H183.679C183.247 74.16 182.879 73.888 182.879 73.392C182.879 72.896 183.247 72.608 183.679 72.608ZM196.132 72.24H196.308L196.1 74H189.22V73.712C192.132 70.64 194.676 68.752 194.836 65.856C194.916 64.208 194.148 62.912 192.564 62.912C191.348 62.896 190.724 63.744 190.692 64.432C190.676 64.656 190.628 64.928 190.436 65.12C190.26 65.28 189.924 65.296 189.716 65.12C189.444 64.88 189.46 64.56 189.604 64.224C189.908 63.52 190.98 62.64 192.564 62.64C194.628 62.64 196.084 63.808 195.908 65.856C195.652 68.704 192.484 70.944 189.86 73.392H194.18C195.508 73.392 195.908 72.96 196.132 72.24ZM201.655 62.64C204.103 62.64 205.735 64.928 205.735 68.4C205.735 71.888 204.103 74.16 201.655 74.16C199.223 74.16 197.591 71.888 197.591 68.4C197.591 64.928 199.223 62.64 201.655 62.64ZM201.655 73.888C203.415 73.888 204.663 72.016 204.663 68.4C204.663 64.8 203.415 62.928 201.655 62.928C199.911 62.928 198.647 64.8 198.647 68.4C198.647 72.016 199.911 73.888 201.655 73.888ZM213.773 72.24H213.949L213.741 74H206.861V73.712C209.773 70.64 212.317 68.752 212.477 65.856C212.557 64.208 211.789 62.912 210.205 62.912C208.989 62.896 208.365 63.744 208.333 64.432C208.317 64.656 208.269 64.928 208.077 65.12C207.901 65.28 207.565 65.296 207.357 65.12C207.085 64.88 207.101 64.56 207.245 64.224C207.549 63.52 208.621 62.64 210.205 62.64C212.269 62.64 213.725 63.808 213.549 65.856C213.293 68.704 210.125 70.944 207.501 73.392H211.821C213.149 73.392 213.549 72.96 213.773 72.24ZM222.996 71.12H221.38V72.816C221.38 73.44 221.54 73.76 222.132 73.808V74H219.588V73.808C220.196 73.76 220.356 73.44 220.356 72.816V71.12H214.836V70.816L220.356 62.8H221.38V70.816H222.996V71.12ZM215.204 70.816H220.356V63.36L215.204 70.816Z" fill="#E2E6DF"/>
</svg>
