<svg width="360" height="1110" viewBox="0 0 360 1110" fill="none" xmlns="http://www.w3.org/2000/svg">
<path d="M-92.5063 40.8018L-122 53.4652V1065.38L-102.338 1070.91L-89.9962 1073.44L-71.1704 1070.91L-39.585 1071.75L-24.106 1080.5H-14.2747L-7.16279 1089.33L2.87762 1080.58L22.9585 1078.51L49.7329 1086.57L67.3036 1084.26L99.3074 1086.57H116.878L134.24 1080.81L156.831 1088.64H165.198L187.161 1091.86L203.268 1088.64L209.124 1074.13L221.047 1068.84L245.73 1066.54H265.602L287.356 1059.17L321.661 1068.84L338.186 1073.21L357.43 1083.34L385.041 1082.19L414.534 1064.69L442.564 1062.62L457.834 1071.37L471.639 1070.22L480.425 1066.54V48.6301L438.799 49.7813L424.784 44.9462L410.979 49.7813L396.755 40.5716L384.413 31.1316L372.072 32.7433L362.659 28.8291L346.134 33.8945L328.563 44.0252H314.549L304.299 50.4721L292.794 45.8672L278.571 47.7091L264.974 56.4584L244.893 62.4447L229.414 58.7608L208.497 60.1423L185.906 52.5443L153.693 57.8399L136.331 50.9326L122.735 55.7677L99.9349 47.9394H85.9202L78.3899 39.8808L48.8962 41.0321L40.1108 35.276L-9.04537 37.5784L-36.8657 22.3823L-51.7171 33.8945L-62.3851 31.8223L-92.5063 40.8018Z" fill="#576589"/>
<g filter="url(#filter0_d_507_703)">
<path d="M482 1066.39V1064.68V1063.46L478.562 1065.06C477.555 1064.98 476.897 1065.01 476.583 1065.15L472.577 1068.58L467.98 1067.14L466.281 1068.46C464.054 1068.09 462.672 1068.14 462.135 1068.62C460.75 1067.96 459.45 1064.86 459.495 1065.48L457.782 1064.42C457.039 1064.75 456.16 1060.34 455.582 1060.15L454.804 1060.6C454.2 1060.27 453.616 1060.22 453.053 1060.47L448.018 1056.31C447.065 1056.3 445.683 1056.34 443.869 1056.44L440.416 1057.68L438.392 1057.16C438.484 1057.54 437.871 1058.1 436.553 1058.82C435.412 1058.57 434.631 1058.5 434.202 1058.59L430.733 1062.51L426.603 1060.59L425.008 1061.27C424.589 1061.26 424.195 1061.24 423.836 1061.21L415.656 1059.18L407.714 1063.01L406.167 1063.75L406.218 1066.66C405.296 1066.7 404.572 1066.65 404.042 1066.51L401.576 1065.56L401.29 1065.7L399.804 1068.41C397.764 1068.07 396.449 1067.92 395.858 1067.96L392.313 1071.57L391.583 1076.85C390.945 1076.71 390.557 1076.69 390.424 1076.77L389.797 1077.47C387.51 1077.73 386.348 1077.79 385.897 1078L385.217 1079.32C385.303 1078.72 381.091 1077.6 372.583 1075.94C371.398 1077.38 368.698 1078.63 364.479 1079.69C363.298 1079.71 359.704 1076.7 358.234 1076.66L351.737 1078L343.416 1071.57L338.106 1069.74L333.517 1064.5C332.793 1064.43 331.945 1064.49 330.97 1064.68C328.19 1064.19 325.62 1064.03 323.26 1064.2L318.32 1066.19L309.695 1057.02C308.97 1057.43 307.589 1057.64 305.555 1057.65C304.364 1057.54 302.541 1056.98 300.082 1055.97L297.938 1056.15L295.256 1056.89C295.015 1056.93 294.777 1056.93 294.542 1056.89C291.088 1055.63 289.249 1054.73 289.024 1054.2C285.767 1054.34 284.23 1054.28 284.405 1054L283.264 1054.8L278.47 1054.32L277.203 1055.11C277.041 1055.13 276.835 1055.12 276.58 1055.07L267.203 1060.81L256.179 1061.58C255.887 1061.64 255.213 1061.63 254.156 1061.55C251.017 1061 249.016 1060.75 248.155 1060.81L236.159 1063.93L225.307 1064.55H215.862L205.167 1073.27L202.018 1087.42L198.816 1085.43C198.816 1085.43 194.591 1088.27 193.726 1090.27L190.505 1089.66L188.898 1089.82C187.081 1089.36 184.682 1089.15 181.702 1089.2L178.081 1088.19C176.886 1088.53 174.132 1088.19 169.815 1087.18C169.17 1087.15 168.179 1087.24 166.838 1087.42C163.363 1085.56 161.358 1084.64 160.825 1084.65C160.669 1084.62 160.456 1084.6 160.183 1084.58L155.462 1087.07L142.935 1079.52C141.928 1079.61 141.038 1079.94 140.263 1080.52C136.95 1080.01 129.945 1079.52 125.682 1081.05L121.278 1080.62L118.761 1085.22C118.262 1085.26 113.912 1081.12 111.535 1080.73C110.973 1080.7 109.54 1080.81 107.237 1081.05L104.318 1082.74L96.1111 1085.22L90.868 1083.23H84.3391C77.4328 1081.65 72.8361 1083.28 66.1204 1080.62C64.7226 1080.55 61.3202 1077.09 60.3354 1077.71L56.5141 1080.62L50.6145 1084.34L36.7955 1076.67C33.6632 1076.74 30.261 1076.45 26.5854 1075.82C26.1884 1076.06 23.7772 1076.3 19.3488 1076.53C16.8963 1074.96 14.4279 1076.41 4.26226 1075.82L1.28888 1077.54L-2.59936 1080.62C-3.22518 1080.5 -6.39261 1084.22 -6.78653 1084.34L-8.71618 1077.51L-12.1943 1074.13C-14.6435 1075.69 -16.9245 1076.53 -19.0307 1076.64L-22.5855 1079.17C-23.9324 1079.26 -30.0385 1069.82 -37.4531 1066.01L-45.9157 1068.94C-45.9157 1068.94 -50.7341 1069.35 -53.3104 1068.16C-57.7897 1069.91 -62.9776 1067.38 -66.6023 1067.18L-74.6362 1067.82L-84.2835 1069.33L-97.5171 1069.4L-102.291 1064.68L-119.156 1061.93H-122V1066.14L-122 1067.36V1069.07L-107.739 1073.81L-88.4445 1077.51L-80.8258 1073.81C-79.3009 1073.77 -75.6481 1079.57 -75.6481 1079.57C-70.3747 1079.17 -65.0598 1078.55 -62.4676 1077.75C-55.5708 1079.09 -52.0637 1079.7 -51.9525 1079.57L-44.4625 1076.01L-37.985 1077.51L-35.3848 1077.75L-33.0778 1082.92L-29.3028 1086.44H-22.5855H-13.5736L-8.71618 1095.02C1.03967 1092.38 6.01848 1085.01 14.1097 1084.34C23.5034 1084.28 25.8463 1084.62 32.3555 1085.22L55.8607 1091.93C57.1283 1092.09 60.2193 1091.31 65.1369 1089.59L73.498 1090.48L75.8552 1090.44C77.2689 1090.38 79.0923 1091.04 80.8014 1090.48C83.1268 1090.97 84.3722 1090.21 85.0584 1090.16L94.8528 1092.29C94.8528 1092.29 105.332 1090.19 106.654 1090.09L118.761 1089.59L128.408 1085.22L132.393 1084.49C135.17 1084.64 142.313 1086.53 144.934 1087.07C151.294 1090.04 155.303 1091.66 156.958 1091.93C158.404 1092.2 163.445 1093.02 165.319 1092.78L174.128 1098.17C175.132 1097.54 181.806 1097.93 187.594 1096.4L193.823 1100L206.215 1093.51L208.942 1080.34L218.589 1073.27L230.01 1075L245.986 1070.53L253.321 1071.08L261.079 1071.55L263.166 1070.97C265.532 1071.14 267.242 1071.18 268.293 1071.08L274.585 1066.19L283.264 1062.78L293.841 1064.42L301.17 1068.54C302.351 1068.42 304.801 1068.53 308.514 1068.89L316.073 1074.09L324.22 1076.69C326.088 1076.76 329.294 1076.5 333.836 1075.91C334.345 1075.88 334.923 1075.9 335.568 1075.96L345.216 1083.1L356.984 1090.14L364.479 1087.67C371.722 1086.31 378.789 1087.96 386.423 1087.67L406.537 1074.13L411.953 1071.08C413.779 1071.16 416.087 1068.96 418.664 1067.96C420.068 1068.05 422.306 1071.11 422.681 1071.08L435.442 1067.96L444.669 1066.51L450.961 1074.13C457.99 1074.13 468.588 1074.25 481.082 1069.24L482 1068.83V1067.61V1066.39Z" fill="#FEFEFE"/>
</g>
<g filter="url(#filter1_d_507_703)">
<path d="M482 51.3359V52.6336L481.716 52.951L477.665 51.0987C476.626 51.1851 475.947 51.1522 475.623 51.0019L470.264 54.2077L465.521 55.7904L463.768 54.3394C461.47 54.7428 460.045 54.6852 459.491 54.1644C458.062 54.8827 457.37 54.9033 457.416 54.2262L455.65 55.3849C454.883 55.0309 454.201 54.9589 453.605 55.1647L452.802 54.6687C452.179 55.035 451.576 55.0844 450.996 54.8169L446.45 55.9468C445.467 55.9592 444.041 55.9139 442.17 55.8089L438.607 54.4444L436.52 55.0124C436.615 54.5925 435.982 53.9833 434.622 53.1909C433.445 53.4585 432.639 53.5449 432.197 53.4441L428.618 49.1261L424.357 51.2357L422.712 50.4968C422.279 50.503 420.329 53.158 419.959 53.1909L415.499 54.2776L407.306 50.0728L405.71 49.2537L405.762 46.0512C404.812 46.0141 404.064 46.0697 403.517 46.2199L400.974 47.2655L400.679 47.1111L399.145 44.1268C397.041 44.5034 395.684 44.6702 395.074 44.629L391.417 40.6506L390.664 34.8507C390.006 34.9968 389.606 35.0256 389.468 34.9392L388.821 34.1682C386.462 33.8752 385.263 33.8113 384.798 33.5788L384.096 32.1298C384.185 32.7843 379.839 34.0213 371.062 35.8448C369.84 34.26 367.054 32.8852 362.702 31.7244C361.483 31.6997 357.775 35.0092 356.258 35.0503L349.556 33.5767L340.971 40.6506L335.493 42.6654L330.759 48.4325C330.012 48.5024 329.137 48.4345 328.131 48.2287C325.263 48.7679 322.611 48.947 320.176 48.7618L315.08 46.5739L306.182 56.6509C305.435 56.2023 304.009 55.9697 301.911 55.9574C300.682 56.0808 297.592 48.2299 295.055 49.3433L292.843 49.1478L290.524 48.2753L289.786 48.2691C289.786 48.2691 286.352 49.7692 286.12 50.3516C286.12 50.3516 282.374 49.0408 282.554 49.3433L278.081 54.7078H274.288L269.82 60.304L260.279 63.4179L255.739 66.177L251.781 66.148C251.479 66.0842 250.784 66.0945 249.693 66.1768C246.455 66.7861 244.39 67.0577 243.502 66.9898L231.126 63.565L225.3 65.4709L219.931 62.8776L210.315 65.4709L200.596 63.565C200.596 63.565 196.642 63.2903 194.217 61.228L190.913 63.4179C188.305 62.0739 186.554 60.2998 185.663 58.0955L182.34 58.7624L180.681 58.5936C178.806 59.0999 176.332 59.3242 173.258 59.2687L169.522 60.3821C168.289 60.0137 165.448 60.3862 160.994 61.4997C160.329 61.5223 159.306 61.4338 157.923 61.2342C154.338 63.2718 152.269 64.2864 151.719 64.2823C151.558 64.305 151.339 64.3276 151.057 64.3502L146.552 59.2687L135.845 57.0851C134.806 56.9883 133.888 56.622 133.088 55.9881C129.67 56.5417 120.648 61.1705 116.25 59.4787L110.403 60.7445L108.312 59.4787C107.797 59.4293 106.224 52.804 103.773 53.2404C103.192 53.2671 101.714 53.1457 99.3382 52.8781L96.3263 51.0217C90.6761 52.8143 88.0575 53.0222 88.4671 51.6453L83.3019 53.1148L78.8121 41.4623C71.687 43.2035 54.3634 40.9637 54.3634 40.9637C52.9214 41.0398 49.4112 44.8554 48.3952 44.1659L44.4529 40.9637L38.3665 36.8739L21.3437 40.1719C18.1122 40.0958 14.6021 40.4065 10.8101 41.1063C10.4005 40.8408 7.91292 40.5794 3.34424 40.3242C0.814095 42.0469 -1.73247 40.4601 -12.2201 41.1063L-15.2876 39.2131L-19.299 35.8212C-19.9447 35.9591 -23.2124 31.8714 -23.6188 31.7314L-24.7791 29.5539L-27.1125 29.3666C-29.6394 27.6522 -31.9926 26.7342 -34.1655 26.6128L-37.8329 23.8302C-39.2225 23.7273 -45.522 34.1066 -53.1714 38.2991L-61.9021 35.076C-61.9021 35.076 -67.7389 39.0391 -70.3968 40.3502C-75.018 38.4237 -80.3702 41.2113 -84.1097 41.4253L-88.5663 44.7822H-97.5328L-109.331 50.3124L-114.256 55.499L-122 59.9008L-122 57.3054L-122 55.7482L-122 54.1909L-122 50.2978L-118.583 47.3108L-102.752 37.5778H-96.4024C-94.8292 37.6211 -91.0607 31.2469 -91.0607 31.2469C-85.6203 31.6812 -83.9688 28.3017 -81.2944 29.1888C-74.1792 27.711 -70.561 27.0442 -70.4463 27.1882L-61.8532 26.686L-55.1706 25.0313L-53.1714 27.4393L-46.3782 23.4972L-41.6588 17.6371L-36.4676 15C-36.4676 15 -32.2528 15.1642 -31.8319 15.1642L-5.79308 31.7467C3.89816 31.8208 12.1015 31.5286 18.8168 30.8699L42.2125 28.55L51.2306 35.8212L66.75 34.5195L69.1818 34.5607L74.1515 36.5416C76.5506 36.0085 78.1042 35.7677 78.8121 35.8212L86.2056 42.3732C93.0455 41.3791 97.1488 40.9366 98.5122 41.0478L121.395 53.2712L124.214 53.2404C127.078 53.0675 135.169 43.3119 137.873 42.715C137.873 42.715 145.988 50.5024 147.695 50.206C149.187 49.9096 151.649 52.3218 153.583 52.5831L165.949 50.206C166.984 50.8913 172.907 50.4629 178.879 52.1464L185.305 48.189L196.358 52.5831L208.313 57.0851L224.252 55.385L240.734 60.304L248.302 59.701L256.734 56.3174H261.51C263.951 56.126 269.346 48.4917 270.431 48.6008L276.053 46.5739L291.348 39.1196L298.605 43.0523C299.824 43.1861 306.182 46.5739 306.182 46.5739C306.182 46.5739 311.355 40.6794 312.545 40.6506L323.031 39.1196C324.958 39.0476 330.759 34.8507 330.759 34.8507C331.283 34.8795 331.88 34.861 332.545 34.791L343.213 28.2449H355.118L362.702 20.5042L372.945 25.6951L385.725 23.2127L397.272 35.8448H405.71L412.372 46.0512C414.257 45.9627 418.454 41.7867 418.454 41.7867C419.903 41.6838 425.375 39.069 422.365 39.1996L434.622 44.1268L451.8 46.1989L471.724 46.0512L480.23 40.4271L482 41.2138V47.9619V51.3359Z" fill="#FEFEFE"/>
</g>
<defs>
<filter id="filter0_d_507_703" x="-152" y="1004" width="664" height="106" filterUnits="userSpaceOnUse" color-interpolation-filters="sRGB">
<feFlood flood-opacity="0" result="BackgroundImageFix"/>
<feColorMatrix in="SourceAlpha" type="matrix" values="0 0 0 0 0 0 0 0 0 0 0 0 0 0 0 0 0 0 127 0" result="hardAlpha"/>
<feOffset dy="-20"/>
<feGaussianBlur stdDeviation="15"/>
<feComposite in2="hardAlpha" operator="out"/>
<feColorMatrix type="matrix" values="0 0 0 0 0 0 0 0 0 0 0 0 0 0 0 0 0 0 0.25 0"/>
<feBlend mode="normal" in2="BackgroundImageFix" result="effect1_dropShadow_507_703"/>
<feBlend mode="normal" in="SourceGraphic" in2="effect1_dropShadow_507_703" result="shape"/>
</filter>
<filter id="filter1_d_507_703" x="-152" y="0" width="664" height="112" filterUnits="userSpaceOnUse" color-interpolation-filters="sRGB">
<feFlood flood-opacity="0" result="BackgroundImageFix"/>
<feColorMatrix in="SourceAlpha" type="matrix" values="0 0 0 0 0 0 0 0 0 0 0 0 0 0 0 0 0 0 127 0" result="hardAlpha"/>
<feOffset dy="15"/>
<feGaussianBlur stdDeviation="15"/>
<feComposite in2="hardAlpha" operator="out"/>
<feColorMatrix type="matrix" values="0 0 0 0 0 0 0 0 0 0 0 0 0 0 0 0 0 0 0.25 0"/>
<feBlend mode="normal" in2="BackgroundImageFix" result="effect1_dropShadow_507_703"/>
<feBlend mode="normal" in="SourceGraphic" in2="effect1_dropShadow_507_703" result="shape"/>
</filter>
</defs>
</svg>
