<svg width="1440" height="1126" viewBox="0 0 1440 1126" fill="none" xmlns="http://www.w3.org/2000/svg">
<mask id="mask0_802_143" style="mask-type:luminance" maskUnits="userSpaceOnUse" x="-27" y="829" width="329" height="297">
<path d="M-27 1125.41H301.985V829H-27V1125.41Z" fill="white"/>
</mask>
<g mask="url(#mask0_802_143)">
<path d="M301.989 829H300.402L271.341 900.097C265.994 913.178 260.469 926.703 250.85 937.397C230.721 959.771 197.36 964.483 167.922 968.635L165.392 968.992C153.108 970.734 134.926 973.823 118.965 980.507C111.271 983.731 104.524 987.607 98.9117 992.025C92.6567 996.951 87.5719 1002.74 83.7999 1009.24C77.4061 1020.24 75.0501 1033 72.7695 1045.34C70.7982 1055.99 68.7635 1067 64.1466 1076.81C46.4885 1114.34 -0.286661 1122.07 -27 1123.3V1124.82C-12.7053 1124.25 4.50865 1121.94 20.9928 1115.68C31.103 1111.83 39.9083 1106.84 47.1548 1100.83C55.1073 1094.24 61.275 1086.37 65.4754 1077.44C70.1715 1067.45 72.2261 1056.35 74.2132 1045.6C76.4701 1033.39 78.8062 1020.75 85.0731 1009.97C100.843 982.815 136.394 974.585 165.598 970.448L168.128 970.091C183.339 967.941 199.066 965.724 213.65 961.191C230.249 956.03 242.775 948.57 251.941 938.376C261.73 927.497 267.299 913.848 272.701 900.656L301.989 829Z" fill="#2B465B"/>
</g>
<mask id="mask1_802_143" style="mask-type:luminance" maskUnits="userSpaceOnUse" x="-27" y="829" width="312" height="281">
<path d="M-27 1109.17H284.723V829H-27V1109.17Z" fill="white"/>
</mask>
<g mask="url(#mask1_802_143)">
<path d="M284.049 829H282.462L259.481 885.231C254.135 898.308 248.606 911.837 238.987 922.527C218.862 944.905 185.497 949.613 156.059 953.769L153.532 954.126C141.244 955.868 123.067 958.953 107.106 965.637C99.4114 968.861 92.6607 972.737 87.0523 977.155C80.7934 982.085 75.7085 987.876 71.9405 994.365C65.5468 1005.38 63.1868 1018.13 60.9061 1030.47C58.9388 1041.12 56.9041 1052.13 52.2833 1061.94C37.0248 1094.38 0.0108185 1104.56 -26.9921 1107.52V1109.11C-15.5214 1107.9 -2.99567 1105.43 9.13738 1100.81C19.2476 1096.97 28.0529 1091.98 35.3034 1085.96C43.2519 1079.38 49.4196 1071.51 53.6199 1062.57C58.3161 1052.59 60.3707 1041.49 62.3578 1030.74C64.6147 1018.53 66.9508 1005.9 73.2177 995.111C88.9799 967.945 124.53 959.715 153.734 955.578L156.265 955.221C171.468 953.075 187.203 950.854 201.787 946.321C218.386 941.164 230.908 933.7 240.078 923.51C249.867 912.627 255.436 898.982 260.834 885.786L284.049 829Z" fill="#2B465B"/>
</g>
<mask id="mask2_802_143" style="mask-type:luminance" maskUnits="userSpaceOnUse" x="-27" y="829" width="294" height="264">
<path d="M-27 1092.92H266.446V829H-27V1092.92Z" fill="white"/>
</mask>
<g mask="url(#mask2_802_143)">
<path d="M266.109 829H264.522L247.61 870.362C242.263 883.443 236.738 896.968 227.12 907.657C206.995 930.035 173.63 934.743 144.191 938.9L141.665 939.257C129.377 940.998 111.195 944.088 95.2388 950.771C87.5401 953.996 80.7934 957.871 75.185 962.29C68.9261 967.216 63.8412 973.007 60.0732 979.5C53.6794 990.506 51.3195 1003.26 49.0388 1015.6C47.0675 1026.25 45.0328 1037.26 40.416 1047.07C27.2993 1074.97 -1.90097 1086.4 -27 1090.94V1092.55C-19.0197 1091.12 -10.7895 1089.01 -2.7339 1085.94C7.37632 1082.09 16.1816 1077.1 23.4321 1071.09C31.3806 1064.51 37.5483 1056.63 41.7487 1047.7C46.4488 1037.71 48.4994 1026.62 50.4865 1015.87C52.7434 1003.65 55.0796 991.018 61.3464 980.233C77.1205 953.08 112.667 944.846 141.875 940.713L144.402 940.352C159.613 938.206 175.343 935.989 189.923 931.455C206.523 926.295 219.048 918.834 228.214 908.641C238.003 897.757 243.576 884.113 248.974 870.917L266.109 829Z" fill="#2B465B"/>
</g>
<mask id="mask3_802_143" style="mask-type:luminance" maskUnits="userSpaceOnUse" x="-27" y="829" width="276" height="247">
<path d="M-27 1075.66H248.169V829H-27V1075.66Z" fill="white"/>
</mask>
<g mask="url(#mask3_802_143)">
<path d="M248.165 829H246.583L235.751 855.495C230.408 868.572 224.879 882.097 215.26 892.791C195.135 915.165 161.77 919.877 132.332 924.03L129.805 924.387C117.518 926.132 99.34 929.218 83.3794 935.901C75.6847 939.126 68.934 943.001 63.3256 947.419C57.0667 952.349 51.9818 958.136 48.2138 964.629C41.8201 975.636 39.4601 988.396 37.1794 1000.73C35.2082 1011.38 33.1774 1022.39 28.5566 1032.21C17.4667 1055.78 -5.1256 1067.6 -27 1073.43V1075.05C-22.7957 1073.94 -18.6627 1072.61 -14.5972 1071.07C-4.48702 1067.22 4.31826 1062.23 11.5687 1056.22C19.5173 1049.64 25.685 1041.76 29.8853 1032.83C34.5854 1022.84 36.636 1011.74 38.6232 1001C40.88 988.78 43.2162 976.147 49.483 965.363C65.2572 938.209 100.804 929.979 130.012 925.838L132.542 925.481C147.753 923.336 163.48 921.114 178.06 916.581C194.663 911.425 207.185 903.964 216.355 893.77C226.144 882.887 231.713 869.243 237.111 856.046L248.165 829Z" fill="#2B465B"/>
</g>
<mask id="mask4_802_143" style="mask-type:luminance" maskUnits="userSpaceOnUse" x="-27" y="829" width="258" height="229">
<path d="M-27 1057.38H230.908V829H-27V1057.38Z" fill="white"/>
</mask>
<g mask="url(#mask4_802_143)">
<path d="M230.225 829H228.639L223.887 840.63C218.545 853.707 213.015 867.232 203.397 877.925C183.272 900.299 149.907 905.011 120.473 909.164L117.942 909.525C105.654 911.266 87.4767 914.352 71.5161 921.035C63.8214 924.26 57.0707 928.135 51.4623 932.554C45.2034 937.484 40.1185 943.271 36.3505 949.764C29.9567 960.77 27.5968 973.53 25.3161 985.869C23.3488 996.515 21.3141 1007.53 16.6933 1017.34C7.60637 1036.65 -9.19111 1048.08 -27 1054.78V1056.41L-26.4606 1056.2C-16.3464 1052.35 -7.54111 1047.36 -0.294594 1041.35C7.65396 1034.77 13.8216 1026.9 18.022 1017.96C22.7221 1007.97 24.7767 996.876 26.7599 986.127C29.0167 973.911 31.3529 961.282 37.6197 950.497C53.3939 923.344 88.9442 915.11 118.148 910.973L120.679 910.616C135.89 908.466 151.62 906.249 166.201 901.715C182.8 896.559 195.322 889.098 204.492 878.905C214.281 868.021 219.85 854.377 225.248 841.181L230.225 829Z" fill="#2B465B"/>
</g>
<mask id="mask5_802_143" style="mask-type:luminance" maskUnits="userSpaceOnUse" x="-27" y="829" width="240" height="209">
<path d="M-27 1037.07H212.631V829H-27V1037.07Z" fill="white"/>
</mask>
<g mask="url(#mask5_802_143)">
<path d="M212.286 829H210.699C205.733 841.046 200.359 853.243 191.534 863.051C171.409 885.43 138.044 890.138 108.609 894.294L106.079 894.651C93.7911 896.393 75.6133 899.478 59.6528 906.166C51.958 909.39 45.2113 913.265 39.5989 917.684C33.34 922.61 28.2552 928.401 24.4871 934.894C18.0934 945.9 15.7334 958.656 13.4528 970.996C11.4855 981.645 9.45072 992.652 4.82993 1002.47C-2.19844 1017.41 -13.8397 1027.63 -27 1034.59V1036.26C-21.7089 1033.52 -16.7589 1030.26 -12.1579 1026.48C-4.20541 1019.9 1.96226 1012.02 6.15865 1003.09C10.8588 993.1 12.9133 982.002 14.8965 971.257C17.1573 959.037 19.4935 946.408 25.7564 935.624C41.5305 908.47 77.0809 900.24 106.285 896.099L108.816 895.742C124.019 893.596 139.757 891.375 154.337 886.846C170.937 881.685 183.458 874.225 192.628 864.031C201.751 853.889 207.217 841.344 212.286 829Z" fill="#2B465B"/>
</g>
<mask id="mask6_802_143" style="mask-type:luminance" maskUnits="userSpaceOnUse" x="-27" y="829" width="222" height="186">
<path d="M-27 1014.74H194.354V829H-27V1014.74Z" fill="white"/>
</mask>
<g mask="url(#mask6_802_143)">
<path d="M193.878 829H192.24C188.829 835.874 184.843 842.438 179.674 848.185C159.549 870.56 126.184 875.272 96.75 879.424L94.2195 879.785C81.9317 881.527 63.754 884.612 47.7934 891.296C40.0947 894.52 33.348 898.395 27.7395 902.814C21.4806 907.744 16.3958 913.535 12.6278 920.024C6.23401 931.031 3.87404 943.786 1.59339 956.126C-0.37392 966.775 -2.40866 977.782 -7.02945 987.599C-11.8525 997.844 -18.8412 1005.87 -27 1012.15V1013.97C-25.9767 1013.2 -24.9851 1012.42 -24.0213 1011.62C-16.0688 1005.04 -9.90108 997.165 -5.70469 988.233C-1.00457 978.242 1.05 967.144 3.03317 956.399C5.29399 944.183 7.63017 931.55 13.893 920.766C29.6672 893.612 65.2136 885.382 94.4217 881.241L96.9523 880.884C112.155 878.738 127.89 876.517 142.474 871.987C159.073 866.827 171.595 859.367 180.765 849.173C186.207 843.109 190.348 836.207 193.878 829Z" fill="#2B465B"/>
</g>
<mask id="mask7_802_143" style="mask-type:luminance" maskUnits="userSpaceOnUse" x="-27" y="829" width="202" height="160">
<path d="M-27 988.336H174.046V829H-27V988.336Z" fill="white"/>
</mask>
<g mask="url(#mask7_802_143)">
<path d="M173.201 829H171.369C170.246 830.483 169.06 831.923 167.811 833.315C147.682 855.693 114.321 860.401 84.8827 864.558L82.3521 864.915C70.0684 866.656 51.8866 869.742 35.9261 876.429C28.2314 879.65 21.4846 883.525 15.8722 887.948C9.6173 892.874 4.53245 898.665 0.760452 905.158C-5.6333 916.164 -7.98931 928.92 -10.2739 941.259C-12.2412 951.905 -14.276 962.915 -18.8928 972.732C-21.0782 977.385 -23.7793 981.716 -27 985.722V987.991C-23.2042 983.533 -20.0589 978.654 -17.568 973.355C-12.8679 963.368 -10.8133 952.262 -8.8262 941.525C-6.56936 929.309 -4.23318 916.676 2.03365 905.891C17.8038 878.738 53.3542 870.504 82.5584 866.367L85.0889 866.006C100.292 863.86 116.03 861.643 130.611 857.109C147.21 851.953 159.732 844.488 168.902 834.295C170.433 832.593 171.861 830.824 173.201 829Z" fill="#2B465B"/>
</g>
<mask id="mask8_802_143" style="mask-type:luminance" maskUnits="userSpaceOnUse" x="-27" y="829" width="174" height="124">
<path d="M-27 952.798H146.631V829H-27V952.798Z" fill="white"/>
</mask>
<g mask="url(#mask8_802_143)">
<path d="M146.349 829H143.763C123.82 842.518 97.1069 846.29 73.0193 849.689L70.4928 850.046C58.205 851.791 40.0193 854.873 24.0667 861.56C16.368 864.785 9.62127 868.66 4.00889 873.078C-2.24604 878.005 -7.33089 883.795 -11.1029 890.288C-17.4927 901.295 -19.8526 914.051 -22.1333 926.39C-23.466 933.593 -24.8264 940.966 -27 948.007V952.627C-23.9459 944.254 -22.2959 935.334 -20.6895 926.656C-18.4327 914.439 -16.0965 901.807 -9.82969 891.026C5.94447 863.869 41.4909 855.638 70.699 851.501L73.2256 851.145C88.4365 848.999 104.167 846.778 118.747 842.244C129.631 838.861 138.765 834.486 146.349 829Z" fill="#2B465B"/>
</g>
<mask id="mask9_802_143" style="mask-type:luminance" maskUnits="userSpaceOnUse" x="-27" y="829" width="129" height="60">
<path d="M-27 888.829H101.954V829H-27V888.829Z" fill="white"/>
</mask>
<g mask="url(#mask9_802_143)">
<path d="M101.248 829H95.0642C83.8117 831.626 72.2101 833.26 61.1559 834.819L58.6294 835.176C46.3416 836.917 28.1599 840.007 12.2033 846.69C4.50462 849.915 -2.24213 853.79 -7.85451 858.208C-14.1094 863.134 -19.1943 868.925 -22.9623 875.418C-24.5171 878.115 -25.8617 880.908 -26.9961 883.803V888.071C-25.5999 883.938 -23.8944 879.932 -21.6931 876.156C-5.9229 849.002 29.6275 840.768 58.8317 836.631L61.3622 836.274C74.6336 834.402 88.2976 832.471 101.248 829Z" fill="#2B465B"/>
</g>
<mask id="mask10_802_143" style="mask-type:luminance" maskUnits="userSpaceOnUse" x="-27" y="829" width="40" height="24">
<path d="M-27 852.274H12.6V829H-27V852.274Z" fill="white"/>
</mask>
<g mask="url(#mask10_802_143)">
<path d="M12.5762 829H7.78881C5.27019 829.86 2.77932 830.8 0.340019 831.824C-7.35469 835.048 -14.1054 838.923 -19.7059 843.342C-22.3078 845.381 -24.7392 847.61 -27 850.025V852.223C-16.8858 840.8 -2.59904 833.684 12.5762 829Z" fill="#2B465B"/>
</g>
<path d="M268.227 855.876C268.227 856.431 268.199 856.983 268.144 857.534C268.088 858.085 268.009 858.633 267.902 859.176C267.791 859.715 267.66 860.255 267.497 860.782C267.335 861.314 267.148 861.833 266.938 862.345C266.728 862.857 266.49 863.357 266.228 863.844C265.966 864.332 265.685 864.804 265.375 865.264C265.066 865.728 264.737 866.169 264.388 866.597C264.035 867.025 263.666 867.434 263.273 867.827C262.88 868.219 262.472 868.588 262.044 868.941C261.615 869.29 261.171 869.619 260.711 869.929C260.251 870.238 259.775 870.52 259.287 870.782C258.799 871.043 258.299 871.277 257.788 871.492C257.276 871.702 256.752 871.888 256.225 872.051C255.693 872.209 255.158 872.344 254.615 872.451C254.071 872.558 253.524 872.642 252.973 872.697C252.421 872.749 251.87 872.777 251.315 872.777C251.87 872.777 252.421 872.804 252.973 872.86C253.524 872.912 254.071 872.995 254.615 873.102C255.158 873.209 255.693 873.344 256.225 873.506C256.752 873.665 257.276 873.852 257.788 874.062C258.299 874.276 258.799 874.51 259.287 874.772C259.775 875.033 260.251 875.319 260.711 875.624C261.171 875.934 261.615 876.263 262.044 876.612C262.472 876.965 262.88 877.334 263.273 877.727C263.666 878.119 264.035 878.528 264.388 878.956C264.737 879.385 265.066 879.829 265.375 880.289C265.685 880.749 265.966 881.221 266.228 881.709C266.49 882.197 266.728 882.696 266.938 883.208C267.148 883.72 267.335 884.239 267.497 884.771C267.66 885.302 267.791 885.838 267.902 886.381C268.009 886.921 268.088 887.468 268.144 888.019C268.199 888.571 268.227 889.122 268.227 889.677C268.227 889.122 268.251 888.571 268.306 888.019C268.362 887.468 268.441 886.921 268.548 886.381C268.659 885.838 268.794 885.302 268.953 884.771C269.116 884.239 269.302 883.72 269.512 883.208C269.726 882.696 269.96 882.197 270.222 881.709C270.484 881.221 270.766 880.749 271.075 880.289C271.384 879.829 271.713 879.385 272.063 878.956C272.416 878.528 272.788 878.119 273.177 877.727C273.57 877.334 273.978 876.965 274.407 876.612C274.835 876.263 275.279 875.934 275.739 875.624C276.199 875.319 276.675 875.033 277.163 874.772C277.651 874.51 278.151 874.276 278.663 874.062C279.174 873.852 279.698 873.665 280.225 873.506C280.757 873.344 281.292 873.209 281.836 873.102C282.379 872.995 282.926 872.912 283.478 872.86C284.029 872.804 284.58 872.777 285.136 872.777C284.58 872.777 284.029 872.749 283.478 872.697C282.926 872.642 282.379 872.558 281.836 872.451C281.292 872.344 280.757 872.209 280.225 872.051C279.698 871.888 279.174 871.702 278.663 871.492C278.151 871.277 277.651 871.043 277.163 870.782C276.675 870.52 276.199 870.238 275.739 869.929C275.279 869.619 274.835 869.29 274.407 868.941C273.978 868.588 273.57 868.219 273.177 867.827C272.788 867.434 272.416 867.025 272.063 866.597C271.713 866.169 271.384 865.724 271.075 865.264C270.77 864.804 270.484 864.332 270.222 863.844C269.96 863.357 269.726 862.857 269.512 862.345C269.302 861.833 269.116 861.314 268.953 860.782C268.794 860.255 268.659 859.715 268.548 859.176C268.441 858.633 268.362 858.085 268.306 857.534C268.251 856.983 268.227 856.431 268.227 855.876Z" fill="#2B465B"/>
<mask id="mask11_802_143" style="mask-type:luminance" maskUnits="userSpaceOnUse" x="1137" y="829" width="330" height="297">
<path d="M1466.98 1125.41H1138V829H1466.98V1125.41Z" fill="white"/>
</mask>
<g mask="url(#mask11_802_143)">
<path d="M1138 829H1139.58L1168.64 900.097C1173.99 913.178 1179.52 926.703 1189.13 937.397C1209.26 959.771 1242.62 964.483 1272.06 968.635L1274.59 968.992C1286.88 970.734 1305.06 973.823 1321.02 980.507C1328.71 983.731 1335.46 987.607 1341.07 992.025C1347.33 996.951 1352.41 1002.74 1356.18 1009.24C1362.58 1020.24 1364.93 1033 1367.21 1045.34C1369.19 1055.99 1371.22 1067 1375.84 1076.81C1393.5 1114.34 1440.27 1122.07 1466.98 1123.3V1124.82C1452.69 1124.25 1435.48 1121.94 1418.99 1115.68C1408.88 1111.83 1400.08 1106.84 1392.83 1100.83C1384.88 1094.24 1378.71 1086.37 1374.51 1077.44C1369.81 1067.45 1367.76 1056.35 1365.77 1045.6C1363.51 1033.39 1361.18 1020.75 1354.91 1009.97C1339.14 982.815 1303.59 974.585 1274.39 970.448L1271.86 970.091C1256.65 967.941 1240.92 965.724 1226.33 961.191C1209.74 956.03 1197.21 948.57 1188.04 938.376C1178.25 927.497 1172.69 913.848 1167.28 900.656L1138 829Z" fill="#2B465B"/>
</g>
<mask id="mask12_802_143" style="mask-type:luminance" maskUnits="userSpaceOnUse" x="1155" y="829" width="312" height="281">
<path d="M1466.98 1109.17H1155.26V829H1466.98V1109.17Z" fill="white"/>
</mask>
<g mask="url(#mask12_802_143)">
<path d="M1155.94 829H1157.52L1180.5 885.231C1185.85 898.308 1191.38 911.837 1201 922.527C1221.12 944.905 1254.49 949.613 1283.93 953.769L1286.45 954.126C1298.74 955.868 1316.92 958.953 1332.88 965.637C1340.57 968.861 1347.32 972.737 1352.93 977.155C1359.19 982.085 1364.28 987.876 1368.04 994.365C1374.44 1005.38 1376.8 1018.13 1379.08 1030.47C1381.05 1041.12 1383.08 1052.13 1387.7 1061.94C1402.96 1094.38 1439.97 1104.56 1466.98 1107.52V1109.11C1455.51 1107.9 1442.98 1105.43 1430.85 1100.81C1420.74 1096.97 1411.93 1091.98 1404.68 1085.96C1396.73 1079.38 1390.56 1071.51 1386.36 1062.57C1381.67 1052.59 1379.61 1041.49 1377.63 1030.74C1375.37 1018.53 1373.03 1005.9 1366.77 995.111C1351 967.945 1315.45 959.715 1286.25 955.578L1283.72 955.221C1268.52 953.075 1252.78 950.854 1238.2 946.321C1221.6 941.164 1209.08 933.7 1199.91 923.51C1190.12 912.627 1184.55 898.982 1179.15 885.786L1155.94 829Z" fill="#2B465B"/>
</g>
<mask id="mask13_802_143" style="mask-type:luminance" maskUnits="userSpaceOnUse" x="1173" y="829" width="294" height="264">
<path d="M1466.98 1092.92H1173.54V829H1466.98V1092.92Z" fill="white"/>
</mask>
<g mask="url(#mask13_802_143)">
<path d="M1173.88 829H1175.46L1192.37 870.362C1197.72 883.443 1203.25 896.968 1212.86 907.657C1232.99 930.035 1266.35 934.743 1295.79 938.9L1298.32 939.257C1310.61 940.998 1328.79 944.088 1344.75 950.771C1352.44 953.996 1359.19 957.871 1364.8 962.29C1371.06 967.216 1376.14 973.007 1379.91 979.5C1386.3 990.506 1388.66 1003.26 1390.95 1015.6C1392.92 1026.25 1394.95 1037.26 1399.57 1047.07C1412.69 1074.97 1441.89 1086.4 1466.98 1090.94V1092.55C1459 1091.12 1450.77 1089.01 1442.72 1085.94C1432.61 1082.09 1423.8 1077.1 1416.55 1071.09C1408.6 1064.51 1402.44 1056.63 1398.24 1047.7C1393.54 1037.71 1391.48 1026.62 1389.5 1015.87C1387.24 1003.65 1384.9 991.018 1378.64 980.233C1362.86 953.08 1327.32 944.846 1298.11 940.713L1295.58 940.352C1280.37 938.206 1264.64 935.989 1250.06 931.455C1233.46 926.295 1220.94 918.834 1211.77 908.641C1201.98 897.757 1196.41 884.113 1191.01 870.917L1173.88 829Z" fill="#2B465B"/>
</g>
<mask id="mask14_802_143" style="mask-type:luminance" maskUnits="userSpaceOnUse" x="1191" y="829" width="276" height="247">
<path d="M1466.98 1075.66H1191.82V829H1466.98V1075.66Z" fill="white"/>
</mask>
<g mask="url(#mask14_802_143)">
<path d="M1191.82 829H1193.4L1204.23 855.495C1209.58 868.572 1215.11 882.097 1224.72 892.791C1244.85 915.165 1278.21 919.877 1307.65 924.03L1310.18 924.387C1322.47 926.132 1340.64 929.218 1356.6 935.901C1364.3 939.126 1371.05 943.001 1376.66 947.419C1382.92 952.349 1388 958.136 1391.77 964.629C1398.16 975.636 1400.52 988.396 1402.8 1000.73C1404.78 1011.38 1406.81 1022.39 1411.43 1032.21C1422.52 1055.78 1445.11 1067.6 1466.98 1073.43V1075.05C1462.78 1073.94 1458.65 1072.61 1454.58 1071.07C1444.47 1067.22 1435.67 1062.23 1428.42 1056.22C1420.47 1049.64 1414.3 1041.76 1410.1 1032.83C1405.4 1022.84 1403.35 1011.74 1401.36 1001C1399.1 988.78 1396.77 976.147 1390.5 965.363C1374.73 938.209 1339.18 929.979 1309.97 925.838L1307.44 925.481C1292.23 923.336 1276.5 921.114 1261.92 916.581C1245.32 911.425 1232.8 903.964 1223.63 893.77C1213.84 882.887 1208.27 869.243 1202.87 856.046L1191.82 829Z" fill="#2B465B"/>
</g>
<mask id="mask15_802_143" style="mask-type:luminance" maskUnits="userSpaceOnUse" x="1209" y="829" width="258" height="229">
<path d="M1466.98 1057.38H1209.08V829H1466.98V1057.38Z" fill="white"/>
</mask>
<g mask="url(#mask15_802_143)">
<path d="M1209.76 829H1211.35L1216.1 840.63C1221.44 853.707 1226.97 867.232 1236.59 877.925C1256.71 900.299 1290.08 905.011 1319.51 909.164L1322.04 909.525C1334.33 911.266 1352.51 914.352 1368.47 921.035C1376.16 924.26 1382.91 928.135 1388.52 932.554C1394.78 937.484 1399.87 943.271 1403.63 949.764C1410.03 960.77 1412.39 973.53 1414.67 985.869C1416.64 996.515 1418.67 1007.53 1423.29 1017.34C1432.38 1036.65 1449.18 1048.08 1466.98 1054.78V1056.41L1466.44 1056.2C1456.33 1052.35 1447.53 1047.36 1440.28 1041.35C1432.33 1034.77 1426.16 1026.9 1421.96 1017.96C1417.26 1007.97 1415.21 996.876 1413.22 986.127C1410.97 973.911 1408.63 961.282 1402.36 950.497C1386.59 923.344 1351.04 915.11 1321.84 910.973L1319.31 910.616C1304.09 908.466 1288.36 906.249 1273.78 901.715C1257.18 896.559 1244.66 889.098 1235.49 878.905C1225.7 868.021 1220.13 854.377 1214.74 841.181L1209.76 829Z" fill="#2B465B"/>
</g>
<mask id="mask16_802_143" style="mask-type:luminance" maskUnits="userSpaceOnUse" x="1227" y="829" width="240" height="209">
<path d="M1466.98 1037.07H1227.35V829H1466.98V1037.07Z" fill="white"/>
</mask>
<g mask="url(#mask16_802_143)">
<path d="M1227.7 829H1229.29C1234.25 841.046 1239.63 853.243 1248.45 863.051C1268.58 885.43 1301.94 890.138 1331.38 894.294L1333.91 894.651C1346.19 896.393 1364.37 899.478 1380.33 906.166C1388.03 909.39 1394.77 913.265 1400.39 917.684C1406.64 922.61 1411.73 928.401 1415.5 934.894C1421.89 945.9 1424.25 958.656 1426.53 970.996C1428.5 981.645 1430.53 992.652 1435.15 1002.47C1442.18 1017.41 1453.82 1027.63 1466.98 1034.59V1036.26C1461.69 1033.52 1456.74 1030.26 1452.14 1026.48C1444.19 1019.9 1438.02 1012.02 1433.83 1003.09C1429.13 993.1 1427.07 982.002 1425.09 971.257C1422.83 959.037 1420.49 946.408 1414.23 935.624C1398.45 908.47 1362.9 900.24 1333.7 896.099L1331.17 895.742C1315.97 893.596 1300.23 891.375 1285.65 886.846C1269.05 881.685 1256.53 874.225 1247.36 864.031C1238.23 853.889 1232.77 841.344 1227.7 829Z" fill="#2B465B"/>
</g>
<mask id="mask17_802_143" style="mask-type:luminance" maskUnits="userSpaceOnUse" x="1245" y="829" width="222" height="186">
<path d="M1466.98 1014.74H1245.63V829H1466.98V1014.74Z" fill="white"/>
</mask>
<g mask="url(#mask17_802_143)">
<path d="M1246.11 829H1247.74C1251.16 835.874 1255.14 842.438 1260.31 848.185C1280.44 870.56 1313.8 875.272 1343.23 879.424L1345.76 879.785C1358.05 881.527 1376.23 884.612 1392.19 891.296C1399.89 894.52 1406.64 898.395 1412.24 902.814C1418.5 907.744 1423.59 913.535 1427.36 920.024C1433.75 931.031 1436.11 943.786 1438.39 956.126C1440.36 966.775 1442.39 977.782 1447.01 987.599C1451.84 997.844 1458.83 1005.87 1466.98 1012.15V1013.97C1465.96 1013.2 1464.97 1012.42 1464.01 1011.62C1456.05 1005.04 1449.89 997.165 1445.69 988.233C1440.99 978.242 1438.93 967.144 1436.95 956.399C1434.69 944.183 1432.35 931.55 1426.09 920.766C1410.32 893.612 1374.77 885.382 1345.56 881.241L1343.03 880.884C1327.83 878.738 1312.09 876.517 1297.51 871.987C1280.91 866.827 1268.39 859.367 1259.22 849.173C1253.78 843.109 1249.64 836.207 1246.11 829Z" fill="#2B465B"/>
</g>
<mask id="mask18_802_143" style="mask-type:luminance" maskUnits="userSpaceOnUse" x="1265" y="829" width="202" height="160">
<path d="M1466.98 988.336H1265.94V829H1466.98V988.336Z" fill="white"/>
</mask>
<g mask="url(#mask18_802_143)">
<path d="M1266.78 829H1268.62C1269.74 830.483 1270.92 831.923 1272.17 833.315C1292.3 855.693 1325.66 860.401 1355.1 864.558L1357.63 864.915C1369.92 866.656 1388.1 869.742 1404.06 876.429C1411.75 879.65 1418.5 883.525 1424.11 887.948C1430.37 892.874 1435.45 898.665 1439.22 905.158C1445.62 916.164 1447.97 928.92 1450.26 941.259C1452.23 951.905 1454.26 962.915 1458.88 972.732C1461.06 977.385 1463.76 981.716 1466.98 985.722V987.991C1463.19 983.533 1460.04 978.654 1457.55 973.355C1452.85 963.368 1450.8 952.262 1448.81 941.525C1446.55 929.309 1444.22 916.676 1437.95 905.891C1422.18 878.738 1386.63 870.504 1357.43 866.367L1354.9 866.006C1339.69 863.86 1323.95 861.643 1309.37 857.109C1292.77 851.953 1280.25 844.488 1271.08 834.295C1269.55 832.593 1268.12 830.824 1266.78 829Z" fill="#2B465B"/>
</g>
<mask id="mask19_802_143" style="mask-type:luminance" maskUnits="userSpaceOnUse" x="1293" y="829" width="174" height="124">
<path d="M1466.98 952.798H1293.35V829H1466.98V952.798Z" fill="white"/>
</mask>
<g mask="url(#mask19_802_143)">
<path d="M1293.64 829H1296.22C1316.16 842.518 1342.88 846.29 1366.97 849.689L1369.49 850.046C1381.78 851.791 1399.97 854.873 1415.92 861.56C1423.62 864.785 1430.36 868.66 1435.98 873.078C1442.23 878.005 1447.32 883.795 1451.09 890.288C1457.48 901.295 1459.84 914.051 1462.12 926.39C1463.45 933.593 1464.81 940.966 1466.98 948.007V952.627C1463.93 944.254 1462.28 935.334 1460.67 926.656C1458.42 914.439 1456.08 901.807 1449.81 891.026C1434.04 863.869 1398.49 855.638 1369.29 851.501L1366.76 851.145C1351.55 848.999 1335.82 846.778 1321.24 842.244C1310.35 838.861 1301.22 834.486 1293.64 829Z" fill="#2B465B"/>
</g>
<mask id="mask20_802_143" style="mask-type:luminance" maskUnits="userSpaceOnUse" x="1338" y="829" width="129" height="60">
<path d="M1466.98 888.829H1338.03V829H1466.98V888.829Z" fill="white"/>
</mask>
<g mask="url(#mask20_802_143)">
<path d="M1338.74 829H1344.92C1356.17 831.626 1367.77 833.26 1378.83 834.819L1381.36 835.176C1393.64 836.917 1411.82 840.007 1427.78 846.69C1435.48 849.915 1442.23 853.79 1447.84 858.208C1454.09 863.134 1459.18 868.925 1462.95 875.418C1464.5 878.115 1465.85 880.908 1466.98 883.803V888.071C1465.58 883.938 1463.88 879.932 1461.68 876.156C1445.91 849.002 1410.36 840.768 1381.15 836.631L1378.62 836.274C1365.35 834.402 1351.69 832.471 1338.74 829Z" fill="#2B465B"/>
</g>
<mask id="mask21_802_143" style="mask-type:luminance" maskUnits="userSpaceOnUse" x="1427" y="829" width="40" height="24">
<path d="M1466.98 852.274H1427.38V829H1466.98V852.274Z" fill="white"/>
</mask>
<g mask="url(#mask21_802_143)">
<path d="M1427.41 829H1432.2C1434.71 829.86 1437.21 830.8 1439.64 831.824C1447.34 835.048 1454.09 838.923 1459.69 843.342C1462.29 845.381 1464.72 847.61 1466.98 850.025V852.223C1456.87 840.8 1442.58 833.684 1427.41 829Z" fill="#2B465B"/>
</g>
<path d="M1171.76 855.876C1171.76 856.431 1171.78 856.983 1171.84 857.534C1171.9 858.085 1171.98 858.633 1172.08 859.176C1172.19 859.715 1172.32 860.255 1172.49 860.782C1172.65 861.314 1172.84 861.833 1173.05 862.345C1173.26 862.857 1173.49 863.357 1173.76 863.844C1174.02 864.332 1174.3 864.804 1174.61 865.264C1174.92 865.728 1175.25 866.169 1175.6 866.597C1175.95 867.025 1176.32 867.434 1176.71 867.827C1177.1 868.219 1177.51 868.588 1177.94 868.941C1178.37 869.29 1178.81 869.619 1179.27 869.929C1179.73 870.238 1180.21 870.52 1180.7 870.782C1181.19 871.043 1181.68 871.277 1182.2 871.492C1182.71 871.702 1183.23 871.888 1183.76 872.051C1184.29 872.209 1184.83 872.344 1185.37 872.451C1185.91 872.558 1186.46 872.642 1187.01 872.697C1187.56 872.749 1188.11 872.777 1188.67 872.777C1188.11 872.777 1187.56 872.804 1187.01 872.86C1186.46 872.912 1185.91 872.995 1185.37 873.102C1184.83 873.209 1184.29 873.344 1183.76 873.506C1183.23 873.665 1182.71 873.852 1182.2 874.062C1181.68 874.276 1181.19 874.51 1180.7 874.772C1180.21 875.033 1179.73 875.319 1179.27 875.624C1178.81 875.934 1178.37 876.263 1177.94 876.612C1177.51 876.965 1177.1 877.334 1176.71 877.727C1176.32 878.119 1175.95 878.528 1175.6 878.956C1175.25 879.385 1174.92 879.829 1174.61 880.289C1174.3 880.749 1174.02 881.221 1173.76 881.709C1173.49 882.197 1173.26 882.696 1173.05 883.208C1172.84 883.72 1172.65 884.239 1172.49 884.771C1172.32 885.302 1172.19 885.838 1172.08 886.381C1171.98 886.921 1171.9 887.468 1171.84 888.019C1171.78 888.571 1171.76 889.122 1171.76 889.677C1171.76 889.122 1171.73 888.571 1171.68 888.019C1171.62 887.468 1171.54 886.921 1171.44 886.381C1171.32 885.838 1171.19 885.302 1171.03 884.771C1170.87 884.239 1170.68 883.72 1170.47 883.208C1170.26 882.696 1170.02 882.197 1169.76 881.709C1169.5 881.221 1169.22 880.749 1168.91 880.289C1168.6 879.829 1168.27 879.385 1167.92 878.956C1167.57 878.528 1167.2 878.119 1166.81 877.727C1166.41 877.334 1166.01 876.965 1165.58 876.612C1165.15 876.263 1164.71 875.934 1164.24 875.624C1163.78 875.319 1163.31 875.033 1162.82 874.772C1162.33 874.51 1161.83 874.276 1161.32 874.062C1160.81 873.852 1160.29 873.665 1159.76 873.506C1159.23 873.344 1158.69 873.209 1158.15 873.102C1157.61 872.995 1157.06 872.912 1156.51 872.86C1155.96 872.804 1155.4 872.777 1154.85 872.777C1155.4 872.777 1155.96 872.749 1156.51 872.697C1157.06 872.642 1157.61 872.558 1158.15 872.451C1158.69 872.344 1159.23 872.209 1159.76 872.051C1160.29 871.888 1160.81 871.702 1161.32 871.492C1161.83 871.277 1162.33 871.043 1162.82 870.782C1163.31 870.52 1163.78 870.238 1164.24 869.929C1164.71 869.619 1165.15 869.29 1165.58 868.941C1166.01 868.588 1166.41 868.219 1166.81 867.827C1167.2 867.434 1167.57 867.025 1167.92 866.597C1168.27 866.169 1168.6 865.724 1168.91 865.264C1169.21 864.804 1169.5 864.332 1169.76 863.844C1170.02 863.357 1170.26 862.857 1170.47 862.345C1170.68 861.833 1170.87 861.314 1171.03 860.782C1171.19 860.255 1171.32 859.715 1171.44 859.176C1171.54 858.633 1171.62 858.085 1171.68 857.534C1171.73 856.983 1171.76 856.431 1171.76 855.876Z" fill="#2B465B"/>
<path d="M70.5 63.985L0 91.4766V924.22L47 936.217L76.5 941.715L121.5 936.217L197 938.035L234 957.029H257.5L274.5 976.204L298.5 957.21L346.5 952.712L410.5 970.206L452.5 965.208L529 970.206H571L612.5 957.71L666.5 974.705H686.5L739 981.703L777.5 974.705L791.5 943.214L820 931.718L879 926.72H926.5L978.5 910.724L1060.5 931.718L1100 941.215L1146 963.208L1212 960.709L1282.5 922.721L1349.5 918.222L1386 937.216L1419 934.717L1440 926.72V80.9798L1340.5 83.479L1307 72.9823L1274 83.479L1240 63.4852L1210.5 42.9915L1181 46.4904L1158.5 37.993L1119 48.9896L1077 70.9829H1043.5L1019 84.9786L991.5 74.9816L957.5 78.9804L925 97.9746L877 110.971L840 102.973L790 105.972L736 89.4772L659 100.974L617.5 85.9783L585 96.475L530.5 79.4803H497L479 61.9856L408.5 64.4849L387.5 51.9887L270 56.9872L203.5 23.9973L168 48.9896L142.5 44.491L70.5 63.985Z" fill="#576589"/>
<g filter="url(#filter0_d_802_143)">
<path d="M1440 928.115V924.617V922.117L1431.8 925.39C1429.4 925.229 1427.83 925.29 1427.08 925.57L1417.53 932.604L1406.58 929.655L1402.52 932.358C1397.21 931.607 1393.92 931.714 1392.64 932.684C1389.34 931.346 1386.24 924.987 1386.35 926.249L1382.26 924.09C1380.49 924.749 1378.4 915.714 1377.02 915.33L1375.16 916.254C1373.72 915.572 1372.33 915.48 1370.99 915.978L1358.98 907.464C1356.71 907.441 1353.42 907.525 1349.09 907.721L1340.86 910.264L1336.03 909.205C1336.25 909.988 1334.79 911.123 1331.65 912.599C1328.93 912.101 1327.07 911.94 1326.04 912.128L1317.77 920.174L1307.93 916.243L1304.13 917.62C1303.13 917.608 1302.19 917.57 1301.33 917.508L1281.83 913.347L1262.89 921.183L1259.21 922.709L1259.33 928.677C1257.13 928.746 1255.4 928.642 1254.14 928.362L1248.26 926.414L1247.58 926.701L1244.04 932.262C1239.17 931.561 1236.04 931.25 1234.63 931.327L1226.18 938.74L1224.44 949.548C1222.92 949.275 1221.99 949.222 1221.67 949.383L1220.18 950.82C1214.73 951.366 1211.96 951.485 1210.88 951.918L1209.26 954.618C1209.46 953.398 1199.42 951.093 1179.14 947.695C1176.31 950.648 1169.88 953.21 1159.82 955.373C1157 955.419 1148.43 949.252 1144.93 949.176L1129.44 951.922L1109.6 938.74L1096.94 934.986L1086 924.239C1084.27 924.109 1082.25 924.235 1079.93 924.619C1073.3 923.614 1067.17 923.28 1061.55 923.626L1049.77 927.702L1029.21 908.925C1027.48 909.761 1024.18 910.194 1019.34 910.217C1016.5 909.987 1012.15 908.837 1006.29 906.762L1001.18 907.126L994.783 908.641C994.208 908.737 993.64 908.741 993.079 908.652C984.847 906.064 980.462 904.223 979.924 903.137C972.161 903.429 968.495 903.291 968.911 902.727L966.192 904.372L954.764 903.375L951.742 904.997C951.356 905.036 950.864 905.013 950.258 904.925L927.901 916.688L901.619 918.256C900.923 918.375 899.317 918.356 896.795 918.203C889.312 917.067 884.54 916.561 882.488 916.688L853.89 923.069L828.018 924.35H805.5L780 942.215L772.492 971.223L764.859 967.142C764.859 967.142 754.785 972.953 752.725 977.06L745.046 975.818L741.213 976.132C736.881 975.189 731.163 974.771 724.059 974.874L715.424 972.799C712.577 973.486 706.01 972.792 695.718 970.717C694.18 970.675 691.817 970.84 688.621 971.212C680.335 967.415 675.556 965.524 674.284 965.532C673.913 965.489 673.405 965.447 672.754 965.405L661.5 970.5L631.633 955.028C629.232 955.208 627.111 955.891 625.263 957.072C617.364 956.041 600.664 955.021 590.5 958.173L580 957.291L574 966.707C572.811 966.799 562.438 958.311 556.773 957.498C555.432 957.448 552.017 957.675 546.526 958.173L539.565 961.632L520 966.707L507.5 962.63H491.934C475.469 959.385 464.51 962.725 448.499 957.291C445.166 957.149 437.055 950.039 434.707 951.323L425.597 957.291L411.531 964.912L378.585 949.183C371.118 949.325 363.006 948.746 354.243 947.442C353.297 947.937 347.548 948.424 336.99 948.9C331.143 945.69 325.259 948.646 301.023 947.442L293.934 950.97L284.664 957.291C283.172 957.034 275.62 964.651 274.681 964.912L270.081 950.914L261.789 943.987C255.949 947.181 250.511 948.892 245.49 949.118L237.015 954.303C233.804 954.495 219.246 935.154 201.569 927.342L181.393 933.348C181.393 933.348 169.905 934.193 163.763 931.75C153.084 935.34 140.716 930.146 132.074 929.747L112.92 931.054L89.9201 934.153L58.3699 934.281L46.9879 924.616L6.78001 918.981H0V927.616L4.57764e-05 930.115V933.614L33.9999 943.327L79.9999 950.914L98.1637 943.327C101.799 943.247 110.508 955.125 110.508 955.125C123.08 954.315 135.751 953.05 141.932 951.397C158.374 954.151 166.736 955.393 167.001 955.125L184.858 947.83L200.301 950.914L206.5 951.397L212 962.005L221 969.207H237.015H258.5L270.081 986.795C293.34 981.38 305.21 966.269 324.5 964.912C346.896 964.773 352.481 965.48 368 966.707L424.039 980.456C427.061 980.794 434.43 979.198 446.154 975.674L466.088 977.492L471.708 977.415C475.078 977.284 479.425 978.646 483.5 977.492C489.044 978.485 492.013 976.932 493.649 976.832L517 981.203C517 981.203 541.985 976.897 545.135 976.69L574 975.674L597 966.707L606.5 965.208C613.119 965.53 630.151 969.388 636.4 970.5C651.562 976.583 661.12 979.904 665.066 980.456C668.512 981.008 680.531 982.69 685 982.203L706 993.242C708.393 991.964 724.305 992.763 738.105 989.626L752.956 997L782.5 983.702L789 956.71L812 942.215L839.23 945.767L877.318 936.601L894.806 937.724L913.3 938.695L918.276 937.498C923.918 937.855 927.993 937.928 930.5 937.724L945.5 927.702L966.192 920.722L991.409 924.09L1008.88 932.523C1011.7 932.274 1017.54 932.512 1026.39 933.244L1044.41 943.898L1063.84 949.23C1068.29 949.364 1075.93 948.831 1086.76 947.627C1087.97 947.573 1089.35 947.608 1090.89 947.738L1113.89 962.358L1141.95 976.79L1159.82 971.735C1177.09 968.951 1193.93 972.318 1212.13 971.735L1260.09 943.991L1273 937.74C1277.35 937.905 1282.86 933.382 1289 931.327C1292.35 931.518 1297.68 937.797 1298.58 937.74L1329 931.327L1351 928.362L1366 943.991C1382.76 943.991 1408.02 944.233 1437.81 933.97L1440 933.114V930.615V928.115Z" fill="#FEFEFE"/>
</g>
<g filter="url(#filter1_d_802_143)">
<path d="M1440 84.8768V87.3724L1439.32 87.9827L1429.66 84.4205C1427.19 84.5867 1425.57 84.5234 1424.8 84.2345L1412.02 90.3994L1400.71 93.4431L1396.53 90.6527C1391.06 91.4284 1387.66 91.3176 1386.34 90.3162C1382.93 91.6976 1381.28 91.7372 1381.39 90.435L1377.18 92.6633C1375.35 91.9825 1373.72 91.844 1372.3 92.2398L1370.39 91.2859C1368.9 91.9905 1367.47 92.0855 1366.08 91.5709L1355.25 93.7439C1352.9 93.7676 1349.5 93.6805 1345.04 93.4787L1336.55 90.8545L1331.57 91.9469C1331.8 91.1395 1330.29 89.9679 1327.05 88.4441C1324.24 88.9586 1322.32 89.1249 1321.26 88.9309L1312.73 80.6271L1302.57 84.684L1298.65 83.2631C1297.62 83.275 1292.97 88.3808 1292.09 88.4441L1281.45 90.5339L1261.92 82.4477L1258.12 80.8724L1258.24 74.7138C1255.97 74.6426 1254.19 74.7494 1252.89 75.0384L1246.82 77.049L1246.12 76.7522L1242.46 71.0131C1237.45 71.7374 1234.21 72.058 1232.76 71.9788L1224.04 64.328L1222.25 53.1744C1220.68 53.4554 1219.72 53.5109 1219.39 53.3446L1217.85 51.8619C1212.23 51.2984 1209.37 51.1756 1208.26 50.7284L1206.59 47.942C1206.8 49.2006 1196.44 51.5794 1175.51 55.0861C1172.6 52.0385 1165.96 49.3946 1155.58 47.1623C1152.67 47.1148 1143.84 53.4792 1140.22 53.5584L1124.24 50.7244L1103.77 64.328L1090.71 68.2027L1079.43 79.2932C1077.64 79.4278 1075.56 79.2972 1073.16 78.9014C1066.32 79.9383 1060 80.2827 1054.2 79.9265L1042.04 75.7191L1020.83 95.098C1019.05 94.2351 1015.65 93.7879 1010.65 93.7641C1007.72 94.0016 1000.35 78.9036 994.304 81.0449L989.029 80.6689L983.5 78.991L981.742 78.9791C981.742 78.9791 973.555 81.8638 973 82.9839C973 82.9839 964.071 80.463 964.5 81.0449L953.835 91.3611H944.792L934.14 102.123L911.393 108.111L900.569 113.417L891.133 113.362C890.414 113.239 888.757 113.259 886.155 113.417C878.435 114.589 873.513 115.111 871.395 114.98L841.891 108.394L828 112.059L815.2 107.072L792.274 112.059L769.103 108.394C769.103 108.394 759.676 107.866 753.894 103.9L746.018 108.111C739.799 105.527 735.626 102.115 733.501 97.876L725.578 99.1584L721.624 98.8338C717.155 99.8075 711.255 100.239 703.926 100.132L695.019 102.273C692.081 101.565 685.306 102.281 674.688 104.423C673.101 104.466 670.663 104.296 667.366 103.912C658.818 107.83 653.887 109.782 652.575 109.774C652.192 109.817 651.669 109.861 650.997 109.904L640.256 100.132L614.729 95.9328C612.252 95.7468 610.064 95.0423 608.158 93.8232C600.008 94.8879 578.499 103.789 568.013 100.536L554.074 102.97L549.088 100.536C547.861 100.441 544.11 87.7 538.266 88.5391C536.883 88.5906 533.359 88.3571 527.694 87.8425L520.513 84.2724C507.042 87.7198 500.799 88.1196 501.776 85.4717L489.462 88.2977L478.757 65.889C461.77 69.2374 420.469 64.9301 420.469 64.9301C417.031 65.0766 408.663 72.4142 406.24 71.0883L396.841 64.9301L382.331 57.0652L341.746 63.4075C334.042 63.2611 325.674 63.8587 316.633 65.2045C315.657 64.6939 309.726 64.1912 298.834 63.7004C292.802 67.0133 286.731 63.9617 261.727 65.2045L254.414 61.5636L244.85 55.0408C243.311 55.306 235.52 47.445 234.551 47.1758L231.785 42.9883L226.222 42.6281C220.197 39.3311 214.587 37.5658 209.407 37.3323L200.663 31.9811C197.35 31.7832 182.332 51.7435 164.095 59.806L143.28 53.6077C143.28 53.6077 129.364 61.2291 123.027 63.7503C112.01 60.0456 99.2499 65.4063 90.3345 65.818L79.7095 72.2735H58.3324L30.2042 82.9085L18.4618 92.8828L0.000267029 101.348L0 96.3566L0.000228882 93.3618L0.000305176 90.3671L0 82.8803L8.14635 77.1361L45.8894 58.4189H61.0275C64.778 58.502 73.7625 46.244 73.7625 46.244C86.7332 47.0792 90.6705 40.5802 97.0464 42.2861C114.01 39.4442 122.636 38.1618 122.91 38.4389L143.396 37.4731L159.328 34.2909L164.095 38.9217L180.29 31.3408L191.542 20.0713L203.918 15C203.918 15 213.967 15.3158 214.97 15.3158L277.05 47.2052C300.155 47.3477 319.712 46.7857 335.722 45.5191L391.5 41.0577L413 55.0408L450 52.5375L455.798 52.6167L467.646 56.4261C473.366 55.401 477.07 54.9379 478.757 55.0408L496.384 67.6408C512.691 65.7291 522.474 64.8781 525.724 65.0919L580.281 88.5985L587 88.5391C593.829 88.2067 613.118 69.446 619.564 68.2982C619.564 68.2982 638.912 83.2738 642.982 82.7038C646.538 82.1339 652.409 86.7726 657.019 87.2753L686.5 82.7038C688.969 84.0218 703.09 83.1978 717.326 86.4354L732.648 78.825L759 87.2753L787.5 95.9328L825.502 92.6635L864.797 102.123L882.838 100.963L902.943 94.4565H914.328C920.149 94.0884 933.01 79.4072 935.596 79.6169L949 75.7191L985.465 61.3838L1002.77 68.9468C1005.67 69.2041 1020.83 75.7191 1020.83 75.7191C1020.83 75.7191 1033.16 64.3834 1036 64.328L1061 61.3838C1065.59 61.2453 1079.43 53.1744 1079.43 53.1744C1080.68 53.2298 1082.1 53.1942 1083.68 53.0596L1109.12 40.471H1137.5L1155.58 25.585L1180 35.5674L1210.47 30.7937L1238 55.0861H1258.12L1274 74.7138C1278.49 74.5436 1288.5 66.5129 1288.5 66.5129C1291.95 66.315 1305 61.2865 1297.82 61.5376L1327.05 71.0131L1368 74.998L1415.5 74.7138L1435.78 63.8983L1440 65.4111V78.3882V84.8768Z" fill="#FEFEFE"/>
</g>
<defs>
<filter id="filter0_d_802_143" x="-30" y="852.727" width="1500" height="154.273" filterUnits="userSpaceOnUse" color-interpolation-filters="sRGB">
<feFlood flood-opacity="0" result="BackgroundImageFix"/>
<feColorMatrix in="SourceAlpha" type="matrix" values="0 0 0 0 0 0 0 0 0 0 0 0 0 0 0 0 0 0 127 0" result="hardAlpha"/>
<feOffset dy="-20"/>
<feGaussianBlur stdDeviation="15"/>
<feComposite in2="hardAlpha" operator="out"/>
<feColorMatrix type="matrix" values="0 0 0 0 0 0 0 0 0 0 0 0 0 0 0 0 0 0 0.25 0"/>
<feBlend mode="normal" in2="BackgroundImageFix" result="effect1_dropShadow_802_143"/>
<feBlend mode="normal" in="SourceGraphic" in2="effect1_dropShadow_802_143" result="shape"/>
</filter>
<filter id="filter1_d_802_143" x="-30" y="0" width="1500" height="160" filterUnits="userSpaceOnUse" color-interpolation-filters="sRGB">
<feFlood flood-opacity="0" result="BackgroundImageFix"/>
<feColorMatrix in="SourceAlpha" type="matrix" values="0 0 0 0 0 0 0 0 0 0 0 0 0 0 0 0 0 0 127 0" result="hardAlpha"/>
<feOffset dy="15"/>
<feGaussianBlur stdDeviation="15"/>
<feComposite in2="hardAlpha" operator="out"/>
<feColorMatrix type="matrix" values="0 0 0 0 0 0 0 0 0 0 0 0 0 0 0 0 0 0 0.25 0"/>
<feBlend mode="normal" in2="BackgroundImageFix" result="effect1_dropShadow_802_143"/>
<feBlend mode="normal" in="SourceGraphic" in2="effect1_dropShadow_802_143" result="shape"/>
</filter>
</defs>
</svg>
