<svg width="277" height="165" viewBox="0 0 277 165" fill="none" xmlns="http://www.w3.org/2000/svg">
<rect x="7" y="8.5" width="268" height="154" rx="30" stroke="#576589" stroke-width="4"/>
<rect x="21" y="22.5" width="240" height="126" rx="32" fill="#576589"/>
<path d="M52.212 61.1L52.44 62.96H52.212C52.02 62.348 51.708 61.556 50.592 61.556H49.476V68.516C49.476 68.984 49.596 69.2 50.052 69.236V69.5H47.628V69.236C48.084 69.2 48.204 68.984 48.204 68.516V61.556H47.088C45.972 61.556 45.66 62.348 45.468 62.96H45.24L45.468 61.1H52.212ZM57.0817 66.392V66.464H52.9537C52.9537 66.5 52.9537 66.536 52.9657 66.572C53.0977 69.224 55.7977 69.476 56.8417 68.12L57.0097 68.264C56.6017 69.056 55.6897 69.62 54.6697 69.62C53.0857 69.62 51.7177 68.456 51.7177 66.572C51.7177 64.748 52.9537 63.704 54.5497 63.704C56.2897 63.704 57.1057 64.916 57.0817 66.392ZM54.5257 63.968C53.6857 63.98 53.0497 64.772 52.9657 66.032H55.9297C55.9657 64.964 55.5217 63.956 54.5257 63.968ZM63.0853 68.984L63.2053 69.188C62.9533 69.5 62.6173 69.62 62.2573 69.62C61.8013 69.62 61.2493 69.404 61.2373 68.696C60.9373 69.284 60.3013 69.62 59.5933 69.62C58.6573 69.62 57.6373 69.212 57.5773 68.156C57.4933 66.908 58.4653 66.344 59.6653 66.236C60.4093 66.176 60.9493 66.128 61.2373 66.104C61.2373 65.816 61.2373 65.636 61.2373 65.636C61.2373 64.58 60.9853 64.016 60.1573 63.956C59.7013 63.932 59.1973 64.184 59.2213 64.76C59.2453 65.408 58.8133 65.588 58.4293 65.444C58.1053 65.312 58.0093 64.94 58.1893 64.568C58.5013 63.896 59.4013 63.704 60.1213 63.704C61.2373 63.704 62.4853 64.076 62.4853 65.852V68.684C62.4853 69.116 62.8213 69.188 63.0853 68.984ZM59.9773 69.164C60.7453 69.14 61.2373 68.54 61.2373 67.568C61.2373 67.172 61.2373 66.74 61.2373 66.38C61.0573 66.404 60.7573 66.428 60.2893 66.488C59.3053 66.608 58.7653 67.208 58.7773 67.964C58.7893 68.792 59.3173 69.188 59.9773 69.164ZM73.1801 68.516C73.1801 68.984 73.3001 69.2 73.7561 69.236V69.5H71.3561V69.236C71.8121 69.2 71.9321 68.984 71.9321 68.516V65.84C71.9321 64.868 71.5601 64.16 70.6361 64.16C69.8321 64.16 69.3161 64.832 69.3161 65.732C69.3161 65.768 69.3161 68.516 69.3161 68.516C69.3161 68.984 69.4361 69.2 69.8801 69.236V69.5H67.4921V69.236C67.9361 69.2 68.0561 68.984 68.0561 68.516V65.84C68.0561 64.868 67.6961 64.16 66.7721 64.16C65.9681 64.16 65.4401 64.832 65.4401 65.732V68.516C65.4401 68.984 65.5601 69.2 66.0161 69.236V69.5H63.6281V69.236C64.0721 69.2 64.1921 68.984 64.1921 68.516V65.108C64.1921 64.64 64.0721 64.424 63.6281 64.388V64.124L65.2121 63.704H65.4041V64.556C65.8361 63.98 66.4601 63.704 67.1681 63.704C68.1521 63.704 68.7881 64.148 69.0881 64.832C69.5201 64.064 70.2161 63.704 71.0441 63.704C72.4961 63.704 73.1801 64.7 73.1801 65.96V68.516ZM78.4599 68.516C78.4599 68.984 78.5799 69.2 79.0359 69.236V69.5H76.6359V69.236C77.0919 69.2 77.2119 68.984 77.2119 68.516V62.072C77.2119 61.604 77.0919 61.4 76.6359 61.364V61.1L78.2679 60.668H78.4599V68.516ZM84.9371 66.392V66.464H80.8091C80.8091 66.5 80.8091 66.536 80.8211 66.572C80.9531 69.224 83.6531 69.476 84.6971 68.12L84.8651 68.264C84.4571 69.056 83.5451 69.62 82.5251 69.62C80.9411 69.62 79.5731 68.456 79.5731 66.572C79.5731 64.748 80.8091 63.704 82.4051 63.704C84.1451 63.704 84.9611 64.916 84.9371 66.392ZM82.3811 63.968C81.5411 63.98 80.9051 64.772 80.8211 66.032H83.7851C83.8211 64.964 83.3771 63.956 82.3811 63.968ZM90.9408 68.984L91.0608 69.188C90.8088 69.5 90.4728 69.62 90.1128 69.62C89.6568 69.62 89.1048 69.404 89.0928 68.696C88.7928 69.284 88.1568 69.62 87.4488 69.62C86.5128 69.62 85.4928 69.212 85.4328 68.156C85.3488 66.908 86.3208 66.344 87.5208 66.236C88.2648 66.176 88.8048 66.128 89.0928 66.104C89.0928 65.816 89.0928 65.636 89.0928 65.636C89.0928 64.58 88.8408 64.016 88.0128 63.956C87.5568 63.932 87.0528 64.184 87.0768 64.76C87.1008 65.408 86.6688 65.588 86.2848 65.444C85.9608 65.312 85.8648 64.94 86.0448 64.568C86.3568 63.896 87.2568 63.704 87.9768 63.704C89.0928 63.704 90.3408 64.076 90.3408 65.852V68.684C90.3408 69.116 90.6768 69.188 90.9408 68.984ZM87.8328 69.164C88.6008 69.14 89.0928 68.54 89.0928 67.568C89.0928 67.172 89.0928 66.74 89.0928 66.38C88.9128 66.404 88.6128 66.428 88.1448 66.488C87.1608 66.608 86.6208 67.208 86.6328 67.964C86.6448 68.792 87.1728 69.188 87.8328 69.164ZM97.9128 69.068L97.9848 69.296C97.6968 69.524 97.3728 69.62 96.9888 69.62C96.4728 69.62 95.9688 69.392 95.9688 68.672C95.9688 68.648 95.9688 68.612 95.9688 68.564C95.5728 69.164 94.9488 69.62 94.0128 69.62C92.5848 69.62 91.4208 68.468 91.4208 66.656C91.4208 64.844 92.5848 63.704 94.0128 63.704C94.9488 63.704 95.5728 64.148 95.9688 64.748V62.072C95.9688 61.604 95.8488 61.4 95.4048 61.364V61.1L97.0248 60.668H97.2168V68.648C97.2168 69.08 97.5648 69.188 97.9128 69.068ZM94.3248 69.176C95.3808 69.176 95.9688 68.192 95.9688 66.656C95.9688 65.12 95.3808 64.136 94.3248 64.136C93.2808 64.136 92.7048 65.204 92.7048 66.656C92.7048 68.108 93.2808 69.176 94.3248 69.176ZM103.699 66.392V66.464H99.5708C99.5708 66.5 99.5708 66.536 99.5828 66.572C99.7148 69.224 102.415 69.476 103.459 68.12L103.627 68.264C103.219 69.056 102.307 69.62 101.287 69.62C99.7028 69.62 98.3348 68.456 98.3348 66.572C98.3348 64.748 99.5708 63.704 101.167 63.704C102.907 63.704 103.723 64.916 103.699 66.392ZM101.143 63.968C100.303 63.98 99.6668 64.772 99.5828 66.032H102.547C102.583 64.964 102.139 63.956 101.143 63.968ZM109.019 64.448C109.115 64.772 109.007 65.204 108.671 65.324C108.275 65.456 107.843 65.312 107.795 64.724C107.747 64.28 107.507 64.196 107.171 64.256C106.691 64.34 106.187 64.988 106.187 65.852V68.528C106.187 68.996 106.307 69.2 106.751 69.236V69.5H104.363V69.236C104.807 69.2 104.927 68.996 104.927 68.528V65.108C104.927 64.64 104.807 64.424 104.363 64.388V64.124L105.959 63.704H106.151V64.724C106.487 64.064 107.027 63.716 107.723 63.704C108.287 63.692 108.851 63.944 109.019 64.448ZM112.169 66.08C113.081 66.5 114.077 67.004 113.753 68.216C113.513 69.14 112.673 69.62 111.509 69.62C110.777 69.62 109.937 69.404 109.409 68.996V67.688H109.601C109.865 68.828 110.729 69.272 111.509 69.296C112.109 69.32 112.613 69.092 112.733 68.576C112.913 67.796 112.121 67.484 111.353 67.136C110.201 66.608 109.409 66.068 109.721 64.844C109.925 64.028 110.801 63.704 111.641 63.704C112.253 63.704 112.877 63.908 113.405 64.316V65.48H113.201C112.925 64.4 112.433 63.98 111.641 64.004C111.221 64.016 110.753 64.172 110.693 64.7C110.609 65.408 111.377 65.72 112.169 66.08ZM121.739 68.12L121.907 68.252C121.499 69.056 120.659 69.62 119.603 69.62C118.007 69.62 116.651 68.456 116.651 66.572C116.651 64.784 118.031 63.704 119.579 63.704C120.587 63.704 121.355 64.04 121.715 64.64C121.919 64.988 121.895 65.54 121.439 65.696C121.067 65.828 120.587 65.588 120.623 64.928C120.659 64.316 120.215 63.92 119.543 63.98C118.643 64.064 117.803 65.012 117.887 66.572C118.019 69.224 120.695 69.476 121.739 68.12ZM128.019 68.984L128.139 69.188C127.887 69.5 127.551 69.62 127.191 69.62C126.735 69.62 126.183 69.404 126.171 68.696C125.871 69.284 125.235 69.62 124.527 69.62C123.591 69.62 122.571 69.212 122.511 68.156C122.427 66.908 123.399 66.344 124.599 66.236C125.343 66.176 125.883 66.128 126.171 66.104C126.171 65.816 126.171 65.636 126.171 65.636C126.171 64.58 125.919 64.016 125.091 63.956C124.635 63.932 124.131 64.184 124.155 64.76C124.179 65.408 123.747 65.588 123.363 65.444C123.039 65.312 122.943 64.94 123.123 64.568C123.435 63.896 124.335 63.704 125.055 63.704C126.171 63.704 127.419 64.076 127.419 65.852V68.684C127.419 69.116 127.755 69.188 128.019 68.984ZM124.911 69.164C125.679 69.14 126.171 68.54 126.171 67.568C126.171 67.172 126.171 66.74 126.171 66.38C125.991 66.404 125.691 66.428 125.223 66.488C124.239 66.608 123.699 67.208 123.711 67.964C123.723 68.792 124.251 69.188 124.911 69.164ZM134.418 68.516C134.418 68.984 134.538 69.2 134.982 69.236V69.5H132.594V69.236C133.038 69.2 133.158 68.984 133.158 68.516V65.84C133.158 64.868 132.726 64.16 131.79 64.16C130.962 64.16 130.386 64.832 130.386 65.732V68.516C130.386 68.984 130.506 69.2 130.962 69.236V69.5H128.562V69.236C129.018 69.2 129.138 68.984 129.138 68.516V65.108C129.138 64.64 129.018 64.424 128.562 64.388V64.124L130.158 63.704H130.35V64.58C130.806 63.98 131.454 63.704 132.198 63.704C133.674 63.704 134.418 64.7 134.418 65.96V68.516ZM140.446 66.08C141.358 66.5 142.354 67.004 142.03 68.216C141.79 69.14 140.95 69.62 139.786 69.62C139.054 69.62 138.214 69.404 137.686 68.996V67.688H137.878C138.142 68.828 139.006 69.272 139.786 69.296C140.386 69.32 140.89 69.092 141.01 68.576C141.19 67.796 140.398 67.484 139.63 67.136C138.478 66.608 137.686 66.068 137.998 64.844C138.202 64.028 139.078 63.704 139.918 63.704C140.53 63.704 141.154 63.908 141.682 64.316V65.48H141.478C141.202 64.4 140.71 63.98 139.918 64.004C139.498 64.016 139.03 64.172 138.97 64.7C138.886 65.408 139.654 65.72 140.446 66.08ZM148.511 68.528C148.511 68.996 148.631 69.2 149.075 69.236V69.5H147.251V68.816C146.831 69.356 146.231 69.62 145.523 69.62C144.047 69.62 143.147 68.72 143.147 67.352V65.108C143.147 64.64 143.027 64.424 142.583 64.388V64.124L144.203 63.704H144.407V67.472C144.407 68.564 144.911 69.152 145.847 69.152C146.639 69.152 147.251 68.48 147.251 67.58V65.108C147.251 64.64 147.131 64.424 146.687 64.388V64.124L148.307 63.704H148.511V68.528ZM153.33 63.704C154.758 63.704 155.922 64.844 155.922 66.656C155.922 68.468 154.758 69.62 153.33 69.62C152.286 69.62 151.638 69.044 151.242 68.348L150.378 69.5H150.126V62.072C150.126 61.604 150.006 61.4 149.562 61.364V61.1L151.182 60.668H151.386V64.748C151.782 64.148 152.394 63.704 153.33 63.704ZM153.018 69.176C154.074 69.176 154.65 68.108 154.65 66.656C154.65 65.204 154.074 64.136 153.018 64.136C151.962 64.136 151.386 65.12 151.386 66.656C151.386 68.192 151.962 69.176 153.018 69.176ZM166.133 68.516C166.133 68.984 166.253 69.2 166.709 69.236V69.5H164.309V69.236C164.765 69.2 164.885 68.984 164.885 68.516V65.84C164.885 64.868 164.513 64.16 163.589 64.16C162.785 64.16 162.269 64.832 162.269 65.732C162.269 65.768 162.269 68.516 162.269 68.516C162.269 68.984 162.389 69.2 162.833 69.236V69.5H160.445V69.236C160.889 69.2 161.009 68.984 161.009 68.516V65.84C161.009 64.868 160.649 64.16 159.725 64.16C158.921 64.16 158.393 64.832 158.393 65.732V68.516C158.393 68.984 158.513 69.2 158.969 69.236V69.5H156.581V69.236C157.025 69.2 157.145 68.984 157.145 68.516V65.108C157.145 64.64 157.025 64.424 156.581 64.388V64.124L158.165 63.704H158.357V64.556C158.789 63.98 159.413 63.704 160.121 63.704C161.105 63.704 161.741 64.148 162.041 64.832C162.473 64.064 163.169 63.704 163.997 63.704C165.449 63.704 166.133 64.7 166.133 65.96V68.516ZM168.408 62.864C167.952 62.864 167.568 62.576 167.568 62.06C167.568 61.544 167.952 61.256 168.408 61.256C168.864 61.256 169.248 61.544 169.248 62.06C169.248 62.576 168.864 62.864 168.408 62.864ZM169.128 68.516C169.128 68.984 169.248 69.2 169.692 69.236V69.5H167.304V69.236C167.748 69.2 167.868 68.984 167.868 68.516V65.108C167.868 64.64 167.748 64.424 167.304 64.388V64.124L168.936 63.704H169.128V68.516ZM173.547 68.732L173.703 68.948C173.439 69.32 173.019 69.62 172.419 69.62C171.555 69.62 170.883 69.164 170.883 67.94V64.244H169.995V63.812C171.003 63.812 171.567 63.128 171.759 62.156C171.903 62.156 172.131 62.156 172.131 62.156V63.812H173.367V64.244H172.131V67.94C172.131 68.468 172.299 68.792 172.647 68.9C172.995 69.02 173.307 68.912 173.547 68.732ZM182.042 68.984L182.162 69.188C181.91 69.5 181.574 69.62 181.214 69.62C180.758 69.62 180.206 69.404 180.194 68.696C179.894 69.284 179.258 69.62 178.55 69.62C177.614 69.62 176.594 69.212 176.534 68.156C176.45 66.908 177.422 66.344 178.622 66.236C179.366 66.176 179.906 66.128 180.194 66.104C180.194 65.816 180.194 65.636 180.194 65.636C180.194 64.58 179.942 64.016 179.114 63.956C178.658 63.932 178.154 64.184 178.178 64.76C178.202 65.408 177.77 65.588 177.386 65.444C177.062 65.312 176.966 64.94 177.146 64.568C177.458 63.896 178.358 63.704 179.078 63.704C180.194 63.704 181.442 64.076 181.442 65.852V68.684C181.442 69.116 181.778 69.188 182.042 68.984ZM178.934 69.164C179.702 69.14 180.194 68.54 180.194 67.568C180.194 67.172 180.194 66.74 180.194 66.38C180.014 66.404 179.714 66.428 179.246 66.488C178.262 66.608 177.722 67.208 177.734 67.964C177.746 68.792 178.274 69.188 178.934 69.164ZM186.236 63.704C187.664 63.704 188.828 64.844 188.828 66.656C188.828 68.468 187.664 69.62 186.236 69.62C185.192 69.62 184.544 69.044 184.148 68.348L183.284 69.5H183.032V62.072C183.032 61.604 182.912 61.4 182.468 61.364V61.1L184.088 60.668H184.292V64.748C184.688 64.148 185.3 63.704 186.236 63.704ZM185.924 69.176C186.98 69.176 187.556 68.108 187.556 66.656C187.556 65.204 186.98 64.136 185.924 64.136C184.868 64.136 184.292 65.12 184.292 66.656C184.292 68.192 184.868 69.176 185.924 69.176ZM192.185 66.08C193.097 66.5 194.093 67.004 193.769 68.216C193.529 69.14 192.689 69.62 191.525 69.62C190.793 69.62 189.953 69.404 189.425 68.996V67.688H189.617C189.881 68.828 190.745 69.272 191.525 69.296C192.125 69.32 192.629 69.092 192.749 68.576C192.929 67.796 192.137 67.484 191.369 67.136C190.217 66.608 189.425 66.068 189.737 64.844C189.941 64.028 190.817 63.704 191.657 63.704C192.269 63.704 192.893 63.908 193.421 64.316V65.48H193.217C192.941 64.4 192.449 63.98 191.657 64.004C191.237 64.016 190.769 64.172 190.709 64.7C190.625 65.408 191.393 65.72 192.185 66.08ZM197.817 68.732L197.973 68.948C197.709 69.32 197.289 69.62 196.689 69.62C195.825 69.62 195.153 69.164 195.153 67.94V64.244H194.265V63.812C195.273 63.812 195.837 63.128 196.029 62.156C196.173 62.156 196.401 62.156 196.401 62.156V63.812H197.637V64.244H196.401V67.94C196.401 68.468 196.569 68.792 196.917 68.9C197.265 69.02 197.577 68.912 197.817 68.732ZM203.108 64.448C203.204 64.772 203.096 65.204 202.76 65.324C202.364 65.456 201.932 65.312 201.884 64.724C201.836 64.28 201.596 64.196 201.26 64.256C200.78 64.34 200.276 64.988 200.276 65.852V68.528C200.276 68.996 200.396 69.2 200.84 69.236V69.5H198.452V69.236C198.896 69.2 199.016 68.996 199.016 68.528V65.108C199.016 64.64 198.896 64.424 198.452 64.388V64.124L200.048 63.704H200.24V64.724C200.576 64.064 201.116 63.716 201.812 63.704C202.376 63.692 202.94 63.944 203.108 64.448ZM208.538 68.984L208.658 69.188C208.406 69.5 208.07 69.62 207.71 69.62C207.254 69.62 206.702 69.404 206.69 68.696C206.39 69.284 205.754 69.62 205.046 69.62C204.11 69.62 203.09 69.212 203.03 68.156C202.946 66.908 203.918 66.344 205.118 66.236C205.862 66.176 206.402 66.128 206.69 66.104C206.69 65.816 206.69 65.636 206.69 65.636C206.69 64.58 206.438 64.016 205.61 63.956C205.154 63.932 204.65 64.184 204.674 64.76C204.698 65.408 204.266 65.588 203.882 65.444C203.558 65.312 203.462 64.94 203.642 64.568C203.954 63.896 204.854 63.704 205.574 63.704C206.69 63.704 207.938 64.076 207.938 65.852V68.684C207.938 69.116 208.274 69.188 208.538 68.984ZM205.43 69.164C206.198 69.14 206.69 68.54 206.69 67.568C206.69 67.172 206.69 66.74 206.69 66.38C206.51 66.404 206.21 66.428 205.742 66.488C204.758 66.608 204.218 67.208 204.23 67.964C204.242 68.792 204.77 69.188 205.43 69.164ZM214.106 68.12L214.274 68.252C213.866 69.056 213.026 69.62 211.97 69.62C210.374 69.62 209.018 68.456 209.018 66.572C209.018 64.784 210.398 63.704 211.946 63.704C212.954 63.704 213.722 64.04 214.082 64.64C214.286 64.988 214.262 65.54 213.806 65.696C213.434 65.828 212.954 65.588 212.99 64.928C213.026 64.316 212.582 63.92 211.91 63.98C211.01 64.064 210.17 65.012 210.254 66.572C210.386 69.224 213.062 69.476 214.106 68.12ZM218.184 68.732L218.34 68.948C218.076 69.32 217.656 69.62 217.056 69.62C216.192 69.62 215.52 69.164 215.52 67.94V64.244H214.632V63.812C215.64 63.812 216.204 63.128 216.396 62.156C216.54 62.156 216.768 62.156 216.768 62.156V63.812H218.004V64.244H216.768V67.94C216.768 68.468 216.936 68.792 217.284 68.9C217.632 69.02 217.944 68.912 218.184 68.732ZM221.634 66.08C222.546 66.5 223.542 67.004 223.218 68.216C222.978 69.14 222.138 69.62 220.974 69.62C220.242 69.62 219.402 69.404 218.874 68.996V67.688H219.066C219.33 68.828 220.194 69.272 220.974 69.296C221.574 69.32 222.078 69.092 222.198 68.576C222.378 67.796 221.586 67.484 220.818 67.136C219.666 66.608 218.874 66.068 219.186 64.844C219.39 64.028 220.266 63.704 221.106 63.704C221.718 63.704 222.342 63.908 222.87 64.316V65.48H222.666C222.39 64.4 221.898 63.98 221.106 64.004C220.686 64.016 220.218 64.172 220.158 64.7C220.074 65.408 220.842 65.72 221.634 66.08ZM227.4 62.864C226.944 62.864 226.56 62.576 226.56 62.06C226.56 61.544 226.944 61.256 227.4 61.256C227.856 61.256 228.24 61.544 228.24 62.06C228.24 62.576 227.856 62.864 227.4 62.864ZM228.12 68.516C228.12 68.984 228.24 69.2 228.684 69.236V69.5H226.296V69.236C226.74 69.2 226.86 68.984 226.86 68.516V65.108C226.86 64.64 226.74 64.424 226.296 64.388V64.124L227.928 63.704H228.12V68.516ZM235.14 68.516C235.14 68.984 235.26 69.2 235.704 69.236V69.5H233.316V69.236C233.76 69.2 233.88 68.984 233.88 68.516V65.84C233.88 64.868 233.448 64.16 232.512 64.16C231.684 64.16 231.108 64.832 231.108 65.732V68.516C231.108 68.984 231.228 69.2 231.684 69.236V69.5H229.284V69.236C229.74 69.2 229.86 68.984 229.86 68.516V65.108C229.86 64.64 229.74 64.424 229.284 64.388V64.124L230.88 63.704H231.072V64.58C231.528 63.98 232.176 63.704 232.92 63.704C234.396 63.704 235.14 64.7 235.14 65.96V68.516ZM49.068 77.704C50.496 77.704 51.66 78.844 51.66 80.656C51.66 82.468 50.496 83.62 49.068 83.62C48.024 83.62 47.376 83.044 46.98 82.348L46.116 83.5H45.864V76.072C45.864 75.604 45.744 75.4 45.3 75.364V75.1L46.92 74.668H47.124V78.748C47.52 78.148 48.132 77.704 49.068 77.704ZM48.756 83.176C49.812 83.176 50.388 82.108 50.388 80.656C50.388 79.204 49.812 78.136 48.756 78.136C47.7 78.136 47.124 79.12 47.124 80.656C47.124 82.192 47.7 83.176 48.756 83.176ZM55.3376 77.704C56.9336 77.704 58.3496 78.784 58.3496 80.656C58.3496 82.528 56.9336 83.62 55.3376 83.62C53.7416 83.62 52.3256 82.528 52.3256 80.656C52.3256 78.784 53.7416 77.704 55.3376 77.704ZM55.3376 83.272C56.4176 83.272 57.0536 82.216 57.0536 80.656C57.0536 79.096 56.4176 78.04 55.3376 78.04C54.2576 78.04 53.6216 79.096 53.6216 80.656C53.6216 82.216 54.2576 83.272 55.3376 83.272ZM62.3829 82.732L62.5389 82.948C62.2749 83.32 61.8549 83.62 61.2549 83.62C60.3909 83.62 59.7189 83.164 59.7189 81.94V78.244H58.8309V77.812C59.8389 77.812 60.4029 77.128 60.5949 76.156C60.7389 76.156 60.9669 76.156 60.9669 76.156V77.812H62.2029V78.244H60.9669V81.94C60.9669 82.468 61.1349 82.792 61.4829 82.9C61.8309 83.02 62.1429 82.912 62.3829 82.732ZM68.8628 82.516C68.8628 82.984 68.9828 83.2 69.4388 83.236V83.5H67.0508V83.236C67.4948 83.2 67.6148 82.984 67.6148 82.516V79.84C67.6148 78.868 67.1828 78.16 66.2467 78.16C65.4188 78.16 64.8428 78.832 64.8428 79.732V82.516C64.8428 82.984 64.9628 83.2 65.4068 83.236V83.5H63.0188V83.236C63.4628 83.2 63.5828 82.984 63.5828 82.516V76.072C63.5828 75.604 63.4628 75.4 63.0188 75.364V75.1L64.6508 74.668H64.8428V78.532C65.2988 77.968 65.9348 77.704 66.6428 77.704C68.1308 77.704 68.8628 78.7 68.8628 79.96V82.516ZM81.9474 82.528C82.0434 82.984 82.2114 83.188 82.6554 83.236V83.5H80.1834V83.236C80.5914 83.212 80.7234 82.972 80.6274 82.504L79.5354 76.888L77.2794 83.5H76.8114L74.3394 76.804L73.4514 82.516C73.3914 82.972 73.4994 83.188 73.9554 83.236V83.5H72.3234V83.236C72.7794 83.188 72.9234 82.984 72.9954 82.516L73.9794 76.144C74.0514 75.7 73.9914 75.4 73.5354 75.364V75.1H75.0594L77.4354 81.7L79.6914 75.1H81.0954V75.364C80.6754 75.4 80.5434 75.652 80.6394 76.156L81.9474 82.528ZM84.361 76.864C83.905 76.864 83.521 76.576 83.521 76.06C83.521 75.544 83.905 75.256 84.361 75.256C84.817 75.256 85.201 75.544 85.201 76.06C85.201 76.576 84.817 76.864 84.361 76.864ZM85.081 82.516C85.081 82.984 85.201 83.2 85.645 83.236V83.5H83.257V83.236C83.701 83.2 83.821 82.984 83.821 82.516V79.108C83.821 78.64 83.701 78.424 83.257 78.388V78.124L84.889 77.704H85.081V82.516ZM91.2705 82.12L91.4385 82.252C91.0305 83.056 90.1905 83.62 89.1345 83.62C87.5385 83.62 86.1825 82.456 86.1825 80.572C86.1825 78.784 87.5625 77.704 89.1105 77.704C90.1185 77.704 90.8865 78.04 91.2465 78.64C91.4505 78.988 91.4265 79.54 90.9705 79.696C90.5985 79.828 90.1185 79.588 90.1545 78.928C90.1905 78.316 89.7465 77.92 89.0745 77.98C88.1745 78.064 87.3345 79.012 87.4185 80.572C87.5505 83.224 90.2265 83.476 91.2705 82.12ZM96.749 78.448C96.845 78.772 96.737 79.204 96.401 79.324C96.005 79.456 95.573 79.312 95.525 78.724C95.477 78.28 95.237 78.196 94.901 78.256C94.421 78.34 93.917 78.988 93.917 79.852V82.528C93.917 82.996 94.037 83.2 94.481 83.236V83.5H92.093V83.236C92.537 83.2 92.657 82.996 92.657 82.528V79.108C92.657 78.64 92.537 78.424 92.093 78.388V78.124L93.689 77.704H93.881V78.724C94.217 78.064 94.757 77.716 95.453 77.704C96.017 77.692 96.581 77.944 96.749 78.448ZM100.092 77.704C101.688 77.704 103.104 78.784 103.104 80.656C103.104 82.528 101.688 83.62 100.092 83.62C98.4955 83.62 97.0795 82.528 97.0795 80.656C97.0795 78.784 98.4955 77.704 100.092 77.704ZM100.092 83.272C101.172 83.272 101.808 82.216 101.808 80.656C101.808 79.096 101.172 78.04 100.092 78.04C99.0115 78.04 98.3755 79.096 98.3755 80.656C98.3755 82.216 99.0115 83.272 100.092 83.272ZM106.462 80.08C107.374 80.5 108.37 81.004 108.046 82.216C107.806 83.14 106.966 83.62 105.802 83.62C105.07 83.62 104.23 83.404 103.702 82.996V81.688H103.894C104.158 82.828 105.022 83.272 105.802 83.296C106.402 83.32 106.906 83.092 107.026 82.576C107.206 81.796 106.414 81.484 105.646 81.136C104.494 80.608 103.702 80.068 104.014 78.844C104.218 78.028 105.094 77.704 105.934 77.704C106.546 77.704 107.17 77.908 107.698 78.316V79.48H107.494C107.218 78.4 106.726 77.98 105.934 78.004C105.514 78.016 105.046 78.172 104.986 78.7C104.902 79.408 105.67 79.72 106.462 80.08ZM111.611 77.704C113.207 77.704 114.623 78.784 114.623 80.656C114.623 82.528 113.207 83.62 111.611 83.62C110.015 83.62 108.599 82.528 108.599 80.656C108.599 78.784 110.015 77.704 111.611 77.704ZM111.611 83.272C112.691 83.272 113.327 82.216 113.327 80.656C113.327 79.096 112.691 78.04 111.611 78.04C110.531 78.04 109.895 79.096 109.895 80.656C109.895 82.216 110.531 83.272 111.611 83.272ZM119.175 75.604C119.343 75.82 119.499 76.312 119.151 76.564C118.911 76.732 118.539 76.672 118.395 76.42C118.263 76.18 118.251 75.856 118.167 75.652C118.035 75.364 117.867 75.256 117.555 75.268C117.135 75.292 116.919 75.64 116.943 76.072C117.003 76.828 117.207 76.624 117.207 77.728V77.812H118.695V78.244H117.207V82.516C117.207 82.984 117.327 83.2 117.783 83.236V83.5H115.395V83.236C115.839 83.2 115.959 82.984 115.959 82.516V78.244H114.927V77.812H115.959V77.332C115.959 76.06 116.367 74.98 117.627 74.944C118.227 74.932 118.803 75.124 119.175 75.604ZM122.488 82.732L122.644 82.948C122.38 83.32 121.96 83.62 121.36 83.62C120.496 83.62 119.824 83.164 119.824 81.94V78.244H118.936V77.812C119.944 77.812 120.508 77.128 120.7 76.156C120.844 76.156 121.072 76.156 121.072 76.156V77.812H122.308V78.244H121.072V81.94C121.072 82.468 121.24 82.792 121.588 82.9C121.936 83.02 122.248 82.912 122.488 82.732ZM135.88 75.1H137.608V75.364C137.164 75.4 136.948 75.616 136.792 76.072L134.272 83.5H133.708L131.596 76.912L129.364 83.5H128.8L126.28 76.072C126.124 75.616 125.968 75.4 125.524 75.364V75.1H128.164V75.364C127.696 75.352 127.516 75.748 127.672 76.24L129.424 81.784L131.74 75.1H132.292L134.38 81.808L136.3 76.144C136.444 75.676 136.336 75.4 135.88 75.364V75.1ZM140.017 77.704C141.613 77.704 143.029 78.784 143.029 80.656C143.029 82.528 141.613 83.62 140.017 83.62C138.421 83.62 137.005 82.528 137.005 80.656C137.005 78.784 138.421 77.704 140.017 77.704ZM140.017 83.272C141.097 83.272 141.733 82.216 141.733 80.656C141.733 79.096 141.097 78.04 140.017 78.04C138.937 78.04 138.301 79.096 138.301 80.656C138.301 82.216 138.937 83.272 140.017 83.272ZM148.347 78.448C148.443 78.772 148.335 79.204 147.999 79.324C147.603 79.456 147.171 79.312 147.123 78.724C147.075 78.28 146.835 78.196 146.499 78.256C146.019 78.34 145.515 78.988 145.515 79.852V82.528C145.515 82.996 145.635 83.2 146.079 83.236V83.5H143.691V83.236C144.135 83.2 144.255 82.996 144.255 82.528V79.108C144.255 78.64 144.135 78.424 143.691 78.388V78.124L145.287 77.704H145.479V78.724C145.815 78.064 146.355 77.716 147.051 77.704C147.615 77.692 148.179 77.944 148.347 78.448ZM155.229 83.068L155.301 83.296C155.013 83.524 154.689 83.62 154.305 83.62C153.789 83.62 153.285 83.392 153.285 82.672C153.285 82.648 153.285 82.612 153.285 82.564C152.889 83.164 152.265 83.62 151.329 83.62C149.901 83.62 148.737 82.468 148.737 80.656C148.737 78.844 149.901 77.704 151.329 77.704C152.265 77.704 152.889 78.148 153.285 78.748V76.072C153.285 75.604 153.165 75.4 152.721 75.364V75.1L154.341 74.668H154.533V82.648C154.533 83.08 154.881 83.188 155.229 83.068ZM151.641 83.176C152.697 83.176 153.285 82.192 153.285 80.656C153.285 79.12 152.697 78.136 151.641 78.136C150.597 78.136 150.021 79.204 150.021 80.656C150.021 82.108 150.597 83.176 151.641 83.176ZM163.339 82.984L163.459 83.188C163.207 83.5 162.871 83.62 162.511 83.62C162.055 83.62 161.503 83.404 161.491 82.696C161.191 83.284 160.555 83.62 159.847 83.62C158.911 83.62 157.891 83.212 157.831 82.156C157.747 80.908 158.719 80.344 159.919 80.236C160.663 80.176 161.203 80.128 161.491 80.104C161.491 79.816 161.491 79.636 161.491 79.636C161.491 78.58 161.239 78.016 160.411 77.956C159.955 77.932 159.451 78.184 159.475 78.76C159.499 79.408 159.067 79.588 158.683 79.444C158.359 79.312 158.263 78.94 158.443 78.568C158.755 77.896 159.655 77.704 160.375 77.704C161.491 77.704 162.739 78.076 162.739 79.852V82.684C162.739 83.116 163.075 83.188 163.339 82.984ZM160.231 83.164C160.999 83.14 161.491 82.54 161.491 81.568C161.491 81.172 161.491 80.74 161.491 80.38C161.311 80.404 161.011 80.428 160.543 80.488C159.559 80.608 159.019 81.208 159.031 81.964C159.043 82.792 159.571 83.188 160.231 83.164ZM169.738 82.516C169.738 82.984 169.858 83.2 170.302 83.236V83.5H167.914V83.236C168.358 83.2 168.478 82.984 168.478 82.516V79.84C168.478 78.868 168.046 78.16 167.11 78.16C166.282 78.16 165.706 78.832 165.706 79.732V82.516C165.706 82.984 165.826 83.2 166.282 83.236V83.5H163.882V83.236C164.338 83.2 164.458 82.984 164.458 82.516V79.108C164.458 78.64 164.338 78.424 163.882 78.388V78.124L165.478 77.704H165.67V78.58C166.126 77.98 166.774 77.704 167.518 77.704C168.994 77.704 169.738 78.7 169.738 79.96V82.516ZM177.331 83.068L177.403 83.296C177.115 83.524 176.791 83.62 176.407 83.62C175.891 83.62 175.387 83.392 175.387 82.672C175.387 82.648 175.387 82.612 175.387 82.564C174.991 83.164 174.367 83.62 173.431 83.62C172.003 83.62 170.839 82.468 170.839 80.656C170.839 78.844 172.003 77.704 173.431 77.704C174.367 77.704 174.991 78.148 175.387 78.748V76.072C175.387 75.604 175.267 75.4 174.823 75.364V75.1L176.443 74.668H176.635V82.648C176.635 83.08 176.983 83.188 177.331 83.068ZM173.743 83.176C174.799 83.176 175.387 82.192 175.387 80.656C175.387 79.12 174.799 78.136 173.743 78.136C172.699 78.136 172.123 79.204 172.123 80.656C172.123 82.108 172.699 83.176 173.743 83.176ZM183.221 75.1C184.997 75.1 186.617 75.928 186.617 77.68C186.617 79.42 184.997 80.248 183.221 80.248H182.189V82.516C182.189 82.984 182.309 83.2 182.753 83.236V83.5H180.341V83.236C180.797 83.2 180.905 82.984 180.905 82.516V76.072C180.905 75.604 180.797 75.4 180.341 75.364V75.1H183.221ZM183.101 79.792C184.433 79.792 185.285 79.06 185.285 77.68C185.285 76.288 184.433 75.556 183.101 75.556H182.189V79.792H183.101ZM190.598 75.1C193.73 75.1 195.302 77.032 195.302 79.3C195.302 81.568 193.73 83.5 190.598 83.5L187.454 83.488V83.236C187.898 83.188 188.018 82.984 188.018 82.516V76.072C188.018 75.604 187.898 75.4 187.454 75.364V75.1H190.598ZM190.43 83.032C192.734 83.032 193.946 81.616 193.946 79.3C193.946 76.984 192.734 75.556 190.43 75.556H189.302V83.032H190.43ZM201.755 75.1L201.983 76.96H201.755C201.563 76.348 201.239 75.556 200.135 75.556H197.927V79.204H199.367C200.207 79.204 200.435 78.916 200.519 78.412H200.735V80.44H200.519C200.435 79.936 200.207 79.66 199.367 79.66H197.927V82.516C197.927 82.984 198.047 83.188 198.491 83.236V83.5H196.079V83.236C196.523 83.188 196.643 82.984 196.643 82.516V76.072C196.643 75.604 196.523 75.4 196.079 75.364V75.1H201.755ZM49.308 89.604C49.476 89.82 49.632 90.312 49.284 90.564C49.044 90.732 48.672 90.672 48.528 90.42C48.396 90.18 48.384 89.856 48.3 89.652C48.168 89.364 48 89.256 47.688 89.268C47.268 89.292 47.052 89.64 47.076 90.072C47.136 90.828 47.34 90.624 47.34 91.728V91.812H48.828V92.244H47.34V96.516C47.34 96.984 47.46 97.2 47.916 97.236V97.5H45.528V97.236C45.972 97.2 46.092 96.984 46.092 96.516V92.244H45.06V91.812H46.092V91.332C46.092 90.06 46.5 88.98 47.76 88.944C48.36 88.932 48.936 89.124 49.308 89.604ZM51.7868 91.704C53.3828 91.704 54.7988 92.784 54.7988 94.656C54.7988 96.528 53.3828 97.62 51.7868 97.62C50.1908 97.62 48.7748 96.528 48.7748 94.656C48.7748 92.784 50.1908 91.704 51.7868 91.704ZM51.7868 97.272C52.8668 97.272 53.5028 96.216 53.5028 94.656C53.5028 93.096 52.8668 92.04 51.7868 92.04C50.7068 92.04 50.0708 93.096 50.0708 94.656C50.0708 96.216 50.7068 97.272 51.7868 97.272ZM60.1162 92.448C60.2122 92.772 60.1042 93.204 59.7682 93.324C59.3722 93.456 58.9402 93.312 58.8922 92.724C58.8442 92.28 58.6042 92.196 58.2682 92.256C57.7882 92.34 57.2842 92.988 57.2842 93.852V96.528C57.2842 96.996 57.4042 97.2 57.8482 97.236V97.5H55.4602V97.236C55.9042 97.2 56.0242 96.996 56.0242 96.528V93.108C56.0242 92.64 55.9042 92.424 55.4602 92.388V92.124L57.0562 91.704H57.2482V92.724C57.5842 92.064 58.1242 91.716 58.8202 91.704C59.3842 91.692 59.9482 91.944 60.1162 92.448ZM70.2387 96.516C70.2387 96.984 70.3587 97.2 70.8147 97.236V97.5H68.4147V97.236C68.8707 97.2 68.9907 96.984 68.9907 96.516V93.84C68.9907 92.868 68.6187 92.16 67.6947 92.16C66.8907 92.16 66.3747 92.832 66.3747 93.732C66.3747 93.768 66.3747 96.516 66.3747 96.516C66.3747 96.984 66.4947 97.2 66.9387 97.236V97.5H64.5507V97.236C64.9947 97.2 65.1147 96.984 65.1147 96.516V93.84C65.1147 92.868 64.7547 92.16 63.8307 92.16C63.0267 92.16 62.4987 92.832 62.4987 93.732V96.516C62.4987 96.984 62.6187 97.2 63.0747 97.236V97.5H60.6867V97.236C61.1307 97.2 61.2507 96.984 61.2507 96.516V93.108C61.2507 92.64 61.1307 92.424 60.6867 92.388V92.124L62.2707 91.704H62.4627V92.556C62.8947 91.98 63.5187 91.704 64.2267 91.704C65.2107 91.704 65.8467 92.148 66.1467 92.832C66.5787 92.064 67.2747 91.704 68.1027 91.704C69.5547 91.704 70.2387 92.7 70.2387 93.96V96.516ZM76.8666 96.984L76.9866 97.188C76.7346 97.5 76.3986 97.62 76.0386 97.62C75.5826 97.62 75.0306 97.404 75.0186 96.696C74.7186 97.284 74.0826 97.62 73.3746 97.62C72.4386 97.62 71.4186 97.212 71.3586 96.156C71.2746 94.908 72.2466 94.344 73.4466 94.236C74.1906 94.176 74.7306 94.128 75.0186 94.104C75.0186 93.816 75.0186 93.636 75.0186 93.636C75.0186 92.58 74.7666 92.016 73.9386 91.956C73.4826 91.932 72.9786 92.184 73.0026 92.76C73.0266 93.408 72.5946 93.588 72.2106 93.444C71.8866 93.312 71.7906 92.94 71.9706 92.568C72.2826 91.896 73.1826 91.704 73.9026 91.704C75.0186 91.704 76.2666 92.076 76.2666 93.852V96.684C76.2666 97.116 76.6026 97.188 76.8666 96.984ZM73.7586 97.164C74.5266 97.14 75.0186 96.54 75.0186 95.568C75.0186 95.172 75.0186 94.74 75.0186 94.38C74.8386 94.404 74.5386 94.428 74.0706 94.488C73.0866 94.608 72.5466 95.208 72.5586 95.964C72.5706 96.792 73.0986 97.188 73.7586 97.164ZM80.6642 96.732L80.8202 96.948C80.5562 97.32 80.1362 97.62 79.5362 97.62C78.6722 97.62 78.0002 97.164 78.0002 95.94V92.244H77.1122V91.812C78.1202 91.812 78.6842 91.128 78.8762 90.156C79.0202 90.156 79.2482 90.156 79.2482 90.156V91.812H80.4842V92.244H79.2482V95.94C79.2482 96.468 79.4162 96.792 79.7642 96.9C80.1122 97.02 80.4242 96.912 80.6642 96.732ZM84.1144 94.08C85.0264 94.5 86.0224 95.004 85.6984 96.216C85.4584 97.14 84.6184 97.62 83.4544 97.62C82.7224 97.62 81.8824 97.404 81.3544 96.996V95.688H81.5464C81.8104 96.828 82.6744 97.272 83.4544 97.296C84.0544 97.32 84.5584 97.092 84.6784 96.576C84.8584 95.796 84.0664 95.484 83.2984 95.136C82.1464 94.608 81.3544 94.068 81.6664 92.844C81.8704 92.028 82.7464 91.704 83.5864 91.704C84.1984 91.704 84.8224 91.908 85.3504 92.316V93.48H85.1464C84.8704 92.4 84.3784 91.98 83.5864 92.004C83.1664 92.016 82.6984 92.172 82.6384 92.7C82.5544 93.408 83.3224 93.72 84.1144 94.08ZM87.3462 96.204C87.7542 96.204 88.0902 96.456 88.0902 96.912C88.0902 97.356 87.7542 97.62 87.3462 97.62C86.9502 97.62 86.6142 97.356 86.6142 96.912C86.6142 96.456 86.9502 96.204 87.3462 96.204ZM97.2473 89.1L97.4753 90.96H97.2473C97.0553 90.348 96.7313 89.556 95.6273 89.556H93.4193V93.204H94.8593C95.6993 93.204 95.9273 92.916 96.0113 92.412H96.2273V94.44H96.0113C95.9273 93.936 95.6993 93.66 94.8593 93.66H93.4193V96.516C93.4193 96.984 93.5393 97.188 93.9833 97.236V97.5H91.5713V97.236C92.0153 97.188 92.1353 96.984 92.1353 96.516V90.072C92.1353 89.604 92.0153 89.4 91.5713 89.364V89.1H97.2473ZM100.244 91.704C101.84 91.704 103.256 92.784 103.256 94.656C103.256 96.528 101.84 97.62 100.244 97.62C98.6479 97.62 97.2319 96.528 97.2319 94.656C97.2319 92.784 98.6479 91.704 100.244 91.704ZM100.244 97.272C101.324 97.272 101.96 96.216 101.96 94.656C101.96 93.096 101.324 92.04 100.244 92.04C99.1639 92.04 98.5279 93.096 98.5279 94.656C98.5279 96.216 99.1639 97.272 100.244 97.272ZM108.573 92.448C108.669 92.772 108.561 93.204 108.225 93.324C107.829 93.456 107.397 93.312 107.349 92.724C107.301 92.28 107.061 92.196 106.725 92.256C106.245 92.34 105.741 92.988 105.741 93.852V96.528C105.741 96.996 105.861 97.2 106.305 97.236V97.5H103.917V97.236C104.361 97.2 104.481 96.996 104.481 96.528V93.108C104.481 92.64 104.361 92.424 103.917 92.388V92.124L105.513 91.704H105.705V92.724C106.041 92.064 106.581 91.716 107.277 91.704C107.841 91.692 108.405 91.944 108.573 92.448ZM117.858 97.068L117.93 97.296C117.642 97.524 117.318 97.62 116.934 97.62C116.418 97.62 115.914 97.392 115.914 96.672C115.914 96.648 115.914 96.612 115.914 96.564C115.518 97.164 114.894 97.62 113.958 97.62C112.53 97.62 111.366 96.468 111.366 94.656C111.366 92.844 112.53 91.704 113.958 91.704C114.894 91.704 115.518 92.148 115.914 92.748V90.072C115.914 89.604 115.794 89.4 115.35 89.364V89.1L116.97 88.668H117.162V96.648C117.162 97.08 117.51 97.188 117.858 97.068ZM114.27 97.176C115.326 97.176 115.914 96.192 115.914 94.656C115.914 93.12 115.326 92.136 114.27 92.136C113.226 92.136 112.65 93.204 112.65 94.656C112.65 96.108 113.226 97.176 114.27 97.176ZM123.644 94.392V94.464H119.516C119.516 94.5 119.516 94.536 119.528 94.572C119.66 97.224 122.36 97.476 123.404 96.12L123.572 96.264C123.164 97.056 122.252 97.62 121.232 97.62C119.648 97.62 118.28 96.456 118.28 94.572C118.28 92.748 119.516 91.704 121.112 91.704C122.852 91.704 123.668 92.916 123.644 94.392ZM121.088 91.968C120.248 91.98 119.612 92.772 119.528 94.032H122.492C122.528 92.964 122.084 91.956 121.088 91.968ZM127.68 96.732L127.836 96.948C127.572 97.32 127.152 97.62 126.552 97.62C125.688 97.62 125.016 97.164 125.016 95.94V92.244H124.128V91.812C125.136 91.812 125.7 91.128 125.892 90.156C126.036 90.156 126.264 90.156 126.264 90.156V91.812H127.5V92.244H126.264V95.94C126.264 96.468 126.432 96.792 126.78 96.9C127.128 97.02 127.44 96.912 127.68 96.732ZM133.773 96.984L133.893 97.188C133.641 97.5 133.305 97.62 132.945 97.62C132.489 97.62 131.937 97.404 131.925 96.696C131.625 97.284 130.989 97.62 130.281 97.62C129.345 97.62 128.325 97.212 128.265 96.156C128.181 94.908 129.153 94.344 130.353 94.236C131.097 94.176 131.637 94.128 131.925 94.104C131.925 93.816 131.925 93.636 131.925 93.636C131.925 92.58 131.673 92.016 130.845 91.956C130.389 91.932 129.885 92.184 129.909 92.76C129.933 93.408 129.501 93.588 129.117 93.444C128.793 93.312 128.697 92.94 128.877 92.568C129.189 91.896 130.089 91.704 130.809 91.704C131.925 91.704 133.173 92.076 133.173 93.852V96.684C133.173 97.116 133.509 97.188 133.773 96.984ZM130.665 97.164C131.433 97.14 131.925 96.54 131.925 95.568C131.925 95.172 131.925 94.74 131.925 94.38C131.745 94.404 131.445 94.428 130.977 94.488C129.993 94.608 129.453 95.208 129.465 95.964C129.477 96.792 130.005 97.188 130.665 97.164ZM135.42 90.864C134.964 90.864 134.58 90.576 134.58 90.06C134.58 89.544 134.964 89.256 135.42 89.256C135.876 89.256 136.26 89.544 136.26 90.06C136.26 90.576 135.876 90.864 135.42 90.864ZM136.14 96.516C136.14 96.984 136.26 97.2 136.704 97.236V97.5H134.316V97.236C134.76 97.2 134.88 96.984 134.88 96.516V93.108C134.88 92.64 134.76 92.424 134.316 92.388V92.124L135.948 91.704H136.14V96.516ZM139.128 96.516C139.128 96.984 139.248 97.2 139.704 97.236V97.5H137.304V97.236C137.76 97.2 137.88 96.984 137.88 96.516V90.072C137.88 89.604 137.76 89.4 137.304 89.364V89.1L138.936 88.668H139.128V96.516ZM145.605 94.392V94.464H141.477C141.477 94.5 141.477 94.536 141.489 94.572C141.621 97.224 144.321 97.476 145.365 96.12L145.533 96.264C145.125 97.056 144.213 97.62 143.193 97.62C141.609 97.62 140.241 96.456 140.241 94.572C140.241 92.748 141.477 91.704 143.073 91.704C144.813 91.704 145.629 92.916 145.605 94.392ZM143.049 91.968C142.209 91.98 141.573 92.772 141.489 94.032H144.453C144.489 92.964 144.045 91.956 143.049 91.968ZM152.827 97.068L152.899 97.296C152.611 97.524 152.287 97.62 151.903 97.62C151.387 97.62 150.883 97.392 150.883 96.672C150.883 96.648 150.883 96.612 150.883 96.564C150.487 97.164 149.863 97.62 148.927 97.62C147.499 97.62 146.335 96.468 146.335 94.656C146.335 92.844 147.499 91.704 148.927 91.704C149.863 91.704 150.487 92.148 150.883 92.748V90.072C150.883 89.604 150.763 89.4 150.319 89.364V89.1L151.939 88.668H152.131V96.648C152.131 97.08 152.479 97.188 152.827 97.068ZM149.239 97.176C150.295 97.176 150.883 96.192 150.883 94.656C150.883 93.12 150.295 92.136 149.239 92.136C148.195 92.136 147.619 93.204 147.619 94.656C147.619 96.108 148.195 97.176 149.239 97.176ZM156.701 90.864C156.245 90.864 155.861 90.576 155.861 90.06C155.861 89.544 156.245 89.256 156.701 89.256C157.157 89.256 157.541 89.544 157.541 90.06C157.541 90.576 157.157 90.864 156.701 90.864ZM157.421 96.516C157.421 96.984 157.541 97.2 157.985 97.236V97.5H155.597V97.236C156.041 97.2 156.161 96.984 156.161 96.516V93.108C156.161 92.64 156.041 92.424 155.597 92.388V92.124L157.229 91.704H157.421V96.516ZM164.441 96.516C164.441 96.984 164.561 97.2 165.005 97.236V97.5H162.617V97.236C163.061 97.2 163.181 96.984 163.181 96.516V93.84C163.181 92.868 162.749 92.16 161.813 92.16C160.985 92.16 160.409 92.832 160.409 93.732V96.516C160.409 96.984 160.529 97.2 160.985 97.236V97.5H158.585V97.236C159.041 97.2 159.161 96.984 159.161 96.516V93.108C159.161 92.64 159.041 92.424 158.585 92.388V92.124L160.181 91.704H160.373V92.58C160.829 91.98 161.477 91.704 162.221 91.704C163.697 91.704 164.441 92.7 164.441 93.96V96.516ZM169.496 89.604C169.664 89.82 169.82 90.312 169.472 90.564C169.232 90.732 168.86 90.672 168.715 90.42C168.584 90.18 168.572 89.856 168.488 89.652C168.355 89.364 168.188 89.256 167.876 89.268C167.456 89.292 167.24 89.64 167.264 90.072C167.324 90.828 167.528 90.624 167.528 91.728V91.812H169.016V92.244H167.528V96.516C167.528 96.984 167.648 97.2 168.104 97.236V97.5H165.716V97.236C166.16 97.2 166.28 96.984 166.28 96.516V92.244H165.248V91.812H166.28V91.332C166.28 90.06 166.688 88.98 167.948 88.944C168.548 88.932 169.124 89.124 169.496 89.604ZM171.974 91.704C173.57 91.704 174.986 92.784 174.986 94.656C174.986 96.528 173.57 97.62 171.974 97.62C170.378 97.62 168.962 96.528 168.962 94.656C168.962 92.784 170.378 91.704 171.974 91.704ZM171.974 97.272C173.054 97.272 173.69 96.216 173.69 94.656C173.69 93.096 173.054 92.04 171.974 92.04C170.894 92.04 170.258 93.096 170.258 94.656C170.258 96.216 170.894 97.272 171.974 97.272ZM180.304 92.448C180.4 92.772 180.292 93.204 179.956 93.324C179.56 93.456 179.128 93.312 179.08 92.724C179.032 92.28 178.792 92.196 178.456 92.256C177.976 92.34 177.472 92.988 177.472 93.852V96.528C177.472 96.996 177.592 97.2 178.036 97.236V97.5H175.648V97.236C176.092 97.2 176.212 96.996 176.212 96.528V93.108C176.212 92.64 176.092 92.424 175.648 92.388V92.124L177.244 91.704H177.436V92.724C177.772 92.064 178.312 91.716 179.008 91.704C179.572 91.692 180.136 91.944 180.304 92.448ZM190.426 96.516C190.426 96.984 190.546 97.2 191.002 97.236V97.5H188.602V97.236C189.058 97.2 189.178 96.984 189.178 96.516V93.84C189.178 92.868 188.806 92.16 187.882 92.16C187.078 92.16 186.562 92.832 186.562 93.732C186.562 93.768 186.562 96.516 186.562 96.516C186.562 96.984 186.682 97.2 187.126 97.236V97.5H184.738V97.236C185.182 97.2 185.302 96.984 185.302 96.516V93.84C185.302 92.868 184.942 92.16 184.018 92.16C183.214 92.16 182.686 92.832 182.686 93.732V96.516C182.686 96.984 182.806 97.2 183.262 97.236V97.5H180.874V97.236C181.318 97.2 181.438 96.984 181.438 96.516V93.108C181.438 92.64 181.318 92.424 180.874 92.388V92.124L182.458 91.704H182.65V92.556C183.082 91.98 183.706 91.704 184.414 91.704C185.398 91.704 186.034 92.148 186.334 92.832C186.766 92.064 187.462 91.704 188.29 91.704C189.742 91.704 190.426 92.7 190.426 93.96V96.516ZM197.054 96.984L197.174 97.188C196.922 97.5 196.586 97.62 196.226 97.62C195.77 97.62 195.218 97.404 195.206 96.696C194.906 97.284 194.27 97.62 193.562 97.62C192.626 97.62 191.606 97.212 191.546 96.156C191.462 94.908 192.434 94.344 193.634 94.236C194.378 94.176 194.918 94.128 195.206 94.104C195.206 93.816 195.206 93.636 195.206 93.636C195.206 92.58 194.954 92.016 194.126 91.956C193.67 91.932 193.166 92.184 193.19 92.76C193.214 93.408 192.782 93.588 192.398 93.444C192.074 93.312 191.978 92.94 192.158 92.568C192.47 91.896 193.37 91.704 194.09 91.704C195.206 91.704 196.454 92.076 196.454 93.852V96.684C196.454 97.116 196.79 97.188 197.054 96.984ZM193.946 97.164C194.714 97.14 195.206 96.54 195.206 95.568C195.206 95.172 195.206 94.74 195.206 94.38C195.026 94.404 194.726 94.428 194.258 94.488C193.274 94.608 192.734 95.208 192.746 95.964C192.758 96.792 193.286 97.188 193.946 97.164ZM200.852 96.732L201.008 96.948C200.744 97.32 200.324 97.62 199.724 97.62C198.86 97.62 198.188 97.164 198.188 95.94V92.244H197.3V91.812C198.308 91.812 198.872 91.128 199.064 90.156C199.208 90.156 199.436 90.156 199.436 90.156V91.812H200.672V92.244H199.436V95.94C199.436 96.468 199.604 96.792 199.952 96.9C200.3 97.02 200.612 96.912 200.852 96.732ZM202.592 90.864C202.136 90.864 201.752 90.576 201.752 90.06C201.752 89.544 202.136 89.256 202.592 89.256C203.048 89.256 203.432 89.544 203.432 90.06C203.432 90.576 203.048 90.864 202.592 90.864ZM203.312 96.516C203.312 96.984 203.432 97.2 203.876 97.236V97.5H201.488V97.236C201.932 97.2 202.052 96.984 202.052 96.516V93.108C202.052 92.64 201.932 92.424 201.488 92.388V92.124L203.12 91.704H203.312V96.516ZM207.365 91.704C208.961 91.704 210.377 92.784 210.377 94.656C210.377 96.528 208.961 97.62 207.365 97.62C205.769 97.62 204.353 96.528 204.353 94.656C204.353 92.784 205.769 91.704 207.365 91.704ZM207.365 97.272C208.445 97.272 209.081 96.216 209.081 94.656C209.081 93.096 208.445 92.04 207.365 92.04C206.285 92.04 205.649 93.096 205.649 94.656C205.649 96.216 206.285 97.272 207.365 97.272ZM216.894 96.516C216.894 96.984 217.014 97.2 217.458 97.236V97.5H215.07V97.236C215.514 97.2 215.634 96.984 215.634 96.516V93.84C215.634 92.868 215.202 92.16 214.266 92.16C213.438 92.16 212.862 92.832 212.862 93.732V96.516C212.862 96.984 212.982 97.2 213.438 97.236V97.5H211.038V97.236C211.494 97.2 211.614 96.984 211.614 96.516V93.108C211.614 92.64 211.494 92.424 211.038 92.388V92.124L212.634 91.704H212.826V92.58C213.282 91.98 213.93 91.704 214.674 91.704C216.15 91.704 216.894 92.7 216.894 93.96V96.516ZM218.901 96.204C219.297 96.204 219.609 96.504 219.621 97.008C219.645 98.088 218.985 98.844 218.493 99.228L218.289 99.012C218.817 98.448 218.961 98.1 219.021 97.62C219.009 97.62 218.901 97.62 218.901 97.62C218.505 97.62 218.181 97.368 218.181 96.912C218.181 96.456 218.505 96.204 218.901 96.204ZM48.96 105.704C50.388 105.704 51.54 106.844 51.54 108.656C51.54 110.48 50.388 111.62 48.96 111.62C48.024 111.62 47.4 111.164 47.004 110.576V113.24C47.004 113.708 47.124 113.912 47.568 113.948V114.212H45.18V113.948C45.636 113.912 45.756 113.708 45.756 113.24V107.108C45.756 106.64 45.636 106.424 45.18 106.388V106.124L46.812 105.704H47.004V106.748C47.4 106.148 48.024 105.704 48.96 105.704ZM48.648 111.176C49.692 111.176 50.268 110.108 50.268 108.656C50.268 107.204 49.692 106.136 48.648 106.136C47.592 106.136 47.004 107.12 47.004 108.656C47.004 110.192 47.592 111.176 48.648 111.176ZM54.0263 110.516C54.0263 110.984 54.1463 111.2 54.6023 111.236V111.5H52.2023V111.236C52.6583 111.2 52.7783 110.984 52.7783 110.516V104.072C52.7783 103.604 52.6583 103.4 52.2023 103.364V103.1L53.8343 102.668H54.0263V110.516ZM60.5035 108.392V108.464H56.3755C56.3755 108.5 56.3755 108.536 56.3875 108.572C56.5195 111.224 59.2195 111.476 60.2635 110.12L60.4315 110.264C60.0235 111.056 59.1115 111.62 58.0915 111.62C56.5075 111.62 55.1395 110.456 55.1395 108.572C55.1395 106.748 56.3755 105.704 57.9715 105.704C59.7115 105.704 60.5275 106.916 60.5035 108.392ZM57.9475 105.968C57.1075 105.98 56.4715 106.772 56.3875 108.032H59.3515C59.3875 106.964 58.9435 105.956 57.9475 105.968ZM66.5072 110.984L66.6272 111.188C66.3752 111.5 66.0392 111.62 65.6792 111.62C65.2232 111.62 64.6712 111.404 64.6592 110.696C64.3592 111.284 63.7232 111.62 63.0152 111.62C62.0792 111.62 61.0592 111.212 60.9992 110.156C60.9152 108.908 61.8872 108.344 63.0872 108.236C63.8312 108.176 64.3712 108.128 64.6592 108.104C64.6592 107.816 64.6592 107.636 64.6592 107.636C64.6592 106.58 64.4072 106.016 63.5792 105.956C63.1232 105.932 62.6192 106.184 62.6432 106.76C62.6672 107.408 62.2352 107.588 61.8512 107.444C61.5272 107.312 61.4312 106.94 61.6112 106.568C61.9232 105.896 62.8232 105.704 63.5432 105.704C64.6592 105.704 65.9072 106.076 65.9072 107.852V110.684C65.9072 111.116 66.2432 111.188 66.5072 110.984ZM63.3992 111.164C64.1672 111.14 64.6592 110.54 64.6592 109.568C64.6592 109.172 64.6592 108.74 64.6592 108.38C64.4792 108.404 64.1792 108.428 63.7112 108.488C62.7272 108.608 62.1872 109.208 62.1992 109.964C62.2112 110.792 62.7392 111.188 63.3992 111.164ZM69.7472 108.08C70.6592 108.5 71.6552 109.004 71.3312 110.216C71.0912 111.14 70.2512 111.62 69.0872 111.62C68.3552 111.62 67.5152 111.404 66.9872 110.996V109.688H67.1792C67.4432 110.828 68.3072 111.272 69.0872 111.296C69.6872 111.32 70.1912 111.092 70.3112 110.576C70.4912 109.796 69.6992 109.484 68.9312 109.136C67.7792 108.608 66.9872 108.068 67.2992 106.844C67.5032 106.028 68.3792 105.704 69.2192 105.704C69.8312 105.704 70.4552 105.908 70.9832 106.316V107.48H70.7792C70.5032 106.4 70.0112 105.98 69.2192 106.004C68.7992 106.016 68.3312 106.172 68.2712 106.7C68.1872 107.408 68.9552 107.72 69.7472 108.08ZM77.3082 108.392V108.464H73.1802C73.1802 108.5 73.1802 108.536 73.1922 108.572C73.3242 111.224 76.0242 111.476 77.0682 110.12L77.2362 110.264C76.8282 111.056 75.9162 111.62 74.8962 111.62C73.3122 111.62 71.9442 110.456 71.9442 108.572C71.9442 106.748 73.1802 105.704 74.7762 105.704C76.5162 105.704 77.3322 106.916 77.3082 108.392ZM74.7522 105.968C73.9122 105.98 73.2762 106.772 73.1922 108.032H76.1562C76.1922 106.964 75.7482 105.956 74.7522 105.968ZM84.913 106.448C85.009 106.772 84.901 107.204 84.565 107.324C84.169 107.456 83.737 107.312 83.689 106.724C83.641 106.28 83.401 106.196 83.065 106.256C82.585 106.34 82.081 106.988 82.081 107.852V110.528C82.081 110.996 82.201 111.2 82.645 111.236V111.5H80.257V111.236C80.701 111.2 80.821 110.996 80.821 110.528V107.108C80.821 106.64 80.701 106.424 80.257 106.388V106.124L81.853 105.704H82.045V106.724C82.381 106.064 82.921 105.716 83.617 105.704C84.181 105.692 84.745 105.944 84.913 106.448ZM90.6676 108.392V108.464H86.5396C86.5396 108.5 86.5396 108.536 86.5516 108.572C86.6836 111.224 89.3836 111.476 90.4276 110.12L90.5956 110.264C90.1876 111.056 89.2756 111.62 88.2556 111.62C86.6716 111.62 85.3036 110.456 85.3036 108.572C85.3036 106.748 86.5396 105.704 88.1356 105.704C89.8756 105.704 90.6916 106.916 90.6676 108.392ZM88.1116 105.968C87.2716 105.98 86.6356 106.772 86.5516 108.032H89.5156C89.5516 106.964 89.1076 105.956 88.1116 105.968ZM95.2221 103.604C95.3901 103.82 95.5461 104.312 95.1981 104.564C94.9581 104.732 94.5861 104.672 94.4421 104.42C94.3101 104.18 94.2981 103.856 94.2141 103.652C94.0821 103.364 93.9141 103.256 93.6021 103.268C93.1821 103.292 92.9661 103.64 92.9901 104.072C93.0501 104.828 93.2541 104.624 93.2541 105.728V105.812H94.7421V106.244H93.2541V110.516C93.2541 110.984 93.3741 111.2 93.8301 111.236V111.5H91.4421V111.236C91.8861 111.2 92.0061 110.984 92.0061 110.516V106.244H90.9741V105.812H92.0061V105.332C92.0061 104.06 92.4141 102.98 93.6741 102.944C94.2741 102.932 94.8501 103.124 95.2221 103.604ZM100.113 108.392V108.464H95.9849C95.9849 108.5 95.9849 108.536 95.9969 108.572C96.1289 111.224 98.8289 111.476 99.8729 110.12L100.041 110.264C99.6329 111.056 98.7209 111.62 97.7009 111.62C96.1169 111.62 94.7489 110.456 94.7489 108.572C94.7489 106.748 95.9849 105.704 97.5809 105.704C99.3209 105.704 100.137 106.916 100.113 108.392ZM97.5569 105.968C96.7169 105.98 96.0809 106.772 95.9969 108.032H98.9609C98.9969 106.964 98.5529 105.956 97.5569 105.968ZM105.433 106.448C105.529 106.772 105.421 107.204 105.085 107.324C104.689 107.456 104.257 107.312 104.209 106.724C104.161 106.28 103.921 106.196 103.585 106.256C103.105 106.34 102.601 106.988 102.601 107.852V110.528C102.601 110.996 102.721 111.2 103.165 111.236V111.5H100.777V111.236C101.221 111.2 101.341 110.996 101.341 110.528V107.108C101.341 106.64 101.221 106.424 100.777 106.388V106.124L102.373 105.704H102.565V106.724C102.901 106.064 103.441 105.716 104.137 105.704C104.701 105.692 105.265 105.944 105.433 106.448ZM111.777 110.732L111.933 110.948C111.669 111.32 111.249 111.62 110.649 111.62C109.785 111.62 109.113 111.164 109.113 109.94V106.244H108.225V105.812C109.233 105.812 109.797 105.128 109.989 104.156C110.133 104.156 110.361 104.156 110.361 104.156V105.812H111.597V106.244H110.361V109.94C110.361 110.468 110.529 110.792 110.877 110.9C111.225 111.02 111.537 110.912 111.777 110.732ZM115.185 105.704C116.781 105.704 118.197 106.784 118.197 108.656C118.197 110.528 116.781 111.62 115.185 111.62C113.589 111.62 112.173 110.528 112.173 108.656C112.173 106.784 113.589 105.704 115.185 105.704ZM115.185 111.272C116.265 111.272 116.901 110.216 116.901 108.656C116.901 107.096 116.265 106.04 115.185 106.04C114.105 106.04 113.469 107.096 113.469 108.656C113.469 110.216 114.105 111.272 115.185 111.272ZM124.516 110.732L124.672 110.948C124.408 111.32 123.988 111.62 123.388 111.62C122.524 111.62 121.852 111.164 121.852 109.94V106.244H120.964V105.812C121.972 105.812 122.536 105.128 122.728 104.156C122.872 104.156 123.1 104.156 123.1 104.156V105.812H124.336V106.244H123.1V109.94C123.1 110.468 123.268 110.792 123.616 110.9C123.964 111.02 124.276 110.912 124.516 110.732ZM130.996 110.516C130.996 110.984 131.116 111.2 131.572 111.236V111.5H129.184V111.236C129.628 111.2 129.748 110.984 129.748 110.516V107.84C129.748 106.868 129.316 106.16 128.38 106.16C127.552 106.16 126.976 106.832 126.976 107.732V110.516C126.976 110.984 127.096 111.2 127.54 111.236V111.5H125.152V111.236C125.596 111.2 125.716 110.984 125.716 110.516V104.072C125.716 103.604 125.596 103.4 125.152 103.364V103.1L126.784 102.668H126.976V106.532C127.432 105.968 128.068 105.704 128.776 105.704C130.264 105.704 130.996 106.7 130.996 107.96V110.516ZM137.472 108.392V108.464H133.344C133.344 108.5 133.344 108.536 133.356 108.572C133.488 111.224 136.188 111.476 137.232 110.12L137.4 110.264C136.992 111.056 136.08 111.62 135.06 111.62C133.476 111.62 132.108 110.456 132.108 108.572C132.108 106.748 133.344 105.704 134.94 105.704C136.68 105.704 137.496 106.916 137.472 108.392ZM134.916 105.968C134.076 105.98 133.44 106.772 133.356 108.032H136.32C136.356 106.964 135.912 105.956 134.916 105.968ZM143.529 110.576C145.665 110.576 146.697 111.092 146.649 112.256C146.601 113.612 145.377 114.692 143.433 114.692C141.741 114.692 140.073 114.068 140.193 112.832C140.265 112.244 140.781 111.764 141.597 111.488C140.817 111.26 140.397 110.852 140.517 110.264C140.649 109.676 141.393 109.412 141.957 109.292C141.441 108.956 141.105 108.416 141.105 107.696C141.105 106.412 142.197 105.704 143.421 105.704C143.889 105.704 144.345 105.8 144.729 106.004C144.753 105.716 144.849 105.428 144.993 105.14C145.269 104.624 145.977 104.468 146.217 104.9C146.397 105.26 146.133 105.728 145.629 105.668C145.389 105.644 145.257 105.668 145.137 105.752C145.017 105.836 144.981 105.992 144.969 106.16C145.437 106.496 145.749 107.024 145.749 107.696C145.749 108.98 144.645 109.712 143.421 109.712C143.037 109.712 142.653 109.628 142.317 109.496C141.921 109.556 141.285 109.712 141.261 110.036C141.213 110.504 141.921 110.576 143.529 110.576ZM143.421 106.004C142.749 106.004 142.245 106.592 142.245 107.696C142.245 108.812 142.749 109.4 143.421 109.4C144.105 109.4 144.609 108.812 144.609 107.696C144.609 106.592 144.105 106.004 143.421 106.004ZM145.689 112.856C145.845 111.896 144.993 111.692 143.373 111.692C142.953 111.692 142.557 111.668 142.209 111.62C141.705 111.8 141.225 112.172 141.189 112.868C141.129 114.032 142.449 114.356 143.493 114.356C144.513 114.368 145.521 113.84 145.689 112.856ZM152.707 110.528C152.707 110.996 152.827 111.2 153.271 111.236V111.5H151.447V110.816C151.027 111.356 150.427 111.62 149.719 111.62C148.243 111.62 147.343 110.72 147.343 109.352V107.108C147.343 106.64 147.223 106.424 146.779 106.388V106.124L148.399 105.704H148.603V109.472C148.603 110.564 149.107 111.152 150.043 111.152C150.835 111.152 151.447 110.48 151.447 109.58V107.108C151.447 106.64 151.327 106.424 150.883 106.388V106.124L152.503 105.704H152.707V110.528ZM155.095 104.864C154.639 104.864 154.255 104.576 154.255 104.06C154.255 103.544 154.639 103.256 155.095 103.256C155.551 103.256 155.935 103.544 155.935 104.06C155.935 104.576 155.551 104.864 155.095 104.864ZM155.815 110.516C155.815 110.984 155.935 111.2 156.379 111.236V111.5H153.991V111.236C154.435 111.2 154.555 110.984 154.555 110.516V107.108C154.555 106.64 154.435 106.424 153.991 106.388V106.124L155.623 105.704H155.815V110.516ZM163.409 111.068L163.481 111.296C163.193 111.524 162.869 111.62 162.485 111.62C161.969 111.62 161.465 111.392 161.465 110.672C161.465 110.648 161.465 110.612 161.465 110.564C161.069 111.164 160.445 111.62 159.509 111.62C158.081 111.62 156.917 110.468 156.917 108.656C156.917 106.844 158.081 105.704 159.509 105.704C160.445 105.704 161.069 106.148 161.465 106.748V104.072C161.465 103.604 161.345 103.4 160.901 103.364V103.1L162.521 102.668H162.713V110.648C162.713 111.08 163.061 111.188 163.409 111.068ZM159.821 111.176C160.877 111.176 161.465 110.192 161.465 108.656C161.465 107.12 160.877 106.136 159.821 106.136C158.777 106.136 158.201 107.204 158.201 108.656C158.201 110.108 158.777 111.176 159.821 111.176ZM169.195 108.392V108.464H165.067C165.067 108.5 165.067 108.536 165.079 108.572C165.211 111.224 167.911 111.476 168.955 110.12L169.123 110.264C168.715 111.056 167.803 111.62 166.783 111.62C165.199 111.62 163.831 110.456 163.831 108.572C163.831 106.748 165.067 105.704 166.663 105.704C168.403 105.704 169.219 106.916 169.195 108.392ZM166.639 105.968C165.799 105.98 165.163 106.772 165.079 108.032H168.043C168.079 106.964 167.635 105.956 166.639 105.968ZM173.509 105.704C174.937 105.704 176.101 106.844 176.101 108.656C176.101 110.468 174.937 111.62 173.509 111.62C172.465 111.62 171.817 111.044 171.421 110.348L170.557 111.5H170.305V104.072C170.305 103.604 170.185 103.4 169.741 103.364V103.1L171.361 102.668H171.565V106.748C171.961 106.148 172.573 105.704 173.509 105.704ZM173.197 111.176C174.253 111.176 174.829 110.108 174.829 108.656C174.829 107.204 174.253 106.136 173.197 106.136C172.141 106.136 171.565 107.12 171.565 108.656C171.565 110.192 172.141 111.176 173.197 111.176ZM179.779 105.704C181.375 105.704 182.791 106.784 182.791 108.656C182.791 110.528 181.375 111.62 179.779 111.62C178.183 111.62 176.767 110.528 176.767 108.656C176.767 106.784 178.183 105.704 179.779 105.704ZM179.779 111.272C180.859 111.272 181.495 110.216 181.495 108.656C181.495 107.096 180.859 106.04 179.779 106.04C178.699 106.04 178.063 107.096 178.063 108.656C178.063 110.216 178.699 111.272 179.779 111.272ZM186.47 105.704C188.066 105.704 189.482 106.784 189.482 108.656C189.482 110.528 188.066 111.62 186.47 111.62C184.874 111.62 183.458 110.528 183.458 108.656C183.458 106.784 184.874 105.704 186.47 105.704ZM186.47 111.272C187.55 111.272 188.186 110.216 188.186 108.656C188.186 107.096 187.55 106.04 186.47 106.04C185.39 106.04 184.754 107.096 184.754 108.656C184.754 110.216 185.39 111.272 186.47 111.272ZM195.664 110.516C195.976 110.936 196.228 111.152 196.588 111.236V111.5H194.2V111.236C194.596 111.188 194.596 110.936 194.272 110.516L192.736 108.524L191.956 109.232V110.516C191.956 110.984 192.076 111.2 192.532 111.236V111.5H190.144V111.236C190.588 111.2 190.708 110.984 190.708 110.516V104.072C190.708 103.604 190.588 103.4 190.144 103.364V103.1L191.764 102.668H191.956V108.74L194.188 106.712C194.572 106.364 194.548 106.112 194.104 106.076V105.812H195.868V106.076C195.364 106.148 195.04 106.4 194.62 106.784L193.588 107.744L195.664 110.516ZM198.1 110.204C198.508 110.204 198.844 110.456 198.844 110.912C198.844 111.356 198.508 111.62 198.1 111.62C197.704 111.62 197.368 111.356 197.368 110.912C197.368 110.456 197.704 110.204 198.1 110.204Z" fill="#E2E6DF"/>
<rect y="0.5" width="52" height="52" rx="26" fill="#E2E6DF"/>
<path d="M30.976 29.8H31.576L31.12 34H19.84V32.92C23.92 28.96 27.04 25.624 27.328 21.76C27.496 19.552 26.872 17.992 25.168 17.848C23.872 17.728 23.08 18.376 23.152 19.456C23.2 20.512 23.056 21.184 22.6 21.544C21.712 22.24 20.32 21.832 20.032 21.016C19.816 20.344 20.008 19.624 20.344 19.072C21.208 17.68 22.96 16.96 25.168 16.96C28.168 16.96 31.12 18.448 31.024 21.76C30.904 25.576 26.848 28.72 23.176 31.528H27.832C29.824 31.528 30.592 30.976 30.976 29.8Z" fill="#2B465B"/>
</svg>
