<svg width="277" height="195" viewBox="0 0 277 195" fill="none" xmlns="http://www.w3.org/2000/svg">
<rect x="7" y="8.5" width="268" height="184" rx="30" stroke="#576589" stroke-width="4"/>
<rect x="21" y="22.5" width="240" height="156" rx="32" fill="#576589"/>
<path d="M51.216 61.1L51.444 62.96H51.216C51.024 62.348 50.7 61.556 49.596 61.556H47.388V65.204H48.828C49.668 65.204 49.896 64.916 49.98 64.412H50.196V66.44H49.98C49.896 65.936 49.668 65.66 48.828 65.66H47.388V68.516C47.388 68.984 47.508 69.188 47.952 69.236V69.5H45.54V69.236C45.984 69.188 46.104 68.984 46.104 68.516V62.072C46.104 61.604 45.984 61.4 45.54 61.364V61.1H51.216ZM54.2126 63.704C55.8086 63.704 57.2246 64.784 57.2246 66.656C57.2246 68.528 55.8086 69.62 54.2126 69.62C52.6166 69.62 51.2006 68.528 51.2006 66.656C51.2006 64.784 52.6166 63.704 54.2126 63.704ZM54.2126 69.272C55.2926 69.272 55.9286 68.216 55.9286 66.656C55.9286 65.096 55.2926 64.04 54.2126 64.04C53.1326 64.04 52.4966 65.096 52.4966 66.656C52.4966 68.216 53.1326 69.272 54.2126 69.272ZM62.5419 64.448C62.6379 64.772 62.5299 65.204 62.1939 65.324C61.7979 65.456 61.3659 65.312 61.3179 64.724C61.2699 64.28 61.0299 64.196 60.6939 64.256C60.2139 64.34 59.7099 64.988 59.7099 65.852V68.528C59.7099 68.996 59.8299 69.2 60.2739 69.236V69.5H57.8859V69.236C58.3299 69.2 58.4499 68.996 58.4499 68.528V65.108C58.4499 64.64 58.3299 64.424 57.8859 64.388V64.124L59.4819 63.704H59.6739V64.724C60.0099 64.064 60.5499 63.716 61.2459 63.704C61.8099 63.692 62.3739 63.944 62.5419 64.448ZM69.5228 61.604C69.6908 61.82 69.8468 62.312 69.4988 62.564C69.2588 62.732 68.8868 62.672 68.7428 62.42C68.6108 62.18 68.5988 61.856 68.5148 61.652C68.3828 61.364 68.2148 61.256 67.9028 61.268C67.4828 61.292 67.2668 61.64 67.2908 62.072C67.3508 62.828 67.5548 62.624 67.5548 63.728V63.812H69.0428V64.244H67.5548V68.516C67.5548 68.984 67.6748 69.2 68.1308 69.236V69.5H65.7428V69.236C66.1868 69.2 66.3068 68.984 66.3068 68.516V64.244H65.2748V63.812H66.3068V63.332C66.3068 62.06 66.7148 60.98 67.9748 60.944C68.5748 60.932 69.1508 61.124 69.5228 61.604ZM75.1521 68.528C75.1521 68.996 75.2721 69.2 75.7161 69.236V69.5H73.8921V68.816C73.4721 69.356 72.8721 69.62 72.1641 69.62C70.6881 69.62 69.7881 68.72 69.7881 67.352V65.108C69.7881 64.64 69.6681 64.424 69.2241 64.388V64.124L70.8441 63.704H71.0481V67.472C71.0481 68.564 71.5521 69.152 72.4881 69.152C73.2801 69.152 73.8921 68.48 73.8921 67.58V65.108C73.8921 64.64 73.7721 64.424 73.3281 64.388V64.124L74.9481 63.704H75.1521V68.528ZM81.0927 64.448C81.1887 64.772 81.0807 65.204 80.7447 65.324C80.3487 65.456 79.9167 65.312 79.8687 64.724C79.8207 64.28 79.5807 64.196 79.2447 64.256C78.7647 64.34 78.2607 64.988 78.2607 65.852V68.528C78.2607 68.996 78.3807 69.2 78.8247 69.236V69.5H76.4367V69.236C76.8807 69.2 77.0007 68.996 77.0007 68.528V65.108C77.0007 64.64 76.8807 64.424 76.4367 64.388V64.124L78.0327 63.704H78.2247V64.724C78.5607 64.064 79.1007 63.716 79.7967 63.704C80.3607 63.692 80.9247 63.944 81.0927 64.448ZM85.0353 68.732L85.1913 68.948C84.9273 69.32 84.5073 69.62 83.9073 69.62C83.0433 69.62 82.3713 69.164 82.3713 67.94V64.244H81.4833V63.812C82.4913 63.812 83.0553 63.128 83.2473 62.156C83.3913 62.156 83.6193 62.156 83.6193 62.156V63.812H84.8553V64.244H83.6193V67.94C83.6193 68.468 83.7873 68.792 84.1353 68.9C84.4833 69.02 84.7953 68.912 85.0353 68.732ZM91.5151 68.516C91.5151 68.984 91.6351 69.2 92.0911 69.236V69.5H89.7031V69.236C90.1471 69.2 90.2671 68.984 90.2671 68.516V65.84C90.2671 64.868 89.8351 64.16 88.8991 64.16C88.0711 64.16 87.4951 64.832 87.4951 65.732V68.516C87.4951 68.984 87.6151 69.2 88.0591 69.236V69.5H85.6711V69.236C86.1151 69.2 86.2351 68.984 86.2351 68.516V62.072C86.2351 61.604 86.1151 61.4 85.6711 61.364V61.1L87.3031 60.668H87.4951V64.532C87.9511 63.968 88.5871 63.704 89.2951 63.704C90.7831 63.704 91.5151 64.7 91.5151 65.96V68.516ZM97.9918 66.392V66.464H93.8638C93.8638 66.5 93.8638 66.536 93.8758 66.572C94.0078 69.224 96.7078 69.476 97.7518 68.12L97.9198 68.264C97.5118 69.056 96.5998 69.62 95.5798 69.62C93.9958 69.62 92.6278 68.456 92.6278 66.572C92.6278 64.748 93.8638 63.704 95.4598 63.704C97.1998 63.704 98.0158 64.916 97.9918 66.392ZM95.4358 63.968C94.5958 63.98 93.9598 64.772 93.8758 66.032H96.8398C96.8758 64.964 96.4318 63.956 95.4358 63.968ZM103.311 64.448C103.407 64.772 103.299 65.204 102.963 65.324C102.567 65.456 102.135 65.312 102.087 64.724C102.039 64.28 101.799 64.196 101.463 64.256C100.983 64.34 100.479 64.988 100.479 65.852V68.528C100.479 68.996 100.599 69.2 101.043 69.236V69.5H98.6555V69.236C99.0995 69.2 99.2195 68.996 99.2195 68.528V65.108C99.2195 64.64 99.0995 64.424 98.6555 64.388V64.124L100.251 63.704H100.443V64.724C100.779 64.064 101.319 63.716 102.015 63.704C102.579 63.692 103.143 63.944 103.311 64.448ZM107.388 62.864C106.932 62.864 106.548 62.576 106.548 62.06C106.548 61.544 106.932 61.256 107.388 61.256C107.844 61.256 108.228 61.544 108.228 62.06C108.228 62.576 107.844 62.864 107.388 62.864ZM108.108 68.516C108.108 68.984 108.228 69.2 108.672 69.236V69.5H106.284V69.236C106.728 69.2 106.848 68.984 106.848 68.516V65.108C106.848 64.64 106.728 64.424 106.284 64.388V64.124L107.916 63.704H108.108V68.516ZM115.129 68.516C115.129 68.984 115.249 69.2 115.693 69.236V69.5H113.305V69.236C113.749 69.2 113.869 68.984 113.869 68.516V65.84C113.869 64.868 113.437 64.16 112.501 64.16C111.673 64.16 111.097 64.832 111.097 65.732V68.516C111.097 68.984 111.217 69.2 111.673 69.236V69.5H109.273V69.236C109.729 69.2 109.849 68.984 109.849 68.516V65.108C109.849 64.64 109.729 64.424 109.273 64.388V64.124L110.869 63.704H111.061V64.58C111.517 63.98 112.165 63.704 112.909 63.704C114.385 63.704 115.129 64.7 115.129 65.96V68.516ZM122.025 71.24C122.025 71.708 122.145 71.912 122.589 71.948V72.212H120.201V71.948C120.645 71.912 120.765 71.708 120.765 71.24V68.576C120.369 69.164 119.757 69.62 118.821 69.62C117.393 69.62 116.229 68.48 116.229 66.656C116.229 64.844 117.393 63.704 118.821 63.704C119.865 63.704 120.513 64.268 120.909 64.964L121.773 63.812H122.025V71.24ZM119.133 69.176C120.189 69.176 120.765 68.192 120.765 66.656C120.765 65.12 120.189 64.136 119.133 64.136C118.077 64.136 117.501 65.204 117.501 66.656C117.501 68.108 118.077 69.176 119.133 69.176ZM128.929 68.528C128.929 68.996 129.049 69.2 129.493 69.236V69.5H127.669V68.816C127.249 69.356 126.649 69.62 125.941 69.62C124.465 69.62 123.565 68.72 123.565 67.352V65.108C123.565 64.64 123.445 64.424 123.001 64.388V64.124L124.621 63.704H124.825V67.472C124.825 68.564 125.329 69.152 126.265 69.152C127.057 69.152 127.669 68.48 127.669 67.58V65.108C127.669 64.64 127.549 64.424 127.105 64.388V64.124L128.725 63.704H128.929V68.528ZM131.318 62.864C130.862 62.864 130.478 62.576 130.478 62.06C130.478 61.544 130.862 61.256 131.318 61.256C131.774 61.256 132.158 61.544 132.158 62.06C132.158 62.576 131.774 62.864 131.318 62.864ZM132.038 68.516C132.038 68.984 132.158 69.2 132.602 69.236V69.5H130.214V69.236C130.658 69.2 130.778 68.984 130.778 68.516V65.108C130.778 64.64 130.658 64.424 130.214 64.388V64.124L131.846 63.704H132.038V68.516ZM137.858 64.448C137.954 64.772 137.846 65.204 137.51 65.324C137.114 65.456 136.682 65.312 136.634 64.724C136.586 64.28 136.346 64.196 136.01 64.256C135.53 64.34 135.026 64.988 135.026 65.852V68.528C135.026 68.996 135.146 69.2 135.59 69.236V69.5H133.202V69.236C133.646 69.2 133.766 68.996 133.766 68.528V65.108C133.766 64.64 133.646 64.424 133.202 64.388V64.124L134.798 63.704H134.99V64.724C135.326 64.064 135.866 63.716 136.562 63.704C137.126 63.692 137.69 63.944 137.858 64.448ZM139.533 62.864C139.077 62.864 138.693 62.576 138.693 62.06C138.693 61.544 139.077 61.256 139.533 61.256C139.989 61.256 140.373 61.544 140.373 62.06C140.373 62.576 139.989 62.864 139.533 62.864ZM140.253 68.516C140.253 68.984 140.373 69.2 140.817 69.236V69.5H138.429V69.236C138.873 69.2 138.993 68.984 138.993 68.516V65.108C138.993 64.64 138.873 64.424 138.429 64.388V64.124L140.061 63.704H140.253V68.516ZM146.718 66.392V66.464H142.59C142.59 66.5 142.59 66.536 142.602 66.572C142.734 69.224 145.434 69.476 146.478 68.12L146.646 68.264C146.238 69.056 145.326 69.62 144.306 69.62C142.722 69.62 141.354 68.456 141.354 66.572C141.354 64.748 142.59 63.704 144.186 63.704C145.926 63.704 146.742 64.916 146.718 66.392ZM144.162 63.968C143.322 63.98 142.686 64.772 142.602 66.032H145.566C145.602 64.964 145.158 63.956 144.162 63.968ZM150.079 66.08C150.991 66.5 151.987 67.004 151.663 68.216C151.423 69.14 150.583 69.62 149.419 69.62C148.687 69.62 147.847 69.404 147.319 68.996V67.688H147.511C147.775 68.828 148.639 69.272 149.419 69.296C150.019 69.32 150.523 69.092 150.643 68.576C150.823 67.796 150.031 67.484 149.263 67.136C148.111 66.608 147.319 66.068 147.631 64.844C147.835 64.028 148.711 63.704 149.551 63.704C150.163 63.704 150.787 63.908 151.315 64.316V65.48H151.111C150.835 64.4 150.343 63.98 149.551 64.004C149.131 64.016 148.663 64.172 148.603 64.7C148.519 65.408 149.287 65.72 150.079 66.08ZM153.299 68.204C153.695 68.204 154.007 68.504 154.019 69.008C154.043 70.088 153.383 70.844 152.891 71.228L152.687 71.012C153.215 70.448 153.359 70.1 153.419 69.62C153.407 69.62 153.299 69.62 153.299 69.62C152.903 69.62 152.579 69.368 152.579 68.912C152.579 68.456 152.903 68.204 153.299 68.204ZM162.181 68.12L162.349 68.252C161.941 69.056 161.101 69.62 160.045 69.62C158.449 69.62 157.093 68.456 157.093 66.572C157.093 64.784 158.473 63.704 160.021 63.704C161.029 63.704 161.797 64.04 162.157 64.64C162.361 64.988 162.337 65.54 161.881 65.696C161.509 65.828 161.029 65.588 161.065 64.928C161.101 64.316 160.657 63.92 159.985 63.98C159.085 64.064 158.245 65.012 158.329 66.572C158.461 69.224 161.137 69.476 162.181 68.12ZM165.892 63.704C167.488 63.704 168.904 64.784 168.904 66.656C168.904 68.528 167.488 69.62 165.892 69.62C164.296 69.62 162.88 68.528 162.88 66.656C162.88 64.784 164.296 63.704 165.892 63.704ZM165.892 69.272C166.972 69.272 167.608 68.216 167.608 66.656C167.608 65.096 166.972 64.04 165.892 64.04C164.812 64.04 164.176 65.096 164.176 66.656C164.176 68.216 164.812 69.272 165.892 69.272ZM175.422 68.516C175.422 68.984 175.542 69.2 175.986 69.236V69.5H173.598V69.236C174.042 69.2 174.162 68.984 174.162 68.516V65.84C174.162 64.868 173.73 64.16 172.794 64.16C171.966 64.16 171.39 64.832 171.39 65.732V68.516C171.39 68.984 171.51 69.2 171.966 69.236V69.5H169.566V69.236C170.022 69.2 170.142 68.984 170.142 68.516V65.108C170.142 64.64 170.022 64.424 169.566 64.388V64.124L171.162 63.704H171.354V64.58C171.81 63.98 172.458 63.704 173.202 63.704C174.678 63.704 175.422 64.7 175.422 65.96V68.516ZM179.84 68.732L179.996 68.948C179.732 69.32 179.312 69.62 178.712 69.62C177.848 69.62 177.176 69.164 177.176 67.94V64.244H176.288V63.812C177.296 63.812 177.86 63.128 178.052 62.156C178.196 62.156 178.424 62.156 178.424 62.156V63.812H179.66V64.244H178.424V67.94C178.424 68.468 178.592 68.792 178.94 68.9C179.288 69.02 179.6 68.912 179.84 68.732ZM185.933 68.984L186.053 69.188C185.801 69.5 185.465 69.62 185.105 69.62C184.649 69.62 184.097 69.404 184.085 68.696C183.785 69.284 183.149 69.62 182.441 69.62C181.505 69.62 180.485 69.212 180.425 68.156C180.341 66.908 181.313 66.344 182.513 66.236C183.257 66.176 183.797 66.128 184.085 66.104C184.085 65.816 184.085 65.636 184.085 65.636C184.085 64.58 183.833 64.016 183.005 63.956C182.549 63.932 182.045 64.184 182.069 64.76C182.093 65.408 181.661 65.588 181.277 65.444C180.953 65.312 180.857 64.94 181.037 64.568C181.349 63.896 182.249 63.704 182.969 63.704C184.085 63.704 185.333 64.076 185.333 65.852V68.684C185.333 69.116 185.669 69.188 185.933 68.984ZM182.825 69.164C183.593 69.14 184.085 68.54 184.085 67.568C184.085 67.172 184.085 66.74 184.085 66.38C183.905 66.404 183.605 66.428 183.137 66.488C182.153 66.608 181.613 67.208 181.625 67.964C181.637 68.792 182.165 69.188 182.825 69.164ZM191.501 68.12L191.669 68.252C191.261 69.056 190.421 69.62 189.365 69.62C187.769 69.62 186.413 68.456 186.413 66.572C186.413 64.784 187.793 63.704 189.341 63.704C190.349 63.704 191.117 64.04 191.477 64.64C191.681 64.988 191.657 65.54 191.201 65.696C190.829 65.828 190.349 65.588 190.385 64.928C190.421 64.316 189.977 63.92 189.305 63.98C188.405 64.064 187.565 65.012 187.649 66.572C187.781 69.224 190.457 69.476 191.501 68.12ZM195.578 68.732L195.734 68.948C195.47 69.32 195.05 69.62 194.45 69.62C193.586 69.62 192.914 69.164 192.914 67.94V64.244H192.026V63.812C193.034 63.812 193.598 63.128 193.79 62.156C193.934 62.156 194.162 62.156 194.162 62.156V63.812H195.398V64.244H194.162V67.94C194.162 68.468 194.33 68.792 194.678 68.9C195.026 69.02 195.338 68.912 195.578 68.732ZM204.422 68.528C204.422 68.996 204.542 69.2 204.986 69.236V69.5H203.162V68.816C202.742 69.356 202.142 69.62 201.434 69.62C199.958 69.62 199.058 68.72 199.058 67.352V65.108C199.058 64.64 198.938 64.424 198.494 64.388V64.124L200.114 63.704H200.318V67.472C200.318 68.564 200.822 69.152 201.758 69.152C202.55 69.152 203.162 68.48 203.162 67.58V65.108C203.162 64.64 203.042 64.424 202.598 64.388V64.124L204.218 63.704H204.422V68.528ZM208.403 66.08C209.315 66.5 210.311 67.004 209.987 68.216C209.747 69.14 208.907 69.62 207.743 69.62C207.011 69.62 206.171 69.404 205.643 68.996V67.688H205.835C206.099 68.828 206.963 69.272 207.743 69.296C208.343 69.32 208.847 69.092 208.967 68.576C209.147 67.796 208.355 67.484 207.587 67.136C206.435 66.608 205.643 66.068 205.955 64.844C206.159 64.028 207.035 63.704 207.875 63.704C208.487 63.704 209.111 63.908 209.639 64.316V65.48H209.435C209.159 64.4 208.667 63.98 207.875 64.004C207.455 64.016 206.987 64.172 206.927 64.7C206.843 65.408 207.611 65.72 208.403 66.08ZM217.338 63.812H218.67V64.076C218.322 64.124 218.214 64.28 218.058 64.64L216.006 69.5H215.466L213.366 64.844C213.15 64.376 213.042 64.136 212.586 64.076V63.812H214.938V64.076C214.566 64.1 214.53 64.412 214.686 64.76L216.15 68.216L217.602 64.76C217.734 64.424 217.722 64.112 217.338 64.076V63.812ZM220.31 62.864C219.854 62.864 219.47 62.576 219.47 62.06C219.47 61.544 219.854 61.256 220.31 61.256C220.766 61.256 221.15 61.544 221.15 62.06C221.15 62.576 220.766 62.864 220.31 62.864ZM221.03 68.516C221.03 68.984 221.15 69.2 221.594 69.236V69.5H219.206V69.236C219.65 69.2 219.77 68.984 219.77 68.516V65.108C219.77 64.64 219.65 64.424 219.206 64.388V64.124L220.838 63.704H221.03V68.516ZM227.652 68.984L227.772 69.188C227.52 69.5 227.184 69.62 226.824 69.62C226.368 69.62 225.816 69.404 225.804 68.696C225.504 69.284 224.868 69.62 224.16 69.62C223.224 69.62 222.204 69.212 222.144 68.156C222.06 66.908 223.032 66.344 224.232 66.236C224.976 66.176 225.516 66.128 225.804 66.104C225.804 65.816 225.804 65.636 225.804 65.636C225.804 64.58 225.552 64.016 224.724 63.956C224.268 63.932 223.764 64.184 223.788 64.76C223.812 65.408 223.38 65.588 222.996 65.444C222.672 65.312 222.576 64.94 222.756 64.568C223.068 63.896 223.968 63.704 224.688 63.704C225.804 63.704 227.052 64.076 227.052 65.852V68.684C227.052 69.116 227.388 69.188 227.652 68.984ZM224.544 69.164C225.312 69.14 225.804 68.54 225.804 67.568C225.804 67.172 225.804 66.74 225.804 66.38C225.624 66.404 225.324 66.428 224.856 66.488C223.872 66.608 223.332 67.208 223.344 67.964C223.356 68.792 223.884 69.188 224.544 69.164ZM55.536 75.1H57.264V75.364C56.82 75.4 56.604 75.616 56.448 76.072L53.928 83.5H53.364L51.252 76.912L49.02 83.5H48.456L45.936 76.072C45.78 75.616 45.624 75.4 45.18 75.364V75.1H47.82V75.364C47.352 75.352 47.172 75.748 47.328 76.24L49.08 81.784L51.396 75.1H51.948L54.036 81.808L55.956 76.144C56.1 75.676 55.992 75.4 55.536 75.364V75.1ZM63.5893 82.516C63.5893 82.984 63.7093 83.2 64.1653 83.236V83.5H61.7773V83.236C62.2213 83.2 62.3413 82.984 62.3413 82.516V79.84C62.3413 78.868 61.9093 78.16 60.9733 78.16C60.1453 78.16 59.5693 78.832 59.5693 79.732V82.516C59.5693 82.984 59.6893 83.2 60.1333 83.236V83.5H57.7453V83.236C58.1893 83.2 58.3093 82.984 58.3093 82.516V76.072C58.3093 75.604 58.1893 75.4 57.7453 75.364V75.1L59.3773 74.668H59.5693V78.532C60.0253 77.968 60.6613 77.704 61.3693 77.704C62.8573 77.704 63.5893 78.7 63.5893 79.96V82.516ZM70.222 82.984L70.342 83.188C70.09 83.5 69.754 83.62 69.394 83.62C68.938 83.62 68.386 83.404 68.374 82.696C68.074 83.284 67.438 83.62 66.73 83.62C65.794 83.62 64.774 83.212 64.714 82.156C64.63 80.908 65.602 80.344 66.802 80.236C67.546 80.176 68.086 80.128 68.374 80.104C68.374 79.816 68.374 79.636 68.374 79.636C68.374 78.58 68.122 78.016 67.294 77.956C66.838 77.932 66.334 78.184 66.358 78.76C66.382 79.408 65.95 79.588 65.566 79.444C65.242 79.312 65.146 78.94 65.326 78.568C65.638 77.896 66.538 77.704 67.258 77.704C68.374 77.704 69.622 78.076 69.622 79.852V82.684C69.622 83.116 69.958 83.188 70.222 82.984ZM67.114 83.164C67.882 83.14 68.374 82.54 68.374 81.568C68.374 81.172 68.374 80.74 68.374 80.38C68.194 80.404 67.894 80.428 67.426 80.488C66.442 80.608 65.902 81.208 65.914 81.964C65.926 82.792 66.454 83.188 67.114 83.164ZM74.0197 82.732L74.1757 82.948C73.9117 83.32 73.4917 83.62 72.8917 83.62C72.0277 83.62 71.3557 83.164 71.3557 81.94V78.244H70.4677V77.812C71.4757 77.812 72.0397 77.128 72.2317 76.156C72.3757 76.156 72.6037 76.156 72.6037 76.156V77.812H73.8397V78.244H72.6037V81.94C72.6037 82.468 72.7717 82.792 73.1197 82.9C73.4677 83.02 73.7797 82.912 74.0197 82.732ZM77.4698 80.08C78.3818 80.5 79.3778 81.004 79.0538 82.216C78.8138 83.14 77.9738 83.62 76.8098 83.62C76.0778 83.62 75.2378 83.404 74.7098 82.996V81.688H74.9018C75.1658 82.828 76.0298 83.272 76.8098 83.296C77.4098 83.32 77.9138 83.092 78.0338 82.576C78.2138 81.796 77.4218 81.484 76.6538 81.136C75.5018 80.608 74.7098 80.068 75.0218 78.844C75.2258 78.028 76.1018 77.704 76.9418 77.704C77.5538 77.704 78.1778 77.908 78.7058 78.316V79.48H78.5018C78.2258 78.4 77.7338 77.98 76.9418 78.004C76.5218 78.016 76.0538 78.172 75.9938 78.7C75.9098 79.408 76.6778 79.72 77.4698 80.08ZM87.0497 82.516C87.2417 82.96 87.4337 83.2 87.8897 83.236V83.5H85.1897V83.236C85.6337 83.2 85.8497 82.9 85.6817 82.468L84.9857 80.788H81.6017L80.9537 82.516C80.7857 82.972 80.9777 83.188 81.4337 83.236V83.5H79.6097V83.236C80.0657 83.188 80.2697 82.972 80.4377 82.528L82.8497 76.072C82.9937 75.688 82.9097 75.4 82.4897 75.364V75.1H83.9297L87.0497 82.516ZM81.7697 80.332H84.8057L83.2097 76.444L81.7697 80.332ZM91.9092 77.704C93.3372 77.704 94.4892 78.844 94.4892 80.656C94.4892 82.48 93.3372 83.62 91.9092 83.62C90.9732 83.62 90.3492 83.164 89.9532 82.576V85.24C89.9532 85.708 90.0732 85.912 90.5172 85.948V86.212H88.1292V85.948C88.5852 85.912 88.7052 85.708 88.7052 85.24V79.108C88.7052 78.64 88.5852 78.424 88.1292 78.388V78.124L89.7612 77.704H89.9532V78.748C90.3492 78.148 90.9732 77.704 91.9092 77.704ZM91.5972 83.176C92.6412 83.176 93.2172 82.108 93.2172 80.656C93.2172 79.204 92.6412 78.136 91.5972 78.136C90.5412 78.136 89.9532 79.12 89.9532 80.656C89.9532 82.192 90.5412 83.176 91.5972 83.176ZM98.9288 77.704C100.357 77.704 101.509 78.844 101.509 80.656C101.509 82.48 100.357 83.62 98.9288 83.62C97.9928 83.62 97.3688 83.164 96.9728 82.576V85.24C96.9728 85.708 97.0928 85.912 97.5368 85.948V86.212H95.1488V85.948C95.6048 85.912 95.7248 85.708 95.7248 85.24V79.108C95.7248 78.64 95.6048 78.424 95.1488 78.388V78.124L96.7808 77.704H96.9728V78.748C97.3688 78.148 97.9928 77.704 98.9288 77.704ZM98.6168 83.176C99.6608 83.176 100.237 82.108 100.237 80.656C100.237 79.204 99.6608 78.136 98.6168 78.136C97.5608 78.136 96.9728 79.12 96.9728 80.656C96.9728 82.192 97.5608 83.176 98.6168 83.176ZM107.345 77.704C108.941 77.704 110.357 78.784 110.357 80.656C110.357 82.528 108.941 83.62 107.345 83.62C105.749 83.62 104.333 82.528 104.333 80.656C104.333 78.784 105.749 77.704 107.345 77.704ZM107.345 83.272C108.425 83.272 109.061 82.216 109.061 80.656C109.061 79.096 108.425 78.04 107.345 78.04C106.265 78.04 105.629 79.096 105.629 80.656C105.629 82.216 106.265 83.272 107.345 83.272ZM115.675 78.448C115.771 78.772 115.663 79.204 115.327 79.324C114.931 79.456 114.499 79.312 114.451 78.724C114.403 78.28 114.163 78.196 113.827 78.256C113.347 78.34 112.843 78.988 112.843 79.852V82.528C112.843 82.996 112.963 83.2 113.407 83.236V83.5H111.019V83.236C111.463 83.2 111.583 82.996 111.583 82.528V79.108C111.583 78.64 111.463 78.424 111.019 78.388V78.124L112.615 77.704H112.807V78.724C113.143 78.064 113.683 77.716 114.379 77.704C114.943 77.692 115.507 77.944 115.675 78.448ZM123.832 80.392V80.464H119.704C119.704 80.5 119.704 80.536 119.716 80.572C119.848 83.224 122.548 83.476 123.592 82.12L123.76 82.264C123.352 83.056 122.44 83.62 121.42 83.62C119.836 83.62 118.468 82.456 118.468 80.572C118.468 78.748 119.704 77.704 121.3 77.704C123.04 77.704 123.856 78.916 123.832 80.392ZM121.276 77.968C120.436 77.98 119.8 78.772 119.716 80.032H122.68C122.716 78.964 122.272 77.956 121.276 77.968ZM134.047 82.516C134.047 82.984 134.167 83.2 134.623 83.236V83.5H132.223V83.236C132.679 83.2 132.799 82.984 132.799 82.516V79.84C132.799 78.868 132.427 78.16 131.503 78.16C130.699 78.16 130.183 78.832 130.183 79.732C130.183 79.768 130.183 82.516 130.183 82.516C130.183 82.984 130.303 83.2 130.747 83.236V83.5H128.359V83.236C128.803 83.2 128.923 82.984 128.923 82.516V79.84C128.923 78.868 128.563 78.16 127.639 78.16C126.835 78.16 126.307 78.832 126.307 79.732V82.516C126.307 82.984 126.427 83.2 126.883 83.236V83.5H124.495V83.236C124.939 83.2 125.059 82.984 125.059 82.516V79.108C125.059 78.64 124.939 78.424 124.495 78.388V78.124L126.079 77.704H126.271V78.556C126.703 77.98 127.327 77.704 128.035 77.704C129.019 77.704 129.655 78.148 129.955 78.832C130.387 78.064 131.083 77.704 131.911 77.704C133.363 77.704 134.047 78.7 134.047 79.96V82.516ZM140.675 82.984L140.795 83.188C140.543 83.5 140.207 83.62 139.847 83.62C139.391 83.62 138.839 83.404 138.827 82.696C138.527 83.284 137.891 83.62 137.183 83.62C136.247 83.62 135.227 83.212 135.167 82.156C135.083 80.908 136.055 80.344 137.255 80.236C137.999 80.176 138.539 80.128 138.827 80.104C138.827 79.816 138.827 79.636 138.827 79.636C138.827 78.58 138.575 78.016 137.747 77.956C137.291 77.932 136.787 78.184 136.811 78.76C136.835 79.408 136.403 79.588 136.019 79.444C135.695 79.312 135.599 78.94 135.779 78.568C136.091 77.896 136.991 77.704 137.711 77.704C138.827 77.704 140.075 78.076 140.075 79.852V82.684C140.075 83.116 140.411 83.188 140.675 82.984ZM137.567 83.164C138.335 83.14 138.827 82.54 138.827 81.568C138.827 81.172 138.827 80.74 138.827 80.38C138.647 80.404 138.347 80.428 137.879 80.488C136.895 80.608 136.355 81.208 136.367 81.964C136.379 82.792 136.907 83.188 137.567 83.164ZM142.322 76.864C141.866 76.864 141.482 76.576 141.482 76.06C141.482 75.544 141.866 75.256 142.322 75.256C142.778 75.256 143.162 75.544 143.162 76.06C143.162 76.576 142.778 76.864 142.322 76.864ZM143.042 82.516C143.042 82.984 143.162 83.2 143.606 83.236V83.5H141.218V83.236C141.662 83.2 141.782 82.984 141.782 82.516V79.108C141.782 78.64 141.662 78.424 141.218 78.388V78.124L142.85 77.704H143.042V82.516ZM146.03 82.516C146.03 82.984 146.15 83.2 146.606 83.236V83.5H144.206V83.236C144.662 83.2 144.782 82.984 144.782 82.516V76.072C144.782 75.604 144.662 75.4 144.206 75.364V75.1L145.838 74.668H146.03V82.516ZM148.061 82.204C148.469 82.204 148.805 82.456 148.805 82.912C148.805 83.356 148.469 83.62 148.061 83.62C147.665 83.62 147.329 83.356 147.329 82.912C147.329 82.456 147.665 82.204 148.061 82.204ZM148.061 79.408C147.665 79.408 147.329 79.144 147.329 78.7C147.329 78.244 147.665 77.992 148.061 77.992C148.469 77.992 148.805 78.244 148.805 78.7C148.805 79.144 148.469 79.408 148.061 79.408Z" fill="#E2E6DF"/>
<path d="M53.9917 103.752C54.6037 103.752 55.1077 104.148 55.1077 104.844C55.1077 105.54 54.6037 105.936 53.9917 105.936C53.3917 105.936 52.8877 105.54 52.8877 104.844C52.8877 104.148 53.3917 103.752 53.9917 103.752ZM70.668 107.112H70.908L70.656 108.768C69.924 109.296 69.144 109.668 67.752 109.62C65.268 109.548 63.24 107.916 63.24 105.3C63.24 102.684 65.148 100.98 67.68 100.98C68.76 100.98 69.876 101.328 70.656 101.832V103.536H70.404C70.044 102.036 68.988 101.316 67.68 101.316C65.808 101.316 64.644 102.996 64.644 105.3C64.644 107.604 65.808 109.176 67.68 109.296C69.144 109.38 70.2 108.636 70.668 107.112ZM74.4626 103.704C76.0586 103.704 77.4746 104.784 77.4746 106.656C77.4746 108.528 76.0586 109.62 74.4626 109.62C72.8666 109.62 71.4506 108.528 71.4506 106.656C71.4506 104.784 72.8666 103.704 74.4626 103.704ZM74.4626 109.272C75.5426 109.272 76.1786 108.216 76.1786 106.656C76.1786 105.096 75.5426 104.04 74.4626 104.04C73.3826 104.04 72.7466 105.096 72.7466 106.656C72.7466 108.216 73.3826 109.272 74.4626 109.272ZM83.9919 108.516C83.9919 108.984 84.1119 109.2 84.5559 109.236V109.5H82.1679V109.236C82.6119 109.2 82.7319 108.984 82.7319 108.516V105.84C82.7319 104.868 82.2999 104.16 81.3639 104.16C80.5359 104.16 79.9599 104.832 79.9599 105.732V108.516C79.9599 108.984 80.0799 109.2 80.5359 109.236V109.5H78.1359V109.236C78.5919 109.2 78.7119 108.984 78.7119 108.516V105.108C78.7119 104.64 78.5919 104.424 78.1359 104.388V104.124L79.7319 103.704H79.9239V104.58C80.3799 103.98 81.0279 103.704 81.7719 103.704C83.2479 103.704 83.9919 104.7 83.9919 105.96V108.516ZM88.4103 108.732L88.5663 108.948C88.3023 109.32 87.8823 109.62 87.2823 109.62C86.4183 109.62 85.7463 109.164 85.7463 107.94V104.244H84.8583V103.812C85.8663 103.812 86.4303 103.128 86.6223 102.156C86.7663 102.156 86.9943 102.156 86.9943 102.156V103.812H88.2303V104.244H86.9943V107.94C86.9943 108.468 87.1623 108.792 87.5103 108.9C87.8583 109.02 88.1703 108.912 88.4103 108.732ZM94.5033 108.984L94.6233 109.188C94.3713 109.5 94.0353 109.62 93.6753 109.62C93.2193 109.62 92.6673 109.404 92.6553 108.696C92.3553 109.284 91.7193 109.62 91.0113 109.62C90.0753 109.62 89.0553 109.212 88.9953 108.156C88.9113 106.908 89.8833 106.344 91.0833 106.236C91.8273 106.176 92.3673 106.128 92.6553 106.104C92.6553 105.816 92.6553 105.636 92.6553 105.636C92.6553 104.58 92.4033 104.016 91.5753 103.956C91.1193 103.932 90.6153 104.184 90.6393 104.76C90.6633 105.408 90.2313 105.588 89.8473 105.444C89.5233 105.312 89.4273 104.94 89.6073 104.568C89.9193 103.896 90.8193 103.704 91.5393 103.704C92.6553 103.704 93.9033 104.076 93.9033 105.852V108.684C93.9033 109.116 94.2393 109.188 94.5033 108.984ZM91.3953 109.164C92.1633 109.14 92.6553 108.54 92.6553 107.568C92.6553 107.172 92.6553 106.74 92.6553 106.38C92.4753 106.404 92.1753 106.428 91.7073 106.488C90.7233 106.608 90.1833 107.208 90.1953 107.964C90.2073 108.792 90.7353 109.188 91.3953 109.164ZM100.071 108.12L100.239 108.252C99.8313 109.056 98.9913 109.62 97.9353 109.62C96.3393 109.62 94.9833 108.456 94.9833 106.572C94.9833 104.784 96.3633 103.704 97.9113 103.704C98.9193 103.704 99.6873 104.04 100.047 104.64C100.251 104.988 100.227 105.54 99.7713 105.696C99.3993 105.828 98.9193 105.588 98.9553 104.928C98.9913 104.316 98.5473 103.92 97.8753 103.98C96.9753 104.064 96.1353 105.012 96.2193 106.572C96.3513 109.224 99.0273 109.476 100.071 108.12ZM104.149 108.732L104.305 108.948C104.041 109.32 103.621 109.62 103.021 109.62C102.157 109.62 101.485 109.164 101.485 107.94V104.244H100.597V103.812C101.605 103.812 102.169 103.128 102.361 102.156C102.505 102.156 102.733 102.156 102.733 102.156V103.812H103.969V104.244H102.733V107.94C102.733 108.468 102.901 108.792 103.249 108.9C103.597 109.02 103.909 108.912 104.149 108.732ZM109.392 108.516C109.392 108.984 109.512 109.2 109.956 109.236V109.5H107.64V109.236C108.084 109.2 108.204 108.984 108.204 108.516V102.348C108.036 102.348 107.76 102.348 107.484 102.348V102.084L109.176 101.1H109.392V108.516ZM111.768 108.204C112.176 108.204 112.512 108.456 112.512 108.912C112.512 109.356 112.176 109.62 111.768 109.62C111.372 109.62 111.036 109.356 111.036 108.912C111.036 108.456 111.372 108.204 111.768 108.204ZM111.768 105.408C111.372 105.408 111.036 105.144 111.036 104.7C111.036 104.244 111.372 103.992 111.768 103.992C112.176 103.992 112.512 104.244 112.512 104.7C112.512 105.144 112.176 105.408 111.768 105.408ZM120.265 105.3V105.768H118.357V107.676H117.901V105.768H115.993V105.3H117.901V103.404H118.357V105.3H120.265ZM124.541 104.136C126.149 104.136 127.469 105.204 127.433 106.872C127.385 108.54 126.185 109.62 124.469 109.62C122.669 109.62 121.361 108.444 121.301 106.452C121.193 103.068 122.561 101.076 124.661 100.98C125.825 100.932 126.737 101.472 127.025 101.964C127.241 102.324 127.277 102.624 127.145 102.9C127.025 103.176 126.593 103.32 126.245 103.08C126.077 102.96 125.969 102.768 126.005 102.228C126.041 101.712 125.597 101.22 124.625 101.304C123.497 101.388 122.681 102.42 122.501 105.18C122.921 104.58 123.701 104.136 124.541 104.136ZM124.385 109.296C125.525 109.296 126.233 108.384 126.233 106.872C126.233 105.408 125.537 104.532 124.385 104.532C123.245 104.532 122.549 105.408 122.549 106.872C122.549 108.384 123.257 109.296 124.385 109.296ZM133.523 107.676H133.751L133.523 109.5H128.039V109.2C130.271 106.896 131.963 105.648 132.095 103.38C132.167 102.144 131.675 101.34 130.703 101.304C129.863 101.268 129.443 101.688 129.443 102.228C129.443 102.72 129.395 102.948 129.215 103.08C128.915 103.308 128.435 103.152 128.315 102.9C128.159 102.576 128.303 102.204 128.459 101.964C128.795 101.448 129.563 100.98 130.703 100.98C132.251 100.98 133.535 101.748 133.439 103.38C133.331 105.408 131.183 107.04 129.323 108.576H131.903C133.007 108.576 133.331 108.288 133.523 107.676ZM141.165 104.88C142.401 105.36 143.577 106.02 143.409 107.412C143.241 108.696 141.957 109.62 140.265 109.62C138.729 109.62 136.941 108.72 137.133 107.1C137.253 105.972 138.129 105.396 139.185 105.144C137.805 104.52 137.397 103.536 137.649 102.564C137.913 101.508 139.041 100.98 140.265 100.98C141.597 100.98 142.941 101.664 142.965 102.816C143.001 103.884 142.293 104.58 141.165 104.88ZM138.573 102.732C138.501 103.824 139.629 104.28 140.757 104.688C141.525 104.268 141.921 103.764 141.957 102.936C141.993 102.024 141.333 101.304 140.265 101.304C139.293 101.304 138.633 101.784 138.573 102.732ZM140.349 109.296C141.477 109.296 142.269 108.672 142.269 107.556C142.269 106.356 140.949 105.912 139.605 105.36C138.969 105.648 138.381 106.14 138.273 107.16C138.129 108.588 139.317 109.296 140.349 109.296ZM149.765 107.676H149.993L149.765 109.5H144.281V109.2C146.513 106.896 148.205 105.648 148.337 103.38C148.409 102.144 147.917 101.34 146.945 101.304C146.105 101.268 145.685 101.688 145.685 102.228C145.685 102.72 145.637 102.948 145.457 103.08C145.157 103.308 144.677 103.152 144.557 102.9C144.401 102.576 144.545 102.204 144.701 101.964C145.037 101.448 145.805 100.98 146.945 100.98C148.493 100.98 149.777 101.748 149.681 103.38C149.573 105.408 147.425 107.04 145.565 108.576H148.145C149.249 108.576 149.573 108.288 149.765 107.676ZM154.144 105C155.836 105.216 156.784 105.996 156.784 107.184C156.784 108.66 155.512 109.62 153.7 109.62C152.38 109.62 151.396 109.068 151.06 108.6C150.832 108.276 150.784 107.904 150.916 107.664C151.12 107.316 151.6 107.244 151.864 107.472C152.14 107.7 152.14 108.108 152.128 108.336C152.092 108.876 152.752 109.296 153.7 109.296C154.864 109.296 155.416 108.516 155.416 107.244C155.416 106.008 154.72 105.168 153.088 105.168V104.868C154.192 104.772 154.864 104.112 154.864 102.912C154.864 101.964 154.468 101.304 153.7 101.304C152.848 101.304 152.524 101.712 152.536 102.228C152.536 102.744 152.464 102.96 152.308 103.08C151.96 103.344 151.528 103.104 151.396 102.9C151.264 102.672 151.348 102.264 151.54 101.964C151.852 101.484 152.596 100.98 153.676 100.98C154.912 100.98 156.196 101.616 156.196 102.912C156.196 103.92 155.38 104.724 154.144 105ZM157.806 105.312H162.078V105.768H157.806V105.312ZM166.05 105C167.742 105.216 168.69 105.996 168.69 107.184C168.69 108.66 167.418 109.62 165.606 109.62C164.286 109.62 163.302 109.068 162.966 108.6C162.738 108.276 162.69 107.904 162.822 107.664C163.026 107.316 163.506 107.244 163.77 107.472C164.046 107.7 164.046 108.108 164.034 108.336C163.998 108.876 164.658 109.296 165.606 109.296C166.77 109.296 167.322 108.516 167.322 107.244C167.322 106.008 166.626 105.168 164.994 105.168V104.868C166.098 104.772 166.77 104.112 166.77 102.912C166.77 101.964 166.374 101.304 165.606 101.304C164.754 101.304 164.43 101.712 164.442 102.228C164.442 102.744 164.37 102.96 164.214 103.08C163.866 103.344 163.434 103.104 163.302 102.9C163.17 102.672 163.254 102.264 163.446 101.964C163.758 101.484 164.502 100.98 165.582 100.98C166.818 100.98 168.102 101.616 168.102 102.912C168.102 103.92 167.286 104.724 166.05 105ZM174.902 107.676H175.13L174.902 109.5H169.418V109.2C171.65 106.896 173.342 105.648 173.474 103.38C173.546 102.144 173.054 101.34 172.082 101.304C171.242 101.268 170.822 101.688 170.822 102.228C170.822 102.72 170.774 102.948 170.594 103.08C170.294 103.308 169.814 103.152 169.694 102.9C169.538 102.576 169.682 102.204 169.838 101.964C170.174 101.448 170.942 100.98 172.082 100.98C173.63 100.98 174.914 101.748 174.818 103.38C174.71 105.408 172.562 107.04 170.701 108.576H173.282C174.386 108.576 174.71 108.288 174.902 107.676ZM179.337 104.136C180.945 104.136 182.265 105.204 182.229 106.872C182.181 108.54 180.981 109.62 179.265 109.62C177.465 109.62 176.157 108.444 176.097 106.452C175.989 103.068 177.357 101.076 179.457 100.98C180.621 100.932 181.533 101.472 181.821 101.964C182.037 102.324 182.073 102.624 181.941 102.9C181.821 103.176 181.389 103.32 181.041 103.08C180.873 102.96 180.765 102.768 180.801 102.228C180.837 101.712 180.393 101.22 179.421 101.304C178.293 101.388 177.477 102.42 177.297 105.18C177.717 104.58 178.497 104.136 179.337 104.136ZM179.181 109.296C180.321 109.296 181.029 108.384 181.029 106.872C181.029 105.408 180.333 104.532 179.181 104.532C178.041 104.532 177.345 105.408 177.345 106.872C177.345 108.384 178.053 109.296 179.181 109.296ZM189.199 107.412H188.047V108.516C188.047 108.984 188.167 109.2 188.623 109.236V109.5H186.295V109.236C186.751 109.2 186.871 108.984 186.871 108.516V107.412H182.839V106.98L186.871 101.1H188.047V106.98H189.199V107.412ZM183.367 106.98H186.871V101.892L183.367 106.98ZM190.044 105.312H194.316V105.768H190.044V105.312ZM199.395 104.88C200.631 105.36 201.807 106.02 201.639 107.412C201.471 108.696 200.187 109.62 198.495 109.62C196.959 109.62 195.171 108.72 195.363 107.1C195.483 105.972 196.359 105.396 197.415 105.144C196.035 104.52 195.627 103.536 195.879 102.564C196.143 101.508 197.271 100.98 198.495 100.98C199.827 100.98 201.171 101.664 201.195 102.816C201.231 103.884 200.523 104.58 199.395 104.88ZM196.803 102.732C196.731 103.824 197.859 104.28 198.987 104.688C199.755 104.268 200.151 103.764 200.187 102.936C200.223 102.024 199.563 101.304 198.495 101.304C197.523 101.304 196.863 101.784 196.803 102.732ZM198.579 109.296C199.707 109.296 200.499 108.672 200.499 107.556C200.499 106.356 199.179 105.912 197.835 105.36C197.199 105.648 196.611 106.14 196.503 107.16C196.359 108.588 197.547 109.296 198.579 109.296ZM205.823 105C207.515 105.216 208.463 105.996 208.463 107.184C208.463 108.66 207.191 109.62 205.379 109.62C204.059 109.62 203.075 109.068 202.739 108.6C202.511 108.276 202.463 107.904 202.595 107.664C202.799 107.316 203.279 107.244 203.543 107.472C203.819 107.7 203.819 108.108 203.807 108.336C203.771 108.876 204.431 109.296 205.379 109.296C206.543 109.296 207.095 108.516 207.095 107.244C207.095 106.008 206.399 105.168 204.767 105.168V104.868C205.871 104.772 206.543 104.112 206.543 102.912C206.543 101.964 206.147 101.304 205.379 101.304C204.527 101.304 204.203 101.712 204.215 102.228C204.215 102.744 204.143 102.96 203.987 103.08C203.639 103.344 203.207 103.104 203.075 102.9C202.943 102.672 203.027 102.264 203.219 101.964C203.531 101.484 204.275 100.98 205.355 100.98C206.591 100.98 207.875 101.616 207.875 102.912C207.875 103.92 207.059 104.724 205.823 105ZM212.677 104.136C214.285 104.136 215.605 105.204 215.569 106.872C215.521 108.54 214.321 109.62 212.605 109.62C210.805 109.62 209.497 108.444 209.437 106.452C209.329 103.068 210.697 101.076 212.797 100.98C213.961 100.932 214.873 101.472 215.161 101.964C215.377 102.324 215.413 102.624 215.281 102.9C215.161 103.176 214.729 103.32 214.381 103.08C214.213 102.96 214.105 102.768 214.141 102.228C214.177 101.712 213.733 101.22 212.761 101.304C211.633 101.388 210.817 102.42 210.637 105.18C211.057 104.58 211.837 104.136 212.677 104.136ZM212.521 109.296C213.661 109.296 214.369 108.384 214.369 106.872C214.369 105.408 213.673 104.532 212.521 104.532C211.381 104.532 210.685 105.408 210.685 106.872C210.685 108.384 211.393 109.296 212.521 109.296ZM222.565 104.136C222.685 107.46 221.317 109.512 219.289 109.62C218.161 109.68 217.201 109.116 216.913 108.624C216.709 108.276 216.661 107.976 216.793 107.7C216.925 107.424 217.369 107.292 217.693 107.508C217.873 107.628 217.981 107.82 217.933 108.36C217.897 108.876 218.377 109.344 219.313 109.296C220.393 109.236 221.173 108.18 221.353 105.408C220.933 106.02 220.165 106.464 219.313 106.464C217.717 106.464 216.397 105.384 216.433 103.716C216.481 102.024 217.765 100.98 219.397 100.98C221.089 100.98 222.493 102.144 222.565 104.136ZM219.469 106.056C220.621 106.056 221.317 105.192 221.317 103.716C221.317 102.216 220.609 101.292 219.469 101.292C218.341 101.292 217.621 102.216 217.621 103.716C217.621 105.192 218.329 106.056 219.469 106.056ZM53.9917 117.752C54.6037 117.752 55.1077 118.148 55.1077 118.844C55.1077 119.54 54.6037 119.936 53.9917 119.936C53.3917 119.936 52.8877 119.54 52.8877 118.844C52.8877 118.148 53.3917 117.752 53.9917 117.752ZM70.668 121.112H70.908L70.656 122.768C69.924 123.296 69.144 123.668 67.752 123.62C65.268 123.548 63.24 121.916 63.24 119.3C63.24 116.684 65.148 114.98 67.68 114.98C68.76 114.98 69.876 115.328 70.656 115.832V117.536H70.404C70.044 116.036 68.988 115.316 67.68 115.316C65.808 115.316 64.644 116.996 64.644 119.3C64.644 121.604 65.808 123.176 67.68 123.296C69.144 123.38 70.2 122.636 70.668 121.112ZM74.4626 117.704C76.0586 117.704 77.4746 118.784 77.4746 120.656C77.4746 122.528 76.0586 123.62 74.4626 123.62C72.8666 123.62 71.4506 122.528 71.4506 120.656C71.4506 118.784 72.8666 117.704 74.4626 117.704ZM74.4626 123.272C75.5426 123.272 76.1786 122.216 76.1786 120.656C76.1786 119.096 75.5426 118.04 74.4626 118.04C73.3826 118.04 72.7466 119.096 72.7466 120.656C72.7466 122.216 73.3826 123.272 74.4626 123.272ZM83.9919 122.516C83.9919 122.984 84.1119 123.2 84.5559 123.236V123.5H82.1679V123.236C82.6119 123.2 82.7319 122.984 82.7319 122.516V119.84C82.7319 118.868 82.2999 118.16 81.3639 118.16C80.5359 118.16 79.9599 118.832 79.9599 119.732V122.516C79.9599 122.984 80.0799 123.2 80.5359 123.236V123.5H78.1359V123.236C78.5919 123.2 78.7119 122.984 78.7119 122.516V119.108C78.7119 118.64 78.5919 118.424 78.1359 118.388V118.124L79.7319 117.704H79.9239V118.58C80.3799 117.98 81.0279 117.704 81.7719 117.704C83.2479 117.704 83.9919 118.7 83.9919 119.96V122.516ZM88.4103 122.732L88.5663 122.948C88.3023 123.32 87.8823 123.62 87.2823 123.62C86.4183 123.62 85.7463 123.164 85.7463 121.94V118.244H84.8583V117.812C85.8663 117.812 86.4303 117.128 86.6223 116.156C86.7663 116.156 86.9943 116.156 86.9943 116.156V117.812H88.2303V118.244H86.9943V121.94C86.9943 122.468 87.1623 122.792 87.5103 122.9C87.8583 123.02 88.1703 122.912 88.4103 122.732ZM94.5033 122.984L94.6233 123.188C94.3713 123.5 94.0353 123.62 93.6753 123.62C93.2193 123.62 92.6673 123.404 92.6553 122.696C92.3553 123.284 91.7193 123.62 91.0113 123.62C90.0753 123.62 89.0553 123.212 88.9953 122.156C88.9113 120.908 89.8833 120.344 91.0833 120.236C91.8273 120.176 92.3673 120.128 92.6553 120.104C92.6553 119.816 92.6553 119.636 92.6553 119.636C92.6553 118.58 92.4033 118.016 91.5753 117.956C91.1193 117.932 90.6153 118.184 90.6393 118.76C90.6633 119.408 90.2313 119.588 89.8473 119.444C89.5233 119.312 89.4273 118.94 89.6073 118.568C89.9193 117.896 90.8193 117.704 91.5393 117.704C92.6553 117.704 93.9033 118.076 93.9033 119.852V122.684C93.9033 123.116 94.2393 123.188 94.5033 122.984ZM91.3953 123.164C92.1633 123.14 92.6553 122.54 92.6553 121.568C92.6553 121.172 92.6553 120.74 92.6553 120.38C92.4753 120.404 92.1753 120.428 91.7073 120.488C90.7233 120.608 90.1833 121.208 90.1953 121.964C90.2073 122.792 90.7353 123.188 91.3953 123.164ZM100.071 122.12L100.239 122.252C99.8313 123.056 98.9913 123.62 97.9353 123.62C96.3393 123.62 94.9833 122.456 94.9833 120.572C94.9833 118.784 96.3633 117.704 97.9113 117.704C98.9193 117.704 99.6873 118.04 100.047 118.64C100.251 118.988 100.227 119.54 99.7713 119.696C99.3993 119.828 98.9193 119.588 98.9553 118.928C98.9913 118.316 98.5473 117.92 97.8753 117.98C96.9753 118.064 96.1353 119.012 96.2193 120.572C96.3513 123.224 99.0273 123.476 100.071 122.12ZM104.149 122.732L104.305 122.948C104.041 123.32 103.621 123.62 103.021 123.62C102.157 123.62 101.485 123.164 101.485 121.94V118.244H100.597V117.812C101.605 117.812 102.169 117.128 102.361 116.156C102.505 116.156 102.733 116.156 102.733 116.156V117.812H103.969V118.244H102.733V121.94C102.733 122.468 102.901 122.792 103.249 122.9C103.597 123.02 103.909 122.912 104.149 122.732ZM112.968 121.676H113.196L112.968 123.5H107.484V123.2C109.716 120.896 111.408 119.648 111.54 117.38C111.612 116.144 111.12 115.34 110.148 115.304C109.308 115.268 108.888 115.688 108.888 116.228C108.888 116.72 108.84 116.948 108.66 117.08C108.36 117.308 107.88 117.152 107.76 116.9C107.604 116.576 107.748 116.204 107.904 115.964C108.24 115.448 109.008 114.98 110.148 114.98C111.696 114.98 112.98 115.748 112.884 117.38C112.776 119.408 110.628 121.04 108.768 122.576H111.348C112.452 122.576 112.776 122.288 112.968 121.676ZM114.944 122.204C115.352 122.204 115.688 122.456 115.688 122.912C115.688 123.356 115.352 123.62 114.944 123.62C114.548 123.62 114.212 123.356 114.212 122.912C114.212 122.456 114.548 122.204 114.944 122.204ZM114.944 119.408C114.548 119.408 114.212 119.144 114.212 118.7C114.212 118.244 114.548 117.992 114.944 117.992C115.352 117.992 115.688 118.244 115.688 118.7C115.688 119.144 115.352 119.408 114.944 119.408ZM123.441 119.3V119.768H121.533V121.676H121.077V119.768H119.169V119.3H121.077V117.404H121.533V119.3H123.441ZM127.716 118.136C129.324 118.136 130.644 119.204 130.608 120.872C130.56 122.54 129.36 123.62 127.644 123.62C125.844 123.62 124.536 122.444 124.476 120.452C124.368 117.068 125.736 115.076 127.836 114.98C129 114.932 129.912 115.472 130.2 115.964C130.416 116.324 130.452 116.624 130.32 116.9C130.2 117.176 129.768 117.32 129.42 117.08C129.252 116.96 129.144 116.768 129.18 116.228C129.216 115.712 128.772 115.22 127.8 115.304C126.672 115.388 125.856 116.42 125.676 119.18C126.096 118.58 126.876 118.136 127.716 118.136ZM127.56 123.296C128.7 123.296 129.408 122.384 129.408 120.872C129.408 119.408 128.712 118.532 127.56 118.532C126.42 118.532 125.724 119.408 125.724 120.872C125.724 122.384 126.432 123.296 127.56 123.296ZM136.698 121.676H136.926L136.698 123.5H131.214V123.2C133.446 120.896 135.138 119.648 135.27 117.38C135.342 116.144 134.85 115.34 133.878 115.304C133.038 115.268 132.618 115.688 132.618 116.228C132.618 116.72 132.57 116.948 132.39 117.08C132.09 117.308 131.61 117.152 131.49 116.9C131.334 116.576 131.478 116.204 131.634 115.964C131.97 115.448 132.738 114.98 133.878 114.98C135.426 114.98 136.71 115.748 136.614 117.38C136.506 119.408 134.358 121.04 132.498 122.576H135.078C136.182 122.576 136.506 122.288 136.698 121.676ZM144.341 118.88C145.577 119.36 146.753 120.02 146.585 121.412C146.417 122.696 145.133 123.62 143.441 123.62C141.905 123.62 140.117 122.72 140.309 121.1C140.429 119.972 141.305 119.396 142.361 119.144C140.981 118.52 140.573 117.536 140.825 116.564C141.089 115.508 142.217 114.98 143.441 114.98C144.773 114.98 146.117 115.664 146.141 116.816C146.177 117.884 145.469 118.58 144.341 118.88ZM141.749 116.732C141.677 117.824 142.805 118.28 143.933 118.688C144.701 118.268 145.097 117.764 145.133 116.936C145.169 116.024 144.509 115.304 143.441 115.304C142.469 115.304 141.809 115.784 141.749 116.732ZM143.525 123.296C144.653 123.296 145.445 122.672 145.445 121.556C145.445 120.356 144.125 119.912 142.781 119.36C142.145 119.648 141.557 120.14 141.449 121.16C141.305 122.588 142.493 123.296 143.525 123.296ZM150.769 119C152.461 119.216 153.409 119.996 153.409 121.184C153.409 122.66 152.137 123.62 150.325 123.62C149.005 123.62 148.021 123.068 147.685 122.6C147.457 122.276 147.409 121.904 147.541 121.664C147.745 121.316 148.225 121.244 148.489 121.472C148.765 121.7 148.765 122.108 148.753 122.336C148.717 122.876 149.377 123.296 150.325 123.296C151.489 123.296 152.041 122.516 152.041 121.244C152.041 120.008 151.345 119.168 149.713 119.168V118.868C150.817 118.772 151.489 118.112 151.489 116.912C151.489 115.964 151.093 115.304 150.325 115.304C149.473 115.304 149.149 115.712 149.161 116.228C149.161 116.744 149.089 116.96 148.933 117.08C148.585 117.344 148.153 117.104 148.021 116.9C147.889 116.672 147.973 116.264 148.165 115.964C148.477 115.484 149.221 114.98 150.301 114.98C151.537 114.98 152.821 115.616 152.821 116.912C152.821 117.92 152.005 118.724 150.769 119ZM156.396 122.516C156.396 122.984 156.516 123.2 156.96 123.236V123.5H154.644V123.236C155.088 123.2 155.208 122.984 155.208 122.516V116.348C155.04 116.348 154.764 116.348 154.488 116.348V116.084L156.18 115.1H156.396V122.516ZM158.04 119.312H162.312V119.768H158.04V119.312ZM165.243 122.516C165.243 122.984 165.363 123.2 165.807 123.236V123.5H163.491V123.236C163.935 123.2 164.055 122.984 164.055 122.516V116.348C163.887 116.348 163.611 116.348 163.335 116.348V116.084L165.027 115.1H165.243V122.516ZM172.972 118.136C173.092 121.46 171.724 123.512 169.696 123.62C168.568 123.68 167.608 123.116 167.32 122.624C167.116 122.276 167.068 121.976 167.2 121.7C167.332 121.424 167.776 121.292 168.1 121.508C168.28 121.628 168.388 121.82 168.34 122.36C168.304 122.876 168.784 123.344 169.72 123.296C170.8 123.236 171.58 122.18 171.76 119.408C171.34 120.02 170.572 120.464 169.72 120.464C168.124 120.464 166.804 119.384 166.84 117.716C166.888 116.024 168.172 114.98 169.804 114.98C171.496 114.98 172.9 116.144 172.972 118.136ZM169.876 120.056C171.028 120.056 171.724 119.192 171.724 117.716C171.724 116.216 171.016 115.292 169.876 115.292C168.748 115.292 168.028 116.216 168.028 117.716C168.028 119.192 168.736 120.056 169.876 120.056ZM179.824 121.412H178.672V122.516C178.672 122.984 178.792 123.2 179.248 123.236V123.5H176.92V123.236C177.376 123.2 177.496 122.984 177.496 122.516V121.412H173.464V120.98L177.496 115.1H178.672V120.98H179.824V121.412ZM173.992 120.98H177.496V115.892L173.992 120.98ZM182.634 122.516C182.634 122.984 182.754 123.2 183.198 123.236V123.5H180.882V123.236C181.326 123.2 181.446 122.984 181.446 122.516V116.348C181.278 116.348 181.002 116.348 180.726 116.348V116.084L182.418 115.1H182.634V122.516ZM184.278 119.312H188.55V119.768H184.278V119.312ZM191.482 122.516C191.482 122.984 191.602 123.2 192.046 123.236V123.5H189.73V123.236C190.174 123.2 190.294 122.984 190.294 122.516V116.348C190.126 116.348 189.85 116.348 189.574 116.348V116.084L191.266 115.1H191.482V122.516ZM197.122 118.88C198.358 119.36 199.534 120.02 199.366 121.412C199.198 122.696 197.914 123.62 196.222 123.62C194.686 123.62 192.898 122.72 193.09 121.1C193.21 119.972 194.086 119.396 195.142 119.144C193.762 118.52 193.354 117.536 193.606 116.564C193.87 115.508 194.998 114.98 196.222 114.98C197.554 114.98 198.898 115.664 198.922 116.816C198.958 117.884 198.25 118.58 197.122 118.88ZM194.53 116.732C194.458 117.824 195.586 118.28 196.714 118.688C197.482 118.268 197.878 117.764 197.914 116.936C197.95 116.024 197.29 115.304 196.222 115.304C195.25 115.304 194.59 115.784 194.53 116.732ZM196.306 123.296C197.434 123.296 198.226 122.672 198.226 121.556C198.226 120.356 196.906 119.912 195.562 119.36C194.926 119.648 194.338 120.14 194.23 121.16C194.086 122.588 195.274 123.296 196.306 123.296ZM202.38 122.516C202.38 122.984 202.5 123.2 202.944 123.236V123.5H200.628V123.236C201.072 123.2 201.192 122.984 201.192 122.516V116.348C201.024 116.348 200.748 116.348 200.472 116.348V116.084L202.164 115.1H202.38V122.516ZM204.072 115.1H209.328V115.4C207.672 117.056 206.94 120.608 206.856 122.852C206.832 123.464 206.568 123.62 206.316 123.62C206.028 123.62 205.632 123.464 205.656 122.948C205.728 120.812 206.928 117.908 208.428 116.024H205.692C204.588 116.024 204.264 116.312 204.072 116.924H203.844L204.072 115.1ZM53.9917 131.752C54.6037 131.752 55.1077 132.148 55.1077 132.844C55.1077 133.54 54.6037 133.936 53.9917 133.936C53.3917 133.936 52.8877 133.54 52.8877 132.844C52.8877 132.148 53.3917 131.752 53.9917 131.752ZM69.528 135.628H69.744L69.516 137.5H63.54V137.236C63.984 137.188 64.104 136.984 64.104 136.516V130.072C64.104 129.604 63.984 129.4 63.54 129.364V129.1H69.252L69.48 130.96H69.252C69.06 130.348 68.736 129.556 67.62 129.556H65.376V133.012H66.864C67.704 133.012 67.932 132.736 68.016 132.232H68.232V134.26H68.016C67.932 133.756 67.704 133.468 66.864 133.468H65.376V137.032H67.896C69.012 137.032 69.324 136.24 69.528 135.628ZM80.0122 136.516C80.0122 136.984 80.1322 137.2 80.5882 137.236V137.5H78.1882V137.236C78.6442 137.2 78.7642 136.984 78.7642 136.516V133.84C78.7642 132.868 78.3922 132.16 77.4682 132.16C76.6642 132.16 76.1482 132.832 76.1482 133.732C76.1482 133.768 76.1482 136.516 76.1482 136.516C76.1482 136.984 76.2682 137.2 76.7122 137.236V137.5H74.3242V137.236C74.7682 137.2 74.8882 136.984 74.8882 136.516V133.84C74.8882 132.868 74.5282 132.16 73.6042 132.16C72.8002 132.16 72.2722 132.832 72.2722 133.732V136.516C72.2722 136.984 72.3922 137.2 72.8482 137.236V137.5H70.4602V137.236C70.9042 137.2 71.0242 136.984 71.0242 136.516V133.108C71.0242 132.64 70.9042 132.424 70.4602 132.388V132.124L72.0442 131.704H72.2362V132.556C72.6682 131.98 73.2922 131.704 74.0002 131.704C74.9842 131.704 75.6202 132.148 75.9202 132.832C76.3522 132.064 77.0482 131.704 77.8762 131.704C79.3282 131.704 80.0122 132.7 80.0122 133.96V136.516ZM86.64 136.984L86.76 137.188C86.508 137.5 86.172 137.62 85.812 137.62C85.356 137.62 84.804 137.404 84.792 136.696C84.492 137.284 83.856 137.62 83.148 137.62C82.212 137.62 81.192 137.212 81.132 136.156C81.048 134.908 82.02 134.344 83.22 134.236C83.964 134.176 84.504 134.128 84.792 134.104C84.792 133.816 84.792 133.636 84.792 133.636C84.792 132.58 84.54 132.016 83.712 131.956C83.256 131.932 82.752 132.184 82.776 132.76C82.8 133.408 82.368 133.588 81.984 133.444C81.66 133.312 81.564 132.94 81.744 132.568C82.056 131.896 82.956 131.704 83.676 131.704C84.792 131.704 86.04 132.076 86.04 133.852V136.684C86.04 137.116 86.376 137.188 86.64 136.984ZM83.532 137.164C84.3 137.14 84.792 136.54 84.792 135.568C84.792 135.172 84.792 134.74 84.792 134.38C84.612 134.404 84.312 134.428 83.844 134.488C82.86 134.608 82.32 135.208 82.332 135.964C82.344 136.792 82.872 137.188 83.532 137.164ZM88.2868 130.864C87.8308 130.864 87.4468 130.576 87.4468 130.06C87.4468 129.544 87.8308 129.256 88.2868 129.256C88.7428 129.256 89.1268 129.544 89.1268 130.06C89.1268 130.576 88.7428 130.864 88.2868 130.864ZM89.0068 136.516C89.0068 136.984 89.1268 137.2 89.5708 137.236V137.5H87.1828V137.236C87.6268 137.2 87.7468 136.984 87.7468 136.516V133.108C87.7468 132.64 87.6268 132.424 87.1828 132.388V132.124L88.8148 131.704H89.0068V136.516ZM91.9951 136.516C91.9951 136.984 92.1151 137.2 92.5711 137.236V137.5H90.1711V137.236C90.6271 137.2 90.7471 136.984 90.7471 136.516V130.072C90.7471 129.604 90.6271 129.4 90.1711 129.364V129.1L91.8031 128.668H91.9951V136.516ZM94.0259 136.204C94.4339 136.204 94.7699 136.456 94.7699 136.912C94.7699 137.356 94.4339 137.62 94.0259 137.62C93.6299 137.62 93.2939 137.356 93.2939 136.912C93.2939 136.456 93.6299 136.204 94.0259 136.204ZM94.0259 133.408C93.6299 133.408 93.2939 133.144 93.2939 132.7C93.2939 132.244 93.6299 131.992 94.0259 131.992C94.4339 131.992 94.7699 132.244 94.7699 132.7C94.7699 133.144 94.4339 133.408 94.0259 133.408ZM102.919 136.12L103.087 136.252C102.679 137.056 101.839 137.62 100.783 137.62C99.1869 137.62 97.8309 136.456 97.8309 134.572C97.8309 132.784 99.2109 131.704 100.759 131.704C101.767 131.704 102.535 132.04 102.895 132.64C103.099 132.988 103.075 133.54 102.619 133.696C102.247 133.828 101.767 133.588 101.803 132.928C101.839 132.316 101.395 131.92 100.723 131.98C99.8229 132.064 98.9829 133.012 99.0669 134.572C99.1989 137.224 101.875 137.476 102.919 136.12ZM106.631 131.704C108.227 131.704 109.643 132.784 109.643 134.656C109.643 136.528 108.227 137.62 106.631 137.62C105.035 137.62 103.619 136.528 103.619 134.656C103.619 132.784 105.035 131.704 106.631 131.704ZM106.631 137.272C107.711 137.272 108.347 136.216 108.347 134.656C108.347 133.096 107.711 132.04 106.631 132.04C105.551 132.04 104.915 133.096 104.915 134.656C104.915 136.216 105.551 137.272 106.631 137.272ZM116.862 137.068L116.934 137.296C116.646 137.524 116.322 137.62 115.938 137.62C115.422 137.62 114.918 137.392 114.918 136.672C114.918 136.648 114.918 136.612 114.918 136.564C114.522 137.164 113.898 137.62 112.962 137.62C111.534 137.62 110.37 136.468 110.37 134.656C110.37 132.844 111.534 131.704 112.962 131.704C113.898 131.704 114.522 132.148 114.918 132.748V130.072C114.918 129.604 114.798 129.4 114.354 129.364V129.1L115.974 128.668H116.166V136.648C116.166 137.08 116.514 137.188 116.862 137.068ZM113.274 137.176C114.33 137.176 114.918 136.192 114.918 134.656C114.918 133.12 114.33 132.136 113.274 132.136C112.23 132.136 111.654 133.204 111.654 134.656C111.654 136.108 112.23 137.176 113.274 137.176ZM122.648 134.392V134.464H118.52C118.52 134.5 118.52 134.536 118.532 134.572C118.664 137.224 121.364 137.476 122.408 136.12L122.576 136.264C122.168 137.056 121.256 137.62 120.236 137.62C118.652 137.62 117.284 136.456 117.284 134.572C117.284 132.748 118.52 131.704 120.116 131.704C121.856 131.704 122.672 132.916 122.648 134.392ZM120.092 131.968C119.252 131.98 118.616 132.772 118.532 134.032H121.496C121.532 132.964 121.088 131.956 120.092 131.968ZM124.167 136.204C124.575 136.204 124.911 136.456 124.911 136.912C124.911 137.356 124.575 137.62 124.167 137.62C123.771 137.62 123.435 137.356 123.435 136.912C123.435 136.456 123.771 136.204 124.167 136.204ZM131.32 136.528C131.32 136.996 131.44 137.2 131.884 137.236V137.5H130.06V136.816C129.64 137.356 129.04 137.62 128.332 137.62C126.856 137.62 125.956 136.72 125.956 135.352V133.108C125.956 132.64 125.836 132.424 125.392 132.388V132.124L127.012 131.704H127.216V135.472C127.216 136.564 127.72 137.152 128.656 137.152C129.448 137.152 130.06 136.48 130.06 135.58V133.108C130.06 132.64 129.94 132.424 129.496 132.388V132.124L131.116 131.704H131.32V136.528ZM136.138 131.704C137.566 131.704 138.73 132.844 138.73 134.656C138.73 136.468 137.566 137.62 136.138 137.62C135.094 137.62 134.446 137.044 134.05 136.348L133.186 137.5H132.934V130.072C132.934 129.604 132.814 129.4 132.37 129.364V129.1L133.99 128.668H134.194V132.748C134.59 132.148 135.202 131.704 136.138 131.704ZM135.826 137.176C136.882 137.176 137.458 136.108 137.458 134.656C137.458 133.204 136.882 132.136 135.826 132.136C134.77 132.136 134.194 133.12 134.194 134.656C134.194 136.192 134.77 137.176 135.826 137.176ZM144.937 135.676H145.165L144.937 137.5H139.453V137.2C141.685 134.896 143.377 133.648 143.509 131.38C143.581 130.144 143.089 129.34 142.117 129.304C141.277 129.268 140.857 129.688 140.857 130.228C140.857 130.72 140.809 130.948 140.629 131.08C140.329 131.308 139.849 131.152 139.729 130.9C139.573 130.576 139.717 130.204 139.873 129.964C140.209 129.448 140.977 128.98 142.117 128.98C143.665 128.98 144.949 129.748 144.853 131.38C144.745 133.408 142.597 135.04 140.737 136.576H143.317C144.421 136.576 144.745 136.288 144.937 135.676ZM149.157 128.98C151.053 128.98 152.361 130.696 152.361 133.3C152.361 135.904 151.053 137.62 149.157 137.62C147.249 137.62 145.941 135.904 145.941 133.3C145.941 130.696 147.249 128.98 149.157 128.98ZM149.157 137.296C150.369 137.296 151.101 135.892 151.101 133.3C151.101 130.696 150.369 129.304 149.157 129.304C147.933 129.304 147.213 130.696 147.213 133.3C147.213 135.892 147.933 137.296 149.157 137.296ZM158.507 135.676H158.735L158.507 137.5H153.023V137.2C155.255 134.896 156.947 133.648 157.079 131.38C157.151 130.144 156.659 129.34 155.687 129.304C154.847 129.268 154.427 129.688 154.427 130.228C154.427 130.72 154.379 130.948 154.199 131.08C153.899 131.308 153.419 131.152 153.299 130.9C153.143 130.576 153.287 130.204 153.443 129.964C153.779 129.448 154.547 128.98 155.687 128.98C157.235 128.98 158.519 129.748 158.423 131.38C158.315 133.408 156.167 135.04 154.307 136.576H156.887C157.991 136.576 158.315 136.288 158.507 135.676ZM165.175 135.676H165.403L165.175 137.5H159.691V137.2C161.923 134.896 163.615 133.648 163.747 131.38C163.819 130.144 163.327 129.34 162.355 129.304C161.515 129.268 161.095 129.688 161.095 130.228C161.095 130.72 161.047 130.948 160.867 131.08C160.567 131.308 160.087 131.152 159.967 130.9C159.811 130.576 159.955 130.204 160.111 129.964C160.447 129.448 161.215 128.98 162.355 128.98C163.903 128.98 165.187 129.748 165.091 131.38C164.983 133.408 162.835 135.04 160.975 136.576H163.555C164.659 136.576 164.983 136.288 165.175 135.676ZM170.871 128.548C173.619 128.548 175.695 130.54 175.695 133.096C175.695 134.332 175.179 135.484 174.183 135.688C173.475 135.82 172.479 135.544 172.227 134.788C171.915 135.304 171.411 135.724 170.607 135.724C169.467 135.724 168.531 134.8 168.531 133.348C168.531 131.884 169.467 130.972 170.607 130.972C171.447 130.972 171.963 131.428 172.275 131.992L172.971 131.068H173.175V134.212C173.175 135.112 173.739 135.352 174.159 135.292C174.903 135.196 175.335 134.212 175.335 133.096C175.335 130.972 173.571 128.896 170.871 128.896C168.315 128.896 166.527 130.912 166.527 133.216C166.527 135.772 168.447 137.608 171.075 137.608C171.819 137.608 172.587 137.356 172.971 137.092V137.488C172.623 137.716 171.783 137.968 171.075 137.968C168.111 137.968 166.179 136.024 166.179 133.216C166.179 130.576 168.159 128.548 170.871 128.548ZM170.859 135.364C171.699 135.364 172.167 134.572 172.167 133.348C172.167 132.112 171.699 131.332 170.859 131.332C170.019 131.332 169.551 132.184 169.551 133.348C169.551 134.512 170.019 135.364 170.859 135.364ZM179.4 136.576C181.536 136.576 182.568 137.092 182.52 138.256C182.472 139.612 181.248 140.692 179.304 140.692C177.612 140.692 175.944 140.068 176.064 138.832C176.136 138.244 176.652 137.764 177.468 137.488C176.688 137.26 176.268 136.852 176.388 136.264C176.52 135.676 177.264 135.412 177.828 135.292C177.312 134.956 176.976 134.416 176.976 133.696C176.976 132.412 178.068 131.704 179.292 131.704C179.76 131.704 180.216 131.8 180.6 132.004C180.624 131.716 180.72 131.428 180.864 131.14C181.14 130.624 181.848 130.468 182.088 130.9C182.268 131.26 182.004 131.728 181.5 131.668C181.26 131.644 181.128 131.668 181.008 131.752C180.888 131.836 180.852 131.992 180.84 132.16C181.308 132.496 181.62 133.024 181.62 133.696C181.62 134.98 180.516 135.712 179.292 135.712C178.908 135.712 178.524 135.628 178.188 135.496C177.792 135.556 177.156 135.712 177.132 136.036C177.084 136.504 177.792 136.576 179.4 136.576ZM179.292 132.004C178.62 132.004 178.116 132.592 178.116 133.696C178.116 134.812 178.62 135.4 179.292 135.4C179.976 135.4 180.48 134.812 180.48 133.696C180.48 132.592 179.976 132.004 179.292 132.004ZM181.56 138.856C181.716 137.896 180.864 137.692 179.244 137.692C178.824 137.692 178.428 137.668 178.08 137.62C177.576 137.8 177.096 138.172 177.06 138.868C177 140.032 178.32 140.356 179.364 140.356C180.384 140.368 181.392 139.84 181.56 138.856ZM192.559 136.516C192.559 136.984 192.679 137.2 193.135 137.236V137.5H190.735V137.236C191.191 137.2 191.311 136.984 191.311 136.516V133.84C191.311 132.868 190.939 132.16 190.015 132.16C189.211 132.16 188.695 132.832 188.695 133.732C188.695 133.768 188.695 136.516 188.695 136.516C188.695 136.984 188.815 137.2 189.259 137.236V137.5H186.871V137.236C187.315 137.2 187.435 136.984 187.435 136.516V133.84C187.435 132.868 187.075 132.16 186.151 132.16C185.347 132.16 184.819 132.832 184.819 133.732V136.516C184.819 136.984 184.939 137.2 185.395 137.236V137.5H183.007V137.236C183.451 137.2 183.571 136.984 183.571 136.516V133.108C183.571 132.64 183.451 132.424 183.007 132.388V132.124L184.591 131.704H184.783V132.556C185.215 131.98 185.839 131.704 186.547 131.704C187.531 131.704 188.167 132.148 188.467 132.832C188.899 132.064 189.595 131.704 190.423 131.704C191.875 131.704 192.559 132.7 192.559 133.96V136.516ZM199.187 136.984L199.307 137.188C199.055 137.5 198.719 137.62 198.359 137.62C197.903 137.62 197.351 137.404 197.339 136.696C197.039 137.284 196.403 137.62 195.695 137.62C194.759 137.62 193.739 137.212 193.679 136.156C193.595 134.908 194.567 134.344 195.767 134.236C196.511 134.176 197.051 134.128 197.339 134.104C197.339 133.816 197.339 133.636 197.339 133.636C197.339 132.58 197.087 132.016 196.259 131.956C195.803 131.932 195.299 132.184 195.323 132.76C195.347 133.408 194.915 133.588 194.531 133.444C194.207 133.312 194.111 132.94 194.291 132.568C194.603 131.896 195.503 131.704 196.223 131.704C197.339 131.704 198.587 132.076 198.587 133.852V136.684C198.587 137.116 198.923 137.188 199.187 136.984ZM196.079 137.164C196.847 137.14 197.339 136.54 197.339 135.568C197.339 135.172 197.339 134.74 197.339 134.38C197.159 134.404 196.859 134.428 196.391 134.488C195.407 134.608 194.867 135.208 194.879 135.964C194.891 136.792 195.419 137.188 196.079 137.164ZM200.834 130.864C200.378 130.864 199.994 130.576 199.994 130.06C199.994 129.544 200.378 129.256 200.834 129.256C201.29 129.256 201.674 129.544 201.674 130.06C201.674 130.576 201.29 130.864 200.834 130.864ZM201.554 136.516C201.554 136.984 201.674 137.2 202.118 137.236V137.5H199.73V137.236C200.174 137.2 200.294 136.984 200.294 136.516V133.108C200.294 132.64 200.174 132.424 199.73 132.388V132.124L201.362 131.704H201.554V136.516ZM204.542 136.516C204.542 136.984 204.662 137.2 205.118 137.236V137.5H202.718V137.236C203.174 137.2 203.294 136.984 203.294 136.516V130.072C203.294 129.604 203.174 129.4 202.718 129.364V129.1L204.35 128.668H204.542V136.516ZM206.573 136.204C206.981 136.204 207.317 136.456 207.317 136.912C207.317 137.356 206.981 137.62 206.573 137.62C206.177 137.62 205.841 137.356 205.841 136.912C205.841 136.456 206.177 136.204 206.573 136.204ZM213.063 136.12L213.231 136.252C212.823 137.056 211.983 137.62 210.927 137.62C209.331 137.62 207.975 136.456 207.975 134.572C207.975 132.784 209.355 131.704 210.903 131.704C211.911 131.704 212.679 132.04 213.039 132.64C213.243 132.988 213.219 133.54 212.763 133.696C212.391 133.828 211.911 133.588 211.947 132.928C211.983 132.316 211.539 131.92 210.867 131.98C209.967 132.064 209.127 133.012 209.211 134.572C209.343 137.224 212.019 137.476 213.063 136.12ZM216.775 131.704C218.371 131.704 219.787 132.784 219.787 134.656C219.787 136.528 218.371 137.62 216.775 137.62C215.179 137.62 213.763 136.528 213.763 134.656C213.763 132.784 215.179 131.704 216.775 131.704ZM216.775 137.272C217.855 137.272 218.491 136.216 218.491 134.656C218.491 133.096 217.855 132.04 216.775 132.04C215.695 132.04 215.059 133.096 215.059 134.656C215.059 136.216 215.695 137.272 216.775 137.272ZM230 136.516C230 136.984 230.12 137.2 230.576 137.236V137.5H228.176V137.236C228.632 137.2 228.752 136.984 228.752 136.516V133.84C228.752 132.868 228.38 132.16 227.456 132.16C226.652 132.16 226.136 132.832 226.136 133.732C226.136 133.768 226.136 136.516 226.136 136.516C226.136 136.984 226.256 137.2 226.7 137.236V137.5H224.312V137.236C224.756 137.2 224.876 136.984 224.876 136.516V133.84C224.876 132.868 224.516 132.16 223.592 132.16C222.788 132.16 222.26 132.832 222.26 133.732V136.516C222.26 136.984 222.38 137.2 222.836 137.236V137.5H220.448V137.236C220.892 137.2 221.012 136.984 221.012 136.516V133.108C221.012 132.64 220.892 132.424 220.448 132.388V132.124L222.032 131.704H222.224V132.556C222.656 131.98 223.28 131.704 223.988 131.704C224.972 131.704 225.608 132.148 225.908 132.832C226.34 132.064 227.036 131.704 227.864 131.704C229.316 131.704 230 132.7 230 133.96V136.516Z" fill="#E2E6DF"/>
<rect y="0.5" width="52" height="52" rx="26" fill="#E2E6DF"/>
<path d="M27.044 24.904C30.02 25.408 31.7 26.896 31.7 29.368C31.7 32.32 28.844 34.24 25.244 34.24C22.604 34.24 20.492 33.352 19.748 32.128C19.34 31.432 19.268 30.688 19.46 30.184C19.796 29.2 21.14 28.816 22.028 29.584C22.748 30.208 22.388 31.096 22.556 31.72C22.892 33.016 23.876 33.352 25.244 33.352C27.02 33.352 28.1 31.888 28.1 29.488C28.1 27.016 26.996 25.48 23.996 25.48V24.592C26.204 24.328 27.092 23.224 27.092 20.824C27.092 19.192 26.588 17.896 25.076 17.848C24.02 17.8 23.3 18.424 23.348 19.456C23.396 20.512 23.324 21.184 22.796 21.568C21.788 22.36 20.492 21.688 20.228 21.016C20.012 20.416 20.18 19.648 20.54 19.072C21.308 17.848 22.868 16.96 25.172 16.96C27.956 16.96 30.524 18.232 30.524 20.824C30.524 22.648 29.252 24.184 27.044 24.904Z" fill="#2B465B"/>
</svg>
