<svg width="1136" height="203" viewBox="0 0 1136 203" fill="none" xmlns="http://www.w3.org/2000/svg">
<rect x="18" y="18" width="1116" height="183" rx="30" stroke="#576589" stroke-width="4"/>
<rect x="40" y="40" width="1072" height="139" rx="32" fill="#576589"/>
<path d="M102.424 85.2L102.88 88.92H102.424C102.04 87.696 101.416 86.112 99.184 86.112H96.952V100.032C96.952 100.968 97.192 101.4 98.104 101.472V102H93.256V101.472C94.168 101.4 94.408 100.968 94.408 100.032V86.112H92.176C89.944 86.112 89.32 87.696 88.936 88.92H88.48L88.936 85.2H102.424ZM112.163 95.784V95.928H103.907C103.907 96 103.907 96.072 103.931 96.144C104.195 101.448 109.595 101.952 111.683 99.24L112.019 99.528C111.203 101.112 109.379 102.24 107.339 102.24C104.171 102.24 101.435 99.912 101.435 96.144C101.435 92.496 103.907 90.408 107.099 90.408C110.579 90.408 112.211 92.832 112.163 95.784ZM107.051 90.936C105.371 90.96 104.099 92.544 103.931 95.064H109.859C109.931 92.928 109.043 90.912 107.051 90.936ZM124.171 100.968L124.411 101.376C123.907 102 123.235 102.24 122.515 102.24C121.603 102.24 120.499 101.808 120.475 100.392C119.875 101.568 118.603 102.24 117.187 102.24C115.315 102.24 113.275 101.424 113.155 99.312C112.987 96.816 114.931 95.688 117.331 95.472C118.819 95.352 119.899 95.256 120.475 95.208C120.475 94.632 120.475 94.272 120.475 94.272C120.475 92.16 119.971 91.032 118.315 90.912C117.403 90.864 116.395 91.368 116.443 92.52C116.491 93.816 115.627 94.176 114.859 93.888C114.211 93.624 114.019 92.88 114.379 92.136C115.003 90.792 116.803 90.408 118.243 90.408C120.475 90.408 122.971 91.152 122.971 94.704V100.368C122.971 101.232 123.643 101.376 124.171 100.968ZM117.955 101.328C119.491 101.28 120.475 100.08 120.475 98.136C120.475 97.344 120.475 96.48 120.475 95.76C120.115 95.808 119.515 95.856 118.579 95.976C116.611 96.216 115.531 97.416 115.555 98.928C115.579 100.584 116.635 101.376 117.955 101.328ZM144.36 100.032C144.36 100.968 144.6 101.4 145.512 101.472V102H140.712V101.472C141.624 101.4 141.864 100.968 141.864 100.032V94.68C141.864 92.736 141.12 91.32 139.272 91.32C137.664 91.32 136.632 92.664 136.632 94.464C136.632 94.536 136.632 100.032 136.632 100.032C136.632 100.968 136.872 101.4 137.76 101.472V102H132.984V101.472C133.872 101.4 134.112 100.968 134.112 100.032V94.68C134.112 92.736 133.392 91.32 131.544 91.32C129.936 91.32 128.88 92.664 128.88 94.464V100.032C128.88 100.968 129.12 101.4 130.032 101.472V102H125.256V101.472C126.144 101.4 126.384 100.968 126.384 100.032V93.216C126.384 92.28 126.144 91.848 125.256 91.776V91.248L128.424 90.408H128.808V92.112C129.672 90.96 130.92 90.408 132.336 90.408C134.304 90.408 135.576 91.296 136.176 92.664C137.04 91.128 138.432 90.408 140.088 90.408C142.992 90.408 144.36 92.4 144.36 94.92V100.032ZM154.92 100.032C154.92 100.968 155.16 101.4 156.072 101.472V102H151.272V101.472C152.184 101.4 152.424 100.968 152.424 100.032V87.144C152.424 86.208 152.184 85.8 151.272 85.728V85.2L154.536 84.336H154.92V100.032ZM167.874 95.784V95.928H159.618C159.618 96 159.618 96.072 159.642 96.144C159.906 101.448 165.306 101.952 167.394 99.24L167.73 99.528C166.914 101.112 165.09 102.24 163.05 102.24C159.882 102.24 157.146 99.912 157.146 96.144C157.146 92.496 159.618 90.408 162.81 90.408C166.29 90.408 167.922 92.832 167.874 95.784ZM162.762 90.936C161.082 90.96 159.81 92.544 159.642 95.064H165.57C165.642 92.928 164.754 90.912 162.762 90.936ZM179.882 100.968L180.122 101.376C179.618 102 178.946 102.24 178.226 102.24C177.314 102.24 176.21 101.808 176.186 100.392C175.586 101.568 174.314 102.24 172.898 102.24C171.026 102.24 168.986 101.424 168.866 99.312C168.698 96.816 170.642 95.688 173.042 95.472C174.53 95.352 175.61 95.256 176.186 95.208C176.186 94.632 176.186 94.272 176.186 94.272C176.186 92.16 175.682 91.032 174.026 90.912C173.114 90.864 172.106 91.368 172.154 92.52C172.202 93.816 171.338 94.176 170.57 93.888C169.922 93.624 169.73 92.88 170.09 92.136C170.714 90.792 172.514 90.408 173.954 90.408C176.186 90.408 178.682 91.152 178.682 94.704V100.368C178.682 101.232 179.354 101.376 179.882 100.968ZM173.666 101.328C175.202 101.28 176.186 100.08 176.186 98.136C176.186 97.344 176.186 96.48 176.186 95.76C175.826 95.808 175.226 95.856 174.29 95.976C172.322 96.216 171.242 97.416 171.266 98.928C171.29 100.584 172.346 101.376 173.666 101.328ZM193.826 101.136L193.97 101.592C193.394 102.048 192.746 102.24 191.978 102.24C190.946 102.24 189.938 101.784 189.938 100.344C189.938 100.296 189.938 100.224 189.938 100.128C189.146 101.328 187.898 102.24 186.026 102.24C183.17 102.24 180.842 99.936 180.842 96.312C180.842 92.688 183.17 90.408 186.026 90.408C187.898 90.408 189.146 91.296 189.938 92.496V87.144C189.938 86.208 189.698 85.8 188.81 85.728V85.2L192.05 84.336H192.434V100.296C192.434 101.16 193.13 101.376 193.826 101.136ZM186.65 101.352C188.762 101.352 189.938 99.384 189.938 96.312C189.938 93.24 188.762 91.272 186.65 91.272C184.562 91.272 183.41 93.408 183.41 96.312C183.41 99.216 184.562 101.352 186.65 101.352ZM205.398 95.784V95.928H197.142C197.142 96 197.142 96.072 197.166 96.144C197.43 101.448 202.83 101.952 204.918 99.24L205.254 99.528C204.438 101.112 202.614 102.24 200.574 102.24C197.406 102.24 194.67 99.912 194.67 96.144C194.67 92.496 197.142 90.408 200.334 90.408C203.814 90.408 205.446 92.832 205.398 95.784ZM200.286 90.936C198.606 90.96 197.334 92.544 197.166 95.064H203.094C203.166 92.928 202.278 90.912 200.286 90.936ZM216.037 91.896C216.229 92.544 216.013 93.408 215.341 93.648C214.549 93.912 213.685 93.624 213.589 92.448C213.493 91.56 213.013 91.392 212.341 91.512C211.381 91.68 210.373 92.976 210.373 94.704V100.056C210.373 100.992 210.613 101.4 211.501 101.472V102H206.725V101.472C207.613 101.4 207.853 100.992 207.853 100.056V93.216C207.853 92.28 207.613 91.848 206.725 91.776V91.248L209.917 90.408H210.301V92.448C210.973 91.128 212.053 90.432 213.445 90.408C214.573 90.384 215.701 90.888 216.037 91.896ZM222.338 95.16C224.162 96 226.154 97.008 225.506 99.432C225.026 101.28 223.346 102.24 221.018 102.24C219.554 102.24 217.874 101.808 216.818 100.992V98.376H217.202C217.73 100.656 219.458 101.544 221.018 101.592C222.218 101.64 223.226 101.184 223.466 100.152C223.826 98.592 222.242 97.968 220.706 97.272C218.402 96.216 216.818 95.136 217.442 92.688C217.85 91.056 219.602 90.408 221.282 90.408C222.506 90.408 223.754 90.816 224.81 91.632V93.96H224.402C223.85 91.8 222.866 90.96 221.282 91.008C220.442 91.032 219.506 91.344 219.386 92.4C219.218 93.816 220.754 94.44 222.338 95.16ZM241.479 99.24L241.815 99.504C240.999 101.112 239.319 102.24 237.207 102.24C234.015 102.24 231.303 99.912 231.303 96.144C231.303 92.568 234.062 90.408 237.159 90.408C239.175 90.408 240.711 91.08 241.431 92.28C241.839 92.976 241.791 94.08 240.879 94.392C240.135 94.656 239.175 94.176 239.247 92.856C239.319 91.632 238.431 90.84 237.087 90.96C235.287 91.128 233.607 93.024 233.775 96.144C234.039 101.448 239.391 101.952 241.479 99.24ZM254.038 100.968L254.278 101.376C253.774 102 253.102 102.24 252.382 102.24C251.47 102.24 250.366 101.808 250.342 100.392C249.742 101.568 248.47 102.24 247.054 102.24C245.182 102.24 243.142 101.424 243.022 99.312C242.854 96.816 244.798 95.688 247.198 95.472C248.686 95.352 249.766 95.256 250.342 95.208C250.342 94.632 250.342 94.272 250.342 94.272C250.342 92.16 249.838 91.032 248.182 90.912C247.27 90.864 246.262 91.368 246.31 92.52C246.358 93.816 245.494 94.176 244.726 93.888C244.078 93.624 243.886 92.88 244.246 92.136C244.87 90.792 246.67 90.408 248.11 90.408C250.342 90.408 252.838 91.152 252.838 94.704V100.368C252.838 101.232 253.51 101.376 254.038 100.968ZM247.822 101.328C249.358 101.28 250.342 100.08 250.342 98.136C250.342 97.344 250.342 96.48 250.342 95.76C249.982 95.808 249.382 95.856 248.446 95.976C246.478 96.216 245.398 97.416 245.422 98.928C245.446 100.584 246.502 101.376 247.822 101.328ZM266.835 100.032C266.835 100.968 267.075 101.4 267.963 101.472V102H263.187V101.472C264.075 101.4 264.315 100.968 264.315 100.032V94.68C264.315 92.736 263.451 91.32 261.579 91.32C259.923 91.32 258.771 92.664 258.771 94.464V100.032C258.771 100.968 259.011 101.4 259.923 101.472V102H255.123V101.472C256.035 101.4 256.275 100.968 256.275 100.032V93.216C256.275 92.28 256.035 91.848 255.123 91.776V91.248L258.315 90.408H258.699V92.16C259.611 90.96 260.907 90.408 262.395 90.408C265.347 90.408 266.835 92.4 266.835 94.92V100.032ZM278.893 95.16C280.717 96 282.709 97.008 282.061 99.432C281.581 101.28 279.901 102.24 277.573 102.24C276.109 102.24 274.429 101.808 273.373 100.992V98.376H273.757C274.285 100.656 276.013 101.544 277.573 101.592C278.773 101.64 279.781 101.184 280.021 100.152C280.381 98.592 278.797 97.968 277.261 97.272C274.957 96.216 273.373 95.136 273.997 92.688C274.405 91.056 276.157 90.408 277.837 90.408C279.061 90.408 280.309 90.816 281.365 91.632V93.96H280.957C280.405 91.8 279.421 90.96 277.837 91.008C276.997 91.032 276.061 91.344 275.941 92.4C275.773 93.816 277.309 94.44 278.893 95.16ZM295.023 100.056C295.023 100.992 295.263 101.4 296.151 101.472V102H292.503V100.632C291.663 101.712 290.463 102.24 289.047 102.24C286.095 102.24 284.295 100.44 284.295 97.704V93.216C284.295 92.28 284.055 91.848 283.167 91.776V91.248L286.407 90.408H286.815V97.944C286.815 100.128 287.823 101.304 289.695 101.304C291.279 101.304 292.503 99.96 292.503 98.16V93.216C292.503 92.28 292.263 91.848 291.375 91.776V91.248L294.615 90.408H295.023V100.056ZM304.659 90.408C307.515 90.408 309.843 92.688 309.843 96.312C309.843 99.936 307.515 102.24 304.659 102.24C302.571 102.24 301.275 101.088 300.483 99.696L298.755 102H298.251V87.144C298.251 86.208 298.011 85.8 297.123 85.728V85.2L300.363 84.336H300.771V92.496C301.563 91.296 302.787 90.408 304.659 90.408ZM304.035 101.352C306.147 101.352 307.299 99.216 307.299 96.312C307.299 93.408 306.147 91.272 304.035 91.272C301.923 91.272 300.771 93.24 300.771 96.312C300.771 99.384 301.923 101.352 304.035 101.352ZM330.267 100.032C330.267 100.968 330.507 101.4 331.419 101.472V102H326.619V101.472C327.531 101.4 327.771 100.968 327.771 100.032V94.68C327.771 92.736 327.027 91.32 325.179 91.32C323.571 91.32 322.539 92.664 322.539 94.464C322.539 94.536 322.539 100.032 322.539 100.032C322.539 100.968 322.779 101.4 323.667 101.472V102H318.891V101.472C319.779 101.4 320.019 100.968 320.019 100.032V94.68C320.019 92.736 319.299 91.32 317.451 91.32C315.843 91.32 314.787 92.664 314.787 94.464V100.032C314.787 100.968 315.027 101.4 315.939 101.472V102H311.163V101.472C312.051 101.4 312.291 100.968 312.291 100.032V93.216C312.291 92.28 312.051 91.848 311.163 91.776V91.248L314.331 90.408H314.715V92.112C315.579 90.96 316.827 90.408 318.243 90.408C320.211 90.408 321.483 91.296 322.083 92.664C322.947 91.128 324.339 90.408 325.995 90.408C328.899 90.408 330.267 92.4 330.267 94.92V100.032ZM334.816 88.728C333.904 88.728 333.136 88.152 333.136 87.12C333.136 86.088 333.904 85.512 334.816 85.512C335.728 85.512 336.496 86.088 336.496 87.12C336.496 88.152 335.728 88.728 334.816 88.728ZM336.256 100.032C336.256 100.968 336.496 101.4 337.384 101.472V102H332.608V101.472C333.496 101.4 333.736 100.968 333.736 100.032V93.216C333.736 92.28 333.496 91.848 332.608 91.776V91.248L335.872 90.408H336.256V100.032ZM345.094 100.464L345.406 100.896C344.878 101.64 344.038 102.24 342.838 102.24C341.11 102.24 339.766 101.328 339.766 98.88V91.488H337.99V90.624C340.006 90.624 341.134 89.256 341.518 87.312C341.806 87.312 342.262 87.312 342.262 87.312V90.624H344.734V91.488H342.262V98.88C342.262 99.936 342.598 100.584 343.294 100.8C343.99 101.04 344.614 100.824 345.094 100.464ZM362.085 100.968L362.325 101.376C361.821 102 361.149 102.24 360.429 102.24C359.517 102.24 358.413 101.808 358.389 100.392C357.789 101.568 356.517 102.24 355.101 102.24C353.229 102.24 351.189 101.424 351.069 99.312C350.901 96.816 352.845 95.688 355.245 95.472C356.733 95.352 357.813 95.256 358.389 95.208C358.389 94.632 358.389 94.272 358.389 94.272C358.389 92.16 357.885 91.032 356.229 90.912C355.317 90.864 354.309 91.368 354.357 92.52C354.405 93.816 353.541 94.176 352.773 93.888C352.125 93.624 351.933 92.88 352.293 92.136C352.917 90.792 354.717 90.408 356.157 90.408C358.389 90.408 360.885 91.152 360.885 94.704V100.368C360.885 101.232 361.557 101.376 362.085 100.968ZM355.869 101.328C357.405 101.28 358.389 100.08 358.389 98.136C358.389 97.344 358.389 96.48 358.389 95.76C358.029 95.808 357.429 95.856 356.493 95.976C354.525 96.216 353.445 97.416 353.469 98.928C353.493 100.584 354.549 101.376 355.869 101.328ZM370.472 90.408C373.328 90.408 375.656 92.688 375.656 96.312C375.656 99.936 373.328 102.24 370.472 102.24C368.384 102.24 367.088 101.088 366.296 99.696L364.568 102H364.064V87.144C364.064 86.208 363.824 85.8 362.936 85.728V85.2L366.176 84.336H366.584V92.496C367.376 91.296 368.6 90.408 370.472 90.408ZM369.848 101.352C371.96 101.352 373.112 99.216 373.112 96.312C373.112 93.408 371.96 91.272 369.848 91.272C367.736 91.272 366.584 93.24 366.584 96.312C366.584 99.384 367.736 101.352 369.848 101.352ZM382.369 95.16C384.193 96 386.185 97.008 385.537 99.432C385.057 101.28 383.377 102.24 381.049 102.24C379.585 102.24 377.905 101.808 376.849 100.992V98.376H377.233C377.761 100.656 379.489 101.544 381.049 101.592C382.249 101.64 383.257 101.184 383.497 100.152C383.857 98.592 382.273 97.968 380.737 97.272C378.433 96.216 376.849 95.136 377.473 92.688C377.881 91.056 379.633 90.408 381.313 90.408C382.537 90.408 383.785 90.816 384.841 91.632V93.96H384.433C383.881 91.8 382.897 90.96 381.313 91.008C380.473 91.032 379.537 91.344 379.417 92.4C379.249 93.816 380.785 94.44 382.369 95.16ZM393.633 100.464L393.945 100.896C393.417 101.64 392.577 102.24 391.377 102.24C389.649 102.24 388.305 101.328 388.305 98.88V91.488H386.529V90.624C388.545 90.624 389.673 89.256 390.057 87.312C390.345 87.312 390.801 87.312 390.801 87.312V90.624H393.273V91.488H390.801V98.88C390.801 99.936 391.137 100.584 391.833 100.8C392.529 101.04 393.153 100.824 393.633 100.464ZM404.217 91.896C404.409 92.544 404.193 93.408 403.521 93.648C402.729 93.912 401.865 93.624 401.769 92.448C401.673 91.56 401.193 91.392 400.521 91.512C399.561 91.68 398.553 92.976 398.553 94.704V100.056C398.553 100.992 398.793 101.4 399.681 101.472V102H394.905V101.472C395.793 101.4 396.033 100.992 396.033 100.056V93.216C396.033 92.28 395.793 91.848 394.905 91.776V91.248L398.097 90.408H398.481V92.448C399.153 91.128 400.233 90.432 401.625 90.408C402.753 90.384 403.881 90.888 404.217 91.896ZM415.077 100.968L415.317 101.376C414.813 102 414.141 102.24 413.421 102.24C412.509 102.24 411.405 101.808 411.381 100.392C410.781 101.568 409.509 102.24 408.093 102.24C406.221 102.24 404.181 101.424 404.061 99.312C403.893 96.816 405.837 95.688 408.237 95.472C409.725 95.352 410.805 95.256 411.381 95.208C411.381 94.632 411.381 94.272 411.381 94.272C411.381 92.16 410.877 91.032 409.221 90.912C408.309 90.864 407.301 91.368 407.349 92.52C407.397 93.816 406.533 94.176 405.765 93.888C405.117 93.624 404.925 92.88 405.285 92.136C405.909 90.792 407.709 90.408 409.149 90.408C411.381 90.408 413.877 91.152 413.877 94.704V100.368C413.877 101.232 414.549 101.376 415.077 100.968ZM408.861 101.328C410.397 101.28 411.381 100.08 411.381 98.136C411.381 97.344 411.381 96.48 411.381 95.76C411.021 95.808 410.421 95.856 409.485 95.976C407.517 96.216 406.437 97.416 406.461 98.928C406.485 100.584 407.541 101.376 408.861 101.328ZM426.213 99.24L426.549 99.504C425.733 101.112 424.053 102.24 421.941 102.24C418.749 102.24 416.037 99.912 416.037 96.144C416.037 92.568 418.797 90.408 421.893 90.408C423.909 90.408 425.445 91.08 426.165 92.28C426.573 92.976 426.525 94.08 425.613 94.392C424.869 94.656 423.909 94.176 423.981 92.856C424.053 91.632 423.165 90.84 421.821 90.96C420.021 91.128 418.341 93.024 418.509 96.144C418.773 101.448 424.125 101.952 426.213 99.24ZM434.367 100.464L434.679 100.896C434.151 101.64 433.311 102.24 432.111 102.24C430.383 102.24 429.039 101.328 429.039 98.88V91.488H427.263V90.624C429.279 90.624 430.407 89.256 430.791 87.312C431.079 87.312 431.535 87.312 431.535 87.312V90.624H434.007V91.488H431.535V98.88C431.535 99.936 431.871 100.584 432.567 100.8C433.263 101.04 433.887 100.824 434.367 100.464ZM441.268 95.16C443.092 96 445.084 97.008 444.436 99.432C443.956 101.28 442.276 102.24 439.948 102.24C438.484 102.24 436.804 101.808 435.748 100.992V98.376H436.132C436.66 100.656 438.388 101.544 439.948 101.592C441.148 101.64 442.156 101.184 442.396 100.152C442.756 98.592 441.172 97.968 439.636 97.272C437.332 96.216 435.748 95.136 436.372 92.688C436.78 91.056 438.532 90.408 440.212 90.408C441.436 90.408 442.684 90.816 443.74 91.632V93.96H443.332C442.78 91.8 441.796 90.96 440.212 91.008C439.372 91.032 438.436 91.344 438.316 92.4C438.148 93.816 439.684 94.44 441.268 95.16ZM452.8 88.728C451.888 88.728 451.12 88.152 451.12 87.12C451.12 86.088 451.888 85.512 452.8 85.512C453.712 85.512 454.48 86.088 454.48 87.12C454.48 88.152 453.712 88.728 452.8 88.728ZM454.24 100.032C454.24 100.968 454.48 101.4 455.368 101.472V102H450.592V101.472C451.48 101.4 451.72 100.968 451.72 100.032V93.216C451.72 92.28 451.48 91.848 450.592 91.776V91.248L453.856 90.408H454.24V100.032ZM468.281 100.032C468.281 100.968 468.521 101.4 469.409 101.472V102H464.633V101.472C465.521 101.4 465.761 100.968 465.761 100.032V94.68C465.761 92.736 464.897 91.32 463.025 91.32C461.369 91.32 460.217 92.664 460.217 94.464V100.032C460.217 100.968 460.457 101.4 461.369 101.472V102H456.569V101.472C457.481 101.4 457.721 100.968 457.721 100.032V93.216C457.721 92.28 457.481 91.848 456.569 91.776V91.248L459.761 90.408H460.145V92.16C461.057 90.96 462.353 90.408 463.841 90.408C466.793 90.408 468.281 92.4 468.281 94.92V100.032ZM482.714 90.408C485.57 90.408 487.898 92.688 487.898 96.312C487.898 99.936 485.57 102.24 482.714 102.24C480.626 102.24 479.33 101.088 478.538 99.696L476.81 102H476.306V87.144C476.306 86.208 476.066 85.8 475.178 85.728V85.2L478.418 84.336H478.826V92.496C479.618 91.296 480.842 90.408 482.714 90.408ZM482.09 101.352C484.202 101.352 485.354 99.216 485.354 96.312C485.354 93.408 484.202 91.272 482.09 91.272C479.978 91.272 478.826 93.24 478.826 96.312C478.826 99.384 479.978 101.352 482.09 101.352ZM495.253 90.408C498.445 90.408 501.277 92.568 501.277 96.312C501.277 100.056 498.445 102.24 495.253 102.24C492.061 102.24 489.229 100.056 489.229 96.312C489.229 92.568 492.061 90.408 495.253 90.408ZM495.253 101.544C497.413 101.544 498.685 99.432 498.685 96.312C498.685 93.192 497.413 91.08 495.253 91.08C493.093 91.08 491.821 93.192 491.821 96.312C491.821 99.432 493.093 101.544 495.253 101.544ZM509.344 100.464L509.656 100.896C509.128 101.64 508.288 102.24 507.088 102.24C505.36 102.24 504.016 101.328 504.016 98.88V91.488H502.24V90.624C504.256 90.624 505.384 89.256 505.768 87.312C506.056 87.312 506.512 87.312 506.512 87.312V90.624H508.984V91.488H506.512V98.88C506.512 99.936 506.848 100.584 507.544 100.8C508.24 101.04 508.864 100.824 509.344 100.464ZM522.304 100.032C522.304 100.968 522.544 101.4 523.456 101.472V102H518.68V101.472C519.568 101.4 519.808 100.968 519.808 100.032V94.68C519.808 92.736 518.944 91.32 517.072 91.32C515.416 91.32 514.264 92.664 514.264 94.464V100.032C514.264 100.968 514.504 101.4 515.392 101.472V102H510.616V101.472C511.504 101.4 511.744 100.968 511.744 100.032V87.144C511.744 86.208 511.504 85.8 510.616 85.728V85.2L513.88 84.336H514.264V92.064C515.176 90.936 516.448 90.408 517.864 90.408C520.84 90.408 522.304 92.4 522.304 94.92V100.032ZM548.473 100.056C548.665 100.968 549.001 101.376 549.889 101.472V102H544.945V101.472C545.761 101.424 546.025 100.944 545.833 100.008L543.649 88.776L539.137 102H538.201L533.257 88.608L531.481 100.032C531.361 100.944 531.577 101.376 532.489 101.472V102H529.225V101.472C530.137 101.376 530.425 100.968 530.569 100.032L532.537 87.288C532.681 86.4 532.561 85.8 531.649 85.728V85.2H534.697L539.449 98.4L543.961 85.2H546.769V85.728C545.929 85.8 545.665 86.304 545.857 87.312L548.473 100.056ZM553.3 88.728C552.388 88.728 551.62 88.152 551.62 87.12C551.62 86.088 552.388 85.512 553.3 85.512C554.212 85.512 554.98 86.088 554.98 87.12C554.98 88.152 554.212 88.728 553.3 88.728ZM554.74 100.032C554.74 100.968 554.98 101.4 555.868 101.472V102H551.092V101.472C551.98 101.4 552.22 100.968 552.22 100.032V93.216C552.22 92.28 551.98 91.848 551.092 91.776V91.248L554.356 90.408H554.74V100.032ZM567.119 99.24L567.455 99.504C566.639 101.112 564.959 102.24 562.847 102.24C559.655 102.24 556.943 99.912 556.943 96.144C556.943 92.568 559.703 90.408 562.799 90.408C564.815 90.408 566.351 91.08 567.071 92.28C567.479 92.976 567.431 94.08 566.519 94.392C565.775 94.656 564.815 94.176 564.887 92.856C564.959 91.632 564.071 90.84 562.727 90.96C560.927 91.128 559.247 93.024 559.415 96.144C559.679 101.448 565.031 101.952 567.119 99.24ZM578.076 91.896C578.268 92.544 578.052 93.408 577.38 93.648C576.588 93.912 575.724 93.624 575.628 92.448C575.532 91.56 575.052 91.392 574.38 91.512C573.42 91.68 572.412 92.976 572.412 94.704V100.056C572.412 100.992 572.652 101.4 573.54 101.472V102H568.764V101.472C569.652 101.4 569.892 100.992 569.892 100.056V93.216C569.892 92.28 569.652 91.848 568.764 91.776V91.248L571.956 90.408H572.34V92.448C573.012 91.128 574.092 90.432 575.484 90.408C576.612 90.384 577.74 90.888 578.076 91.896ZM584.761 90.408C587.953 90.408 590.785 92.568 590.785 96.312C590.785 100.056 587.953 102.24 584.761 102.24C581.569 102.24 578.737 100.056 578.737 96.312C578.737 92.568 581.569 90.408 584.761 90.408ZM584.761 101.544C586.921 101.544 588.193 99.432 588.193 96.312C588.193 93.192 586.921 91.08 584.761 91.08C582.601 91.08 581.329 93.192 581.329 96.312C581.329 99.432 582.601 101.544 584.761 101.544ZM597.502 95.16C599.326 96 601.318 97.008 600.67 99.432C600.19 101.28 598.51 102.24 596.182 102.24C594.718 102.24 593.038 101.808 591.982 100.992V98.376H592.366C592.894 100.656 594.622 101.544 596.182 101.592C597.382 101.64 598.39 101.184 598.63 100.152C598.99 98.592 597.406 97.968 595.87 97.272C593.566 96.216 591.982 95.136 592.606 92.688C593.014 91.056 594.766 90.408 596.446 90.408C597.67 90.408 598.918 90.816 599.974 91.632V93.96H599.566C599.014 91.8 598.03 90.96 596.446 91.008C595.606 91.032 594.67 91.344 594.55 92.4C594.382 93.816 595.918 94.44 597.502 95.16ZM607.8 90.408C610.992 90.408 613.824 92.568 613.824 96.312C613.824 100.056 610.992 102.24 607.8 102.24C604.608 102.24 601.776 100.056 601.776 96.312C601.776 92.568 604.608 90.408 607.8 90.408ZM607.8 101.544C609.96 101.544 611.232 99.432 611.232 96.312C611.232 93.192 609.96 91.08 607.8 91.08C605.64 91.08 604.368 93.192 604.368 96.312C604.368 99.432 605.64 101.544 607.8 101.544ZM622.929 86.208C623.265 86.64 623.577 87.624 622.881 88.128C622.401 88.464 621.657 88.344 621.368 87.84C621.105 87.36 621.081 86.712 620.913 86.304C620.648 85.728 620.312 85.512 619.689 85.536C618.849 85.584 618.417 86.28 618.465 87.144C618.585 88.656 618.993 88.248 618.993 90.456V90.624H621.969V91.488H618.993V100.032C618.993 100.968 619.233 101.4 620.145 101.472V102H615.369V101.472C616.257 101.4 616.497 100.968 616.497 100.032V91.488H614.433V90.624H616.497V89.664C616.497 87.12 617.312 84.96 619.833 84.888C621.033 84.864 622.185 85.248 622.929 86.208ZM629.555 100.464L629.867 100.896C629.339 101.64 628.499 102.24 627.299 102.24C625.571 102.24 624.227 101.328 624.227 98.88V91.488H622.451V90.624C624.467 90.624 625.595 89.256 625.979 87.312C626.267 87.312 626.723 87.312 626.723 87.312V90.624H629.195V91.488H626.723V98.88C626.723 99.936 627.059 100.584 627.755 100.8C628.451 101.04 629.075 100.824 629.555 100.464ZM656.338 85.2H659.794V85.728C658.906 85.8 658.474 86.232 658.162 87.144L653.122 102H651.994L647.77 88.824L643.306 102H642.178L637.138 87.144C636.826 86.232 636.514 85.8 635.626 85.728V85.2H640.906V85.728C639.97 85.704 639.61 86.496 639.922 87.48L643.426 98.568L648.058 85.2H649.162L653.338 98.616L657.178 87.288C657.466 86.352 657.25 85.8 656.338 85.728V85.2ZM664.613 90.408C667.805 90.408 670.637 92.568 670.637 96.312C670.637 100.056 667.805 102.24 664.613 102.24C661.421 102.24 658.589 100.056 658.589 96.312C658.589 92.568 661.421 90.408 664.613 90.408ZM664.613 101.544C666.773 101.544 668.045 99.432 668.045 96.312C668.045 93.192 666.773 91.08 664.613 91.08C662.453 91.08 661.181 93.192 661.181 96.312C661.181 99.432 662.453 101.544 664.613 101.544ZM681.271 91.896C681.463 92.544 681.247 93.408 680.575 93.648C679.783 93.912 678.919 93.624 678.823 92.448C678.727 91.56 678.247 91.392 677.575 91.512C676.615 91.68 675.607 92.976 675.607 94.704V100.056C675.607 100.992 675.847 101.4 676.735 101.472V102H671.959V101.472C672.847 101.4 673.087 100.992 673.087 100.056V93.216C673.087 92.28 672.847 91.848 671.959 91.776V91.248L675.151 90.408H675.535V92.448C676.207 91.128 677.287 90.432 678.679 90.408C679.807 90.384 680.935 90.888 681.271 91.896ZM695.036 101.136L695.181 101.592C694.605 102.048 693.957 102.24 693.189 102.24C692.157 102.24 691.149 101.784 691.149 100.344C691.149 100.296 691.149 100.224 691.149 100.128C690.357 101.328 689.109 102.24 687.237 102.24C684.381 102.24 682.053 99.936 682.053 96.312C682.053 92.688 684.381 90.408 687.237 90.408C689.109 90.408 690.357 91.296 691.149 92.496V87.144C691.149 86.208 690.909 85.8 690.021 85.728V85.2L693.261 84.336H693.645V100.296C693.645 101.16 694.341 101.376 695.036 101.136ZM687.861 101.352C689.973 101.352 691.149 99.384 691.149 96.312C691.149 93.24 689.973 91.272 687.861 91.272C685.773 91.272 684.621 93.408 684.621 96.312C684.621 99.216 685.773 101.352 687.861 101.352ZM711.257 100.968L711.497 101.376C710.993 102 710.321 102.24 709.601 102.24C708.689 102.24 707.585 101.808 707.561 100.392C706.961 101.568 705.689 102.24 704.273 102.24C702.401 102.24 700.361 101.424 700.241 99.312C700.073 96.816 702.017 95.688 704.417 95.472C705.905 95.352 706.985 95.256 707.561 95.208C707.561 94.632 707.561 94.272 707.561 94.272C707.561 92.16 707.057 91.032 705.401 90.912C704.489 90.864 703.481 91.368 703.529 92.52C703.577 93.816 702.713 94.176 701.945 93.888C701.297 93.624 701.105 92.88 701.465 92.136C702.089 90.792 703.889 90.408 705.329 90.408C707.561 90.408 710.057 91.152 710.057 94.704V100.368C710.057 101.232 710.729 101.376 711.257 100.968ZM705.041 101.328C706.577 101.28 707.561 100.08 707.561 98.136C707.561 97.344 707.561 96.48 707.561 95.76C707.201 95.808 706.601 95.856 705.665 95.976C703.697 96.216 702.617 97.416 702.641 98.928C702.665 100.584 703.721 101.376 705.041 101.328ZM724.054 100.032C724.054 100.968 724.294 101.4 725.182 101.472V102H720.406V101.472C721.294 101.4 721.534 100.968 721.534 100.032V94.68C721.534 92.736 720.67 91.32 718.798 91.32C717.142 91.32 715.99 92.664 715.99 94.464V100.032C715.99 100.968 716.23 101.4 717.142 101.472V102H712.342V101.472C713.254 101.4 713.494 100.968 713.494 100.032V93.216C713.494 92.28 713.254 91.848 712.342 91.776V91.248L715.534 90.408H715.918V92.16C716.83 90.96 718.126 90.408 719.614 90.408C722.566 90.408 724.054 92.4 724.054 94.92V100.032ZM739.24 101.136L739.384 101.592C738.808 102.048 738.16 102.24 737.392 102.24C736.36 102.24 735.352 101.784 735.352 100.344C735.352 100.296 735.352 100.224 735.352 100.128C734.56 101.328 733.312 102.24 731.44 102.24C728.584 102.24 726.256 99.936 726.256 96.312C726.256 92.688 728.584 90.408 731.44 90.408C733.312 90.408 734.56 91.296 735.352 92.496V87.144C735.352 86.208 735.112 85.8 734.224 85.728V85.2L737.464 84.336H737.848V100.296C737.848 101.16 738.544 101.376 739.24 101.136ZM732.064 101.352C734.176 101.352 735.352 99.384 735.352 96.312C735.352 93.24 734.176 91.272 732.064 91.272C729.976 91.272 728.824 93.408 728.824 96.312C728.824 99.216 729.976 101.352 732.064 101.352ZM751.02 85.2C754.572 85.2 757.812 86.856 757.812 90.36C757.812 93.84 754.572 95.496 751.02 95.496H748.956V100.032C748.956 100.968 749.196 101.4 750.084 101.472V102H745.26V101.472C746.172 101.4 746.388 100.968 746.388 100.032V87.144C746.388 86.208 746.172 85.8 745.26 85.728V85.2H751.02ZM750.78 94.584C753.444 94.584 755.148 93.12 755.148 90.36C755.148 87.576 753.444 86.112 750.78 86.112H748.956V94.584H750.78ZM765.774 85.2C772.038 85.2 775.182 89.064 775.182 93.6C775.182 98.136 772.038 102 765.774 102L759.486 101.976V101.472C760.374 101.376 760.614 100.968 760.614 100.032V87.144C760.614 86.208 760.374 85.8 759.486 85.728V85.2H765.774ZM765.438 101.064C770.046 101.064 772.47 98.232 772.47 93.6C772.47 88.968 770.046 86.112 765.438 86.112H763.182V101.064H765.438ZM788.088 85.2L788.544 88.92H788.088C787.704 87.696 787.056 86.112 784.848 86.112H780.432V93.408H783.312C784.992 93.408 785.448 92.832 785.616 91.824H786.048V95.88H785.616C785.448 94.872 784.992 94.32 783.312 94.32H780.432V100.032C780.432 100.968 780.672 101.376 781.56 101.472V102H776.736V101.472C777.624 101.376 777.864 100.968 777.864 100.032V87.144C777.864 86.208 777.624 85.8 776.736 85.728V85.2H788.088ZM802.554 86.208C802.89 86.64 803.202 87.624 802.506 88.128C802.026 88.464 801.282 88.344 800.993 87.84C800.73 87.36 800.706 86.712 800.538 86.304C800.273 85.728 799.938 85.512 799.314 85.536C798.474 85.584 798.042 86.28 798.09 87.144C798.21 88.656 798.618 88.248 798.618 90.456V90.624H801.594V91.488H798.618V100.032C798.618 100.968 798.858 101.4 799.77 101.472V102H794.994V101.472C795.882 101.4 796.122 100.968 796.122 100.032V91.488H794.058V90.624H796.122V89.664C796.122 87.12 796.938 84.96 799.458 84.888C800.658 84.864 801.81 85.248 802.554 86.208ZM807.511 90.408C810.703 90.408 813.535 92.568 813.535 96.312C813.535 100.056 810.703 102.24 807.511 102.24C804.319 102.24 801.487 100.056 801.487 96.312C801.487 92.568 804.319 90.408 807.511 90.408ZM807.511 101.544C809.671 101.544 810.943 99.432 810.943 96.312C810.943 93.192 809.671 91.08 807.511 91.08C805.351 91.08 804.079 93.192 804.079 96.312C804.079 99.432 805.351 101.544 807.511 101.544ZM824.17 91.896C824.362 92.544 824.146 93.408 823.474 93.648C822.682 93.912 821.818 93.624 821.722 92.448C821.626 91.56 821.146 91.392 820.474 91.512C819.514 91.68 818.506 92.976 818.506 94.704V100.056C818.506 100.992 818.746 101.4 819.634 101.472V102H814.858V101.472C815.746 101.4 815.986 100.992 815.986 100.056V93.216C815.986 92.28 815.746 91.848 814.858 91.776V91.248L818.05 90.408H818.434V92.448C819.106 91.128 820.186 90.432 821.578 90.408C822.706 90.384 823.834 90.888 824.17 91.896ZM844.415 100.032C844.415 100.968 844.655 101.4 845.567 101.472V102H840.767V101.472C841.679 101.4 841.919 100.968 841.919 100.032V94.68C841.919 92.736 841.175 91.32 839.327 91.32C837.719 91.32 836.687 92.664 836.687 94.464C836.687 94.536 836.687 100.032 836.687 100.032C836.687 100.968 836.927 101.4 837.815 101.472V102H833.039V101.472C833.927 101.4 834.167 100.968 834.167 100.032V94.68C834.167 92.736 833.447 91.32 831.599 91.32C829.991 91.32 828.935 92.664 828.935 94.464V100.032C828.935 100.968 829.175 101.4 830.087 101.472V102H825.311V101.472C826.199 101.4 826.439 100.968 826.439 100.032V93.216C826.439 92.28 826.199 91.848 825.311 91.776V91.248L828.479 90.408H828.863V92.112C829.727 90.96 830.975 90.408 832.391 90.408C834.359 90.408 835.631 91.296 836.231 92.664C837.095 91.128 838.487 90.408 840.143 90.408C843.047 90.408 844.415 92.4 844.415 94.92V100.032ZM857.671 100.968L857.911 101.376C857.407 102 856.735 102.24 856.015 102.24C855.103 102.24 853.999 101.808 853.975 100.392C853.375 101.568 852.103 102.24 850.687 102.24C848.815 102.24 846.775 101.424 846.655 99.312C846.487 96.816 848.431 95.688 850.831 95.472C852.319 95.352 853.399 95.256 853.975 95.208C853.975 94.632 853.975 94.272 853.975 94.272C853.975 92.16 853.471 91.032 851.815 90.912C850.903 90.864 849.895 91.368 849.943 92.52C849.991 93.816 849.127 94.176 848.359 93.888C847.711 93.624 847.519 92.88 847.879 92.136C848.503 90.792 850.303 90.408 851.743 90.408C853.975 90.408 856.471 91.152 856.471 94.704V100.368C856.471 101.232 857.143 101.376 857.671 100.968ZM851.455 101.328C852.991 101.28 853.975 100.08 853.975 98.136C853.975 97.344 853.975 96.48 853.975 95.76C853.615 95.808 853.015 95.856 852.079 95.976C850.111 96.216 849.031 97.416 849.055 98.928C849.079 100.584 850.135 101.376 851.455 101.328ZM865.266 100.464L865.578 100.896C865.05 101.64 864.21 102.24 863.01 102.24C861.282 102.24 859.938 101.328 859.938 98.88V91.488H858.162V90.624C860.178 90.624 861.306 89.256 861.69 87.312C861.978 87.312 862.434 87.312 862.434 87.312V90.624H864.906V91.488H862.434V98.88C862.434 99.936 862.77 100.584 863.466 100.8C864.162 101.04 864.786 100.824 865.266 100.464ZM872.166 95.16C873.99 96 875.982 97.008 875.334 99.432C874.854 101.28 873.174 102.24 870.846 102.24C869.382 102.24 867.702 101.808 866.646 100.992V98.376H867.03C867.558 100.656 869.286 101.544 870.846 101.592C872.046 101.64 873.054 101.184 873.294 100.152C873.654 98.592 872.07 97.968 870.534 97.272C868.23 96.216 866.646 95.136 867.27 92.688C867.678 91.056 869.43 90.408 871.11 90.408C872.334 90.408 873.582 90.816 874.638 91.632V93.96H874.23C873.678 91.8 872.694 90.96 871.11 91.008C870.27 91.032 869.334 91.344 869.214 92.4C869.046 93.816 870.582 94.44 872.166 95.16ZM878.63 99.408C879.446 99.408 880.118 99.912 880.118 100.824C880.118 101.712 879.446 102.24 878.63 102.24C877.838 102.24 877.166 101.712 877.166 100.824C877.166 99.912 877.838 99.408 878.63 99.408ZM898.432 85.2L898.888 88.92H898.432C898.048 87.696 897.4 86.112 895.192 86.112H890.776V93.408H893.656C895.336 93.408 895.792 92.832 895.96 91.824H896.392V95.88H895.96C895.792 94.872 895.336 94.32 893.656 94.32H890.776V100.032C890.776 100.968 891.016 101.376 891.904 101.472V102H887.08V101.472C887.968 101.376 888.208 100.968 888.208 100.032V87.144C888.208 86.208 887.968 85.8 887.08 85.728V85.2H898.432ZM904.425 90.408C907.617 90.408 910.449 92.568 910.449 96.312C910.449 100.056 907.617 102.24 904.425 102.24C901.233 102.24 898.401 100.056 898.401 96.312C898.401 92.568 901.233 90.408 904.425 90.408ZM904.425 101.544C906.585 101.544 907.857 99.432 907.857 96.312C907.857 93.192 906.585 91.08 904.425 91.08C902.265 91.08 900.993 93.192 900.993 96.312C900.993 99.432 902.265 101.544 904.425 101.544ZM921.084 91.896C921.276 92.544 921.06 93.408 920.388 93.648C919.596 93.912 918.732 93.624 918.636 92.448C918.54 91.56 918.06 91.392 917.388 91.512C916.428 91.68 915.42 92.976 915.42 94.704V100.056C915.42 100.992 915.66 101.4 916.548 101.472V102H911.772V101.472C912.66 101.4 912.9 100.992 912.9 100.056V93.216C912.9 92.28 912.66 91.848 911.772 91.776V91.248L914.964 90.408H915.348V92.448C916.02 91.128 917.1 90.432 918.492 90.408C919.62 90.384 920.748 90.888 921.084 91.896ZM939.654 101.136L939.798 101.592C939.222 102.048 938.574 102.24 937.806 102.24C936.774 102.24 935.766 101.784 935.766 100.344C935.766 100.296 935.766 100.224 935.766 100.128C934.974 101.328 933.726 102.24 931.854 102.24C928.998 102.24 926.67 99.936 926.67 96.312C926.67 92.688 928.998 90.408 931.854 90.408C933.726 90.408 934.974 91.296 935.766 92.496V87.144C935.766 86.208 935.526 85.8 934.638 85.728V85.2L937.878 84.336H938.262V100.296C938.262 101.16 938.958 101.376 939.654 101.136ZM932.478 101.352C934.59 101.352 935.766 99.384 935.766 96.312C935.766 93.24 934.59 91.272 932.478 91.272C930.39 91.272 929.238 93.408 929.238 96.312C929.238 99.216 930.39 101.352 932.478 101.352ZM951.226 95.784V95.928H942.97C942.97 96 942.97 96.072 942.994 96.144C943.258 101.448 948.658 101.952 950.746 99.24L951.082 99.528C950.266 101.112 948.442 102.24 946.402 102.24C943.234 102.24 940.498 99.912 940.498 96.144C940.498 92.496 942.97 90.408 946.162 90.408C949.642 90.408 951.274 92.832 951.226 95.784ZM946.114 90.936C944.434 90.96 943.162 92.544 942.994 95.064H948.922C948.994 92.928 948.106 90.912 946.114 90.936ZM959.297 100.464L959.609 100.896C959.081 101.64 958.241 102.24 957.041 102.24C955.313 102.24 953.969 101.328 953.969 98.88V91.488H952.193V90.624C954.209 90.624 955.337 89.256 955.721 87.312C956.009 87.312 956.465 87.312 956.465 87.312V90.624H958.937V91.488H956.465V98.88C956.465 99.936 956.801 100.584 957.497 100.8C958.193 101.04 958.817 100.824 959.297 100.464ZM971.483 100.968L971.723 101.376C971.219 102 970.547 102.24 969.827 102.24C968.915 102.24 967.811 101.808 967.787 100.392C967.187 101.568 965.915 102.24 964.499 102.24C962.627 102.24 960.587 101.424 960.467 99.312C960.299 96.816 962.243 95.688 964.643 95.472C966.131 95.352 967.211 95.256 967.787 95.208C967.787 94.632 967.787 94.272 967.787 94.272C967.787 92.16 967.283 91.032 965.627 90.912C964.715 90.864 963.707 91.368 963.755 92.52C963.803 93.816 962.939 94.176 962.171 93.888C961.523 93.624 961.331 92.88 961.691 92.136C962.315 90.792 964.115 90.408 965.555 90.408C967.787 90.408 970.283 91.152 970.283 94.704V100.368C970.283 101.232 970.955 101.376 971.483 100.968ZM965.267 101.328C966.803 101.28 967.787 100.08 967.787 98.136C967.787 97.344 967.787 96.48 967.787 95.76C967.427 95.808 966.827 95.856 965.891 95.976C963.923 96.216 962.843 97.416 962.867 98.928C962.891 100.584 963.947 101.376 965.267 101.328ZM974.777 88.728C973.865 88.728 973.097 88.152 973.097 87.12C973.097 86.088 973.865 85.512 974.777 85.512C975.689 85.512 976.457 86.088 976.457 87.12C976.457 88.152 975.689 88.728 974.777 88.728ZM976.217 100.032C976.217 100.968 976.457 101.4 977.345 101.472V102H972.569V101.472C973.457 101.4 973.697 100.968 973.697 100.032V93.216C973.697 92.28 973.457 91.848 972.569 91.776V91.248L975.833 90.408H976.217V100.032ZM982.193 100.032C982.193 100.968 982.433 101.4 983.345 101.472V102H978.545V101.472C979.457 101.4 979.697 100.968 979.697 100.032V87.144C979.697 86.208 979.457 85.8 978.545 85.728V85.2L981.809 84.336H982.193V100.032ZM995.148 95.784V95.928H986.892C986.892 96 986.892 96.072 986.916 96.144C987.18 101.448 992.58 101.952 994.668 99.24L995.004 99.528C994.188 101.112 992.364 102.24 990.324 102.24C987.156 102.24 984.42 99.912 984.42 96.144C984.42 92.496 986.892 90.408 990.084 90.408C993.564 90.408 995.196 92.832 995.148 95.784ZM990.036 90.936C988.356 90.96 987.084 92.544 986.916 95.064H992.844C992.916 92.928 992.028 90.912 990.036 90.936ZM1009.59 101.136L1009.74 101.592C1009.16 102.048 1008.51 102.24 1007.74 102.24C1006.71 102.24 1005.7 101.784 1005.7 100.344C1005.7 100.296 1005.7 100.224 1005.7 100.128C1004.91 101.328 1003.66 102.24 1001.79 102.24C998.935 102.24 996.607 99.936 996.607 96.312C996.607 92.688 998.935 90.408 1001.79 90.408C1003.66 90.408 1004.91 91.296 1005.7 92.496V87.144C1005.7 86.208 1005.46 85.8 1004.58 85.728V85.2L1007.82 84.336H1008.2V100.296C1008.2 101.16 1008.9 101.376 1009.59 101.136ZM1002.42 101.352C1004.53 101.352 1005.7 99.384 1005.7 96.312C1005.7 93.24 1004.53 91.272 1002.42 91.272C1000.33 91.272 999.175 93.408 999.175 96.312C999.175 99.216 1000.33 101.352 1002.42 101.352ZM90.808 117.728C89.896 117.728 89.128 117.152 89.128 116.12C89.128 115.088 89.896 114.512 90.808 114.512C91.72 114.512 92.488 115.088 92.488 116.12C92.488 117.152 91.72 117.728 90.808 117.728ZM92.248 129.032C92.248 129.968 92.488 130.4 93.376 130.472V131H88.6V130.472C89.488 130.4 89.728 129.968 89.728 129.032V122.216C89.728 121.28 89.488 120.848 88.6 120.776V120.248L91.864 119.408H92.248V129.032ZM106.289 129.032C106.289 129.968 106.529 130.4 107.417 130.472V131H102.641V130.472C103.529 130.4 103.769 129.968 103.769 129.032V123.68C103.769 121.736 102.905 120.32 101.033 120.32C99.3766 120.32 98.2246 121.664 98.2246 123.464V129.032C98.2246 129.968 98.4646 130.4 99.3766 130.472V131H94.5766V130.472C95.4886 130.4 95.7286 129.968 95.7286 129.032V122.216C95.7286 121.28 95.4886 120.848 94.5766 120.776V120.248L97.7686 119.408H98.1526V121.16C99.0646 119.96 100.361 119.408 101.849 119.408C104.801 119.408 106.289 121.4 106.289 123.92V129.032ZM116.397 115.208C116.733 115.64 117.045 116.624 116.349 117.128C115.869 117.464 115.125 117.344 114.837 116.84C114.573 116.36 114.549 115.712 114.381 115.304C114.117 114.728 113.781 114.512 113.157 114.536C112.317 114.584 111.885 115.28 111.933 116.144C112.053 117.656 112.461 117.248 112.461 119.456V119.624H115.437V120.488H112.461V129.032C112.461 129.968 112.701 130.4 113.613 130.472V131H108.837V130.472C109.725 130.4 109.965 129.968 109.965 129.032V120.488H107.901V119.624H109.965V118.664C109.965 116.12 110.781 113.96 113.301 113.888C114.501 113.864 115.653 114.248 116.397 115.208ZM121.355 119.408C124.547 119.408 127.379 121.568 127.379 125.312C127.379 129.056 124.547 131.24 121.355 131.24C118.163 131.24 115.331 129.056 115.331 125.312C115.331 121.568 118.163 119.408 121.355 119.408ZM121.355 130.544C123.515 130.544 124.787 128.432 124.787 125.312C124.787 122.192 123.515 120.08 121.355 120.08C119.195 120.08 117.923 122.192 117.923 125.312C117.923 128.432 119.195 130.544 121.355 130.544ZM138.014 120.896C138.206 121.544 137.99 122.408 137.318 122.648C136.526 122.912 135.662 122.624 135.566 121.448C135.47 120.56 134.99 120.392 134.318 120.512C133.358 120.68 132.35 121.976 132.35 123.704V129.056C132.35 129.992 132.59 130.4 133.478 130.472V131H128.702V130.472C129.59 130.4 129.83 129.992 129.83 129.056V122.216C129.83 121.28 129.59 120.848 128.702 120.776V120.248L131.894 119.408H132.278V121.448C132.95 120.128 134.03 119.432 135.422 119.408C136.55 119.384 137.678 119.888 138.014 120.896ZM158.259 129.032C158.259 129.968 158.499 130.4 159.411 130.472V131H154.611V130.472C155.523 130.4 155.763 129.968 155.763 129.032V123.68C155.763 121.736 155.019 120.32 153.171 120.32C151.563 120.32 150.531 121.664 150.531 123.464C150.531 123.536 150.531 129.032 150.531 129.032C150.531 129.968 150.771 130.4 151.659 130.472V131H146.883V130.472C147.771 130.4 148.011 129.968 148.011 129.032V123.68C148.011 121.736 147.291 120.32 145.443 120.32C143.835 120.32 142.779 121.664 142.779 123.464V129.032C142.779 129.968 143.019 130.4 143.931 130.472V131H139.155V130.472C140.043 130.4 140.283 129.968 140.283 129.032V122.216C140.283 121.28 140.043 120.848 139.155 120.776V120.248L142.323 119.408H142.707V121.112C143.571 119.96 144.819 119.408 146.235 119.408C148.203 119.408 149.475 120.296 150.075 121.664C150.939 120.128 152.331 119.408 153.987 119.408C156.891 119.408 158.259 121.4 158.259 123.92V129.032ZM171.514 129.968L171.754 130.376C171.25 131 170.578 131.24 169.858 131.24C168.946 131.24 167.842 130.808 167.818 129.392C167.218 130.568 165.946 131.24 164.53 131.24C162.658 131.24 160.618 130.424 160.498 128.312C160.33 125.816 162.274 124.688 164.674 124.472C166.162 124.352 167.242 124.256 167.818 124.208C167.818 123.632 167.818 123.272 167.818 123.272C167.818 121.16 167.314 120.032 165.658 119.912C164.746 119.864 163.738 120.368 163.786 121.52C163.834 122.816 162.97 123.176 162.202 122.888C161.554 122.624 161.362 121.88 161.722 121.136C162.346 119.792 164.146 119.408 165.586 119.408C167.818 119.408 170.314 120.152 170.314 123.704V129.368C170.314 130.232 170.986 130.376 171.514 129.968ZM165.298 130.328C166.834 130.28 167.818 129.08 167.818 127.136C167.818 126.344 167.818 125.48 167.818 124.76C167.458 124.808 166.858 124.856 165.922 124.976C163.954 125.216 162.874 126.416 162.898 127.928C162.922 129.584 163.978 130.376 165.298 130.328ZM179.11 129.464L179.422 129.896C178.894 130.64 178.054 131.24 176.854 131.24C175.126 131.24 173.782 130.328 173.782 127.88V120.488H172.006V119.624C174.022 119.624 175.15 118.256 175.534 116.312C175.822 116.312 176.278 116.312 176.278 116.312V119.624H178.75V120.488H176.278V127.88C176.278 128.936 176.614 129.584 177.31 129.8C178.006 130.04 178.63 129.824 179.11 129.464ZM182.589 117.728C181.677 117.728 180.909 117.152 180.909 116.12C180.909 115.088 181.677 114.512 182.589 114.512C183.501 114.512 184.269 115.088 184.269 116.12C184.269 117.152 183.501 117.728 182.589 117.728ZM184.029 129.032C184.029 129.968 184.269 130.4 185.157 130.472V131H180.381V130.472C181.269 130.4 181.509 129.968 181.509 129.032V122.216C181.509 121.28 181.269 120.848 180.381 120.776V120.248L183.645 119.408H184.029V129.032ZM192.136 119.408C195.328 119.408 198.16 121.568 198.16 125.312C198.16 129.056 195.328 131.24 192.136 131.24C188.944 131.24 186.112 129.056 186.112 125.312C186.112 121.568 188.944 119.408 192.136 119.408ZM192.136 130.544C194.296 130.544 195.568 128.432 195.568 125.312C195.568 122.192 194.296 120.08 192.136 120.08C189.976 120.08 188.704 122.192 188.704 125.312C188.704 128.432 189.976 130.544 192.136 130.544ZM211.195 129.032C211.195 129.968 211.435 130.4 212.323 130.472V131H207.547V130.472C208.435 130.4 208.675 129.968 208.675 129.032V123.68C208.675 121.736 207.811 120.32 205.939 120.32C204.283 120.32 203.131 121.664 203.131 123.464V129.032C203.131 129.968 203.371 130.4 204.283 130.472V131H199.483V130.472C200.395 130.4 200.635 129.968 200.635 129.032V122.216C200.635 121.28 200.395 120.848 199.483 120.776V120.248L202.675 119.408H203.059V121.16C203.971 119.96 205.267 119.408 206.755 119.408C209.707 119.408 211.195 121.4 211.195 123.92V129.032ZM215.208 128.408C216 128.408 216.624 129.008 216.648 130.016C216.696 132.176 215.376 133.688 214.392 134.456L213.984 134.024C215.04 132.896 215.328 132.2 215.448 131.24C215.424 131.24 215.208 131.24 215.208 131.24C214.416 131.24 213.768 130.736 213.768 129.824C213.768 128.912 214.416 128.408 215.208 128.408ZM230.475 119.408C233.331 119.408 235.635 121.688 235.635 125.312C235.635 128.96 233.331 131.24 230.475 131.24C228.603 131.24 227.355 130.328 226.563 129.152V134.48C226.563 135.416 226.803 135.824 227.691 135.896V136.424H222.915V135.896C223.827 135.824 224.067 135.416 224.067 134.48V122.216C224.067 121.28 223.827 120.848 222.915 120.776V120.248L226.179 119.408H226.563V121.496C227.355 120.296 228.603 119.408 230.475 119.408ZM229.851 130.352C231.939 130.352 233.091 128.216 233.091 125.312C233.091 122.408 231.939 120.272 229.851 120.272C227.739 120.272 226.563 122.24 226.563 125.312C226.563 128.384 227.739 130.352 229.851 130.352ZM240.607 129.032C240.607 129.968 240.847 130.4 241.759 130.472V131H236.959V130.472C237.871 130.4 238.111 129.968 238.111 129.032V116.144C238.111 115.208 237.871 114.8 236.959 114.728V114.2L240.223 113.336H240.607V129.032ZM253.562 124.784V124.928H245.306C245.306 125 245.306 125.072 245.33 125.144C245.594 130.448 250.994 130.952 253.082 128.24L253.418 128.528C252.602 130.112 250.778 131.24 248.738 131.24C245.57 131.24 242.834 128.912 242.834 125.144C242.834 121.496 245.306 119.408 248.498 119.408C251.978 119.408 253.61 121.832 253.562 124.784ZM248.45 119.936C246.77 119.96 245.498 121.544 245.33 124.064H251.258C251.33 121.928 250.442 119.912 248.45 119.936ZM265.569 129.968L265.809 130.376C265.305 131 264.633 131.24 263.913 131.24C263.001 131.24 261.897 130.808 261.873 129.392C261.273 130.568 260.001 131.24 258.585 131.24C256.713 131.24 254.673 130.424 254.553 128.312C254.385 125.816 256.329 124.688 258.729 124.472C260.217 124.352 261.297 124.256 261.873 124.208C261.873 123.632 261.873 123.272 261.873 123.272C261.873 121.16 261.369 120.032 259.713 119.912C258.801 119.864 257.793 120.368 257.841 121.52C257.889 122.816 257.025 123.176 256.257 122.888C255.609 122.624 255.417 121.88 255.777 121.136C256.401 119.792 258.201 119.408 259.641 119.408C261.873 119.408 264.369 120.152 264.369 123.704V129.368C264.369 130.232 265.041 130.376 265.569 129.968ZM259.353 130.328C260.889 130.28 261.873 129.08 261.873 127.136C261.873 126.344 261.873 125.48 261.873 124.76C261.513 124.808 260.913 124.856 259.977 124.976C258.009 125.216 256.929 126.416 256.953 127.928C256.977 129.584 258.033 130.376 259.353 130.328ZM272.049 124.16C273.873 125 275.865 126.008 275.217 128.432C274.737 130.28 273.057 131.24 270.729 131.24C269.265 131.24 267.585 130.808 266.529 129.992V127.376H266.913C267.441 129.656 269.169 130.544 270.729 130.592C271.929 130.64 272.937 130.184 273.177 129.152C273.537 127.592 271.953 126.968 270.417 126.272C268.113 125.216 266.529 124.136 267.153 121.688C267.561 120.056 269.313 119.408 270.993 119.408C272.217 119.408 273.465 119.816 274.521 120.632V122.96H274.113C273.561 120.8 272.577 119.96 270.993 120.008C270.153 120.032 269.217 120.344 269.097 121.4C268.929 122.816 270.465 123.44 272.049 124.16ZM287.171 124.784V124.928H278.915C278.915 125 278.915 125.072 278.939 125.144C279.203 130.448 284.603 130.952 286.691 128.24L287.027 128.528C286.211 130.112 284.387 131.24 282.347 131.24C279.179 131.24 276.443 128.912 276.443 125.144C276.443 121.496 278.915 119.408 282.107 119.408C285.587 119.408 287.219 121.832 287.171 124.784ZM282.059 119.936C280.379 119.96 279.107 121.544 278.939 124.064H284.867C284.939 121.928 284.051 119.912 282.059 119.936ZM302.381 120.896C302.573 121.544 302.357 122.408 301.685 122.648C300.893 122.912 300.029 122.624 299.933 121.448C299.837 120.56 299.357 120.392 298.685 120.512C297.725 120.68 296.717 121.976 296.717 123.704V129.056C296.717 129.992 296.957 130.4 297.845 130.472V131H293.069V130.472C293.957 130.4 294.197 129.992 294.197 129.056V122.216C294.197 121.28 293.957 120.848 293.069 120.776V120.248L296.261 119.408H296.645V121.448C297.317 120.128 298.397 119.432 299.789 119.408C300.917 119.384 302.045 119.888 302.381 120.896ZM313.89 124.784V124.928H305.634C305.634 125 305.634 125.072 305.658 125.144C305.922 130.448 311.322 130.952 313.41 128.24L313.746 128.528C312.93 130.112 311.106 131.24 309.066 131.24C305.898 131.24 303.162 128.912 303.162 125.144C303.162 121.496 305.634 119.408 308.826 119.408C312.306 119.408 313.938 121.832 313.89 124.784ZM308.778 119.936C307.098 119.96 305.826 121.544 305.658 124.064H311.586C311.658 121.928 310.77 119.912 308.778 119.936ZM322.999 115.208C323.335 115.64 323.647 116.624 322.951 117.128C322.471 117.464 321.727 117.344 321.439 116.84C321.175 116.36 321.151 115.712 320.983 115.304C320.719 114.728 320.383 114.512 319.759 114.536C318.919 114.584 318.487 115.28 318.535 116.144C318.655 117.656 319.063 117.248 319.063 119.456V119.624H322.039V120.488H319.063V129.032C319.063 129.968 319.303 130.4 320.215 130.472V131H315.439V130.472C316.327 130.4 316.567 129.968 316.567 129.032V120.488H314.503V119.624H316.567V118.664C316.567 116.12 317.383 113.96 319.903 113.888C321.103 113.864 322.255 114.248 322.999 115.208ZM332.781 124.784V124.928H324.525C324.525 125 324.525 125.072 324.549 125.144C324.812 130.448 330.213 130.952 332.301 128.24L332.637 128.528C331.821 130.112 329.997 131.24 327.957 131.24C324.789 131.24 322.053 128.912 322.053 125.144C322.053 121.496 324.525 119.408 327.717 119.408C331.197 119.408 332.829 121.832 332.781 124.784ZM327.669 119.936C325.989 119.96 324.717 121.544 324.549 124.064H330.477C330.549 121.928 329.661 119.912 327.669 119.936ZM343.42 120.896C343.612 121.544 343.396 122.408 342.724 122.648C341.932 122.912 341.068 122.624 340.972 121.448C340.876 120.56 340.396 120.392 339.724 120.512C338.764 120.68 337.756 121.976 337.756 123.704V129.056C337.756 129.992 337.996 130.4 338.884 130.472V131H334.108V130.472C334.996 130.4 335.236 129.992 335.236 129.056V122.216C335.236 121.28 334.996 120.848 334.108 120.776V120.248L337.3 119.408H337.684V121.448C338.356 120.128 339.436 119.432 340.828 119.408C341.956 119.384 343.084 119.888 343.42 120.896ZM356.11 129.464L356.422 129.896C355.894 130.64 355.054 131.24 353.854 131.24C352.126 131.24 350.782 130.328 350.782 127.88V120.488H349.006V119.624C351.022 119.624 352.15 118.256 352.534 116.312C352.822 116.312 353.278 116.312 353.278 116.312V119.624H355.75V120.488H353.278V127.88C353.278 128.936 353.614 129.584 354.31 129.8C355.006 130.04 355.63 129.824 356.11 129.464ZM362.925 119.408C366.117 119.408 368.949 121.568 368.949 125.312C368.949 129.056 366.117 131.24 362.925 131.24C359.733 131.24 356.901 129.056 356.901 125.312C356.901 121.568 359.733 119.408 362.925 119.408ZM362.925 130.544C365.085 130.544 366.357 128.432 366.357 125.312C366.357 122.192 365.085 120.08 362.925 120.08C360.765 120.08 359.493 122.192 359.493 125.312C359.493 128.432 360.765 130.544 362.925 130.544ZM381.586 129.464L381.898 129.896C381.37 130.64 380.53 131.24 379.33 131.24C377.602 131.24 376.258 130.328 376.258 127.88V120.488H374.482V119.624C376.498 119.624 377.626 118.256 378.01 116.312C378.298 116.312 378.754 116.312 378.754 116.312V119.624H381.226V120.488H378.754V127.88C378.754 128.936 379.09 129.584 379.786 129.8C380.482 130.04 381.106 129.824 381.586 129.464ZM394.546 129.032C394.546 129.968 394.786 130.4 395.698 130.472V131H390.922V130.472C391.81 130.4 392.05 129.968 392.05 129.032V123.68C392.05 121.736 391.186 120.32 389.314 120.32C387.658 120.32 386.506 121.664 386.506 123.464V129.032C386.506 129.968 386.746 130.4 387.634 130.472V131H382.858V130.472C383.746 130.4 383.986 129.968 383.986 129.032V116.144C383.986 115.208 383.746 114.8 382.858 114.728V114.2L386.122 113.336H386.506V121.064C387.418 119.936 388.69 119.408 390.106 119.408C393.082 119.408 394.546 121.4 394.546 123.92V129.032ZM407.499 124.784V124.928H399.243C399.243 125 399.243 125.072 399.267 125.144C399.531 130.448 404.931 130.952 407.019 128.24L407.355 128.528C406.539 130.112 404.715 131.24 402.675 131.24C399.507 131.24 396.771 128.912 396.771 125.144C396.771 121.496 399.243 119.408 402.435 119.408C405.915 119.408 407.547 121.832 407.499 124.784ZM402.387 119.936C400.707 119.96 399.435 121.544 399.267 124.064H405.195C405.267 121.928 404.379 119.912 402.387 119.936ZM419.613 129.152C423.885 129.152 425.949 130.184 425.853 132.512C425.757 135.224 423.309 137.384 419.421 137.384C416.037 137.384 412.701 136.136 412.941 133.664C413.085 132.488 414.117 131.528 415.749 130.976C414.189 130.52 413.349 129.704 413.589 128.528C413.853 127.352 415.341 126.824 416.469 126.584C415.437 125.912 414.765 124.832 414.765 123.392C414.765 120.824 416.949 119.408 419.397 119.408C420.333 119.408 421.245 119.6 422.013 120.008C422.061 119.432 422.253 118.856 422.541 118.28C423.093 117.248 424.509 116.936 424.989 117.8C425.349 118.52 424.821 119.456 423.813 119.336C423.333 119.288 423.069 119.336 422.829 119.504C422.589 119.672 422.517 119.984 422.493 120.32C423.429 120.992 424.053 122.048 424.053 123.392C424.053 125.96 421.845 127.424 419.397 127.424C418.629 127.424 417.861 127.256 417.189 126.992C416.397 127.112 415.125 127.424 415.077 128.072C414.981 129.008 416.397 129.152 419.613 129.152ZM419.397 120.008C418.053 120.008 417.045 121.184 417.045 123.392C417.045 125.624 418.053 126.8 419.397 126.8C420.765 126.8 421.773 125.624 421.773 123.392C421.773 121.184 420.765 120.008 419.397 120.008ZM423.933 133.712C424.245 131.792 422.541 131.384 419.301 131.384C418.461 131.384 417.669 131.336 416.973 131.24C415.965 131.6 415.005 132.344 414.933 133.736C414.813 136.064 417.453 136.712 419.541 136.712C421.581 136.736 423.597 135.68 423.933 133.712ZM437.968 129.056C437.968 129.992 438.208 130.4 439.096 130.472V131H435.448V129.632C434.608 130.712 433.408 131.24 431.992 131.24C429.04 131.24 427.24 129.44 427.24 126.704V122.216C427.24 121.28 427 120.848 426.112 120.776V120.248L429.352 119.408H429.76V126.944C429.76 129.128 430.768 130.304 432.64 130.304C434.224 130.304 435.448 128.96 435.448 127.16V122.216C435.448 121.28 435.208 120.848 434.32 120.776V120.248L437.56 119.408H437.968V129.056ZM442.746 117.728C441.834 117.728 441.066 117.152 441.066 116.12C441.066 115.088 441.834 114.512 442.746 114.512C443.658 114.512 444.426 115.088 444.426 116.12C444.426 117.152 443.658 117.728 442.746 117.728ZM444.186 129.032C444.186 129.968 444.426 130.4 445.314 130.472V131H440.538V130.472C441.426 130.4 441.666 129.968 441.666 129.032V122.216C441.666 121.28 441.426 120.848 440.538 120.776V120.248L443.802 119.408H444.186V129.032ZM459.372 130.136L459.516 130.592C458.94 131.048 458.292 131.24 457.524 131.24C456.492 131.24 455.484 130.784 455.484 129.344C455.484 129.296 455.484 129.224 455.484 129.128C454.692 130.328 453.444 131.24 451.572 131.24C448.716 131.24 446.388 128.936 446.388 125.312C446.388 121.688 448.716 119.408 451.572 119.408C453.444 119.408 454.692 120.296 455.484 121.496V116.144C455.484 115.208 455.244 114.8 454.356 114.728V114.2L457.596 113.336H457.98V129.296C457.98 130.16 458.676 130.376 459.372 130.136ZM452.196 130.352C454.308 130.352 455.484 128.384 455.484 125.312C455.484 122.24 454.308 120.272 452.196 120.272C450.108 120.272 448.956 122.408 448.956 125.312C448.956 128.216 450.108 130.352 452.196 130.352ZM470.945 124.784V124.928H462.689C462.689 125 462.689 125.072 462.713 125.144C462.977 130.448 468.377 130.952 470.465 128.24L470.801 128.528C469.985 130.112 468.161 131.24 466.121 131.24C462.953 131.24 460.217 128.912 460.217 125.144C460.217 121.496 462.689 119.408 465.881 119.408C469.361 119.408 470.993 121.832 470.945 124.784ZM465.833 119.936C464.153 119.96 462.881 121.544 462.713 124.064H468.641C468.713 121.928 467.825 119.912 465.833 119.936ZM479.574 119.408C482.43 119.408 484.758 121.688 484.758 125.312C484.758 128.936 482.43 131.24 479.574 131.24C477.486 131.24 476.19 130.088 475.398 128.696L473.67 131H473.166V116.144C473.166 115.208 472.926 114.8 472.038 114.728V114.2L475.278 113.336H475.686V121.496C476.478 120.296 477.702 119.408 479.574 119.408ZM478.95 130.352C481.062 130.352 482.214 128.216 482.214 125.312C482.214 122.408 481.062 120.272 478.95 120.272C476.838 120.272 475.686 122.24 475.686 125.312C475.686 128.384 476.838 130.352 478.95 130.352ZM492.113 119.408C495.305 119.408 498.137 121.568 498.137 125.312C498.137 129.056 495.305 131.24 492.113 131.24C488.921 131.24 486.089 129.056 486.089 125.312C486.089 121.568 488.921 119.408 492.113 119.408ZM492.113 130.544C494.273 130.544 495.545 128.432 495.545 125.312C495.545 122.192 494.273 120.08 492.113 120.08C489.953 120.08 488.681 122.192 488.681 125.312C488.681 128.432 489.953 130.544 492.113 130.544ZM505.496 119.408C508.688 119.408 511.52 121.568 511.52 125.312C511.52 129.056 508.688 131.24 505.496 131.24C502.304 131.24 499.472 129.056 499.472 125.312C499.472 121.568 502.304 119.408 505.496 119.408ZM505.496 130.544C507.656 130.544 508.928 128.432 508.928 125.312C508.928 122.192 507.656 120.08 505.496 120.08C503.336 120.08 502.064 122.192 502.064 125.312C502.064 128.432 503.336 130.544 505.496 130.544ZM523.882 129.032C524.506 129.872 525.01 130.304 525.73 130.472V131H520.954V130.472C521.746 130.376 521.746 129.872 521.098 129.032L518.026 125.048L516.466 126.464V129.032C516.466 129.968 516.706 130.4 517.618 130.472V131H512.842V130.472C513.73 130.4 513.97 129.968 513.97 129.032V116.144C513.97 115.208 513.73 114.8 512.842 114.728V114.2L516.082 113.336H516.466V125.48L520.93 121.424C521.698 120.728 521.65 120.224 520.762 120.152V119.624H524.29V120.152C523.282 120.296 522.634 120.8 521.794 121.568L519.73 123.488L523.882 129.032ZM528.755 128.408C529.571 128.408 530.243 128.912 530.243 129.824C530.243 130.712 529.571 131.24 528.755 131.24C527.963 131.24 527.291 130.712 527.291 129.824C527.291 128.912 527.963 128.408 528.755 128.408Z" fill="#E2E6DF"/>
<rect width="84" height="84" rx="42" fill="#E2E6DF"/>
<path d="M52.452 47.6H53.652L52.74 56H30.18V53.84C38.34 45.92 44.58 39.248 45.156 31.52C45.492 27.104 44.244 23.984 40.836 23.696C38.244 23.456 36.66 24.752 36.804 26.912C36.9 29.024 36.612 30.368 35.7 31.088C33.924 32.48 31.14 31.664 30.564 30.032C30.132 28.688 30.516 27.248 31.188 26.144C32.916 23.36 36.42 21.92 40.836 21.92C46.836 21.92 52.74 24.896 52.548 31.52C52.308 39.152 44.196 45.44 36.852 51.056H46.164C50.148 51.056 51.684 49.952 52.452 47.6Z" fill="#576589"/>
</svg>
