<svg width="1136" height="282" viewBox="0 0 1136 282" fill="none" xmlns="http://www.w3.org/2000/svg">
<rect x="18" y="18" width="1116" height="262" rx="30" stroke="#576589" stroke-width="4"/>
<rect x="40" y="40" width="1072" height="218" rx="32" fill="#576589"/>
<path d="M100.432 85.2L100.888 88.92H100.432C100.048 87.696 99.4 86.112 97.192 86.112H92.776V93.408H95.656C97.336 93.408 97.792 92.832 97.96 91.824H98.392V95.88H97.96C97.792 94.872 97.336 94.32 95.656 94.32H92.776V100.032C92.776 100.968 93.016 101.376 93.904 101.472V102H89.08V101.472C89.968 101.376 90.208 100.968 90.208 100.032V87.144C90.208 86.208 89.968 85.8 89.08 85.728V85.2H100.432ZM106.425 90.408C109.617 90.408 112.449 92.568 112.449 96.312C112.449 100.056 109.617 102.24 106.425 102.24C103.233 102.24 100.401 100.056 100.401 96.312C100.401 92.568 103.233 90.408 106.425 90.408ZM106.425 101.544C108.585 101.544 109.857 99.432 109.857 96.312C109.857 93.192 108.585 91.08 106.425 91.08C104.265 91.08 102.993 93.192 102.993 96.312C102.993 99.432 104.265 101.544 106.425 101.544ZM123.084 91.896C123.276 92.544 123.06 93.408 122.388 93.648C121.596 93.912 120.732 93.624 120.636 92.448C120.54 91.56 120.06 91.392 119.388 91.512C118.428 91.68 117.42 92.976 117.42 94.704V100.056C117.42 100.992 117.66 101.4 118.548 101.472V102H113.772V101.472C114.66 101.4 114.9 100.992 114.9 100.056V93.216C114.9 92.28 114.66 91.848 113.772 91.776V91.248L116.964 90.408H117.348V92.448C118.02 91.128 119.1 90.432 120.492 90.408C121.62 90.384 122.748 90.888 123.084 91.896ZM137.046 86.208C137.382 86.64 137.694 87.624 136.998 88.128C136.518 88.464 135.774 88.344 135.486 87.84C135.222 87.36 135.198 86.712 135.03 86.304C134.766 85.728 134.43 85.512 133.806 85.536C132.966 85.584 132.534 86.28 132.582 87.144C132.702 88.656 133.11 88.248 133.11 90.456V90.624H136.086V91.488H133.11V100.032C133.11 100.968 133.35 101.4 134.262 101.472V102H129.486V101.472C130.374 101.4 130.614 100.968 130.614 100.032V91.488H128.55V90.624H130.614V89.664C130.614 87.12 131.43 84.96 133.95 84.888C135.15 84.864 136.302 85.248 137.046 86.208ZM148.304 100.056C148.304 100.992 148.544 101.4 149.432 101.472V102H145.784V100.632C144.944 101.712 143.744 102.24 142.328 102.24C139.376 102.24 137.576 100.44 137.576 97.704V93.216C137.576 92.28 137.336 91.848 136.448 91.776V91.248L139.688 90.408H140.096V97.944C140.096 100.128 141.104 101.304 142.976 101.304C144.56 101.304 145.784 99.96 145.784 98.16V93.216C145.784 92.28 145.544 91.848 144.656 91.776V91.248L147.896 90.408H148.304V100.056ZM160.185 91.896C160.377 92.544 160.161 93.408 159.489 93.648C158.697 93.912 157.833 93.624 157.737 92.448C157.641 91.56 157.161 91.392 156.489 91.512C155.529 91.68 154.521 92.976 154.521 94.704V100.056C154.521 100.992 154.761 101.4 155.649 101.472V102H150.873V101.472C151.761 101.4 152.001 100.992 152.001 100.056V93.216C152.001 92.28 151.761 91.848 150.873 91.776V91.248L154.065 90.408H154.449V92.448C155.121 91.128 156.201 90.432 157.593 90.408C158.721 90.384 159.849 90.888 160.185 91.896ZM168.071 100.464L168.383 100.896C167.855 101.64 167.015 102.24 165.815 102.24C164.087 102.24 162.743 101.328 162.743 98.88V91.488H160.967V90.624C162.983 90.624 164.111 89.256 164.495 87.312C164.783 87.312 165.239 87.312 165.239 87.312V90.624H167.711V91.488H165.239V98.88C165.239 99.936 165.575 100.584 166.271 100.8C166.967 101.04 167.591 100.824 168.071 100.464ZM181.03 100.032C181.03 100.968 181.27 101.4 182.182 101.472V102H177.406V101.472C178.294 101.4 178.534 100.968 178.534 100.032V94.68C178.534 92.736 177.67 91.32 175.798 91.32C174.142 91.32 172.99 92.664 172.99 94.464V100.032C172.99 100.968 173.23 101.4 174.118 101.472V102H169.342V101.472C170.23 101.4 170.47 100.968 170.47 100.032V87.144C170.47 86.208 170.23 85.8 169.342 85.728V85.2L172.606 84.336H172.99V92.064C173.902 90.936 175.174 90.408 176.59 90.408C179.566 90.408 181.03 92.4 181.03 94.92V100.032ZM193.984 95.784V95.928H185.728C185.728 96 185.728 96.072 185.752 96.144C186.016 101.448 191.416 101.952 193.504 99.24L193.84 99.528C193.024 101.112 191.2 102.24 189.16 102.24C185.992 102.24 183.256 99.912 183.256 96.144C183.256 92.496 185.728 90.408 188.92 90.408C192.4 90.408 194.032 92.832 193.984 95.784ZM188.872 90.936C187.192 90.96 185.92 92.544 185.752 95.064H191.68C191.752 92.928 190.864 90.912 188.872 90.936ZM204.623 91.896C204.815 92.544 204.599 93.408 203.927 93.648C203.135 93.912 202.271 93.624 202.175 92.448C202.079 91.56 201.599 91.392 200.927 91.512C199.967 91.68 198.959 92.976 198.959 94.704V100.056C198.959 100.992 199.199 101.4 200.087 101.472V102H195.311V101.472C196.199 101.4 196.439 100.992 196.439 100.056V93.216C196.439 92.28 196.199 91.848 195.311 91.776V91.248L198.503 90.408H198.887V92.448C199.559 91.128 200.639 90.432 202.031 90.408C203.159 90.384 204.287 90.888 204.623 91.896ZM212.777 88.728C211.865 88.728 211.097 88.152 211.097 87.12C211.097 86.088 211.865 85.512 212.777 85.512C213.689 85.512 214.457 86.088 214.457 87.12C214.457 88.152 213.689 88.728 212.777 88.728ZM214.217 100.032C214.217 100.968 214.457 101.4 215.345 101.472V102H210.569V101.472C211.457 101.4 211.697 100.968 211.697 100.032V93.216C211.697 92.28 211.457 91.848 210.569 91.776V91.248L213.833 90.408H214.217V100.032ZM228.257 100.032C228.257 100.968 228.497 101.4 229.385 101.472V102H224.609V101.472C225.497 101.4 225.737 100.968 225.737 100.032V94.68C225.737 92.736 224.873 91.32 223.001 91.32C221.345 91.32 220.193 92.664 220.193 94.464V100.032C220.193 100.968 220.433 101.4 221.345 101.472V102H216.545V101.472C217.457 101.4 217.697 100.968 217.697 100.032V93.216C217.697 92.28 217.457 91.848 216.545 91.776V91.248L219.737 90.408H220.121V92.16C221.033 90.96 222.329 90.408 223.817 90.408C226.769 90.408 228.257 92.4 228.257 94.92V100.032ZM242.051 105.48C242.051 106.416 242.291 106.824 243.179 106.896V107.424H238.403V106.896C239.291 106.824 239.531 106.416 239.531 105.48V100.152C238.739 101.328 237.515 102.24 235.643 102.24C232.787 102.24 230.459 99.96 230.459 96.312C230.459 92.688 232.787 90.408 235.643 90.408C237.731 90.408 239.027 91.536 239.819 92.928L241.547 90.624H242.051V105.48ZM236.267 101.352C238.379 101.352 239.531 99.384 239.531 96.312C239.531 93.24 238.379 91.272 236.267 91.272C234.155 91.272 233.003 93.408 233.003 96.312C233.003 99.216 234.155 101.352 236.267 101.352ZM255.859 100.056C255.859 100.992 256.099 101.4 256.987 101.472V102H253.339V100.632C252.499 101.712 251.299 102.24 249.883 102.24C246.931 102.24 245.131 100.44 245.131 97.704V93.216C245.131 92.28 244.891 91.848 244.003 91.776V91.248L247.243 90.408H247.651V97.944C247.651 100.128 248.659 101.304 250.531 101.304C252.115 101.304 253.339 99.96 253.339 98.16V93.216C253.339 92.28 253.099 91.848 252.211 91.776V91.248L255.451 90.408H255.859V100.056ZM260.636 88.728C259.724 88.728 258.956 88.152 258.956 87.12C258.956 86.088 259.724 85.512 260.636 85.512C261.548 85.512 262.316 86.088 262.316 87.12C262.316 88.152 261.548 88.728 260.636 88.728ZM262.076 100.032C262.076 100.968 262.316 101.4 263.204 101.472V102H258.428V101.472C259.316 101.4 259.556 100.968 259.556 100.032V93.216C259.556 92.28 259.316 91.848 258.428 91.776V91.248L261.692 90.408H262.076V100.032ZM273.717 91.896C273.909 92.544 273.693 93.408 273.021 93.648C272.229 93.912 271.365 93.624 271.269 92.448C271.173 91.56 270.693 91.392 270.021 91.512C269.061 91.68 268.053 92.976 268.053 94.704V100.056C268.053 100.992 268.293 101.4 269.181 101.472V102H264.405V101.472C265.293 101.4 265.533 100.992 265.533 100.056V93.216C265.533 92.28 265.293 91.848 264.405 91.776V91.248L267.597 90.408H267.981V92.448C268.653 91.128 269.733 90.432 271.125 90.408C272.253 90.384 273.381 90.888 273.717 91.896ZM277.066 88.728C276.154 88.728 275.386 88.152 275.386 87.12C275.386 86.088 276.154 85.512 277.066 85.512C277.978 85.512 278.746 86.088 278.746 87.12C278.746 88.152 277.978 88.728 277.066 88.728ZM278.506 100.032C278.506 100.968 278.746 101.4 279.634 101.472V102H274.858V101.472C275.746 101.4 275.986 100.968 275.986 100.032V93.216C275.986 92.28 275.746 91.848 274.858 91.776V91.248L278.122 90.408H278.506V100.032ZM291.437 95.784V95.928H283.181C283.181 96 283.181 96.072 283.205 96.144C283.469 101.448 288.869 101.952 290.957 99.24L291.293 99.528C290.477 101.112 288.653 102.24 286.613 102.24C283.445 102.24 280.709 99.912 280.709 96.144C280.709 92.496 283.181 90.408 286.373 90.408C289.853 90.408 291.485 92.832 291.437 95.784ZM286.325 90.936C284.645 90.96 283.373 92.544 283.205 95.064H289.133C289.205 92.928 288.317 90.912 286.325 90.936ZM298.158 95.16C299.982 96 301.974 97.008 301.326 99.432C300.846 101.28 299.166 102.24 296.838 102.24C295.374 102.24 293.694 101.808 292.638 100.992V98.376H293.022C293.55 100.656 295.278 101.544 296.838 101.592C298.038 101.64 299.046 101.184 299.286 100.152C299.646 98.592 298.062 97.968 296.526 97.272C294.222 96.216 292.638 95.136 293.262 92.688C293.67 91.056 295.422 90.408 297.102 90.408C298.326 90.408 299.574 90.816 300.63 91.632V93.96H300.222C299.67 91.8 298.686 90.96 297.102 91.008C296.262 91.032 295.326 91.344 295.206 92.4C295.038 93.816 296.574 94.44 298.158 95.16ZM304.598 99.408C305.39 99.408 306.014 100.008 306.038 101.016C306.086 103.176 304.766 104.688 303.782 105.456L303.374 105.024C304.43 103.896 304.718 103.2 304.838 102.24C304.814 102.24 304.598 102.24 304.598 102.24C303.806 102.24 303.158 101.736 303.158 100.824C303.158 99.912 303.806 99.408 304.598 99.408ZM322.361 99.24L322.697 99.504C321.881 101.112 320.201 102.24 318.089 102.24C314.897 102.24 312.185 99.912 312.185 96.144C312.185 92.568 314.945 90.408 318.041 90.408C320.057 90.408 321.593 91.08 322.313 92.28C322.721 92.976 322.673 94.08 321.761 94.392C321.017 94.656 320.057 94.176 320.129 92.856C320.201 91.632 319.313 90.84 317.969 90.96C316.169 91.128 314.489 93.024 314.657 96.144C314.921 101.448 320.273 101.952 322.361 99.24ZM329.785 90.408C332.977 90.408 335.809 92.568 335.809 96.312C335.809 100.056 332.977 102.24 329.785 102.24C326.593 102.24 323.761 100.056 323.761 96.312C323.761 92.568 326.593 90.408 329.785 90.408ZM329.785 101.544C331.945 101.544 333.217 99.432 333.217 96.312C333.217 93.192 331.945 91.08 329.785 91.08C327.625 91.08 326.353 93.192 326.353 96.312C326.353 99.432 327.625 101.544 329.785 101.544ZM348.843 100.032C348.843 100.968 349.083 101.4 349.971 101.472V102H345.195V101.472C346.083 101.4 346.323 100.968 346.323 100.032V94.68C346.323 92.736 345.459 91.32 343.587 91.32C341.931 91.32 340.779 92.664 340.779 94.464V100.032C340.779 100.968 341.019 101.4 341.931 101.472V102H337.131V101.472C338.043 101.4 338.283 100.968 338.283 100.032V93.216C338.283 92.28 338.043 91.848 337.131 91.776V91.248L340.323 90.408H340.707V92.16C341.619 90.96 342.915 90.408 344.403 90.408C347.355 90.408 348.843 92.4 348.843 94.92V100.032ZM357.68 100.464L357.992 100.896C357.464 101.64 356.624 102.24 355.424 102.24C353.696 102.24 352.352 101.328 352.352 98.88V91.488H350.576V90.624C352.592 90.624 353.72 89.256 354.104 87.312C354.392 87.312 354.848 87.312 354.848 87.312V90.624H357.32V91.488H354.848V98.88C354.848 99.936 355.184 100.584 355.88 100.8C356.576 101.04 357.2 100.824 357.68 100.464ZM369.866 100.968L370.106 101.376C369.602 102 368.93 102.24 368.21 102.24C367.298 102.24 366.194 101.808 366.17 100.392C365.57 101.568 364.298 102.24 362.882 102.24C361.01 102.24 358.97 101.424 358.85 99.312C358.682 96.816 360.626 95.688 363.026 95.472C364.514 95.352 365.594 95.256 366.17 95.208C366.17 94.632 366.17 94.272 366.17 94.272C366.17 92.16 365.666 91.032 364.01 90.912C363.098 90.864 362.09 91.368 362.138 92.52C362.186 93.816 361.322 94.176 360.554 93.888C359.906 93.624 359.714 92.88 360.074 92.136C360.698 90.792 362.498 90.408 363.938 90.408C366.17 90.408 368.666 91.152 368.666 94.704V100.368C368.666 101.232 369.338 101.376 369.866 100.968ZM363.65 101.328C365.186 101.28 366.17 100.08 366.17 98.136C366.17 97.344 366.17 96.48 366.17 95.76C365.81 95.808 365.21 95.856 364.274 95.976C362.306 96.216 361.226 97.416 361.25 98.928C361.274 100.584 362.33 101.376 363.65 101.328ZM381.002 99.24L381.338 99.504C380.522 101.112 378.842 102.24 376.73 102.24C373.538 102.24 370.826 99.912 370.826 96.144C370.826 92.568 373.586 90.408 376.682 90.408C378.698 90.408 380.234 91.08 380.954 92.28C381.362 92.976 381.314 94.08 380.402 94.392C379.658 94.656 378.698 94.176 378.77 92.856C378.842 91.632 377.954 90.84 376.61 90.96C374.81 91.128 373.13 93.024 373.298 96.144C373.562 101.448 378.914 101.952 381.002 99.24ZM389.157 100.464L389.469 100.896C388.941 101.64 388.101 102.24 386.901 102.24C385.173 102.24 383.829 101.328 383.829 98.88V91.488H382.053V90.624C384.069 90.624 385.197 89.256 385.581 87.312C385.869 87.312 386.325 87.312 386.325 87.312V90.624H388.797V91.488H386.325V98.88C386.325 99.936 386.661 100.584 387.357 100.8C388.053 101.04 388.677 100.824 389.157 100.464ZM406.843 100.056C406.843 100.992 407.083 101.4 407.971 101.472V102H404.323V100.632C403.483 101.712 402.283 102.24 400.867 102.24C397.915 102.24 396.115 100.44 396.115 97.704V93.216C396.115 92.28 395.875 91.848 394.987 91.776V91.248L398.227 90.408H398.635V97.944C398.635 100.128 399.643 101.304 401.515 101.304C403.099 101.304 404.323 99.96 404.323 98.16V93.216C404.323 92.28 404.083 91.848 403.195 91.776V91.248L406.435 90.408H406.843V100.056ZM414.807 95.16C416.631 96 418.623 97.008 417.975 99.432C417.495 101.28 415.815 102.24 413.487 102.24C412.023 102.24 410.343 101.808 409.287 100.992V98.376H409.671C410.199 100.656 411.927 101.544 413.487 101.592C414.687 101.64 415.695 101.184 415.935 100.152C416.295 98.592 414.711 97.968 413.175 97.272C410.871 96.216 409.287 95.136 409.911 92.688C410.319 91.056 412.071 90.408 413.751 90.408C414.975 90.408 416.223 90.816 417.279 91.632V93.96H416.871C416.319 91.8 415.335 90.96 413.751 91.008C412.911 91.032 411.975 91.344 411.855 92.4C411.687 93.816 413.223 94.44 414.807 95.16ZM432.675 90.624H435.339V91.152C434.643 91.248 434.427 91.56 434.115 92.28L430.011 102H428.931L424.731 92.688C424.299 91.752 424.083 91.272 423.171 91.152V90.624H427.875V91.152C427.131 91.2 427.059 91.824 427.371 92.52L430.299 99.432L433.203 92.52C433.467 91.848 433.443 91.224 432.675 91.152V90.624ZM438.621 88.728C437.709 88.728 436.941 88.152 436.941 87.12C436.941 86.088 437.709 85.512 438.621 85.512C439.533 85.512 440.301 86.088 440.301 87.12C440.301 88.152 439.533 88.728 438.621 88.728ZM440.061 100.032C440.061 100.968 440.301 101.4 441.189 101.472V102H436.413V101.472C437.301 101.4 437.541 100.968 437.541 100.032V93.216C437.541 92.28 437.301 91.848 436.413 91.776V91.248L439.677 90.408H440.061V100.032ZM453.303 100.968L453.543 101.376C453.039 102 452.367 102.24 451.647 102.24C450.735 102.24 449.631 101.808 449.607 100.392C449.007 101.568 447.735 102.24 446.319 102.24C444.447 102.24 442.407 101.424 442.287 99.312C442.119 96.816 444.063 95.688 446.463 95.472C447.951 95.352 449.031 95.256 449.607 95.208C449.607 94.632 449.607 94.272 449.607 94.272C449.607 92.16 449.103 91.032 447.447 90.912C446.535 90.864 445.527 91.368 445.575 92.52C445.623 93.816 444.759 94.176 443.991 93.888C443.343 93.624 443.151 92.88 443.511 92.136C444.135 90.792 445.935 90.408 447.375 90.408C449.607 90.408 452.103 91.152 452.103 94.704V100.368C452.103 101.232 452.775 101.376 453.303 100.968ZM447.087 101.328C448.623 101.28 449.607 100.08 449.607 98.136C449.607 97.344 449.607 96.48 449.607 95.76C449.247 95.808 448.647 95.856 447.711 95.976C445.743 96.216 444.663 97.416 444.687 98.928C444.711 100.584 445.767 101.376 447.087 101.328ZM479.431 85.2H482.887V85.728C481.999 85.8 481.567 86.232 481.255 87.144L476.215 102H475.087L470.863 88.824L466.399 102H465.271L460.231 87.144C459.919 86.232 459.607 85.8 458.719 85.728V85.2H463.999V85.728C463.063 85.704 462.703 86.496 463.015 87.48L466.519 98.568L471.151 85.2H472.255L476.431 98.616L480.271 87.288C480.559 86.352 480.343 85.8 479.431 85.728V85.2ZM495.538 100.032C495.538 100.968 495.778 101.4 496.69 101.472V102H491.914V101.472C492.802 101.4 493.042 100.968 493.042 100.032V94.68C493.042 92.736 492.178 91.32 490.306 91.32C488.65 91.32 487.498 92.664 487.498 94.464V100.032C487.498 100.968 487.738 101.4 488.626 101.472V102H483.85V101.472C484.738 101.4 484.978 100.968 484.978 100.032V87.144C484.978 86.208 484.738 85.8 483.85 85.728V85.2L487.114 84.336H487.498V92.064C488.41 90.936 489.682 90.408 491.098 90.408C494.074 90.408 495.538 92.4 495.538 94.92V100.032ZM508.803 100.968L509.043 101.376C508.539 102 507.867 102.24 507.147 102.24C506.235 102.24 505.131 101.808 505.107 100.392C504.507 101.568 503.235 102.24 501.819 102.24C499.947 102.24 497.907 101.424 497.787 99.312C497.619 96.816 499.563 95.688 501.963 95.472C503.451 95.352 504.531 95.256 505.107 95.208C505.107 94.632 505.107 94.272 505.107 94.272C505.107 92.16 504.603 91.032 502.947 90.912C502.035 90.864 501.027 91.368 501.075 92.52C501.123 93.816 500.259 94.176 499.491 93.888C498.843 93.624 498.651 92.88 499.011 92.136C499.635 90.792 501.435 90.408 502.875 90.408C505.107 90.408 507.603 91.152 507.603 94.704V100.368C507.603 101.232 508.275 101.376 508.803 100.968ZM502.587 101.328C504.123 101.28 505.107 100.08 505.107 98.136C505.107 97.344 505.107 96.48 505.107 95.76C504.747 95.808 504.147 95.856 503.211 95.976C501.243 96.216 500.163 97.416 500.187 98.928C500.211 100.584 501.267 101.376 502.587 101.328ZM516.399 100.464L516.711 100.896C516.183 101.64 515.343 102.24 514.143 102.24C512.415 102.24 511.071 101.328 511.071 98.88V91.488H509.295V90.624C511.311 90.624 512.439 89.256 512.823 87.312C513.111 87.312 513.567 87.312 513.567 87.312V90.624H516.039V91.488H513.567V98.88C513.567 99.936 513.903 100.584 514.599 100.8C515.295 101.04 515.919 100.824 516.399 100.464ZM523.299 95.16C525.123 96 527.115 97.008 526.467 99.432C525.987 101.28 524.307 102.24 521.979 102.24C520.515 102.24 518.835 101.808 517.779 100.992V98.376H518.163C518.691 100.656 520.419 101.544 521.979 101.592C523.179 101.64 524.187 101.184 524.427 100.152C524.787 98.592 523.203 97.968 521.667 97.272C519.363 96.216 517.779 95.136 518.403 92.688C518.811 91.056 520.563 90.408 522.243 90.408C523.467 90.408 524.715 90.816 525.771 91.632V93.96H525.363C524.811 91.8 523.827 90.96 522.243 91.008C521.403 91.032 520.467 91.344 520.347 92.4C520.179 93.816 521.715 94.44 523.299 95.16ZM542.459 100.032C542.843 100.92 543.227 101.4 544.139 101.472V102H538.739V101.472C539.627 101.4 540.059 100.8 539.723 99.936L538.331 96.576H531.563L530.267 100.032C529.931 100.944 530.315 101.376 531.227 101.472V102H527.579V101.472C528.491 101.376 528.899 100.944 529.235 100.056L534.059 87.144C534.347 86.376 534.179 85.8 533.339 85.728V85.2H536.219L542.459 100.032ZM531.899 95.664H537.971L534.779 87.888L531.899 95.664ZM552.178 90.408C555.034 90.408 557.338 92.688 557.338 96.312C557.338 99.96 555.034 102.24 552.178 102.24C550.306 102.24 549.058 101.328 548.266 100.152V105.48C548.266 106.416 548.506 106.824 549.394 106.896V107.424H544.618V106.896C545.53 106.824 545.77 106.416 545.77 105.48V93.216C545.77 92.28 545.53 91.848 544.618 91.776V91.248L547.882 90.408H548.266V92.496C549.058 91.296 550.306 90.408 552.178 90.408ZM551.554 101.352C553.642 101.352 554.794 99.216 554.794 96.312C554.794 93.408 553.642 91.272 551.554 91.272C549.442 91.272 548.266 93.24 548.266 96.312C548.266 99.384 549.442 101.352 551.554 101.352ZM566.217 90.408C569.073 90.408 571.377 92.688 571.377 96.312C571.377 99.96 569.073 102.24 566.217 102.24C564.345 102.24 563.097 101.328 562.305 100.152V105.48C562.305 106.416 562.545 106.824 563.433 106.896V107.424H558.657V106.896C559.569 106.824 559.809 106.416 559.809 105.48V93.216C559.809 92.28 559.569 91.848 558.657 91.776V91.248L561.921 90.408H562.305V92.496C563.097 91.296 564.345 90.408 566.217 90.408ZM565.593 101.352C567.681 101.352 568.833 99.216 568.833 96.312C568.833 93.408 567.681 91.272 565.593 91.272C563.481 91.272 562.305 93.24 562.305 96.312C562.305 99.384 563.481 101.352 565.593 101.352ZM583.05 90.408C586.242 90.408 589.074 92.568 589.074 96.312C589.074 100.056 586.242 102.24 583.05 102.24C579.858 102.24 577.026 100.056 577.026 96.312C577.026 92.568 579.858 90.408 583.05 90.408ZM583.05 101.544C585.21 101.544 586.482 99.432 586.482 96.312C586.482 93.192 585.21 91.08 583.05 91.08C580.89 91.08 579.618 93.192 579.618 96.312C579.618 99.432 580.89 101.544 583.05 101.544ZM599.709 91.896C599.901 92.544 599.685 93.408 599.013 93.648C598.221 93.912 597.357 93.624 597.261 92.448C597.165 91.56 596.685 91.392 596.013 91.512C595.053 91.68 594.045 92.976 594.045 94.704V100.056C594.045 100.992 594.285 101.4 595.173 101.472V102H590.397V101.472C591.285 101.4 591.525 100.992 591.525 100.056V93.216C591.525 92.28 591.285 91.848 590.397 91.776V91.248L593.589 90.408H593.973V92.448C594.645 91.128 595.725 90.432 597.117 90.408C598.245 90.384 599.373 90.888 599.709 91.896ZM616.023 95.784V95.928H607.767C607.767 96 607.767 96.072 607.791 96.144C608.055 101.448 613.455 101.952 615.543 99.24L615.879 99.528C615.063 101.112 613.239 102.24 611.199 102.24C608.031 102.24 605.295 99.912 605.295 96.144C605.295 92.496 607.767 90.408 610.959 90.408C614.439 90.408 616.071 92.832 616.023 95.784ZM610.911 90.936C609.231 90.96 607.959 92.544 607.791 95.064H613.719C613.791 92.928 612.903 90.912 610.911 90.936ZM636.454 100.032C636.454 100.968 636.694 101.4 637.606 101.472V102H632.806V101.472C633.718 101.4 633.958 100.968 633.958 100.032V94.68C633.958 92.736 633.214 91.32 631.366 91.32C629.758 91.32 628.726 92.664 628.726 94.464C628.726 94.536 628.726 100.032 628.726 100.032C628.726 100.968 628.966 101.4 629.854 101.472V102H625.078V101.472C625.966 101.4 626.206 100.968 626.206 100.032V94.68C626.206 92.736 625.486 91.32 623.638 91.32C622.03 91.32 620.974 92.664 620.974 94.464V100.032C620.974 100.968 621.214 101.4 622.126 101.472V102H617.35V101.472C618.238 101.4 618.478 100.968 618.478 100.032V93.216C618.478 92.28 618.238 91.848 617.35 91.776V91.248L620.518 90.408H620.902V92.112C621.766 90.96 623.014 90.408 624.43 90.408C626.398 90.408 627.67 91.296 628.27 92.664C629.134 91.128 630.526 90.408 632.182 90.408C635.086 90.408 636.454 92.4 636.454 94.92V100.032ZM649.71 100.968L649.95 101.376C649.446 102 648.774 102.24 648.054 102.24C647.142 102.24 646.038 101.808 646.014 100.392C645.414 101.568 644.142 102.24 642.726 102.24C640.854 102.24 638.814 101.424 638.694 99.312C638.526 96.816 640.47 95.688 642.87 95.472C644.358 95.352 645.438 95.256 646.014 95.208C646.014 94.632 646.014 94.272 646.014 94.272C646.014 92.16 645.51 91.032 643.854 90.912C642.942 90.864 641.934 91.368 641.982 92.52C642.03 93.816 641.166 94.176 640.398 93.888C639.75 93.624 639.558 92.88 639.918 92.136C640.542 90.792 642.342 90.408 643.782 90.408C646.014 90.408 648.51 91.152 648.51 94.704V100.368C648.51 101.232 649.182 101.376 649.71 100.968ZM643.494 101.328C645.03 101.28 646.014 100.08 646.014 98.136C646.014 97.344 646.014 96.48 646.014 95.76C645.654 95.808 645.054 95.856 644.118 95.976C642.15 96.216 641.07 97.416 641.094 98.928C641.118 100.584 642.174 101.376 643.494 101.328ZM653.003 88.728C652.091 88.728 651.323 88.152 651.323 87.12C651.323 86.088 652.091 85.512 653.003 85.512C653.915 85.512 654.683 86.088 654.683 87.12C654.683 88.152 653.915 88.728 653.003 88.728ZM654.443 100.032C654.443 100.968 654.683 101.4 655.571 101.472V102H650.795V101.472C651.683 101.4 651.923 100.968 651.923 100.032V93.216C651.923 92.28 651.683 91.848 650.795 91.776V91.248L654.059 90.408H654.443V100.032ZM660.42 100.032C660.42 100.968 660.66 101.4 661.572 101.472V102H656.772V101.472C657.684 101.4 657.924 100.968 657.924 100.032V87.144C657.924 86.208 657.684 85.8 656.772 85.728V85.2L660.036 84.336H660.42V100.032ZM664.482 99.408C665.298 99.408 665.97 99.912 665.97 100.824C665.97 101.712 665.298 102.24 664.482 102.24C663.69 102.24 663.018 101.712 663.018 100.824C663.018 99.912 663.69 99.408 664.482 99.408ZM664.482 93.816C663.69 93.816 663.018 93.288 663.018 92.4C663.018 91.488 663.69 90.984 664.482 90.984C665.298 90.984 665.97 91.488 665.97 92.4C665.97 93.288 665.298 93.816 664.482 93.816Z" fill="#E2E6DF"/>
<path d="M105.983 139.504C107.207 139.504 108.215 140.296 108.215 141.688C108.215 143.08 107.207 143.872 105.983 143.872C104.783 143.872 103.775 143.08 103.775 141.688C103.775 140.296 104.783 139.504 105.983 139.504ZM139.336 146.224H139.816L139.312 149.536C137.848 150.592 136.288 151.336 133.504 151.24C128.536 151.096 124.48 147.832 124.48 142.6C124.48 137.368 128.296 133.96 133.36 133.96C135.52 133.96 137.752 134.656 139.312 135.664V139.072H138.808C138.088 136.072 135.976 134.632 133.36 134.632C129.616 134.632 127.288 137.992 127.288 142.6C127.288 147.208 129.616 150.352 133.36 150.592C136.288 150.76 138.4 149.272 139.336 146.224ZM146.925 139.408C150.117 139.408 152.949 141.568 152.949 145.312C152.949 149.056 150.117 151.24 146.925 151.24C143.733 151.24 140.901 149.056 140.901 145.312C140.901 141.568 143.733 139.408 146.925 139.408ZM146.925 150.544C149.085 150.544 150.357 148.432 150.357 145.312C150.357 142.192 149.085 140.08 146.925 140.08C144.765 140.08 143.493 142.192 143.493 145.312C143.493 148.432 144.765 150.544 146.925 150.544ZM165.984 149.032C165.984 149.968 166.224 150.4 167.112 150.472V151H162.336V150.472C163.224 150.4 163.464 149.968 163.464 149.032V143.68C163.464 141.736 162.6 140.32 160.728 140.32C159.072 140.32 157.92 141.664 157.92 143.464V149.032C157.92 149.968 158.16 150.4 159.072 150.472V151H154.272V150.472C155.184 150.4 155.424 149.968 155.424 149.032V142.216C155.424 141.28 155.184 140.848 154.272 140.776V140.248L157.464 139.408H157.848V141.16C158.76 139.96 160.056 139.408 161.544 139.408C164.496 139.408 165.984 141.4 165.984 143.92V149.032ZM174.821 149.464L175.133 149.896C174.605 150.64 173.765 151.24 172.565 151.24C170.837 151.24 169.493 150.328 169.493 147.88V140.488H167.717V139.624C169.733 139.624 170.861 138.256 171.245 136.312C171.533 136.312 171.989 136.312 171.989 136.312V139.624H174.461V140.488H171.989V147.88C171.989 148.936 172.325 149.584 173.021 149.8C173.717 150.04 174.341 149.824 174.821 149.464ZM187.007 149.968L187.247 150.376C186.743 151 186.071 151.24 185.351 151.24C184.439 151.24 183.335 150.808 183.311 149.392C182.711 150.568 181.439 151.24 180.023 151.24C178.151 151.24 176.111 150.424 175.991 148.312C175.823 145.816 177.767 144.688 180.167 144.472C181.655 144.352 182.735 144.256 183.311 144.208C183.311 143.632 183.311 143.272 183.311 143.272C183.311 141.16 182.807 140.032 181.151 139.912C180.239 139.864 179.231 140.368 179.279 141.52C179.327 142.816 178.463 143.176 177.695 142.888C177.047 142.624 176.855 141.88 177.215 141.136C177.839 139.792 179.639 139.408 181.079 139.408C183.311 139.408 185.807 140.152 185.807 143.704V149.368C185.807 150.232 186.479 150.376 187.007 149.968ZM180.791 150.328C182.327 150.28 183.311 149.08 183.311 147.136C183.311 146.344 183.311 145.48 183.311 144.76C182.951 144.808 182.351 144.856 181.415 144.976C179.447 145.216 178.367 146.416 178.391 147.928C178.415 149.584 179.471 150.376 180.791 150.328ZM198.143 148.24L198.479 148.504C197.663 150.112 195.983 151.24 193.871 151.24C190.679 151.24 187.967 148.912 187.967 145.144C187.967 141.568 190.727 139.408 193.823 139.408C195.839 139.408 197.375 140.08 198.095 141.28C198.503 141.976 198.455 143.08 197.543 143.392C196.799 143.656 195.839 143.176 195.911 141.856C195.983 140.632 195.095 139.84 193.751 139.96C191.951 140.128 190.271 142.024 190.439 145.144C190.703 150.448 196.055 150.952 198.143 148.24ZM206.297 149.464L206.609 149.896C206.081 150.64 205.241 151.24 204.041 151.24C202.313 151.24 200.969 150.328 200.969 147.88V140.488H199.193V139.624C201.209 139.624 202.337 138.256 202.721 136.312C203.009 136.312 203.465 136.312 203.465 136.312V139.624H205.937V140.488H203.465V147.88C203.465 148.936 203.801 149.584 204.497 149.8C205.193 150.04 205.817 149.824 206.297 149.464ZM216.784 149.032C216.784 149.968 217.024 150.4 217.912 150.472V151H213.28V150.472C214.168 150.4 214.408 149.968 214.408 149.032V136.696C214.072 136.696 213.52 136.696 212.968 136.696V136.168L216.352 134.2H216.784V149.032ZM221.536 148.408C222.352 148.408 223.024 148.912 223.024 149.824C223.024 150.712 222.352 151.24 221.536 151.24C220.744 151.24 220.072 150.712 220.072 149.824C220.072 148.912 220.744 148.408 221.536 148.408ZM221.536 142.816C220.744 142.816 220.072 142.288 220.072 141.4C220.072 140.488 220.744 139.984 221.536 139.984C222.352 139.984 223.024 140.488 223.024 141.4C223.024 142.288 222.352 142.816 221.536 142.816ZM238.53 142.6V143.536H234.714V147.352H233.802V143.536H229.986V142.6H233.802V138.808H234.714V142.6H238.53ZM247.081 140.272C250.297 140.272 252.937 142.408 252.865 145.744C252.769 149.08 250.369 151.24 246.937 151.24C243.337 151.24 240.721 148.888 240.601 144.904C240.385 138.136 243.121 134.152 247.321 133.96C249.649 133.864 251.473 134.944 252.049 135.928C252.481 136.648 252.553 137.248 252.289 137.8C252.049 138.352 251.185 138.64 250.489 138.16C250.153 137.92 249.937 137.536 250.009 136.456C250.081 135.424 249.193 134.44 247.249 134.608C244.993 134.776 243.361 136.84 243.001 142.36C243.841 141.16 245.401 140.272 247.081 140.272ZM246.769 150.592C249.049 150.592 250.465 148.768 250.465 145.744C250.465 142.816 249.073 141.064 246.769 141.064C244.489 141.064 243.097 142.816 243.097 145.744C243.097 148.768 244.513 150.592 246.769 150.592ZM265.045 147.352H265.501L265.045 151H254.077V150.4C258.541 145.792 261.925 143.296 262.189 138.76C262.333 136.288 261.349 134.68 259.405 134.608C257.725 134.536 256.885 135.376 256.885 136.456C256.885 137.44 256.789 137.896 256.429 138.16C255.829 138.616 254.869 138.304 254.629 137.8C254.317 137.152 254.605 136.408 254.917 135.928C255.589 134.896 257.125 133.96 259.405 133.96C262.501 133.96 265.069 135.496 264.877 138.76C264.661 142.816 260.365 146.08 256.645 149.152H261.805C264.013 149.152 264.661 148.576 265.045 147.352ZM280.33 141.76C282.802 142.72 285.154 144.04 284.818 146.824C284.482 149.392 281.914 151.24 278.53 151.24C275.458 151.24 271.882 149.44 272.266 146.2C272.506 143.944 274.258 142.792 276.37 142.288C273.61 141.04 272.794 139.072 273.298 137.128C273.826 135.016 276.082 133.96 278.53 133.96C281.194 133.96 283.882 135.328 283.93 137.632C284.002 139.768 282.586 141.16 280.33 141.76ZM275.146 137.464C275.002 139.648 277.258 140.56 279.514 141.376C281.05 140.536 281.842 139.528 281.914 137.872C281.986 136.048 280.666 134.608 278.53 134.608C276.586 134.608 275.266 135.568 275.146 137.464ZM278.698 150.592C280.954 150.592 282.538 149.344 282.538 147.112C282.538 144.712 279.898 143.824 277.21 142.72C275.938 143.296 274.762 144.28 274.546 146.32C274.258 149.176 276.634 150.592 278.698 150.592ZM297.53 147.352H297.986L297.53 151H286.562V150.4C291.026 145.792 294.41 143.296 294.674 138.76C294.818 136.288 293.834 134.68 291.89 134.608C290.21 134.536 289.37 135.376 289.37 136.456C289.37 137.44 289.274 137.896 288.914 138.16C288.314 138.616 287.354 138.304 287.114 137.8C286.802 137.152 287.09 136.408 287.402 135.928C288.074 134.896 289.61 133.96 291.89 133.96C294.986 133.96 297.554 135.496 297.362 138.76C297.146 142.816 292.85 146.08 289.13 149.152H294.29C296.498 149.152 297.146 148.576 297.53 147.352ZM306.287 142C309.671 142.432 311.567 143.992 311.567 146.368C311.567 149.32 309.023 151.24 305.399 151.24C302.759 151.24 300.791 150.136 300.119 149.2C299.663 148.552 299.567 147.808 299.831 147.328C300.239 146.632 301.199 146.488 301.727 146.944C302.279 147.4 302.279 148.216 302.255 148.672C302.183 149.752 303.503 150.592 305.399 150.592C307.727 150.592 308.831 149.032 308.831 146.488C308.831 144.016 307.439 142.336 304.175 142.336V141.736C306.383 141.544 307.727 140.224 307.727 137.824C307.727 135.928 306.935 134.608 305.399 134.608C303.695 134.608 303.047 135.424 303.071 136.456C303.071 137.488 302.927 137.92 302.615 138.16C301.919 138.688 301.055 138.208 300.791 137.8C300.527 137.344 300.695 136.528 301.079 135.928C301.703 134.968 303.191 133.96 305.351 133.96C307.823 133.96 310.391 135.232 310.391 137.824C310.391 139.84 308.759 141.448 306.287 142ZM313.611 142.624H322.155V143.536H313.611V142.624ZM330.1 142C333.484 142.432 335.38 143.992 335.38 146.368C335.38 149.32 332.836 151.24 329.212 151.24C326.572 151.24 324.604 150.136 323.932 149.2C323.476 148.552 323.38 147.808 323.644 147.328C324.052 146.632 325.012 146.488 325.54 146.944C326.092 147.4 326.092 148.216 326.068 148.672C325.996 149.752 327.316 150.592 329.212 150.592C331.54 150.592 332.644 149.032 332.644 146.488C332.644 144.016 331.252 142.336 327.988 142.336V141.736C330.196 141.544 331.54 140.224 331.54 137.824C331.54 135.928 330.748 134.608 329.212 134.608C327.508 134.608 326.86 135.424 326.884 136.456C326.884 137.488 326.74 137.92 326.428 138.16C325.732 138.688 324.868 138.208 324.604 137.8C324.34 137.344 324.508 136.528 324.892 135.928C325.516 134.968 327.004 133.96 329.164 133.96C331.636 133.96 334.204 135.232 334.204 137.824C334.204 139.84 332.572 141.448 330.1 142ZM347.803 147.352H348.259L347.803 151H336.835V150.4C341.299 145.792 344.683 143.296 344.947 138.76C345.091 136.288 344.107 134.68 342.163 134.608C340.483 134.536 339.643 135.376 339.643 136.456C339.643 137.44 339.547 137.896 339.187 138.16C338.587 138.616 337.627 138.304 337.387 137.8C337.075 137.152 337.363 136.408 337.675 135.928C338.347 134.896 339.883 133.96 342.163 133.96C345.259 133.96 347.827 135.496 347.635 138.76C347.419 142.816 343.123 146.08 339.403 149.152H344.563C346.771 149.152 347.419 148.576 347.803 147.352ZM356.675 140.272C359.891 140.272 362.531 142.408 362.459 145.744C362.363 149.08 359.963 151.24 356.531 151.24C352.931 151.24 350.315 148.888 350.195 144.904C349.979 138.136 352.715 134.152 356.915 133.96C359.243 133.864 361.067 134.944 361.643 135.928C362.075 136.648 362.147 137.248 361.883 137.8C361.643 138.352 360.779 138.64 360.083 138.16C359.747 137.92 359.531 137.536 359.603 136.456C359.675 135.424 358.787 134.44 356.843 134.608C354.587 134.776 352.955 136.84 352.595 142.36C353.435 141.16 354.995 140.272 356.675 140.272ZM356.363 150.592C358.643 150.592 360.059 148.768 360.059 145.744C360.059 142.816 358.667 141.064 356.363 141.064C354.083 141.064 352.691 142.816 352.691 145.744C352.691 148.768 354.107 150.592 356.363 150.592ZM376.398 146.824H374.094V149.032C374.094 149.968 374.334 150.4 375.246 150.472V151H370.59V150.472C371.502 150.4 371.742 149.968 371.742 149.032V146.824H363.678V145.96L371.742 134.2H374.094V145.96H376.398V146.824ZM364.734 145.96H371.742V135.784L364.734 145.96ZM378.088 142.624H386.632V143.536H378.088V142.624ZM396.791 141.76C399.263 142.72 401.615 144.04 401.279 146.824C400.943 149.392 398.375 151.24 394.991 151.24C391.919 151.24 388.343 149.44 388.727 146.2C388.967 143.944 390.719 142.792 392.831 142.288C390.071 141.04 389.255 139.072 389.759 137.128C390.287 135.016 392.543 133.96 394.991 133.96C397.655 133.96 400.343 135.328 400.391 137.632C400.463 139.768 399.047 141.16 396.791 141.76ZM391.607 137.464C391.463 139.648 393.719 140.56 395.975 141.376C397.511 140.536 398.303 139.528 398.375 137.872C398.447 136.048 397.127 134.608 394.991 134.608C393.047 134.608 391.727 135.568 391.607 137.464ZM395.159 150.592C397.415 150.592 398.999 149.344 398.999 147.112C398.999 144.712 396.359 143.824 393.671 142.72C392.399 143.296 391.223 144.28 391.007 146.32C390.719 149.176 393.095 150.592 395.159 150.592ZM409.647 142C413.031 142.432 414.927 143.992 414.927 146.368C414.927 149.32 412.383 151.24 408.759 151.24C406.119 151.24 404.151 150.136 403.479 149.2C403.023 148.552 402.927 147.808 403.191 147.328C403.599 146.632 404.559 146.488 405.087 146.944C405.639 147.4 405.639 148.216 405.615 148.672C405.543 149.752 406.863 150.592 408.759 150.592C411.087 150.592 412.191 149.032 412.191 146.488C412.191 144.016 410.799 142.336 407.535 142.336V141.736C409.743 141.544 411.087 140.224 411.087 137.824C411.087 135.928 410.295 134.608 408.759 134.608C407.055 134.608 406.407 135.424 406.431 136.456C406.431 137.488 406.287 137.92 405.975 138.16C405.279 138.688 404.415 138.208 404.151 137.8C403.887 137.344 404.055 136.528 404.439 135.928C405.062 134.968 406.551 133.96 408.711 133.96C411.183 133.96 413.751 135.232 413.751 137.824C413.751 139.84 412.119 141.448 409.647 142ZM423.355 140.272C426.571 140.272 429.211 142.408 429.139 145.744C429.043 149.08 426.643 151.24 423.211 151.24C419.611 151.24 416.995 148.888 416.875 144.904C416.659 138.136 419.395 134.152 423.595 133.96C425.923 133.864 427.747 134.944 428.323 135.928C428.755 136.648 428.827 137.248 428.563 137.8C428.323 138.352 427.459 138.64 426.763 138.16C426.427 137.92 426.211 137.536 426.283 136.456C426.355 135.424 425.467 134.44 423.523 134.608C421.267 134.776 419.635 136.84 419.275 142.36C420.115 141.16 421.675 140.272 423.355 140.272ZM423.043 150.592C425.323 150.592 426.739 148.768 426.739 145.744C426.739 142.816 425.347 141.064 423.043 141.064C420.763 141.064 419.371 142.816 419.371 145.744C419.371 148.768 420.787 150.592 423.043 150.592ZM443.131 140.272C443.371 146.92 440.635 151.024 436.579 151.24C434.323 151.36 432.403 150.232 431.827 149.248C431.419 148.552 431.323 147.952 431.587 147.4C431.851 146.848 432.739 146.584 433.387 147.016C433.747 147.256 433.963 147.64 433.867 148.72C433.795 149.752 434.755 150.688 436.627 150.592C438.787 150.472 440.347 148.36 440.707 142.816C439.867 144.04 438.331 144.928 436.627 144.928C433.435 144.928 430.795 142.768 430.867 139.432C430.963 136.048 433.531 133.96 436.795 133.96C440.179 133.96 442.987 136.288 443.131 140.272ZM436.939 144.112C439.243 144.112 440.635 142.384 440.635 139.432C440.635 136.432 439.219 134.584 436.939 134.584C434.683 134.584 433.243 136.432 433.243 139.432C433.243 142.384 434.659 144.112 436.939 144.112ZM105.983 168.504C107.207 168.504 108.215 169.296 108.215 170.688C108.215 172.08 107.207 172.872 105.983 172.872C104.783 172.872 103.775 172.08 103.775 170.688C103.775 169.296 104.783 168.504 105.983 168.504ZM139.336 175.224H139.816L139.312 178.536C137.848 179.592 136.288 180.336 133.504 180.24C128.536 180.096 124.48 176.832 124.48 171.6C124.48 166.368 128.296 162.96 133.36 162.96C135.52 162.96 137.752 163.656 139.312 164.664V168.072H138.808C138.088 165.072 135.976 163.632 133.36 163.632C129.616 163.632 127.288 166.992 127.288 171.6C127.288 176.208 129.616 179.352 133.36 179.592C136.288 179.76 138.4 178.272 139.336 175.224ZM146.925 168.408C150.117 168.408 152.949 170.568 152.949 174.312C152.949 178.056 150.117 180.24 146.925 180.24C143.733 180.24 140.901 178.056 140.901 174.312C140.901 170.568 143.733 168.408 146.925 168.408ZM146.925 179.544C149.085 179.544 150.357 177.432 150.357 174.312C150.357 171.192 149.085 169.08 146.925 169.08C144.765 169.08 143.493 171.192 143.493 174.312C143.493 177.432 144.765 179.544 146.925 179.544ZM165.984 178.032C165.984 178.968 166.224 179.4 167.112 179.472V180H162.336V179.472C163.224 179.4 163.464 178.968 163.464 178.032V172.68C163.464 170.736 162.6 169.32 160.728 169.32C159.072 169.32 157.92 170.664 157.92 172.464V178.032C157.92 178.968 158.16 179.4 159.072 179.472V180H154.272V179.472C155.184 179.4 155.424 178.968 155.424 178.032V171.216C155.424 170.28 155.184 169.848 154.272 169.776V169.248L157.464 168.408H157.848V170.16C158.76 168.96 160.056 168.408 161.544 168.408C164.496 168.408 165.984 170.4 165.984 172.92V178.032ZM174.821 178.464L175.133 178.896C174.605 179.64 173.765 180.24 172.565 180.24C170.837 180.24 169.493 179.328 169.493 176.88V169.488H167.717V168.624C169.733 168.624 170.861 167.256 171.245 165.312C171.533 165.312 171.989 165.312 171.989 165.312V168.624H174.461V169.488H171.989V176.88C171.989 177.936 172.325 178.584 173.021 178.8C173.717 179.04 174.341 178.824 174.821 178.464ZM187.007 178.968L187.247 179.376C186.743 180 186.071 180.24 185.351 180.24C184.439 180.24 183.335 179.808 183.311 178.392C182.711 179.568 181.439 180.24 180.023 180.24C178.151 180.24 176.111 179.424 175.991 177.312C175.823 174.816 177.767 173.688 180.167 173.472C181.655 173.352 182.735 173.256 183.311 173.208C183.311 172.632 183.311 172.272 183.311 172.272C183.311 170.16 182.807 169.032 181.151 168.912C180.239 168.864 179.231 169.368 179.279 170.52C179.327 171.816 178.463 172.176 177.695 171.888C177.047 171.624 176.855 170.88 177.215 170.136C177.839 168.792 179.639 168.408 181.079 168.408C183.311 168.408 185.807 169.152 185.807 172.704V178.368C185.807 179.232 186.479 179.376 187.007 178.968ZM180.791 179.328C182.327 179.28 183.311 178.08 183.311 176.136C183.311 175.344 183.311 174.48 183.311 173.76C182.951 173.808 182.351 173.856 181.415 173.976C179.447 174.216 178.367 175.416 178.391 176.928C178.415 178.584 179.471 179.376 180.791 179.328ZM198.143 177.24L198.479 177.504C197.663 179.112 195.983 180.24 193.871 180.24C190.679 180.24 187.967 177.912 187.967 174.144C187.967 170.568 190.727 168.408 193.823 168.408C195.839 168.408 197.375 169.08 198.095 170.28C198.503 170.976 198.455 172.08 197.543 172.392C196.799 172.656 195.839 172.176 195.911 170.856C195.983 169.632 195.095 168.84 193.751 168.96C191.951 169.128 190.271 171.024 190.439 174.144C190.703 179.448 196.055 179.952 198.143 177.24ZM206.297 178.464L206.609 178.896C206.081 179.64 205.241 180.24 204.041 180.24C202.313 180.24 200.969 179.328 200.969 176.88V169.488H199.193V168.624C201.209 168.624 202.337 167.256 202.721 165.312C203.009 165.312 203.465 165.312 203.465 165.312V168.624H205.937V169.488H203.465V176.88C203.465 177.936 203.801 178.584 204.497 178.8C205.193 179.04 205.817 178.824 206.297 178.464ZM223.936 176.352H224.392L223.936 180H212.968V179.4C217.432 174.792 220.816 172.296 221.08 167.76C221.224 165.288 220.24 163.68 218.296 163.608C216.616 163.536 215.776 164.376 215.776 165.456C215.776 166.44 215.68 166.896 215.32 167.16C214.72 167.616 213.76 167.304 213.52 166.8C213.208 166.152 213.496 165.408 213.808 164.928C214.48 163.896 216.016 162.96 218.296 162.96C221.392 162.96 223.96 164.496 223.768 167.76C223.552 171.816 219.256 175.08 215.536 178.152H220.696C222.904 178.152 223.552 177.576 223.936 176.352ZM227.888 177.408C228.704 177.408 229.376 177.912 229.376 178.824C229.376 179.712 228.704 180.24 227.888 180.24C227.096 180.24 226.424 179.712 226.424 178.824C226.424 177.912 227.096 177.408 227.888 177.408ZM227.888 171.816C227.096 171.816 226.424 171.288 226.424 170.4C226.424 169.488 227.096 168.984 227.888 168.984C228.704 168.984 229.376 169.488 229.376 170.4C229.376 171.288 228.704 171.816 227.888 171.816ZM244.882 171.6V172.536H241.066V176.352H240.154V172.536H236.338V171.6H240.154V167.808H241.066V171.6H244.882ZM253.433 169.272C256.649 169.272 259.289 171.408 259.217 174.744C259.121 178.08 256.721 180.24 253.289 180.24C249.689 180.24 247.073 177.888 246.953 173.904C246.737 167.136 249.473 163.152 253.673 162.96C256.001 162.864 257.825 163.944 258.401 164.928C258.833 165.648 258.905 166.248 258.641 166.8C258.401 167.352 257.537 167.64 256.841 167.16C256.505 166.92 256.289 166.536 256.361 165.456C256.433 164.424 255.545 163.44 253.601 163.608C251.345 163.776 249.713 165.84 249.353 171.36C250.193 170.16 251.753 169.272 253.433 169.272ZM253.121 179.592C255.401 179.592 256.817 177.768 256.817 174.744C256.817 171.816 255.425 170.064 253.121 170.064C250.841 170.064 249.449 171.816 249.449 174.744C249.449 177.768 250.865 179.592 253.121 179.592ZM271.397 176.352H271.853L271.397 180H260.429V179.4C264.893 174.792 268.277 172.296 268.541 167.76C268.685 165.288 267.701 163.68 265.757 163.608C264.077 163.536 263.237 164.376 263.237 165.456C263.237 166.44 263.141 166.896 262.781 167.16C262.181 167.616 261.221 167.304 260.981 166.8C260.669 166.152 260.957 165.408 261.269 164.928C261.941 163.896 263.477 162.96 265.757 162.96C268.853 162.96 271.421 164.496 271.229 167.76C271.013 171.816 266.717 175.08 262.997 178.152H268.157C270.365 178.152 271.013 177.576 271.397 176.352ZM286.681 170.76C289.153 171.72 291.505 173.04 291.169 175.824C290.833 178.392 288.265 180.24 284.881 180.24C281.809 180.24 278.233 178.44 278.617 175.2C278.857 172.944 280.609 171.792 282.721 171.288C279.961 170.04 279.145 168.072 279.649 166.128C280.177 164.016 282.433 162.96 284.881 162.96C287.545 162.96 290.233 164.328 290.281 166.632C290.353 168.768 288.937 170.16 286.681 170.76ZM281.497 166.464C281.353 168.648 283.609 169.56 285.865 170.376C287.401 169.536 288.193 168.528 288.265 166.872C288.337 165.048 287.017 163.608 284.881 163.608C282.937 163.608 281.617 164.568 281.497 166.464ZM285.049 179.592C287.305 179.592 288.889 178.344 288.889 176.112C288.889 173.712 286.249 172.824 283.561 171.72C282.289 172.296 281.113 173.28 280.897 175.32C280.609 178.176 282.985 179.592 285.049 179.592ZM299.537 171C302.921 171.432 304.817 172.992 304.817 175.368C304.817 178.32 302.273 180.24 298.649 180.24C296.009 180.24 294.041 179.136 293.369 178.2C292.913 177.552 292.817 176.808 293.081 176.328C293.489 175.632 294.449 175.488 294.977 175.944C295.529 176.4 295.529 177.216 295.505 177.672C295.433 178.752 296.753 179.592 298.649 179.592C300.977 179.592 302.081 178.032 302.081 175.488C302.081 173.016 300.689 171.336 297.425 171.336V170.736C299.633 170.544 300.977 169.224 300.977 166.824C300.977 164.928 300.185 163.608 298.649 163.608C296.945 163.608 296.297 164.424 296.321 165.456C296.321 166.488 296.177 166.92 295.865 167.16C295.169 167.688 294.305 167.208 294.041 166.8C293.777 166.344 293.945 165.528 294.329 164.928C294.953 163.968 296.441 162.96 298.601 162.96C301.073 162.96 303.641 164.232 303.641 166.824C303.641 168.84 302.009 170.448 299.537 171ZM310.792 178.032C310.792 178.968 311.032 179.4 311.92 179.472V180H307.288V179.472C308.176 179.4 308.416 178.968 308.416 178.032V165.696C308.08 165.696 307.528 165.696 306.976 165.696V165.168L310.36 163.2H310.792V178.032ZM314.08 171.624H322.624V172.536H314.08V171.624ZM328.487 178.032C328.487 178.968 328.727 179.4 329.615 179.472V180H324.983V179.472C325.871 179.4 326.111 178.968 326.111 178.032V165.696C325.775 165.696 325.223 165.696 324.671 165.696V165.168L328.055 163.2H328.487V178.032ZM343.943 169.272C344.183 175.92 341.447 180.024 337.391 180.24C335.135 180.36 333.215 179.232 332.639 178.248C332.231 177.552 332.135 176.952 332.399 176.4C332.663 175.848 333.551 175.584 334.199 176.016C334.559 176.256 334.775 176.64 334.679 177.72C334.607 178.752 335.567 179.688 337.439 179.592C339.599 179.472 341.159 177.36 341.519 171.816C340.679 173.04 339.143 173.928 337.439 173.928C334.247 173.928 331.607 171.768 331.679 168.432C331.775 165.048 334.343 162.96 337.607 162.96C340.991 162.96 343.799 165.288 343.943 169.272ZM337.751 173.112C340.055 173.112 341.447 171.384 341.447 168.432C341.447 165.432 340.031 163.584 337.751 163.584C335.495 163.584 334.055 165.432 334.055 168.432C334.055 171.384 335.471 173.112 337.751 173.112ZM357.648 175.824H355.344V178.032C355.344 178.968 355.584 179.4 356.496 179.472V180H351.84V179.472C352.752 179.4 352.992 178.968 352.992 178.032V175.824H344.928V174.96L352.992 163.2H355.344V174.96H357.648V175.824ZM345.984 174.96H352.992V164.784L345.984 174.96ZM363.268 178.032C363.268 178.968 363.508 179.4 364.396 179.472V180H359.764V179.472C360.652 179.4 360.892 178.968 360.892 178.032V165.696C360.556 165.696 360.004 165.696 359.452 165.696V165.168L362.836 163.2H363.268V178.032ZM366.557 171.624H375.101V172.536H366.557V171.624ZM380.964 178.032C380.964 178.968 381.204 179.4 382.092 179.472V180H377.46V179.472C378.348 179.4 378.588 178.968 378.588 178.032V165.696C378.252 165.696 377.7 165.696 377.148 165.696V165.168L380.532 163.2H380.964V178.032ZM392.244 170.76C394.716 171.72 397.068 173.04 396.732 175.824C396.396 178.392 393.828 180.24 390.444 180.24C387.372 180.24 383.796 178.44 384.18 175.2C384.42 172.944 386.172 171.792 388.284 171.288C385.524 170.04 384.708 168.072 385.212 166.128C385.74 164.016 387.996 162.96 390.444 162.96C393.108 162.96 395.796 164.328 395.844 166.632C395.916 168.768 394.5 170.16 392.244 170.76ZM387.06 166.464C386.916 168.648 389.172 169.56 391.428 170.376C392.964 169.536 393.756 168.528 393.828 166.872C393.9 165.048 392.58 163.608 390.444 163.608C388.5 163.608 387.18 164.568 387.06 166.464ZM390.612 179.592C392.868 179.592 394.452 178.344 394.452 176.112C394.452 173.712 391.812 172.824 389.124 171.72C387.852 172.296 386.676 173.28 386.46 175.32C386.172 178.176 388.548 179.592 390.612 179.592ZM402.76 178.032C402.76 178.968 403 179.4 403.888 179.472V180H399.256V179.472C400.144 179.4 400.384 178.968 400.384 178.032V165.696C400.048 165.696 399.496 165.696 398.944 165.696V165.168L402.328 163.2H402.76V178.032ZM406.145 163.2H416.657V163.8C413.345 167.112 411.881 174.216 411.713 178.704C411.665 179.928 411.137 180.24 410.633 180.24C410.057 180.24 409.265 179.928 409.313 178.896C409.457 174.624 411.857 168.816 414.857 165.048H409.385C407.177 165.048 406.529 165.624 406.145 166.848H405.689L406.145 163.2ZM105.983 197.504C107.207 197.504 108.215 198.296 108.215 199.688C108.215 201.08 107.207 201.872 105.983 201.872C104.783 201.872 103.775 201.08 103.775 199.688C103.775 198.296 104.783 197.504 105.983 197.504ZM137.056 205.256H137.488L137.032 209H125.08V208.472C125.968 208.376 126.208 207.968 126.208 207.032V194.144C126.208 193.208 125.968 192.8 125.08 192.728V192.2H136.504L136.96 195.92H136.504C136.12 194.696 135.472 193.112 133.24 193.112H128.752V200.024H131.728C133.408 200.024 133.864 199.472 134.032 198.464H134.464V202.52H134.032C133.864 201.512 133.408 200.936 131.728 200.936H128.752V208.064H133.792C136.024 208.064 136.648 206.48 137.056 205.256ZM158.024 207.032C158.024 207.968 158.264 208.4 159.176 208.472V209H154.376V208.472C155.288 208.4 155.528 207.968 155.528 207.032V201.68C155.528 199.736 154.784 198.32 152.936 198.32C151.328 198.32 150.296 199.664 150.296 201.464C150.296 201.536 150.296 207.032 150.296 207.032C150.296 207.968 150.536 208.4 151.424 208.472V209H146.648V208.472C147.536 208.4 147.776 207.968 147.776 207.032V201.68C147.776 199.736 147.056 198.32 145.208 198.32C143.6 198.32 142.544 199.664 142.544 201.464V207.032C142.544 207.968 142.784 208.4 143.696 208.472V209H138.92V208.472C139.808 208.4 140.048 207.968 140.048 207.032V200.216C140.048 199.28 139.808 198.848 138.92 198.776V198.248L142.088 197.408H142.472V199.112C143.336 197.96 144.584 197.408 146 197.408C147.968 197.408 149.24 198.296 149.84 199.664C150.704 198.128 152.096 197.408 153.752 197.408C156.656 197.408 158.024 199.4 158.024 201.92V207.032ZM171.28 207.968L171.52 208.376C171.016 209 170.344 209.24 169.624 209.24C168.712 209.24 167.608 208.808 167.584 207.392C166.984 208.568 165.712 209.24 164.296 209.24C162.424 209.24 160.384 208.424 160.264 206.312C160.096 203.816 162.04 202.688 164.44 202.472C165.928 202.352 167.008 202.256 167.584 202.208C167.584 201.632 167.584 201.272 167.584 201.272C167.584 199.16 167.08 198.032 165.424 197.912C164.512 197.864 163.504 198.368 163.552 199.52C163.6 200.816 162.736 201.176 161.968 200.888C161.32 200.624 161.128 199.88 161.488 199.136C162.112 197.792 163.912 197.408 165.352 197.408C167.584 197.408 170.08 198.152 170.08 201.704V207.368C170.08 208.232 170.752 208.376 171.28 207.968ZM165.064 208.328C166.6 208.28 167.584 207.08 167.584 205.136C167.584 204.344 167.584 203.48 167.584 202.76C167.224 202.808 166.624 202.856 165.688 202.976C163.72 203.216 162.64 204.416 162.664 205.928C162.688 207.584 163.744 208.376 165.064 208.328ZM174.574 195.728C173.662 195.728 172.894 195.152 172.894 194.12C172.894 193.088 173.662 192.512 174.574 192.512C175.486 192.512 176.254 193.088 176.254 194.12C176.254 195.152 175.486 195.728 174.574 195.728ZM176.014 207.032C176.014 207.968 176.254 208.4 177.142 208.472V209H172.366V208.472C173.254 208.4 173.494 207.968 173.494 207.032V200.216C173.494 199.28 173.254 198.848 172.366 198.776V198.248L175.63 197.408H176.014V207.032ZM181.99 207.032C181.99 207.968 182.23 208.4 183.142 208.472V209H178.342V208.472C179.254 208.4 179.494 207.968 179.494 207.032V194.144C179.494 193.208 179.254 192.8 178.342 192.728V192.2L181.606 191.336H181.99V207.032ZM186.052 206.408C186.868 206.408 187.54 206.912 187.54 207.824C187.54 208.712 186.868 209.24 186.052 209.24C185.26 209.24 184.588 208.712 184.588 207.824C184.588 206.912 185.26 206.408 186.052 206.408ZM186.052 200.816C185.26 200.816 184.588 200.288 184.588 199.4C184.588 198.488 185.26 197.984 186.052 197.984C186.868 197.984 187.54 198.488 187.54 199.4C187.54 200.288 186.868 200.816 186.052 200.816ZM203.838 206.24L204.174 206.504C203.358 208.112 201.678 209.24 199.566 209.24C196.374 209.24 193.662 206.912 193.662 203.144C193.662 199.568 196.422 197.408 199.518 197.408C201.534 197.408 203.07 198.08 203.79 199.28C204.198 199.976 204.15 201.08 203.238 201.392C202.494 201.656 201.534 201.176 201.606 199.856C201.678 198.632 200.79 197.84 199.446 197.96C197.646 198.128 195.966 200.024 196.134 203.144C196.398 208.448 201.75 208.952 203.838 206.24ZM211.261 197.408C214.453 197.408 217.285 199.568 217.285 203.312C217.285 207.056 214.453 209.24 211.261 209.24C208.069 209.24 205.237 207.056 205.237 203.312C205.237 199.568 208.069 197.408 211.261 197.408ZM211.261 208.544C213.421 208.544 214.693 206.432 214.693 203.312C214.693 200.192 213.421 198.08 211.261 198.08C209.101 198.08 207.829 200.192 207.829 203.312C207.829 206.432 209.101 208.544 211.261 208.544ZM231.724 208.136L231.868 208.592C231.292 209.048 230.644 209.24 229.876 209.24C228.844 209.24 227.836 208.784 227.836 207.344C227.836 207.296 227.836 207.224 227.836 207.128C227.044 208.328 225.796 209.24 223.924 209.24C221.068 209.24 218.74 206.936 218.74 203.312C218.74 199.688 221.068 197.408 223.924 197.408C225.796 197.408 227.044 198.296 227.836 199.496V194.144C227.836 193.208 227.596 192.8 226.708 192.728V192.2L229.948 191.336H230.332V207.296C230.332 208.16 231.028 208.376 231.724 208.136ZM224.548 208.352C226.66 208.352 227.836 206.384 227.836 203.312C227.836 200.24 226.66 198.272 224.548 198.272C222.46 198.272 221.308 200.408 221.308 203.312C221.308 206.216 222.46 208.352 224.548 208.352ZM243.296 202.784V202.928H235.04C235.04 203 235.04 203.072 235.064 203.144C235.328 208.448 240.728 208.952 242.816 206.24L243.152 206.528C242.336 208.112 240.512 209.24 238.472 209.24C235.304 209.24 232.568 206.912 232.568 203.144C232.568 199.496 235.04 197.408 238.232 197.408C241.712 197.408 243.344 199.832 243.296 202.784ZM238.184 197.936C236.504 197.96 235.232 199.544 235.064 202.064H240.992C241.064 199.928 240.176 197.912 238.184 197.936ZM246.333 206.408C247.149 206.408 247.821 206.912 247.821 207.824C247.821 208.712 247.149 209.24 246.333 209.24C245.541 209.24 244.869 208.712 244.869 207.824C244.869 206.912 245.541 206.408 246.333 206.408ZM260.64 207.056C260.64 207.992 260.88 208.4 261.768 208.472V209H258.12V207.632C257.28 208.712 256.08 209.24 254.664 209.24C251.712 209.24 249.912 207.44 249.912 204.704V200.216C249.912 199.28 249.672 198.848 248.784 198.776V198.248L252.024 197.408H252.432V204.944C252.432 207.128 253.44 208.304 255.312 208.304C256.896 208.304 258.12 206.96 258.12 205.16V200.216C258.12 199.28 257.88 198.848 256.992 198.776V198.248L260.232 197.408H260.64V207.056ZM270.277 197.408C273.133 197.408 275.461 199.688 275.461 203.312C275.461 206.936 273.133 209.24 270.277 209.24C268.189 209.24 266.893 208.088 266.101 206.696L264.373 209H263.869V194.144C263.869 193.208 263.629 192.8 262.741 192.728V192.2L265.981 191.336H266.389V199.496C267.181 198.296 268.405 197.408 270.277 197.408ZM269.653 208.352C271.765 208.352 272.917 206.216 272.917 203.312C272.917 200.408 271.765 198.272 269.653 198.272C267.541 198.272 266.389 200.24 266.389 203.312C266.389 206.384 267.541 208.352 269.653 208.352ZM287.873 205.352H288.329L287.873 209H276.905V208.4C281.369 203.792 284.753 201.296 285.017 196.76C285.161 194.288 284.177 192.68 282.233 192.608C280.553 192.536 279.713 193.376 279.713 194.456C279.713 195.44 279.617 195.896 279.257 196.16C278.657 196.616 277.697 196.304 277.457 195.8C277.145 195.152 277.433 194.408 277.745 193.928C278.417 192.896 279.953 191.96 282.233 191.96C285.329 191.96 287.897 193.496 287.705 196.76C287.489 200.816 283.193 204.08 279.473 207.152H284.633C286.841 207.152 287.489 206.576 287.873 205.352ZM296.313 191.96C300.105 191.96 302.721 195.392 302.721 200.6C302.721 205.808 300.105 209.24 296.313 209.24C292.497 209.24 289.881 205.808 289.881 200.6C289.881 195.392 292.497 191.96 296.313 191.96ZM296.313 208.592C298.737 208.592 300.201 205.784 300.201 200.6C300.201 195.392 298.737 192.608 296.313 192.608C293.865 192.608 292.425 195.392 292.425 200.6C292.425 205.784 293.865 208.592 296.313 208.592ZM315.014 205.352H315.47L315.014 209H304.046V208.4C308.51 203.792 311.894 201.296 312.158 196.76C312.302 194.288 311.318 192.68 309.374 192.608C307.694 192.536 306.854 193.376 306.854 194.456C306.854 195.44 306.758 195.896 306.398 196.16C305.798 196.616 304.838 196.304 304.598 195.8C304.286 195.152 304.574 194.408 304.886 193.928C305.558 192.896 307.094 191.96 309.374 191.96C312.47 191.96 315.038 193.496 314.846 196.76C314.63 200.816 310.334 204.08 306.614 207.152H311.774C313.982 207.152 314.63 206.576 315.014 205.352ZM328.35 205.352H328.806L328.35 209H317.382V208.4C321.846 203.792 325.23 201.296 325.494 196.76C325.638 194.288 324.654 192.68 322.71 192.608C321.03 192.536 320.19 193.376 320.19 194.456C320.19 195.44 320.094 195.896 319.734 196.16C319.134 196.616 318.174 196.304 317.934 195.8C317.622 195.152 317.91 194.408 318.222 193.928C318.894 192.896 320.43 191.96 322.71 191.96C325.806 191.96 328.374 193.496 328.182 196.76C327.966 200.816 323.67 204.08 319.95 207.152H325.11C327.318 207.152 327.966 206.576 328.35 205.352ZM339.742 191.096C345.238 191.096 349.39 195.08 349.39 200.192C349.39 202.664 348.358 204.968 346.366 205.376C344.95 205.64 342.958 205.088 342.454 203.576C341.83 204.608 340.822 205.448 339.214 205.448C336.934 205.448 335.062 203.6 335.062 200.696C335.062 197.768 336.934 195.944 339.214 195.944C340.894 195.944 341.926 196.856 342.55 197.984L343.942 196.136H344.35V202.424C344.35 204.224 345.478 204.704 346.318 204.584C347.806 204.392 348.67 202.424 348.67 200.192C348.67 195.944 345.142 191.792 339.742 191.792C334.63 191.792 331.054 195.824 331.054 200.432C331.054 205.544 334.894 209.216 340.15 209.216C341.638 209.216 343.174 208.712 343.942 208.184V208.976C343.246 209.432 341.566 209.936 340.15 209.936C334.222 209.936 330.358 206.048 330.358 200.432C330.358 195.152 334.318 191.096 339.742 191.096ZM339.718 204.728C341.398 204.728 342.334 203.144 342.334 200.696C342.334 198.224 341.398 196.664 339.718 196.664C338.038 196.664 337.102 198.368 337.102 200.696C337.102 203.024 338.038 204.728 339.718 204.728ZM356.8 207.152C361.072 207.152 363.136 208.184 363.04 210.512C362.944 213.224 360.496 215.384 356.608 215.384C353.224 215.384 349.888 214.136 350.128 211.664C350.272 210.488 351.304 209.528 352.936 208.976C351.376 208.52 350.536 207.704 350.776 206.528C351.04 205.352 352.528 204.824 353.656 204.584C352.624 203.912 351.952 202.832 351.952 201.392C351.952 198.824 354.136 197.408 356.584 197.408C357.52 197.408 358.432 197.6 359.2 198.008C359.248 197.432 359.44 196.856 359.728 196.28C360.28 195.248 361.696 194.936 362.176 195.8C362.536 196.52 362.008 197.456 361 197.336C360.52 197.288 360.256 197.336 360.016 197.504C359.776 197.672 359.704 197.984 359.68 198.32C360.616 198.992 361.24 200.048 361.24 201.392C361.24 203.96 359.032 205.424 356.584 205.424C355.816 205.424 355.048 205.256 354.376 204.992C353.584 205.112 352.312 205.424 352.264 206.072C352.168 207.008 353.584 207.152 356.8 207.152ZM356.584 198.008C355.24 198.008 354.232 199.184 354.232 201.392C354.232 203.624 355.24 204.8 356.584 204.8C357.952 204.8 358.96 203.624 358.96 201.392C358.96 199.184 357.952 198.008 356.584 198.008ZM361.12 211.712C361.432 209.792 359.728 209.384 356.488 209.384C355.648 209.384 354.856 209.336 354.16 209.24C353.152 209.6 352.192 210.344 352.12 211.736C352 214.064 354.64 214.712 356.728 214.712C358.768 214.736 360.784 213.68 361.12 211.712ZM383.118 207.032C383.118 207.968 383.358 208.4 384.27 208.472V209H379.47V208.472C380.382 208.4 380.622 207.968 380.622 207.032V201.68C380.622 199.736 379.878 198.32 378.03 198.32C376.422 198.32 375.39 199.664 375.39 201.464C375.39 201.536 375.39 207.032 375.39 207.032C375.39 207.968 375.63 208.4 376.518 208.472V209H371.742V208.472C372.63 208.4 372.87 207.968 372.87 207.032V201.68C372.87 199.736 372.15 198.32 370.302 198.32C368.694 198.32 367.638 199.664 367.638 201.464V207.032C367.638 207.968 367.878 208.4 368.79 208.472V209H364.014V208.472C364.902 208.4 365.142 207.968 365.142 207.032V200.216C365.142 199.28 364.902 198.848 364.014 198.776V198.248L367.182 197.408H367.566V199.112C368.43 197.96 369.678 197.408 371.094 197.408C373.062 197.408 374.334 198.296 374.934 199.664C375.798 198.128 377.19 197.408 378.846 197.408C381.75 197.408 383.118 199.4 383.118 201.92V207.032ZM396.374 207.968L396.614 208.376C396.11 209 395.438 209.24 394.718 209.24C393.806 209.24 392.702 208.808 392.678 207.392C392.078 208.568 390.806 209.24 389.39 209.24C387.518 209.24 385.478 208.424 385.358 206.312C385.19 203.816 387.134 202.688 389.534 202.472C391.022 202.352 392.102 202.256 392.678 202.208C392.678 201.632 392.678 201.272 392.678 201.272C392.678 199.16 392.174 198.032 390.518 197.912C389.606 197.864 388.598 198.368 388.646 199.52C388.694 200.816 387.83 201.176 387.062 200.888C386.414 200.624 386.222 199.88 386.582 199.136C387.206 197.792 389.006 197.408 390.446 197.408C392.678 197.408 395.174 198.152 395.174 201.704V207.368C395.174 208.232 395.846 208.376 396.374 207.968ZM390.158 208.328C391.694 208.28 392.678 207.08 392.678 205.136C392.678 204.344 392.678 203.48 392.678 202.76C392.318 202.808 391.718 202.856 390.782 202.976C388.814 203.216 387.734 204.416 387.758 205.928C387.782 207.584 388.838 208.376 390.158 208.328ZM399.667 195.728C398.755 195.728 397.987 195.152 397.987 194.12C397.987 193.088 398.755 192.512 399.667 192.512C400.579 192.512 401.347 193.088 401.347 194.12C401.347 195.152 400.579 195.728 399.667 195.728ZM401.107 207.032C401.107 207.968 401.347 208.4 402.235 208.472V209H397.459V208.472C398.347 208.4 398.587 207.968 398.587 207.032V200.216C398.587 199.28 398.347 198.848 397.459 198.776V198.248L400.723 197.408H401.107V207.032ZM407.084 207.032C407.084 207.968 407.324 208.4 408.236 208.472V209H403.436V208.472C404.348 208.4 404.588 207.968 404.588 207.032V194.144C404.588 193.208 404.348 192.8 403.436 192.728V192.2L406.7 191.336H407.084V207.032ZM411.146 206.408C411.962 206.408 412.634 206.912 412.634 207.824C412.634 208.712 411.962 209.24 411.146 209.24C410.354 209.24 409.682 208.712 409.682 207.824C409.682 206.912 410.354 206.408 411.146 206.408ZM424.127 206.24L424.463 206.504C423.647 208.112 421.967 209.24 419.855 209.24C416.663 209.24 413.951 206.912 413.951 203.144C413.951 199.568 416.711 197.408 419.807 197.408C421.823 197.408 423.359 198.08 424.079 199.28C424.487 199.976 424.439 201.08 423.527 201.392C422.783 201.656 421.823 201.176 421.895 199.856C421.967 198.632 421.079 197.84 419.735 197.96C417.935 198.128 416.255 200.024 416.423 203.144C416.687 208.448 422.039 208.952 424.127 206.24ZM431.55 197.408C434.742 197.408 437.574 199.568 437.574 203.312C437.574 207.056 434.742 209.24 431.55 209.24C428.358 209.24 425.526 207.056 425.526 203.312C425.526 199.568 428.358 197.408 431.55 197.408ZM431.55 208.544C433.71 208.544 434.982 206.432 434.982 203.312C434.982 200.192 433.71 198.08 431.55 198.08C429.39 198.08 428.118 200.192 428.118 203.312C428.118 206.432 429.39 208.544 431.55 208.544ZM458.001 207.032C458.001 207.968 458.241 208.4 459.153 208.472V209H454.353V208.472C455.265 208.4 455.505 207.968 455.505 207.032V201.68C455.505 199.736 454.761 198.32 452.913 198.32C451.305 198.32 450.273 199.664 450.273 201.464C450.273 201.536 450.273 207.032 450.273 207.032C450.273 207.968 450.513 208.4 451.401 208.472V209H446.625V208.472C447.513 208.4 447.753 207.968 447.753 207.032V201.68C447.753 199.736 447.033 198.32 445.185 198.32C443.577 198.32 442.521 199.664 442.521 201.464V207.032C442.521 207.968 442.761 208.4 443.673 208.472V209H438.897V208.472C439.785 208.4 440.025 207.968 440.025 207.032V200.216C440.025 199.28 439.785 198.848 438.897 198.776V198.248L442.065 197.408H442.449V199.112C443.313 197.96 444.561 197.408 445.977 197.408C447.945 197.408 449.217 198.296 449.817 199.664C450.681 198.128 452.073 197.408 453.729 197.408C456.633 197.408 458.001 199.4 458.001 201.92V207.032Z" fill="#E2E6DF"/>
<rect width="84" height="84" rx="42" fill="#E2E6DF"/>
<path d="M44.588 37.808C50.54 38.816 53.9 41.792 53.9 46.736C53.9 52.64 48.188 56.48 40.988 56.48C35.708 56.48 31.484 54.704 29.996 52.256C29.18 50.864 29.036 49.376 29.42 48.368C30.092 46.4 32.78 45.632 34.556 47.168C35.996 48.416 35.276 50.192 35.612 51.44C36.284 54.032 38.252 54.704 40.988 54.704C44.54 54.704 46.7 51.776 46.7 46.976C46.7 42.032 44.492 38.96 38.492 38.96V37.184C42.908 36.656 44.684 34.448 44.684 29.648C44.684 26.384 43.676 23.792 40.652 23.696C38.54 23.6 37.1 24.848 37.196 26.912C37.292 29.024 37.148 30.368 36.092 31.136C34.076 32.72 31.484 31.376 30.956 30.032C30.524 28.832 30.86 27.296 31.58 26.144C33.116 23.696 36.236 21.92 40.844 21.92C46.412 21.92 51.548 24.464 51.548 29.648C51.548 33.296 49.004 36.368 44.588 37.808Z" fill="#576589"/>
</svg>
