<svg width="320" height="44" viewBox="0 0 320 44" fill="none" xmlns="http://www.w3.org/2000/svg">
<path d="M76.4285 7.6H81.4525V8.624C80.3325 8.688 79.8205 9.2 79.4365 10.416L73.2285 30H70.9565L65.5805 13.552L60.2365 30H57.9645L51.1805 10.352C50.7325 9.04 50.3485 8.72 49.1325 8.624V7.6H57.4205V8.624C56.3965 8.688 55.8205 9.552 56.2365 10.864L60.3645 23.696L65.6125 7.6H68.1725L73.3565 23.632L77.4525 10.608C77.9005 9.2 77.5165 8.656 76.4285 8.624V7.6ZM99.0613 26.96C99.0613 28.208 99.3813 28.88 100.597 28.976V30H93.0133V28.976C94.2293 28.88 94.5173 28.208 94.5173 26.96V20.176C94.5173 17.776 93.6853 16.176 91.5733 16.176C89.5573 16.176 88.4693 17.936 88.4693 20.08V26.96C88.4693 28.208 88.7893 28.88 90.0052 28.976V30H82.4213V28.976C83.6373 28.88 83.9573 28.208 83.9573 26.96V10.608C83.9573 9.36 83.6373 8.72 82.4213 8.624V7.6L87.7013 6.352H88.4693V16.528C89.6533 15.184 91.2533 14.544 93.0773 14.544C97.3013 14.544 99.0613 17.136 99.0613 20.688V26.96ZM117.283 28.208L117.667 28.912C117.283 29.552 116.163 30.32 114.883 30.32C113.539 30.32 111.491 29.68 111.363 27.792C110.563 29.616 108.771 30.32 107.107 30.32C104.419 30.32 101.667 29.264 101.571 26.32C101.475 22.512 104.611 21.392 107.715 21.104C109.187 20.976 110.339 20.88 111.139 20.784C111.139 20.016 111.139 19.472 111.139 19.472C111.139 17.008 110.659 15.76 109.027 15.568C108.099 15.472 106.723 15.888 106.819 17.36C106.979 19.376 105.539 19.952 104.419 19.6C103.331 19.216 102.851 18.16 103.459 16.848C104.323 14.96 106.787 14.544 108.899 14.544C111.875 14.544 115.683 15.696 115.683 20.24V27.408C115.683 28.656 116.739 28.72 117.283 28.208ZM108.547 28.656C110.339 28.592 111.139 26.608 111.139 24.432C111.139 23.568 111.139 22.704 111.139 21.936C110.691 21.968 110.115 22.064 109.379 22.16C107.075 22.448 106.115 23.664 106.051 25.712C105.987 27.824 107.139 28.688 108.547 28.656ZM127.648 27.312L128.16 28.176C127.488 29.264 126.112 30.32 124.192 30.32C121.984 30.32 119.712 29.456 119.712 25.84V16.464H117.504V14.832C120.32 14.832 122.208 12.784 122.848 10.224C123.744 10.224 124.224 10.224 124.224 10.224V14.832H127.264V16.464H124.224V25.84C124.224 26.896 124.768 27.472 125.44 27.728C126.176 27.984 127.008 27.792 127.648 27.312ZM141.907 26.96C141.907 28.208 142.227 28.88 143.443 28.976V30H135.859V28.976C137.075 28.88 137.395 28.208 137.395 26.96V18.768C137.395 17.52 137.075 16.88 135.859 16.784V15.76L141.139 14.544H141.907V26.96ZM139.475 12.688C137.939 12.688 136.659 11.696 136.659 9.968C136.659 8.272 137.939 7.248 139.475 7.248C141.011 7.248 142.291 8.272 142.291 9.968C142.291 11.696 141.011 12.688 139.475 12.688ZM148.599 17.264C148.375 18.928 150.263 19.664 152.375 20.624C154.775 21.712 157.687 23.056 156.663 26.576C155.991 29.008 153.559 30.32 150.455 30.32C148.471 30.32 145.943 29.744 144.535 28.656V24.784H145.271C145.975 27.824 148.375 29.2 150.455 29.2C151.735 29.2 152.855 28.656 153.079 27.568C153.431 25.904 151.799 25.36 149.751 24.432C146.679 23.024 144.183 21.52 145.143 17.712C145.783 15.216 148.503 14.48 150.807 14.544C152.407 14.576 154.135 15.088 155.543 16.176L155.575 19.632H154.839C154.071 16.752 152.887 15.632 150.807 15.632C149.975 15.632 148.791 15.92 148.599 17.264ZM184.418 23.312H185.314L184.578 28.144C182.562 29.68 179.81 30.48 176.578 30.32C169.73 30 164.418 25.776 164.418 18.8C164.418 11.824 169.634 7.28 176.482 7.28C179.362 7.28 182.498 8.112 184.578 9.456V14.512H183.682C182.722 10.512 180.162 8.432 176.674 8.464C171.874 8.528 169.538 13.04 169.538 18.8C169.538 24.88 172.45 28.944 176.994 29.136C180.77 29.296 183.106 27.376 184.418 23.312ZM199.298 7.28C206.05 7.28 211.394 12.08 211.394 18.8C211.394 25.488 206.05 30.32 199.298 30.32C192.546 30.32 187.234 25.488 187.234 18.8C187.234 12.08 192.546 7.28 199.298 7.28ZM199.298 29.136C203.33 29.136 206.338 25.264 206.338 18.8C206.338 12.304 203.33 8.464 199.298 8.464C195.298 8.464 192.29 12.304 192.29 18.8C192.29 25.264 195.298 29.136 199.298 29.136ZM222.303 7.6C230.847 7.6 235.071 12.56 235.071 18.8C235.071 25.008 230.847 30 222.303 30H213.311V28.976C214.527 28.88 214.847 28.208 214.847 26.96V10.608C214.847 9.36 214.527 8.72 213.311 8.592V7.6H222.303ZM221.663 28.144C227.199 28.144 229.983 24.4 229.983 18.8C229.983 13.2 227.199 9.424 221.663 9.424H219.455V28.144H221.663ZM253.227 23.952H254.027L253.387 30H236.843V28.976C238.059 28.88 238.347 28.208 238.347 26.96V10.608C238.347 9.36 238.059 8.72 236.843 8.592V7.6H252.779L253.387 13.616H252.587C252.139 11.92 251.083 9.424 248.075 9.424H242.987V17.712H246.379C248.587 17.712 249.003 16.976 249.227 15.632H250.027V21.648H249.227C249.003 20.304 248.587 19.568 246.379 19.568H242.987V28.144H248.715C251.691 28.144 252.779 25.648 253.227 23.952ZM262.264 25.872C263.512 25.872 264.568 26.672 264.568 28.08C264.568 29.488 263.512 30.32 262.264 30.32C261.016 30.32 259.96 29.488 259.96 28.08C259.96 26.672 261.016 25.872 262.264 25.872ZM262.776 7.28C266.488 7.28 270.008 9.04 269.88 12.624C269.656 18.576 263.736 17.168 263.096 23.312C263.032 23.792 262.776 24.144 262.264 24.144C261.816 24.144 261.4 23.888 261.432 23.312C261.688 17.104 265.624 16.848 265.976 12.656C266.2 9.968 264.92 8.464 262.776 8.464C261.24 8.464 260.056 9.232 260.152 10.608C260.248 12.08 260.12 13.008 259.448 13.52C258.424 14.32 256.856 13.936 256.44 12.656C256.12 11.76 256.44 10.704 256.824 10.096C257.656 8.72 259.768 7.28 262.776 7.28Z" fill="#19354C"/>
<mask id="mask0_441_1701" style="mask-type:luminance" maskUnits="userSpaceOnUse" x="111" y="33" width="13" height="11">
<path d="M111 35.0193L122.936 33.7729L123.9 41.7633L111.964 43.0098L111 35.0193Z" fill="white"/>
</mask>
<g mask="url(#mask0_441_1701)">
<path d="M118.891 40.2311C118.55 39.9041 118.247 39.5413 117.984 39.1478C118.515 38.7006 121.367 38.7283 123.019 38.7676C121.367 38.7283 118.518 38.5494 117.989 38.0778C118.258 37.6951 118.565 37.348 118.91 37.0366C118.592 37.3769 118.237 37.676 117.851 37.9334C117.4 37.3876 117.327 36.4395 117.339 34.7732C117.327 36.4395 117.247 37.385 116.791 37.9065C116.406 37.6317 116.056 37.3161 115.74 36.96C116.082 37.2896 116.385 37.6498 116.648 38.0459C116.116 38.4905 113.124 38.5119 111.472 38.4727C113.124 38.5119 116.114 38.6443 116.643 39.1132C116.374 39.496 116.067 39.8431 115.722 40.1545C116.043 39.8165 116.395 39.5177 116.781 39.2603C117.235 39.8032 117.304 40.7516 117.293 42.4179C117.304 40.7516 117.385 39.8087 117.843 39.2843C118.226 39.562 118.576 39.8775 118.891 40.2311Z" fill="#2B465B"/>
</g>
<mask id="mask1_441_1701" style="mask-type:luminance" maskUnits="userSpaceOnUse" x="90" y="29" width="22" height="16">
<path d="M90 32.0146L109.893 29.9367L111.338 41.9224L91.4454 44.0003L90 32.0146Z" fill="white"/>
</mask>
<g mask="url(#mask1_441_1701)">
<path d="M103.101 39.7915C102.594 39.2476 102.163 38.6601 101.809 38.0313C102.77 37.3792 107.462 37.6477 110.175 37.8422C107.462 37.6477 102.801 37.143 102.022 36.3683C102.529 35.7993 103.099 35.2832 103.735 34.8197C103.154 35.3179 102.515 35.7532 101.819 36.1303C101.178 35.2461 101.241 33.7652 101.572 31.1721C101.241 33.7652 100.932 35.229 100.078 36.0054C99.4908 35.5389 98.973 35.0199 98.5278 34.4505C99.0346 34.9944 99.4651 35.582 99.8192 36.2108C98.8553 36.8631 93.9242 36.6601 91.2086 36.4658C93.9242 36.6601 98.8275 37.0991 99.6066 37.8737C99.0991 38.4427 98.5291 38.9588 97.8937 39.4223C98.4743 38.9241 99.1131 38.4888 99.8095 38.1117C100.45 38.996 100.384 40.4771 100.053 43.0703C100.384 40.4771 100.697 39.013 101.55 38.2343C102.137 38.7032 102.655 39.2222 103.101 39.7915Z" fill="#2B465B"/>
</g>
<path d="M80.1678 24.4502C69.7471 25.2943 46.9772 27.374 48.8498 30.561C51.0358 33.589 73.621 35.4204 84.8114 36.2286C86.6559 36.3577 88.7048 36.5004 90.5745 36.6047C88.6152 36.5134 86.6811 36.3981 84.7554 36.2749C73.1927 35.5417 50.7811 33.7591 48.1556 30.6757C45.8856 27.2769 69.025 25.2336 80.1678 24.4502Z" fill="#2B465B"/>
<mask id="mask2_441_1701" style="mask-type:luminance" maskUnits="userSpaceOnUse" x="122" y="24" width="150" height="15">
<path d="M122.794 24H272V38.2927H122.794V24Z" fill="white"/>
</mask>
<g mask="url(#mask2_441_1701)">
<path d="M235.92 24.0052C246.534 24.7318 259.498 25.7924 267.234 27.6945C271.133 28.6553 273.004 29.9462 270.463 31.195C266.807 32.9712 257.811 34.0669 250.404 34.8447C242.507 35.6446 234.216 36.2103 225.844 36.667C204.885 37.7718 183.348 38.2032 161.886 38.2155C148.994 38.2259 136.144 38.0579 123.338 37.7121C140.441 38.1 157.575 38.2025 174.739 38.0183C191.85 37.8295 208.967 37.391 225.672 36.4912C234.004 36.0429 242.264 35.4844 250.123 34.6949C257.387 33.9398 266.286 32.8596 269.925 31.1373C277.184 27.3195 247.677 24.8252 235.92 24.0052Z" fill="#2B465B"/>
</g>
</svg>
