<svg width="640" height="82" viewBox="0 0 640 82" fill="none" xmlns="http://www.w3.org/2000/svg">
<path d="M201.391 26.74C208.891 31.12 214.591 34.42 212.071 43.48C210.271 50.14 203.911 52.6 197.251 52.6C191.851 52.6 186.511 51.28 182.611 48.52V38.68H184.111C186.271 45.58 190.351 50.02 196.051 50.38C201.151 50.62 203.851 47.98 204.271 44.32C204.871 38.92 200.971 37.54 195.811 34.6C189.751 31.12 182.191 26.62 184.651 17.38C186.151 11.56 191.911 9.4 198.031 9.4C202.831 9.4 206.131 10.78 210.091 13.48L210.151 22.12H208.651C206.791 14.68 203.671 11.86 198.811 11.62C194.191 11.38 191.971 13.9 191.851 16.84C191.671 20.98 195.931 23.56 201.391 26.74ZM246.288 46.3C246.288 48.64 246.888 49.9 249.108 50.08V52H237.768V48.76C235.608 51.34 232.608 52.6 229.188 52.6C221.268 52.6 217.968 47.68 217.968 41.02V30.94C217.968 28.6 217.368 27.4 215.088 27.22V25.3L224.988 23.02H226.428V41.98C226.428 46.48 228.048 49.48 232.008 49.48C235.788 49.48 237.768 46.18 237.768 42.16V30.94C237.768 28.6 237.168 27.4 234.948 27.22V25.3L244.848 23.02H246.288V46.3ZM272.129 23.02C280.109 23.02 285.449 28.6 285.449 37.78C285.449 46.96 280.109 52.6 272.129 52.6C266.969 52.6 263.729 49.9 261.689 46.6L256.829 52H254.909V15.64C254.909 13.3 254.309 12.1 252.089 11.92V10L261.929 7.66H263.429V26.68C265.409 24.52 268.229 23.02 272.129 23.02ZM270.209 50.14C274.829 50.14 277.049 44.74 277.049 37.78C277.049 30.82 274.829 25.42 270.209 25.42C265.709 25.42 263.429 30.34 263.429 37.78C263.429 45.22 265.709 50.14 270.209 50.14ZM305.951 46.96L306.911 48.58C305.651 50.62 303.071 52.6 299.471 52.6C295.331 52.6 291.071 50.98 291.071 44.2V26.62H286.931V23.56C292.211 23.56 295.751 19.72 296.951 14.92C298.631 14.92 299.531 14.92 299.531 14.92V23.56H305.231V26.62H299.531V44.2C299.531 46.18 300.551 47.26 301.811 47.74C303.191 48.22 304.751 47.86 305.951 46.96ZM339.949 46.3C339.949 48.64 340.549 49.9 342.829 50.08V52H328.609V50.08C330.889 49.9 331.429 48.64 331.429 46.3V33.58C331.429 29.08 329.869 26.08 325.909 26.08C322.129 26.08 320.089 29.38 320.089 33.4V46.3C320.089 48.64 320.689 49.9 322.969 50.08V52H308.749V50.08C311.029 49.9 311.629 48.64 311.629 46.3V15.64C311.629 13.3 311.029 12.1 308.749 11.92V10L318.649 7.66H320.089V26.74C322.309 24.22 325.309 23.02 328.729 23.02C336.649 23.02 339.949 27.88 339.949 34.54V46.3ZM372.66 36.46V37.36C353.34 37.36 353.34 37.36 353.34 37.36C354.12 49.18 366.3 49.9 371.22 44.32L372.3 45.22C370.2 49.24 365.88 52.6 360.24 52.6C352.26 52.6 344.88 47.44 344.88 37.36C344.88 28.48 351.06 23.02 359.7 23.02C368.28 23.02 372.78 29.08 372.66 36.46ZM359.58 24.94C356.1 25.06 353.64 28.72 353.28 34.3H364.92C364.98 30.16 363.96 24.82 359.58 24.94ZM425.221 46.3C425.221 48.64 425.821 49.9 428.041 50.08V52H413.881V50.08C416.101 49.9 416.701 48.64 416.701 46.3V33.58C416.701 29.08 415.261 26.08 411.541 26.08C408.061 26.08 406.141 29.38 406.141 33.4C406.141 33.64 406.141 46.3 406.141 46.3C406.141 48.64 406.741 49.9 408.961 50.08V52H394.801V50.08C397.021 49.9 397.621 48.64 397.621 46.3V33.58C397.621 29.08 396.241 26.08 392.461 26.08C389.041 26.08 387.061 29.38 387.061 33.4V46.3C387.061 48.64 387.661 49.9 389.941 50.08V52H375.721V50.08C378.001 49.9 378.601 48.64 378.601 46.3V30.94C378.601 28.6 378.001 27.4 375.721 27.22V25.3L385.201 23.02H386.701V27.1C388.801 24.34 391.741 23.02 395.281 23.02C400.321 23.02 403.381 25.06 404.941 28.36C407.041 24.76 410.281 23.02 414.361 23.02C422.041 23.02 425.221 27.88 425.221 34.54V46.3ZM457.914 36.46V37.36C438.594 37.36 438.594 37.36 438.594 37.36C439.374 49.18 451.554 49.9 456.474 44.32L457.554 45.22C455.454 49.24 451.134 52.6 445.494 52.6C437.514 52.6 430.134 47.44 430.134 37.36C430.134 28.48 436.314 23.02 444.954 23.02C453.534 23.02 458.034 29.08 457.914 36.46ZM444.834 24.94C441.354 25.06 438.894 28.72 438.534 34.3H450.174C450.234 30.16 449.214 24.82 444.834 24.94Z" fill="#19354C"/>
<mask id="mask0_537_581" style="mask-type:luminance" maskUnits="userSpaceOnUse" x="242" y="61" width="24" height="17">
<path d="M242.484 64.5311L263.992 61.9404L265.476 74.8735L243.968 77.4642L242.484 64.5311Z" fill="white"/>
</mask>
<g mask="url(#mask0_537_581)">
<path d="M256.514 72.6239C255.911 72.1088 255.376 71.5339 254.916 70.9071C255.885 70.1555 261.014 70.0655 263.984 70.051C261.014 70.0655 255.895 69.9098 254.958 69.1688C255.453 68.5343 256.016 67.956 256.647 67.4338C256.064 68.0017 255.416 68.5044 254.714 68.9408C253.919 68.0755 253.818 66.5388 253.891 63.8315C253.818 66.5388 253.645 68.0785 252.808 68.9472C252.125 68.519 251.504 68.0231 250.948 67.4594C251.551 67.9788 252.085 68.5494 252.546 69.1804C251.576 69.9278 246.193 70.1043 243.222 70.1188C246.193 70.1043 251.567 70.1778 252.504 70.9145C252.009 71.549 251.446 72.1274 250.815 72.6495C251.403 72.0853 252.046 71.5832 252.748 71.1468C253.547 72.0073 253.643 73.5445 253.571 76.2518C253.643 73.5445 253.817 72.0091 254.658 71.1355C255.338 71.5686 255.958 72.0645 256.514 72.6239Z" fill="#2B465B"/>
</g>
<mask id="mask1_537_581" style="mask-type:luminance" maskUnits="userSpaceOnUse" x="208" y="55" width="36" height="27">
<path d="M208 59.6623L241.452 55.6271L243.933 77.2378L210.48 81.273L208 59.6623Z" fill="white"/>
</mask>
<g mask="url(#mask1_537_581)">
<path d="M230.066 73.5143C229.211 72.5397 228.485 71.4853 227.887 70.3552C229.501 69.1643 237.393 69.5813 241.956 69.8934C237.393 69.5813 229.551 68.7374 228.237 67.3502C229.088 66.3157 230.045 65.3758 231.112 64.53C230.137 65.4377 229.065 66.2327 227.895 66.9235C226.814 65.3365 226.914 62.6623 227.46 57.9763C226.914 62.6623 226.399 65.3093 224.967 66.7231C223.977 65.8893 223.104 64.9599 222.353 63.9385C223.207 64.9131 223.934 65.9675 224.532 67.0976C222.914 68.2891 214.619 67.9937 210.051 67.6821C214.619 67.9937 222.868 68.7154 224.181 70.1026C223.33 71.1371 222.374 72.077 221.307 72.9228C222.281 72.0152 223.354 71.2201 224.524 70.5293C225.605 72.1163 225.5 74.7911 224.954 79.4771C225.5 74.7911 226.02 72.1436 227.451 70.7255C228.442 71.5635 229.315 72.4929 230.066 73.5143Z" fill="#2B465B"/>
</g>
<path d="M198.356 48.5379C182.691 49.9444 148.463 53.4102 151.277 58.7212C154.564 63.7672 188.515 66.8192 205.337 68.166C208.109 68.381 211.189 68.6189 214 68.7926C211.055 68.6406 208.147 68.4483 205.252 68.2431C187.871 67.0212 154.181 64.0507 150.234 58.9124C146.822 53.2484 181.606 49.8434 198.356 48.5379Z" fill="#2B465B"/>
<mask id="mask2_537_581" style="mask-type:luminance" maskUnits="userSpaceOnUse" x="262" y="47" width="224" height="25">
<path d="M262.191 47.8842H486V71.2187H262.191V47.8842Z" fill="white"/>
</mask>
<g mask="url(#mask2_537_581)">
<path d="M431.88 47.8928C447.801 49.079 467.247 50.8107 478.851 53.916C484.699 55.4846 487.506 57.5922 483.695 59.631C478.211 62.5309 464.717 64.3197 453.607 65.5896C441.76 66.8955 429.324 67.8191 416.767 68.5647C385.327 70.3683 353.021 71.0727 320.829 71.0928C301.491 71.1097 282.215 70.8354 263.007 70.2709C288.661 70.9043 314.362 71.0716 340.108 70.7708C365.775 70.4626 391.451 69.7466 416.507 68.2777C429.006 67.5458 441.396 66.6339 453.184 65.345C464.081 64.1121 477.429 62.3487 482.888 59.5368C493.776 53.3039 449.516 49.2316 431.88 47.8928Z" fill="#2B465B"/>
</g>
</svg>
