<svg width="360" height="529" viewBox="0 0 360 529" fill="none" xmlns="http://www.w3.org/2000/svg">
<path d="M-92.5063 40.4055L-122 53.0594V485.542L-102.338 491.064L-89.9962 493.594L-71.1704 491.064L-39.585 491.901L-24.106 500.643H-14.2747L-7.16279 509.469L2.87762 500.727L22.9585 498.656L49.7329 506.708L67.3036 504.408L99.3074 506.708H116.878L134.24 500.957L156.831 508.779H165.198L187.161 512L203.268 508.779L209.124 494.285L221.047 488.993L245.73 486.692H265.602L287.356 479.33L321.661 488.993L338.186 493.364L357.43 503.487L385.041 502.337L414.534 484.852L442.564 482.781L457.834 491.524L471.639 490.373L480.425 486.692V48.2279L438.799 49.3783L424.784 44.5468L410.979 49.3783L396.755 40.1755L384.413 30.7426L372.072 32.3531L362.659 28.4419L346.134 33.5035L328.563 43.6265H314.549L304.299 50.0685L292.794 45.4671L278.571 47.3076L264.974 56.0503L244.893 62.0321L229.414 58.351L208.497 59.7314L185.906 52.1391L153.693 57.4307L136.331 50.5286L122.735 55.3601L99.9349 47.5377H85.9202L78.3899 39.4853L48.8962 40.6356L40.1108 34.8839L-9.04537 37.1846L-36.8657 22L-51.7171 33.5035L-62.3851 31.4328L-92.5063 40.4055Z" fill="#2B465B"/>
<g filter="url(#filter0_d_418_1132)">
<path d="M482 485.388V483.681V482.461L478.562 484.058C477.555 483.98 476.897 484.01 476.583 484.146L472.577 487.578L467.98 486.139L466.281 487.458C464.054 487.092 462.672 487.144 462.135 487.618C460.75 486.964 459.45 483.862 459.495 484.477L457.782 483.424C457.039 483.746 456.16 479.337 455.582 479.15L454.804 479.601C454.2 479.267 453.616 479.223 453.053 479.466L448.018 475.311C447.065 475.3 445.683 475.341 443.869 475.437L440.416 476.677L438.392 476.161C438.484 476.543 437.871 477.097 436.553 477.817C435.412 477.574 434.631 477.495 434.202 477.587L430.733 481.513L426.603 479.595L425.008 480.267C424.589 480.261 424.195 480.242 423.836 480.213L415.656 478.182L407.714 482.005L406.167 482.75L406.218 485.662C405.296 485.696 404.572 485.645 404.042 485.508L401.576 484.558L401.29 484.698L399.804 487.412C397.764 487.069 396.449 486.918 395.858 486.955L392.313 490.572L391.583 495.846C390.945 495.713 390.557 495.687 390.424 495.765L389.797 496.466C387.51 496.733 386.348 496.791 385.897 497.002L385.217 498.32C385.303 497.725 381.091 496.6 372.583 494.942C371.398 496.383 368.698 497.633 364.479 498.689C363.298 498.711 359.704 495.702 358.234 495.664L351.737 497.004L343.416 490.572L338.106 488.74L333.517 483.497C332.793 483.433 331.945 483.495 330.97 483.682C328.19 483.192 325.62 483.029 323.26 483.197L318.32 485.187L309.695 476.024C308.97 476.432 307.589 476.644 305.555 476.655C304.364 476.542 302.541 475.981 300.082 474.969L297.938 475.146L295.256 475.886C295.015 475.932 294.777 475.934 294.542 475.891C291.088 474.628 289.249 473.73 289.024 473.2C285.767 473.342 284.23 473.275 284.405 473L283.264 473.803L278.47 473.316L277.203 474.108C277.041 474.127 276.835 474.115 276.58 474.072L267.203 479.812L256.179 480.577C255.887 480.635 255.213 480.626 254.156 480.551C251.017 479.997 249.016 479.75 248.155 479.812L236.159 482.926L225.307 483.551H215.862L205.167 492.268L202.018 506.422L198.816 504.431C198.816 504.431 194.591 507.266 193.726 509.271L190.505 508.664L188.898 508.818C187.081 508.357 184.682 508.153 181.702 508.204L178.081 507.191C176.886 507.526 174.132 507.188 169.815 506.175C169.17 506.155 168.179 506.235 166.838 506.417C163.363 504.564 161.358 503.641 160.825 503.645C160.669 503.625 160.456 503.604 160.183 503.583L155.462 506.069L142.935 498.52C141.928 498.608 141.038 498.941 140.263 499.518C136.95 499.014 129.945 498.516 125.682 500.055L121.278 499.624L118.761 504.219C118.262 504.264 113.912 500.122 111.535 499.725C110.973 499.701 109.54 499.811 107.237 500.055L104.318 501.743L96.1111 504.219L90.868 502.229H84.3391C77.4328 500.646 72.8361 502.276 66.1204 499.624C64.7226 499.555 61.3202 496.085 60.3354 496.712L56.5141 499.624L50.6145 503.343L36.7955 495.668C33.6632 495.737 30.261 495.455 26.5854 494.819C26.1884 495.06 23.7772 495.298 19.3488 495.53C16.8963 493.963 14.4279 495.406 4.26226 494.819L1.28888 496.54L-2.59936 499.624C-3.22518 499.499 -6.39261 503.215 -6.78653 503.343L-8.71618 496.512L-12.1943 493.132C-14.6435 494.691 -16.9245 495.526 -19.0307 495.636L-22.5855 498.166C-23.9324 498.26 -30.0385 488.823 -37.4531 485.011L-45.9157 487.941C-45.9157 487.941 -50.7341 488.354 -53.3104 487.162C-57.7897 488.913 -62.9776 486.379 -66.6023 486.184L-74.6362 486.822L-84.2835 488.334L-97.5171 488.397L-102.291 483.681L-119.156 480.931H-122V485.144L-122 486.364V488.071L-107.739 492.811L-88.4445 496.512L-80.8258 492.811C-79.3009 492.771 -75.6481 498.567 -75.6481 498.567C-70.3747 498.172 -65.0598 497.555 -62.4676 496.748C-55.5708 498.092 -52.0637 498.698 -51.9525 498.567L-44.4625 495.008L-37.985 496.512L-35.3848 496.748L-33.0778 501.924L-29.3028 505.438H-22.5855H-13.5736L-8.71618 514.021C1.03967 511.378 6.01848 504.005 14.1097 503.343C23.5034 503.275 25.8463 503.62 32.3555 504.219L55.8607 510.927C57.1283 511.092 60.2193 510.314 65.1369 508.594L73.498 509.481L75.8552 509.444C77.2689 509.38 79.0923 510.044 80.8014 509.481C83.1268 509.966 84.3722 509.208 85.0584 509.159L94.8528 511.292C94.8528 511.292 105.332 509.191 106.654 509.09L118.761 508.594L128.408 504.219L132.393 503.487C135.17 503.644 142.313 505.527 144.934 506.069C151.294 509.037 155.303 510.658 156.958 510.927C158.404 511.197 163.445 512.017 165.319 511.78L174.128 517.166C175.132 516.543 181.806 516.932 187.594 515.402L193.823 519L206.215 512.511L208.942 499.341L218.589 492.268L230.01 494.001L245.986 489.528L253.321 490.077L261.079 490.55L263.166 489.966C265.532 490.14 267.242 490.176 268.293 490.077L274.585 485.187L283.264 481.78L293.841 483.424L301.17 487.539C302.351 487.417 304.801 487.533 308.514 487.891L316.073 493.089L324.22 495.691C326.088 495.756 329.294 495.496 333.836 494.909C334.345 494.882 334.923 494.899 335.568 494.963L345.216 502.097L356.984 509.138L364.479 506.672C371.722 505.313 378.789 506.956 386.423 506.672L406.537 493.135L411.953 490.084C413.779 490.165 416.087 487.958 418.664 486.955C420.068 487.049 422.306 490.112 422.681 490.084L435.442 486.955L444.669 485.508L450.961 493.135C457.99 493.135 468.588 493.252 481.082 488.245L482 487.827V486.608V485.388Z" fill="#FEFEFE"/>
</g>
<g filter="url(#filter1_d_418_1132)">
<path d="M482 50.6382V51.911L481.716 52.2223L477.665 50.4055C476.626 50.4903 475.947 50.458 475.623 50.3106L470.264 53.4548L465.521 55.0072L463.768 53.584C461.47 53.9797 460.045 53.9231 459.491 53.4124C458.062 54.1169 457.37 54.1371 457.416 53.473L455.65 54.6095C454.883 54.2623 454.201 54.1916 453.605 54.3935L452.802 53.907C452.179 54.2663 451.576 54.3148 450.996 54.0523L446.45 55.1606C445.467 55.1727 444.041 55.1283 442.17 55.0253L438.607 53.687L436.52 54.2441C436.615 53.8323 435.982 53.2348 434.622 52.4576C433.445 52.72 432.639 52.8048 432.197 52.7059L428.618 48.4708L424.357 50.5399L422.712 49.8152C422.279 49.8213 420.329 52.4253 419.959 52.4576L415.499 53.5234L407.306 49.3994L405.71 48.5959L405.762 45.455C404.812 45.4186 404.064 45.4731 403.517 45.6205L400.974 46.6459L400.679 46.4945L399.145 43.5675C397.041 43.9369 395.684 44.1004 395.074 44.0601L391.417 40.1581L390.664 34.4695C390.006 34.6129 389.606 34.6411 389.468 34.5563L388.821 33.8001C386.462 33.5127 385.263 33.4501 384.798 33.222L384.096 31.8009C384.185 32.4428 379.839 33.656 371.062 35.4445C369.84 33.8902 367.054 32.5418 362.702 31.4033C361.483 31.379 357.775 34.625 356.258 34.6654L349.556 33.22L340.971 40.1581L335.493 42.1342L330.759 47.7905C330.012 47.8591 329.137 47.7925 328.131 47.5907C325.263 48.1195 322.611 48.2952 320.176 48.1135L315.08 45.9677L306.182 55.8512C305.435 55.4111 304.009 55.183 301.911 55.1709C300.682 55.292 297.592 47.5918 295.055 48.6839L292.843 48.4921L290.524 47.6364L289.786 47.6303C289.786 47.6303 286.352 49.1016 286.12 49.6728C286.12 49.6728 282.374 48.3872 282.554 48.6839L278.081 53.9453H274.288L269.82 59.4341L260.279 62.4882L255.739 65.1944L251.781 65.1659C251.479 65.1033 250.784 65.1134 249.693 65.1942C246.455 65.7917 244.39 66.0581 243.502 65.9915L231.126 62.6325L225.3 64.5018L219.931 61.9583L210.315 64.5018L200.596 62.6325C200.596 62.6325 196.642 62.3631 194.217 60.3404L190.913 62.4882C188.305 61.17 186.554 59.43 185.663 57.268L182.34 57.9221L180.681 57.7565C178.806 58.2531 176.332 58.4731 173.258 58.4186L169.522 59.5107C168.289 59.1494 165.448 59.5148 160.994 60.6068C160.329 60.629 159.306 60.5422 157.923 60.3464C154.338 62.3449 152.269 63.3401 151.719 63.336C151.558 63.3582 151.339 63.3804 151.057 63.4026L146.552 58.4186L135.845 56.277C134.806 56.1821 133.888 55.8228 133.088 55.201C129.67 55.7441 120.648 60.284 116.25 58.6246L110.403 59.8661L108.312 58.6246C107.797 58.5762 106.224 52.0781 103.773 52.5061C103.192 52.5323 101.714 52.4132 99.3382 52.1508L96.3263 50.33C90.6761 52.0882 88.0575 52.2921 88.4671 50.9416L83.3019 52.383L78.8121 40.9542C71.687 42.6619 54.3634 40.4651 54.3634 40.4651C52.9214 40.5398 49.4112 44.2821 48.3952 43.6059L44.4529 40.4651L38.3665 36.4539L21.3437 39.6886C18.1122 39.6139 14.6021 39.9187 10.8101 40.605C10.4005 40.3446 7.91292 40.0883 3.34424 39.838C0.814095 41.5276 -1.73247 39.9712 -12.2201 40.605L-15.2876 38.7481L-19.299 35.4214C-19.9447 35.5567 -23.2124 31.5474 -23.6188 31.4102L-24.7791 29.2744L-27.1125 29.0908C-29.6394 27.4092 -31.9926 26.5089 -34.1655 26.3898L-37.8329 23.6606C-39.2225 23.5597 -45.522 33.7398 -53.1714 37.8517L-61.9021 34.6905C-61.9021 34.6905 -67.7389 38.5775 -70.3968 39.8634C-75.018 37.974 -80.3702 40.708 -84.1097 40.9179L-88.5663 44.2104H-97.5328L-109.331 49.6344L-114.256 54.7214L-122 59.0387L-122 56.4931L-122 54.9657L-122 53.4384L-122 49.62L-118.583 46.6904L-102.752 37.1443H-96.4024C-94.8292 37.1867 -91.0607 30.9349 -91.0607 30.9349C-85.6203 31.3609 -83.9688 28.0463 -81.2944 28.9163C-74.1792 27.4669 -70.561 26.8129 -70.4463 26.9542L-61.8532 26.4616L-55.1706 24.8386L-53.1714 27.2004L-46.3782 23.334L-41.6588 17.5864L-36.4676 15C-36.4676 15 -32.2528 15.1611 -31.8319 15.1611L-5.79308 31.4252C3.89816 31.4978 12.1015 31.2112 18.8168 30.5652L42.2125 28.2898L51.2306 35.4214L66.75 34.1447L69.1818 34.1851L74.1515 36.128C76.5506 35.6051 78.1042 35.3689 78.8121 35.4214L86.2056 41.8476C93.0455 40.8726 97.1488 40.4386 98.5122 40.5476L121.395 52.5364L124.214 52.5061C127.078 52.3365 135.169 42.7683 137.873 42.1829C137.873 42.1829 145.988 49.8207 147.695 49.53C149.187 49.2393 151.649 51.6051 153.583 51.8615L165.949 49.53C166.984 50.2022 172.907 49.7819 178.879 51.4332L185.305 47.5517L196.358 51.8615L208.313 56.277L224.252 54.6096L240.734 59.4341L248.302 58.8427L256.734 55.524H261.51C263.951 55.3363 269.346 47.8486 270.431 47.9556L276.053 45.9677L291.348 38.6565L298.605 42.5137C299.824 42.6449 306.182 45.9677 306.182 45.9677C306.182 45.9677 311.355 40.1863 312.545 40.1581L323.031 38.6565C324.958 38.5858 330.759 34.4695 330.759 34.4695C331.283 34.4978 331.88 34.4796 332.545 34.411L343.213 27.9906H355.118L362.702 20.3985L372.945 25.4897L385.725 23.055L397.272 35.4445H405.71L412.372 45.455C414.257 45.3682 418.454 41.2724 418.454 41.2724C419.903 41.1714 425.375 38.6068 422.365 38.7349L434.622 43.5675L451.8 45.5999L471.724 45.455L480.23 39.9389L482 40.7104V47.329V50.6382Z" fill="#FEFEFE"/>
</g>
<defs>
<filter id="filter0_d_418_1132" x="-152" y="423" width="664" height="106" filterUnits="userSpaceOnUse" color-interpolation-filters="sRGB">
<feFlood flood-opacity="0" result="BackgroundImageFix"/>
<feColorMatrix in="SourceAlpha" type="matrix" values="0 0 0 0 0 0 0 0 0 0 0 0 0 0 0 0 0 0 127 0" result="hardAlpha"/>
<feOffset dy="-20"/>
<feGaussianBlur stdDeviation="15"/>
<feComposite in2="hardAlpha" operator="out"/>
<feColorMatrix type="matrix" values="0 0 0 0 0 0 0 0 0 0 0 0 0 0 0 0 0 0 0.25 0"/>
<feBlend mode="normal" in2="BackgroundImageFix" result="effect1_dropShadow_418_1132"/>
<feBlend mode="normal" in="SourceGraphic" in2="effect1_dropShadow_418_1132" result="shape"/>
</filter>
<filter id="filter1_d_418_1132" x="-152" y="0" width="664" height="111.002" filterUnits="userSpaceOnUse" color-interpolation-filters="sRGB">
<feFlood flood-opacity="0" result="BackgroundImageFix"/>
<feColorMatrix in="SourceAlpha" type="matrix" values="0 0 0 0 0 0 0 0 0 0 0 0 0 0 0 0 0 0 127 0" result="hardAlpha"/>
<feOffset dy="15"/>
<feGaussianBlur stdDeviation="15"/>
<feComposite in2="hardAlpha" operator="out"/>
<feColorMatrix type="matrix" values="0 0 0 0 0 0 0 0 0 0 0 0 0 0 0 0 0 0 0.25 0"/>
<feBlend mode="normal" in2="BackgroundImageFix" result="effect1_dropShadow_418_1132"/>
<feBlend mode="normal" in="SourceGraphic" in2="effect1_dropShadow_418_1132" result="shape"/>
</filter>
</defs>
</svg>
