<svg xmlns="http://www.w3.org/2000/svg" width="1440" height="155" viewBox="0 0 1440 155" fill="none">
  <g filter="url(#filter0_d_279_146)">
    <path d="M1440 75.9872V72.4976V70.005L1431.8 73.2688C1429.4 73.1081 1427.83 73.1693 1427.08 73.4485L1417.53 80.4637L1406.58 77.5222L1402.52 80.2189C1397.21 79.4692 1393.92 79.5763 1392.64 80.544C1389.34 79.2091 1386.24 72.8671 1386.35 74.1256L1382.26 71.9721C1380.49 72.63 1378.4 63.6181 1377.02 63.2356L1375.16 64.1575C1373.72 63.4766 1372.33 63.3848 1370.99 63.8821L1358.98 55.3905C1356.71 55.3675 1353.42 55.4517 1349.09 55.6468L1340.86 58.1828L1336.03 57.127C1336.25 57.9074 1334.79 59.0396 1331.65 60.5122C1328.93 60.015 1327.07 59.8543 1326.04 60.0417L1317.77 68.0667L1307.93 64.146L1304.13 65.5192C1303.13 65.5077 1302.19 65.4695 1301.33 65.4083L1281.83 61.2581L1262.89 69.0727L1259.21 70.595L1259.33 76.5468C1257.13 76.6157 1255.4 76.5124 1254.14 76.2332L1248.26 74.29L1247.58 74.5769L1244.04 80.1232C1239.17 79.4233 1236.04 79.1134 1234.63 79.1899L1226.18 86.5837L1224.44 97.3627C1222.92 97.0912 1221.99 97.0376 1221.67 97.1983L1220.18 98.6312C1214.73 99.1757 1211.96 99.2944 1210.88 99.7266L1209.26 102.419C1209.46 101.203 1199.42 98.9042 1179.14 95.5152C1176.31 98.4605 1169.88 101.016 1159.82 103.173C1157 103.219 1148.43 97.0682 1144.93 96.9917L1129.44 99.7304L1109.6 86.5837L1096.94 82.8392L1086 72.1212C1084.27 71.9912 1082.25 72.1174 1079.93 72.4999C1073.3 71.4978 1067.17 71.165 1061.55 71.5092L1049.77 75.5753L1029.21 56.8473C1027.48 57.6812 1024.18 58.1134 1019.34 58.1363C1016.5 57.9068 1012.15 56.7593 1006.29 54.69L1001.18 55.0533L994.783 56.5642C994.208 56.6599 993.64 56.6637 993.079 56.5757C984.847 53.9938 980.462 52.1578 979.924 51.0753C972.161 51.366 968.495 51.2283 968.911 50.666L966.192 52.307L954.764 51.3124L951.742 52.9304C951.356 52.9687 950.864 52.9457 950.258 52.8578L927.901 64.5897L901.619 66.1542C900.923 66.2727 899.317 66.2536 896.795 66.1006C889.312 64.9684 884.54 64.4635 882.488 64.5897L853.89 70.9546L828.018 72.2322H805.5L780 90.0493L772.492 118.981L764.859 114.911C764.859 114.911 752.06 116.456 750 120.553H741.213V123.877C736.881 122.936 731.163 122.519 724.059 122.622L715.424 120.553C712.577 121.238 706.01 120.545 695.718 118.476C694.18 118.434 691.817 118.598 688.621 118.969C680.335 115.182 675.556 113.297 674.284 113.304C673.913 113.262 673.405 113.22 672.754 113.178L661.5 118.259L631.633 102.829C629.232 103.008 627.111 103.689 625.263 104.867C617.364 103.839 600.664 102.821 590.5 105.965L580 105.085L574 114.477C572.811 114.569 562.438 106.103 556.773 105.292C555.432 105.242 552.017 105.468 546.526 105.965L539.565 109.415L520 114.477L507.5 110.41H491.934C475.469 107.174 464.51 110.505 448.499 105.085C445.166 104.944 437.055 97.8523 434.707 99.1337L425.597 105.085L411.531 112.686L378.585 96.9994C371.118 97.1409 363.006 96.5633 354.243 95.2628C353.297 95.7562 347.548 96.242 336.99 96.7163C331.143 93.5147 325.259 96.4639 301.023 95.2628L293.934 98.7814L284.664 105.085C283.172 104.829 275.62 112.426 274.681 112.686L270.081 98.725L261.789 91.8164C255.949 95.0027 250.511 96.7087 245.49 96.9343L237.015 102.106C233.804 102.297 219.246 83.0071 201.569 75.2155L181.393 81.2056C181.393 81.2056 169.905 82.0489 163.763 79.6123C153.084 83.1926 140.716 78.0119 132.074 77.6141L112.92 78.9182L89.9201 82.009L58.3699 82.1364L46.9879 72.4971L6.78001 66.8771H0V75.4887L4.57764e-05 77.9813V81.471L33.9999 91.1588L79.9999 98.725L87.5 115.682C91.1354 115.602 109 112.686 109 112.686C121.572 111.879 120 116.97 136 115.682C152 109.787 167.5 124.184 167.5 124.184L178 115.682L197.5 112.686L205 116.97L212 109.787L221 116.97H237.015H258.5L270.081 134.512C293.34 129.111 305.21 114.04 324.5 112.686C346.896 112.548 352.481 113.253 368 114.477L424.039 128.189C427.061 128.526 434.43 126.935 446.154 123.419L466.088 125.233L471.708 125.156C475.078 125.026 479.425 126.384 483.5 125.233C489.044 126.223 492.013 124.674 493.649 124.575L517 128.934C517 128.934 541.985 124.64 545.135 124.433L574 123.419L597 114.477L606.5 112.981C613.119 113.303 630.151 117.15 636.4 118.259C651.562 124.326 661.12 127.639 665.066 128.189C668.512 128.74 680.531 130.417 685 129.931L706 140.941C708.393 139.667 724.305 140.463 738.105 137.335L752.956 144.689L782.5 131.427L789 104.506L812 90.0493L839.23 93.5917L877.318 84.4499L894.806 85.5706L913.3 86.5384L918.276 85.3449C923.918 85.7007 927.993 85.7734 930.5 85.5706L945.5 75.5753L966.192 68.6128L991.409 71.9721L1008.88 80.3833C1011.7 80.1347 1017.54 80.3719 1026.39 81.1024L1044.41 91.7279L1063.84 97.0458C1068.29 97.1796 1075.93 96.648 1086.76 95.4469C1087.97 95.3933 1089.35 95.4278 1090.89 95.5578L1113.89 110.139L1141.95 124.533L1159.82 119.491C1177.09 116.714 1193.93 120.073 1212.13 119.491L1260.09 91.8208L1273 85.5859C1277.35 85.7504 1282.86 81.2402 1289 79.1899C1292.35 79.3812 1297.68 85.6433 1298.58 85.5859L1329 79.1899L1351 76.2332L1366 91.8208C1382.76 91.8208 1408.02 92.0617 1437.81 81.8259L1440 80.9725V78.4798V75.9872Z" fill="#FEFEFE"/>
  </g>
  <defs>
    <filter id="filter0_d_279_146" x="-30" y="0.666016" width="1500" height="154.023" filterUnits="userSpaceOnUse" color-interpolation-filters="sRGB">
      <feFlood flood-opacity="0" result="BackgroundImageFix"/>
      <feColorMatrix in="SourceAlpha" type="matrix" values="0 0 0 0 0 0 0 0 0 0 0 0 0 0 0 0 0 0 127 0" result="hardAlpha"/>
      <feOffset dy="-20"/>
      <feGaussianBlur stdDeviation="15"/>
      <feComposite in2="hardAlpha" operator="out"/>
      <feColorMatrix type="matrix" values="0 0 0 0 0 0 0 0 0 0 0 0 0 0 0 0 0 0 0.25 0"/>
      <feBlend mode="normal" in2="BackgroundImageFix" result="effect1_dropShadow_279_146"/>
      <feBlend mode="normal" in="SourceGraphic" in2="effect1_dropShadow_279_146" result="shape"/>
    </filter>
  </defs>
</svg>