<svg width="360" height="571" viewBox="0 0 360 571" fill="none" xmlns="http://www.w3.org/2000/svg">
<ellipse cx="179" cy="251.5" rx="304" ry="305.5" fill="#2B465B"/>
<path d="M499.5 258.5C499.5 430.225 356.715 569.5 180.5 569.5C4.2852 569.5 -138.5 430.225 -138.5 258.5C-138.5 86.7749 4.2852 -52.5 180.5 -52.5C356.715 -52.5 499.5 86.7749 499.5 258.5Z" stroke="#2B465B" stroke-width="3"/>
<path fill-rule="evenodd" clip-rule="evenodd" d="M-24.4619 478.319C-14.6858 463.649 1.90258 454 20.7215 454C50.7842 454 75.1548 478.624 75.1548 509C75.1548 518.933 72.5488 528.251 67.9901 536.294C67.677 536.17 67.3643 536.046 67.0518 535.921C71.5698 527.997 74.1548 518.805 74.1548 509C74.1548 479.167 50.2222 455 20.7215 455C2.19934 455 -14.1279 464.527 -23.7149 479.001C-23.9643 478.774 -24.2132 478.546 -24.4619 478.319Z" fill="#576589"/>
<path fill-rule="evenodd" clip-rule="evenodd" d="M-27.6771 475.328C-17.1029 459.447 0.84914 449 21.2162 449C53.7385 449 80.1031 475.639 80.1031 508.5C80.1031 519.229 77.2926 529.295 72.3749 537.987C72.0592 537.868 71.7439 537.748 71.4287 537.628C76.3106 529.052 79.1031 519.107 79.1031 508.5C79.1031 476.182 53.1765 450 21.2162 450C1.14063 450 -16.5543 460.33 -26.9383 476.023C-27.1849 475.792 -27.4312 475.56 -27.6771 475.328Z" fill="#576589" fill-opacity="0.75"/>
<path fill-rule="evenodd" clip-rule="evenodd" d="M-30.3923 472.734C-19.1661 455.429 0.198936 444 22.206 444C56.9147 444 85.0516 472.43 85.0516 507.5C85.0516 519.172 81.935 530.108 76.4967 539.506C76.178 539.391 75.8596 539.276 75.5414 539.16C80.9494 529.876 84.0516 519.055 84.0516 507.5C84.0516 472.972 56.3526 445 22.206 445C0.485916 445 -18.6254 456.318 -29.6588 473.441C-29.9037 473.206 -30.1482 472.97 -30.3923 472.734Z" fill="#576589" fill-opacity="0.5"/>
<path fill-rule="evenodd" clip-rule="evenodd" d="M-34 469.186C-21.8156 450.973 -1.18872 439 22.2058 439C59.6475 439 90 469.668 90 507.5C90 519.74 86.8228 531.23 81.2563 541.174C80.9355 541.065 80.615 540.955 80.2947 540.845C85.835 531.009 89 519.629 89 507.5C89 470.211 59.0855 440 22.2058 440C-0.907867 440 -21.2857 451.867 -33.278 469.905C-33.5191 469.666 -33.7597 469.426 -34 469.186Z" fill="#576589" fill-opacity="0.25"/>
<ellipse cx="21.7111" cy="508" rx="48.4951" ry="49" fill="#576589"/>
<path fill-rule="evenodd" clip-rule="evenodd" d="M34.2764 460.7C40.1386 468.509 49.0244 473.253 58.5505 476.303C58.8903 476.707 59.2237 477.117 59.5506 477.533C56.963 476.752 54.3779 475.845 51.885 474.786C47.3711 472.867 43.411 470.562 40.121 467.932C37.317 465.692 34.9146 463.153 32.9513 460.358C33.3954 460.466 33.8371 460.58 34.2764 460.7ZM21.0176 459.003C21.2005 459.001 21.3837 459 21.5671 459C21.6872 459 21.8072 459 21.9271 459.001C22.7466 461.464 23.7522 463.85 25.0415 466.101C33.2106 480.365 50.4193 485.855 66.1291 488.638C66.2645 488.956 66.3966 489.275 66.5254 489.596C59.9769 488.458 52.0697 486.668 44.9234 483.632C40.4072 481.713 36.4494 479.407 33.1594 476.778C29.4879 473.847 26.505 470.401 24.2946 466.537C22.924 464.144 21.8694 461.611 21.0176 459.003ZM12.0192 459.949C12.3002 459.893 12.5821 459.838 12.8648 459.787C13.9667 465.076 15.4197 470.301 18.0822 474.949C27.3356 491.107 48.1878 496.004 65.3218 498.468L66.8063 498.68C67.6192 498.797 68.4345 498.913 69.2517 499.031C69.3067 499.332 69.359 499.634 69.4086 499.936C68.4947 499.803 67.5857 499.673 66.683 499.544L65.2008 499.332C57.9926 498.293 47.3292 496.457 37.9665 492.48C33.4526 490.561 29.4925 488.256 26.2025 485.626C22.5309 482.693 19.5481 479.249 17.3377 475.385C14.6119 470.626 13.1358 465.315 12.0192 459.949ZM3.83822 462.378C4.10952 462.27 4.38201 462.165 4.65567 462.062C4.68797 462.239 4.7202 462.416 4.7524 462.593C6.07631 469.863 7.44675 477.377 11.123 483.795C20.3764 499.952 41.2309 504.852 58.3626 507.314L59.847 507.526L59.9115 507.536C63.2659 508.016 66.663 508.503 70.0509 509.068C70.0446 509.363 70.0358 509.657 70.0244 509.951C66.5537 509.367 63.096 508.872 59.7261 508.39L58.2416 508.175C51.0334 507.139 40.37 505.303 31.0072 501.326C26.4934 499.407 22.5333 497.101 19.2433 494.472C15.5717 491.538 12.5888 488.095 10.3784 484.231C6.62774 477.682 5.24334 470.089 3.90547 462.747L3.90546 462.747C3.88307 462.624 3.86066 462.501 3.83822 462.378ZM-4.0378 466.379C-3.77889 466.216 -3.51835 466.055 -3.25621 465.897C-2.87906 467.749 -2.54123 469.604 -2.20686 471.442L-2.20666 471.443C-0.880484 478.714 0.490009 486.228 4.16373 492.645C13.4171 508.803 34.2716 513.701 51.4033 516.165L52.8878 516.377L52.89 516.377C58.1664 517.133 63.5526 517.904 68.8431 518.966C68.7781 519.253 68.7106 519.539 68.6406 519.825C63.3264 518.751 57.9482 517.981 52.7767 517.24L52.7668 517.238L51.2823 517.026C44.0741 515.99 33.4107 514.154 24.048 510.174C19.5341 508.256 15.5763 505.95 12.284 503.32C8.61244 500.389 5.62957 496.943 3.41918 493.08C-0.331512 486.53 -1.71592 478.94 -3.05379 471.597C-3.36882 469.867 -3.68681 468.122 -4.0378 466.379ZM-11.6271 472.277C-11.387 472.05 -11.1447 471.824 -10.9001 471.601C-10.2218 474.485 -9.68972 477.405 -9.16611 480.283L-9.16451 480.292C-7.83877 487.558 -6.46795 495.072 -2.79552 501.487C6.45789 517.644 27.31 522.542 44.4441 525.006L45.9285 525.218C52.4406 526.151 59.1188 527.107 65.5792 528.604C65.4521 528.881 65.3225 529.156 65.1905 529.43C58.7504 527.939 52.1259 526.991 45.8099 526.087L44.3254 525.872C37.1172 524.836 26.4538 523 17.091 519.023C12.5749 517.104 8.6171 514.798 5.3271 512.169C1.65552 509.235 -1.32735 505.789 -3.53775 501.928C-7.28843 495.379 -8.67284 487.788 -10.0107 480.446C-10.5039 477.738 -11.0042 474.991 -11.6271 472.277ZM-18.693 480.674C-18.4779 480.351 -18.2591 480.031 -18.0366 479.714C-17.2722 482.835 -16.6933 486.008 -16.1241 489.128L-16.123 489.134C-14.7991 496.403 -13.4287 503.92 -9.75244 510.337C-0.501364 526.495 20.3531 531.395 37.4848 533.856L38.9693 534.071L39.0142 534.078C45.9986 535.078 53.1746 536.105 60.0652 537.801C59.8687 538.06 59.6697 538.317 59.4682 538.571C52.6443 536.909 45.5756 535.896 38.8551 534.934L38.8483 534.933L37.3638 534.72C30.158 533.684 19.4922 531.848 10.1295 527.869C5.61561 525.952 1.65784 523.646 -1.63448 521.015C-5.30374 518.083 -8.2866 514.638 -10.4993 510.774C-14.2451 504.233 -15.6285 496.654 -16.967 489.32L-16.9723 489.292L-16.9723 489.292C-17.4927 486.435 -18.0212 483.534 -18.693 480.674ZM-24.7872 493.557C-24.6165 492.997 -24.4361 492.442 -24.2462 491.89C-23.8234 493.92 -23.4519 495.956 -23.0845 497.97L-23.0823 497.982C-21.7584 505.251 -20.3879 512.768 -16.7117 519.183C-7.45829 535.343 13.3939 540.241 30.5279 542.702L32.01 542.915C38.5655 543.853 45.2856 544.815 51.7817 546.329C51.4851 546.568 51.1857 546.804 50.8836 547.036C44.5654 545.596 38.0794 544.667 31.8891 543.781L30.4069 543.569C23.1987 542.53 12.5307 540.696 3.17255 536.717C-1.34364 534.798 -5.30141 532.492 -8.59373 529.863C-12.263 526.932 -15.2459 523.486 -17.4586 519.622C-21.2069 513.073 -22.5913 505.482 -23.9292 498.14L-23.9393 498.084L-23.9393 498.084C-24.2131 496.583 -24.4891 495.07 -24.7872 493.557ZM-17.4731 537.074C-18.3956 535.811 -19.2595 534.502 -20.0609 533.151C-9.69417 545.279 8.39567 549.371 23.5663 551.551L25.0507 551.763C29.5335 552.405 34.0927 553.058 38.6043 553.891C38.0563 554.098 37.5036 554.297 36.9465 554.485C32.9131 553.771 28.8806 553.194 24.9649 552.634L24.9641 552.634L24.9634 552.634L24.9297 552.629L23.4476 552.417C16.2394 551.381 5.57367 549.542 -3.78676 545.565C-8.30295 543.646 -12.2607 541.341 -15.553 538.711C-16.2156 538.182 -16.8558 537.636 -17.4731 537.074Z" fill="#2B465B"/>
<mask id="mask0_527_314" style="mask-type:luminance" maskUnits="userSpaceOnUse" x="18" y="526" width="29" height="28">
<path d="M18.742 526.017H46.4535V553.845H18.742V526.017Z" fill="white"/>
</mask>
<g mask="url(#mask0_527_314)">
<path d="M45.9721 539.28C32.4299 539.28 32.3142 539.676 32.3142 553.332C32.3142 539.676 32.3142 539.676 18.7757 539.676C32.3142 539.676 32.3142 539.676 32.3142 526.021C32.3142 539.676 32.4299 539.28 45.9721 539.28Z" fill="#2B465B"/>
</g>
<mask id="mask1_527_314" style="mask-type:luminance" maskUnits="userSpaceOnUse" x="-1" y="490" width="26" height="25">
<path d="M-0.0623169 490.081H24.554V514.8H-0.0623169V490.081Z" fill="white"/>
</mask>
<g mask="url(#mask1_527_314)">
<path d="M24.1265 501.863C12.0969 501.863 11.9941 502.214 11.9941 514.344C11.9941 502.214 11.9941 502.214 -0.0321655 502.214C11.9941 502.214 11.9941 502.214 11.9941 490.084C11.9941 502.214 12.0969 501.863 24.1265 501.863Z" fill="#2B465B"/>
</g>
<mask id="mask2_527_314" style="mask-type:luminance" maskUnits="userSpaceOnUse" x="21" y="466" width="21" height="20">
<path d="M21.7111 466.077H41.4419V485.89H21.7111V466.077Z" fill="white"/>
</mask>
<g mask="url(#mask2_527_314)">
<path d="M41.0993 475.52C31.4571 475.52 31.3748 475.802 31.3748 485.525C31.3748 475.802 31.3748 475.802 21.7352 475.802C31.3748 475.802 31.3748 475.802 31.3748 466.08C31.3748 475.802 31.4571 475.52 41.0993 475.52Z" fill="#2B465B"/>
</g>
<mask id="mask3_527_314" style="mask-type:luminance" maskUnits="userSpaceOnUse" x="59" y="502" width="17" height="16">
<path d="M59.3195 502.083H75.0664V517.896H59.3195V502.083Z" fill="white"/>
</mask>
<g mask="url(#mask3_527_314)">
<path d="M74.793 509.62C67.0977 509.62 67.0319 509.845 67.0319 517.604C67.0319 509.845 67.0319 509.845 59.3388 509.845C67.0319 509.845 67.0319 509.845 67.0319 502.085C67.0319 509.845 67.0977 509.62 74.793 509.62Z" fill="#2B465B"/>
</g>
<path fill-rule="evenodd" clip-rule="evenodd" d="M344.261 507.213C336.691 492.784 321.595 482.944 304.207 482.944C279.227 482.944 258.976 503.253 258.976 528.305C258.976 534.029 260.034 539.506 261.963 544.549C262.285 544.458 262.607 544.366 262.929 544.274C261.022 539.319 259.976 533.935 259.976 528.305C259.976 503.802 279.782 483.944 304.207 483.944C321.241 483.944 336.029 493.603 343.418 507.759C343.7 507.578 343.981 507.396 344.261 507.213Z" fill="#576589" fill-opacity="0.5"/>
<path fill-rule="evenodd" clip-rule="evenodd" d="M341.504 508.984C334.46 495.831 320.623 486.889 304.704 486.889C281.645 486.889 262.953 505.652 262.953 528.798C262.953 533.971 263.886 538.925 265.594 543.499C265.914 543.404 266.234 543.309 266.554 543.213C264.873 538.73 263.953 533.872 263.953 528.798C263.953 506.201 282.201 487.889 304.704 487.889C320.265 487.889 333.791 496.645 340.656 509.52C340.939 509.342 341.222 509.163 341.504 508.984Z" fill="#576589" fill-opacity="0.75"/>
<path fill-rule="evenodd" clip-rule="evenodd" d="M338.129 511.094C331.798 499.045 319.205 490.833 304.704 490.833C283.842 490.833 266.929 507.83 266.929 528.798C266.929 533.57 267.805 538.137 269.405 542.344C269.724 542.245 270.043 542.145 270.361 542.045C268.79 537.933 267.929 533.467 267.929 528.798C267.929 508.378 284.399 491.833 304.704 491.833C318.842 491.833 331.121 499.854 337.275 511.619C337.56 511.444 337.845 511.269 338.129 511.094Z" fill="#576589"/>
<path fill-rule="evenodd" clip-rule="evenodd" d="M347 505.412C338.899 489.723 322.554 479 303.71 479C276.808 479 255 500.854 255 527.812C255 534.071 256.176 540.054 258.317 545.553C258.641 545.466 258.965 545.379 259.289 545.29C257.166 539.877 256 533.981 256 527.812C256 501.404 277.362 480 303.71 480C322.205 480 338.244 490.547 346.161 505.968C346.441 505.783 346.721 505.598 347 505.412Z" fill="#576589" fill-opacity="0.25"/>
<ellipse cx="34.3876" cy="34.1112" rx="34.3876" ry="34.1112" transform="matrix(-1 0 0 1 339.151 494.778)" fill="#576589"/>
<path fill-rule="evenodd" clip-rule="evenodd" d="M295.88 495.954C291.717 501.42 285.39 504.733 278.608 506.861C278.368 507.142 278.133 507.427 277.902 507.716C279.747 507.17 281.59 506.536 283.367 505.795C286.568 504.459 289.376 502.854 291.709 501.024C293.708 499.455 295.42 497.676 296.817 495.717C296.503 495.792 296.19 495.871 295.88 495.954ZM305.264 494.78C305.131 494.778 304.998 494.777 304.865 494.777C304.783 494.777 304.701 494.778 304.619 494.778C304.037 496.503 303.321 498.173 302.402 499.748C296.607 509.682 284.397 513.503 273.253 515.44C273.158 515.661 273.064 515.883 272.973 516.107C277.619 515.315 283.232 514.068 288.303 511.953C291.506 510.617 294.312 509.012 296.645 507.181C299.249 505.141 301.364 502.742 302.931 500.052C303.908 498.378 304.658 496.605 305.264 494.78ZM311.641 495.44C311.442 495.4 311.242 495.362 311.042 495.326C310.26 499.018 309.229 502.665 307.336 505.908C300.775 517.156 285.989 520.566 273.839 522.281L272.786 522.429C272.208 522.51 271.628 522.591 271.047 522.674C271.008 522.883 270.971 523.093 270.936 523.303C271.586 523.211 272.232 523.12 272.874 523.03L273.925 522.882C279.036 522.159 286.597 520.881 293.237 518.113C296.437 516.777 299.245 515.172 301.578 513.341C304.182 511.299 306.297 508.902 307.864 506.212C309.802 502.891 310.849 499.184 311.641 495.44ZM317.441 497.131C317.249 497.056 317.056 496.982 316.862 496.911C316.837 497.043 316.813 497.175 316.788 497.307C315.85 502.367 314.878 507.599 312.271 512.066C305.71 523.314 290.922 526.725 278.774 528.439L277.721 528.587L277.675 528.593C275.297 528.928 272.888 529.267 270.486 529.66C270.491 529.865 270.497 530.07 270.505 530.274C272.966 529.868 275.418 529.524 277.807 529.188L278.86 529.039C283.971 528.317 291.532 527.039 298.171 524.271C301.372 522.935 304.18 521.33 306.513 519.499C309.117 517.457 311.232 515.06 312.799 512.37C315.459 507.811 316.44 502.525 317.389 497.414C317.406 497.319 317.424 497.225 317.441 497.131ZM323.027 499.917C322.843 499.804 322.658 499.692 322.472 499.582C322.203 500.879 321.962 502.179 321.723 503.467L321.723 503.467L321.723 503.467L321.723 503.467L321.723 503.467C320.783 508.529 319.811 513.76 317.206 518.228C310.644 529.476 295.856 532.885 283.708 534.6L282.656 534.748L282.654 534.748L282.654 534.748C278.915 535.274 275.098 535.811 271.348 536.549C271.394 536.749 271.442 536.948 271.492 537.147C275.258 536.4 279.07 535.864 282.735 535.349L282.742 535.348L283.794 535.2C288.906 534.479 296.467 533.2 303.106 530.43C306.307 529.095 309.113 527.489 311.448 525.659C314.051 523.618 316.166 521.219 317.734 518.53C320.393 513.97 321.375 508.686 322.324 503.575C322.549 502.363 322.776 501.139 323.027 499.917ZM328.408 504.026C328.238 503.867 328.066 503.71 327.893 503.555C327.409 505.57 327.031 507.61 326.658 509.621L326.657 509.627C325.717 514.686 324.745 519.917 322.141 524.382C315.579 535.631 300.793 539.04 288.643 540.755L287.591 540.903C282.977 541.551 278.246 542.217 273.668 543.258C273.759 543.45 273.851 543.642 273.944 543.832C278.507 542.796 283.2 542.136 287.675 541.508L288.727 541.358C293.839 540.637 301.4 539.359 308.039 536.59C311.242 535.254 314.048 533.649 316.381 531.819C318.984 529.776 321.1 527.378 322.667 524.69C325.327 520.13 326.308 514.846 327.257 509.735C327.608 507.842 327.964 505.922 328.408 504.026ZM333.418 509.873C333.266 509.648 333.111 509.426 332.953 509.205C332.409 511.384 331.997 513.6 331.592 515.779L331.591 515.783C330.652 520.843 329.681 526.076 327.074 530.544C320.514 541.792 305.726 545.203 293.578 546.917L292.525 547.066L292.493 547.071H292.493L292.493 547.071C287.547 547.766 282.465 548.48 277.585 549.658C277.724 549.838 277.865 550.017 278.009 550.194C282.842 549.04 287.847 548.336 292.606 547.666L292.611 547.666L293.664 547.518C298.773 546.797 306.336 545.518 312.976 542.748C316.176 541.414 318.983 539.809 321.317 537.977C323.919 535.936 326.034 533.537 327.603 530.848C330.259 526.294 331.24 521.018 332.19 515.913L332.193 515.893L332.193 515.893C332.564 513.897 332.94 511.871 333.418 509.873ZM337.738 518.846C337.617 518.456 337.489 518.069 337.355 517.685C337.054 519.103 336.789 520.526 336.527 521.934L336.526 521.942C335.587 527.003 334.615 532.236 332.008 536.702C325.447 547.952 310.661 551.361 298.511 553.075L297.46 553.222C292.821 553.874 288.065 554.543 283.468 555.593C283.678 555.76 283.891 555.924 284.106 556.085C288.577 555.086 293.166 554.441 297.546 553.825L298.597 553.678C303.708 552.955 311.273 551.678 317.909 548.908C321.111 547.572 323.918 545.967 326.252 544.136C328.854 542.096 330.969 539.697 332.538 537.007C335.196 532.448 336.178 527.164 337.126 522.053L337.134 522.014C337.329 520.963 337.526 519.904 337.738 518.846ZM332.486 549.212C333.143 548.335 333.758 547.427 334.328 546.489C326.968 554.883 314.178 557.721 303.448 559.234L302.395 559.382C299.233 559.826 296.017 560.279 292.835 560.854C293.225 560.999 293.618 561.136 294.015 561.267C296.857 560.775 299.698 560.376 302.456 559.989L302.481 559.985L303.532 559.837C308.643 559.116 316.206 557.836 322.843 555.068C326.046 553.732 328.852 552.127 331.187 550.296C331.635 549.945 332.068 549.583 332.486 549.212Z" fill="#2B465B"/>
<mask id="mask4_527_314" style="mask-type:luminance" maskUnits="userSpaceOnUse" x="287" y="541" width="20" height="20">
<path d="M306.869 541.459H287.219V560.831H306.869V541.459Z" fill="white"/>
</mask>
<g mask="url(#mask4_527_314)">
<path d="M287.56 550.692C297.162 550.692 297.244 550.968 297.244 560.474C297.244 550.968 297.244 550.968 306.844 550.968C297.244 550.968 297.244 550.968 297.244 541.462C297.244 550.968 297.162 550.692 287.56 550.692Z" fill="#2B465B"/>
</g>
<mask id="mask5_527_314" style="mask-type:luminance" maskUnits="userSpaceOnUse" x="313" y="507" width="19" height="18">
<path d="M331.106 507.679H313.651V524.888H331.106V507.679Z" fill="white"/>
</mask>
<g mask="url(#mask5_527_314)">
<path d="M313.954 515.881C322.484 515.881 322.557 516.126 322.557 524.57C322.557 516.126 322.557 516.126 331.085 516.126C322.557 516.126 322.557 516.126 322.557 507.682C322.557 516.126 322.484 515.881 313.954 515.881Z" fill="#2B465B"/>
</g>
<mask id="mask6_527_314" style="mask-type:luminance" maskUnits="userSpaceOnUse" x="290" y="499" width="15" height="15">
<path d="M304.763 499.732H290.772V513.525H304.763V499.732Z" fill="white"/>
</mask>
<g mask="url(#mask6_527_314)">
<path d="M291.015 506.306C297.852 506.306 297.911 506.502 297.911 513.271C297.911 506.502 297.911 506.502 304.746 506.502C297.911 506.502 297.911 506.502 297.911 499.734C297.911 506.502 297.852 506.306 291.015 506.306Z" fill="#2B465B"/>
</g>
<mask id="mask7_527_314" style="mask-type:luminance" maskUnits="userSpaceOnUse" x="266" y="524" width="13" height="12">
<path d="M278.095 524.797H266.929V535.805H278.095V524.797Z" fill="white"/>
</mask>
<g mask="url(#mask7_527_314)">
<path d="M267.123 530.044C272.58 530.044 272.626 530.201 272.626 535.603C272.626 530.201 272.626 530.201 278.082 530.201C272.626 530.201 272.626 530.201 272.626 524.799C272.626 530.201 272.58 530.044 267.123 530.044Z" fill="#2B465B"/>
</g>
<mask id="mask8_527_314" style="mask-type:luminance" maskUnits="userSpaceOnUse" x="302" y="529" width="12" height="12">
<path d="M313.882 529.377H302.716V540.385H313.882V529.377Z" fill="white"/>
</mask>
<g mask="url(#mask8_527_314)">
<path d="M302.91 534.624C308.367 534.624 308.413 534.78 308.413 540.182C308.413 534.78 308.413 534.78 313.868 534.78C308.413 534.78 308.413 534.78 308.413 529.379C308.413 534.78 308.367 534.624 302.91 534.624Z" fill="#2B465B"/>
</g>
<mask id="mask9_527_314" style="mask-type:luminance" maskUnits="userSpaceOnUse" x="322" y="540" width="14" height="13">
<path d="M335.521 540.226H322.598V552.966H335.521V540.226Z" fill="white"/>
</mask>
<g mask="url(#mask9_527_314)">
<path d="M322.822 546.298C329.137 546.298 329.191 546.48 329.191 552.731C329.191 546.48 329.191 546.48 335.505 546.48C329.191 546.48 329.191 546.48 329.191 540.228C329.191 546.48 329.137 546.298 322.822 546.298Z" fill="#2B465B"/>
</g>
</svg>
