<svg width="1440" height="1244" viewBox="0 0 1440 1244" fill="none" xmlns="http://www.w3.org/2000/svg">
<mask id="mask0_634_143" style="mask-type:luminance" maskUnits="userSpaceOnUse" x="-28" y="0" width="329" height="297">
<path d="M-28 0.587036H300.985V297H-28V0.587036Z" fill="white"/>
</mask>
<g mask="url(#mask0_634_143)">
<path d="M300.989 297H299.402L270.341 225.903C264.994 212.822 259.469 199.297 249.85 188.604C229.721 166.23 196.36 161.518 166.922 157.365L164.392 157.008C152.108 155.267 133.926 152.177 117.965 145.494C110.271 142.269 103.524 138.394 97.9117 133.975C91.6567 129.049 86.5719 123.258 82.7999 116.765C76.4061 105.759 74.0501 93.0029 71.7695 80.6636C69.7982 70.014 67.7635 59.0034 63.1466 49.1867C45.4885 11.6571 -1.28666 3.92672 -28 2.69715V1.17804C-13.7053 1.75316 3.50865 4.05761 19.9928 10.3244C30.103 14.1718 38.9083 19.1615 46.1548 25.1744C54.1073 31.7586 60.275 39.6278 64.4754 48.564C69.1715 58.5552 71.2261 69.6491 73.2132 80.3979C75.4701 92.6142 77.8062 105.247 84.0731 116.032C99.8433 143.185 135.394 151.415 164.598 155.552L167.128 155.909C182.339 158.059 198.066 160.276 212.65 164.81C229.249 169.97 241.775 177.431 250.941 187.624C260.73 198.504 266.299 212.152 271.701 225.344L300.989 297Z" fill="#2B465B"/>
</g>
<mask id="mask1_634_143" style="mask-type:luminance" maskUnits="userSpaceOnUse" x="-28" y="16" width="312" height="281">
<path d="M-28 16.8332H283.723V297H-28V16.8332Z" fill="white"/>
</mask>
<g mask="url(#mask1_634_143)">
<path d="M283.049 297H281.462L258.481 240.769C253.135 227.692 247.606 214.163 237.987 203.474C217.862 181.095 184.497 176.387 155.059 172.231L152.532 171.874C140.244 170.132 122.067 167.047 106.106 160.363C98.4114 157.139 91.6607 153.264 86.0523 148.845C79.7934 143.915 74.7085 138.124 70.9405 131.635C64.5468 120.625 62.1868 107.869 59.9061 95.5295C57.9388 84.8838 55.9041 73.8732 51.2833 64.0565C36.0248 31.6197 -0.989182 21.4421 -27.9921 18.4753V16.8927C-16.5214 18.1024 -3.99567 20.5655 8.13738 25.1863C18.2476 29.0337 27.0529 34.0233 34.3034 40.0363C42.2519 46.6165 48.4196 54.4897 52.6199 63.4259C57.3161 73.4131 59.3707 84.511 61.3578 95.2558C63.6147 107.472 65.9508 120.105 72.2177 130.889C87.9799 158.055 123.53 166.285 152.734 170.422L155.265 170.779C170.468 172.925 186.203 175.146 200.787 179.679C217.386 184.836 229.908 192.3 239.078 202.49C248.867 213.374 254.436 227.018 259.834 240.214L283.049 297Z" fill="#2B465B"/>
</g>
<mask id="mask2_634_143" style="mask-type:luminance" maskUnits="userSpaceOnUse" x="-28" y="33" width="294" height="264">
<path d="M-28 33.0793H265.446V297H-28V33.0793Z" fill="white"/>
</mask>
<g mask="url(#mask2_634_143)">
<path d="M265.109 297H263.522L246.61 255.639C241.263 242.558 235.738 229.033 226.12 218.343C205.995 195.965 172.63 191.257 143.191 187.1L140.665 186.744C128.377 185.002 110.195 181.913 94.2388 175.229C86.5401 172.005 79.7934 168.129 74.185 163.711C67.9261 158.785 62.8412 152.994 59.0732 146.501C52.6794 135.494 50.3195 122.739 48.0388 110.399C46.0675 99.7497 44.0328 88.7431 39.416 78.9264C26.2993 51.035 -2.90097 39.604 -28 35.0625V33.4482C-20.0197 34.8761 -11.7895 36.9942 -3.7339 40.0601C6.37632 43.9115 15.1816 48.8972 22.4321 54.9141C30.3806 61.4943 36.5483 69.3675 40.7487 78.2997C45.4488 88.2909 47.4994 99.3848 49.4865 110.134C51.7434 122.35 54.0796 134.983 60.3464 145.767C76.1205 172.921 111.667 181.155 140.875 185.288L143.402 185.649C158.613 187.795 174.343 190.012 188.923 194.545C205.523 199.706 218.048 207.166 227.214 217.36C237.003 228.243 242.576 241.888 247.974 255.084L265.109 297Z" fill="#2B465B"/>
</g>
<mask id="mask3_634_143" style="mask-type:luminance" maskUnits="userSpaceOnUse" x="-28" y="50" width="276" height="247">
<path d="M-28 50.3409H247.169V297H-28V50.3409Z" fill="white"/>
</mask>
<g mask="url(#mask3_634_143)">
<path d="M247.165 297H245.583L234.751 270.505C229.408 257.428 223.879 243.902 214.26 233.209C194.135 210.835 160.77 206.123 131.332 201.97L128.805 201.613C116.518 199.868 98.34 196.782 82.3794 190.099C74.6847 186.874 67.934 182.999 62.3256 178.581C56.0667 173.651 50.9818 167.864 47.2138 161.371C40.8201 150.364 38.4601 137.604 36.1794 125.265C34.2082 114.619 32.1774 103.609 27.5566 93.7922C16.4667 70.2202 -6.1256 58.4005 -28 52.5699V50.9477C-23.7957 52.0622 -19.6627 53.391 -15.5972 54.9299C-5.48702 58.7812 3.31826 63.7669 10.5687 69.7839C18.5173 76.364 24.685 84.2372 28.8853 93.1694C33.5854 103.161 35.636 114.262 37.6232 125.003C39.88 137.22 42.2162 149.852 48.483 160.637C64.2572 187.791 99.8036 196.021 129.012 200.162L131.542 200.519C146.753 202.664 162.48 204.886 177.06 209.419C193.663 214.575 206.185 222.036 215.355 232.23C225.144 243.113 230.713 256.757 236.111 269.953L247.165 297Z" fill="#2B465B"/>
</g>
<mask id="mask4_634_143" style="mask-type:luminance" maskUnits="userSpaceOnUse" x="-28" y="68" width="258" height="229">
<path d="M-28 68.6178H229.908V297H-28V68.6178Z" fill="white"/>
</mask>
<g mask="url(#mask4_634_143)">
<path d="M229.225 297H227.639L222.887 285.371C217.545 272.294 212.015 258.768 202.397 248.075C182.272 225.701 148.907 220.989 119.473 216.836L116.942 216.475C104.654 214.734 86.4767 211.648 70.5161 204.965C62.8214 201.74 56.0707 197.865 50.4623 193.447C44.2034 188.516 39.1185 182.73 35.3505 176.237C28.9567 165.23 26.5968 152.47 24.3161 140.131C22.3488 129.485 20.3141 118.475 15.6933 108.658C6.60637 89.3499 -10.1911 77.9228 -28 71.2197V69.5935L-27.4606 69.7998C-17.3464 73.6471 -8.54111 78.6447 -1.29459 84.6498C6.65396 91.2339 12.8216 99.1031 17.022 108.039C21.7221 118.027 23.7767 129.124 25.7599 139.873C28.0167 152.09 30.3529 164.718 36.6197 175.503C52.3939 202.656 87.9442 210.891 117.148 215.028L119.679 215.384C134.89 217.534 150.62 219.751 165.201 224.285C181.8 229.441 194.322 236.902 203.492 247.095C213.281 257.979 218.85 271.623 224.248 284.819L229.225 297Z" fill="#2B465B"/>
</g>
<mask id="mask5_634_143" style="mask-type:luminance" maskUnits="userSpaceOnUse" x="-28" y="88" width="240" height="209">
<path d="M-28 88.9255H211.631V297H-28V88.9255Z" fill="white"/>
</mask>
<g mask="url(#mask5_634_143)">
<path d="M211.286 297H209.699C204.733 284.954 199.359 272.758 190.534 262.949C170.409 240.571 137.044 235.863 107.609 231.706L105.079 231.349C92.7911 229.608 74.6133 226.522 58.6528 219.835C50.958 216.61 44.2113 212.735 38.5989 208.316C32.34 203.39 27.2552 197.599 23.4871 191.106C17.0934 180.1 14.7334 167.344 12.4528 155.005C10.4855 144.355 8.45072 133.349 3.82993 123.528C-3.19844 108.591 -14.8397 98.3733 -28 91.4124V89.7426C-22.7089 92.4833 -17.7589 95.7397 -13.1579 99.5196C-5.20541 106.104 0.962259 113.977 5.15865 122.913C9.85877 132.9 11.9133 143.998 13.8965 154.743C16.1573 166.963 18.4935 179.592 24.7564 190.377C40.5305 217.53 76.0809 225.76 105.285 229.901L107.816 230.258C123.019 232.404 138.757 234.625 153.337 239.155C169.937 244.315 182.458 251.776 191.628 261.969C200.751 272.111 206.217 284.657 211.286 297Z" fill="#2B465B"/>
</g>
<mask id="mask6_634_143" style="mask-type:luminance" maskUnits="userSpaceOnUse" x="-28" y="111" width="222" height="186">
<path d="M-28 111.264H193.354V297H-28V111.264Z" fill="white"/>
</mask>
<g mask="url(#mask6_634_143)">
<path d="M192.878 297H191.24C187.829 290.126 183.843 283.562 178.674 277.815C158.549 255.441 125.184 250.729 95.75 246.576L93.2195 246.215C80.9317 244.474 62.754 241.388 46.7934 234.705C39.0947 231.48 32.348 227.605 26.7395 223.186C20.4806 218.256 15.3958 212.465 11.6278 205.976C5.23401 194.97 2.87404 182.214 0.593388 169.875C-1.37392 159.225 -3.40866 148.218 -8.02945 138.402C-12.8525 128.157 -19.8412 120.133 -28 113.854V112.034C-26.9767 112.799 -25.9851 113.58 -25.0213 114.378C-17.0688 120.962 -10.9011 128.835 -6.70469 137.767C-2.00457 147.758 0.0499992 158.856 2.03317 169.601C4.29399 181.817 6.63017 194.45 12.893 205.235C28.6672 232.388 64.2136 240.618 93.4217 244.759L95.9523 245.116C111.155 247.262 126.89 249.483 141.474 254.013C158.073 259.173 170.595 266.634 179.765 276.827C185.207 282.892 189.348 289.793 192.878 297Z" fill="#2B465B"/>
</g>
<mask id="mask7_634_143" style="mask-type:luminance" maskUnits="userSpaceOnUse" x="-28" y="137" width="202" height="160">
<path d="M-28 137.664H173.046V297H-28V137.664Z" fill="white"/>
</mask>
<g mask="url(#mask7_634_143)">
<path d="M172.201 297H170.369C169.246 295.517 168.06 294.077 166.811 292.685C146.682 270.307 113.321 265.599 83.8827 261.442L81.3521 261.085C69.0684 259.344 50.8866 256.258 34.9261 249.571C27.2314 246.35 20.4846 242.475 14.8722 238.052C8.6173 233.126 3.53245 227.335 -0.239548 220.842C-6.6333 209.836 -8.98931 197.08 -11.2739 184.741C-13.2412 174.095 -15.276 163.084 -19.8928 153.268C-22.0782 148.615 -24.7793 144.284 -28 140.278V138.009C-24.2042 142.467 -21.0589 147.346 -18.568 152.645C-13.8679 162.632 -11.8133 173.738 -9.8262 184.475C-7.56936 196.691 -5.23318 209.324 1.03365 220.108C16.8038 247.262 52.3542 255.496 81.5584 259.633L84.0889 259.994C99.2919 262.14 115.03 264.357 129.611 268.891C146.21 274.047 158.732 281.511 167.902 291.705C169.433 293.407 170.861 295.176 172.201 297Z" fill="#2B465B"/>
</g>
<mask id="mask8_634_143" style="mask-type:luminance" maskUnits="userSpaceOnUse" x="-28" y="173" width="174" height="124">
<path d="M-28 173.202H145.631V297H-28V173.202Z" fill="white"/>
</mask>
<g mask="url(#mask8_634_143)">
<path d="M145.349 297H142.763C122.82 283.483 96.1069 279.711 72.0193 276.312L69.4928 275.955C57.205 274.209 39.0193 271.128 23.0667 264.44C15.368 261.216 8.62127 257.341 3.00889 252.922C-3.24604 247.996 -8.33089 242.205 -12.1029 235.712C-18.4927 224.705 -20.8526 211.95 -23.1333 199.61C-24.466 192.407 -25.8264 185.034 -28 177.994V173.373C-24.9459 181.746 -23.2959 190.666 -21.6895 199.345C-19.4327 211.561 -17.0965 224.194 -10.8297 234.974C4.94447 262.132 40.4909 270.362 69.699 274.499L72.2256 274.856C87.4365 277.002 103.167 279.223 117.747 283.756C128.631 287.14 137.765 291.515 145.349 297Z" fill="#2B465B"/>
</g>
<mask id="mask9_634_143" style="mask-type:luminance" maskUnits="userSpaceOnUse" x="-28" y="237" width="129" height="60">
<path d="M-28 237.172H100.954V297H-28V237.172Z" fill="white"/>
</mask>
<g mask="url(#mask9_634_143)">
<path d="M100.248 297H94.0642C82.8117 294.374 71.2101 292.74 60.1559 291.181L57.6294 290.824C45.3416 289.083 27.1599 285.993 11.2033 279.31C3.50462 276.085 -3.24213 272.21 -8.85451 267.792C-15.1094 262.866 -20.1943 257.075 -23.9623 250.582C-25.5171 247.885 -26.8617 245.092 -27.9961 242.197V237.929C-26.5999 242.062 -24.8944 246.068 -22.6931 249.844C-6.9229 276.998 28.6275 285.232 57.8317 289.369L60.3622 289.726C73.6336 291.598 87.2976 293.529 100.248 297Z" fill="#2B465B"/>
</g>
<mask id="mask10_634_143" style="mask-type:luminance" maskUnits="userSpaceOnUse" x="-28" y="273" width="40" height="24">
<path d="M-28 273.725H11.6V297H-28V273.725Z" fill="white"/>
</mask>
<g mask="url(#mask10_634_143)">
<path d="M11.5762 297H6.78881C4.27019 296.139 1.77932 295.199 -0.659981 294.176C-8.35469 290.951 -15.1054 287.076 -20.7059 282.658C-23.3078 280.619 -25.7392 278.39 -28 275.974V273.777C-17.8858 285.2 -3.59904 292.316 11.5762 297Z" fill="#2B465B"/>
</g>
<path d="M267.227 270.124C267.227 269.569 267.199 269.017 267.144 268.466C267.088 267.915 267.009 267.367 266.902 266.824C266.791 266.285 266.66 265.745 266.497 265.218C266.335 264.686 266.148 264.167 265.938 263.655C265.728 263.143 265.49 262.643 265.228 262.156C264.966 261.668 264.685 261.196 264.375 260.736C264.066 260.272 263.737 259.831 263.388 259.403C263.035 258.975 262.666 258.566 262.273 258.173C261.88 257.781 261.472 257.412 261.044 257.059C260.615 256.71 260.171 256.381 259.711 256.071C259.251 255.762 258.775 255.48 258.287 255.218C257.799 254.957 257.299 254.723 256.788 254.509C256.276 254.298 255.752 254.112 255.225 253.949C254.693 253.791 254.158 253.656 253.615 253.549C253.071 253.442 252.524 253.358 251.973 253.303C251.421 253.251 250.87 253.223 250.315 253.223C250.87 253.223 251.421 253.196 251.973 253.14C252.524 253.089 253.071 253.005 253.615 252.898C254.158 252.791 254.693 252.656 255.225 252.494C255.752 252.335 256.276 252.149 256.788 251.938C257.299 251.724 257.799 251.49 258.287 251.228C258.775 250.967 259.251 250.681 259.711 250.376C260.171 250.066 260.615 249.737 261.044 249.388C261.472 249.035 261.88 248.666 262.273 248.273C262.666 247.881 263.035 247.472 263.388 247.044C263.737 246.615 264.066 246.171 264.375 245.711C264.685 245.251 264.966 244.779 265.228 244.291C265.49 243.803 265.728 243.304 265.938 242.792C266.148 242.28 266.335 241.761 266.497 241.229C266.66 240.698 266.791 240.162 266.902 239.619C267.009 239.079 267.088 238.532 267.144 237.981C267.199 237.429 267.227 236.878 267.227 236.323C267.227 236.878 267.251 237.429 267.306 237.981C267.362 238.532 267.441 239.079 267.548 239.619C267.659 240.162 267.794 240.698 267.953 241.229C268.116 241.761 268.302 242.28 268.512 242.792C268.726 243.304 268.96 243.803 269.222 244.291C269.484 244.779 269.766 245.251 270.075 245.711C270.384 246.171 270.713 246.615 271.063 247.044C271.416 247.472 271.788 247.881 272.177 248.273C272.57 248.666 272.978 249.035 273.407 249.388C273.835 249.737 274.279 250.066 274.739 250.376C275.199 250.681 275.675 250.967 276.163 251.228C276.651 251.49 277.151 251.724 277.663 251.938C278.174 252.149 278.698 252.335 279.225 252.494C279.757 252.656 280.292 252.791 280.836 252.898C281.379 253.005 281.926 253.089 282.478 253.14C283.029 253.196 283.58 253.223 284.136 253.223C283.58 253.223 283.029 253.251 282.478 253.303C281.926 253.358 281.379 253.442 280.836 253.549C280.292 253.656 279.757 253.791 279.225 253.949C278.698 254.112 278.174 254.298 277.663 254.509C277.151 254.723 276.651 254.957 276.163 255.218C275.675 255.48 275.199 255.762 274.739 256.071C274.279 256.381 273.835 256.71 273.407 257.059C272.978 257.412 272.57 257.781 272.177 258.173C271.788 258.566 271.416 258.975 271.063 259.403C270.713 259.831 270.384 260.276 270.075 260.736C269.77 261.196 269.484 261.668 269.222 262.156C268.96 262.643 268.726 263.143 268.512 263.655C268.302 264.167 268.116 264.686 267.953 265.218C267.794 265.745 267.659 266.285 267.548 266.824C267.441 267.367 267.362 267.915 267.306 268.466C267.251 269.017 267.227 269.569 267.227 270.124Z" fill="#2B465B"/>
<mask id="mask11_634_143" style="mask-type:luminance" maskUnits="userSpaceOnUse" x="1136" y="0" width="329" height="297">
<path d="M1464.98 0.587036H1136V297H1464.98V0.587036Z" fill="white"/>
</mask>
<g mask="url(#mask11_634_143)">
<path d="M1136 297H1137.58L1166.64 225.903C1171.99 212.822 1177.52 199.297 1187.13 188.604C1207.26 166.23 1240.62 161.518 1270.06 157.365L1272.59 157.008C1284.88 155.267 1303.06 152.177 1319.02 145.494C1326.71 142.269 1333.46 138.394 1339.07 133.975C1345.33 129.049 1350.41 123.258 1354.18 116.765C1360.58 105.759 1362.93 93.0029 1365.22 80.6636C1367.19 70.014 1369.22 59.0034 1373.84 49.1867C1391.5 11.6571 1438.27 3.92672 1464.98 2.69715V1.17804C1450.69 1.75316 1433.48 4.05761 1416.99 10.3244C1406.88 14.1718 1398.08 19.1615 1390.83 25.1744C1382.88 31.7586 1376.71 39.6278 1372.51 48.564C1367.81 58.5552 1365.76 69.6491 1363.77 80.3979C1361.51 92.6142 1359.18 105.247 1352.91 116.032C1337.14 143.185 1301.59 151.415 1272.39 155.552L1269.86 155.909C1254.65 158.059 1238.92 160.276 1224.33 164.81C1207.74 169.97 1195.21 177.431 1186.04 187.624C1176.25 198.504 1170.69 212.152 1165.28 225.344L1136 297Z" fill="#2B465B"/>
</g>
<mask id="mask12_634_143" style="mask-type:luminance" maskUnits="userSpaceOnUse" x="1153" y="16" width="312" height="281">
<path d="M1464.98 16.8332H1153.26V297H1464.98V16.8332Z" fill="white"/>
</mask>
<g mask="url(#mask12_634_143)">
<path d="M1153.94 297H1155.52L1178.5 240.769C1183.85 227.692 1189.38 214.163 1199 203.474C1219.12 181.095 1252.49 176.387 1281.93 172.231L1284.45 171.874C1296.74 170.132 1314.92 167.047 1330.88 160.363C1338.57 157.139 1345.32 153.264 1350.93 148.845C1357.19 143.915 1362.28 138.124 1366.04 131.635C1372.44 120.625 1374.8 107.869 1377.08 95.5295C1379.05 84.8838 1381.08 73.8732 1385.7 64.0565C1400.96 31.6197 1437.97 21.4421 1464.98 18.4753V16.8927C1453.51 18.1024 1440.98 20.5655 1428.85 25.1863C1418.74 29.0337 1409.93 34.0233 1402.68 40.0363C1394.73 46.6165 1388.56 54.4897 1384.36 63.4259C1379.67 73.4131 1377.61 84.511 1375.63 95.2558C1373.37 107.472 1371.03 120.105 1364.77 130.889C1349 158.055 1313.45 166.285 1284.25 170.422L1281.72 170.779C1266.52 172.925 1250.78 175.146 1236.2 179.679C1219.6 184.836 1207.08 192.3 1197.91 202.49C1188.12 213.374 1182.55 227.018 1177.15 240.214L1153.94 297Z" fill="#2B465B"/>
</g>
<mask id="mask13_634_143" style="mask-type:luminance" maskUnits="userSpaceOnUse" x="1171" y="33" width="294" height="264">
<path d="M1464.98 33.0793H1171.54V297H1464.98V33.0793Z" fill="white"/>
</mask>
<g mask="url(#mask13_634_143)">
<path d="M1171.88 297H1173.46L1190.37 255.639C1195.72 242.558 1201.25 229.033 1210.86 218.343C1230.99 195.965 1264.35 191.257 1293.79 187.1L1296.32 186.744C1308.61 185.002 1326.79 181.913 1342.75 175.229C1350.44 172.005 1357.19 168.129 1362.8 163.711C1369.06 158.785 1374.14 152.994 1377.91 146.501C1384.31 135.494 1386.67 122.739 1388.95 110.399C1390.92 99.7497 1392.95 88.7431 1397.57 78.9264C1410.69 51.035 1439.89 39.604 1464.98 35.0625V33.4482C1457 34.8761 1448.77 36.9942 1440.72 40.0601C1430.61 43.9115 1421.8 48.8972 1414.55 54.9141C1406.6 61.4943 1400.44 69.3675 1396.24 78.2997C1391.54 88.2909 1389.49 99.3848 1387.5 110.134C1385.24 122.35 1382.91 134.983 1376.64 145.767C1360.86 172.921 1325.32 181.155 1296.11 185.288L1293.58 185.649C1278.37 187.795 1262.64 190.012 1248.06 194.545C1231.46 199.706 1218.94 207.166 1209.77 217.36C1199.98 228.243 1194.41 241.888 1189.01 255.084L1171.88 297Z" fill="#2B465B"/>
</g>
<mask id="mask14_634_143" style="mask-type:luminance" maskUnits="userSpaceOnUse" x="1189" y="50" width="276" height="247">
<path d="M1464.98 50.3409H1189.82V297H1464.98V50.3409Z" fill="white"/>
</mask>
<g mask="url(#mask14_634_143)">
<path d="M1189.82 297H1191.4L1202.23 270.505C1207.58 257.428 1213.11 243.902 1222.72 233.209C1242.85 210.835 1276.21 206.123 1305.65 201.97L1308.18 201.613C1320.47 199.868 1338.64 196.782 1354.61 190.099C1362.3 186.874 1369.05 182.999 1374.66 178.581C1380.92 173.651 1386 167.864 1389.77 161.371C1396.16 150.364 1398.52 137.604 1400.81 125.265C1402.78 114.619 1404.81 103.609 1409.43 93.7922C1420.52 70.2202 1443.11 58.4005 1464.98 52.5699V50.9477C1460.78 52.0622 1456.65 53.391 1452.58 54.9299C1442.47 58.7812 1433.67 63.7669 1426.42 69.7839C1418.47 76.364 1412.3 84.2372 1408.1 93.1694C1403.4 103.161 1401.35 114.262 1399.36 125.003C1397.1 137.22 1394.77 149.852 1388.5 160.637C1372.73 187.791 1337.18 196.021 1307.97 200.162L1305.44 200.519C1290.23 202.664 1274.5 204.886 1259.92 209.419C1243.32 214.575 1230.8 222.036 1221.63 232.23C1211.84 243.113 1206.27 256.757 1200.87 269.953L1189.82 297Z" fill="#2B465B"/>
</g>
<mask id="mask15_634_143" style="mask-type:luminance" maskUnits="userSpaceOnUse" x="1207" y="68" width="258" height="229">
<path d="M1464.98 68.6178H1207.08V297H1464.98V68.6178Z" fill="white"/>
</mask>
<g mask="url(#mask15_634_143)">
<path d="M1207.76 297H1209.35L1214.1 285.371C1219.44 272.294 1224.97 258.768 1234.59 248.075C1254.71 225.701 1288.08 220.989 1317.51 216.836L1320.04 216.475C1332.33 214.734 1350.51 211.648 1366.47 204.965C1374.16 201.74 1380.91 197.865 1386.52 193.447C1392.78 188.516 1397.87 182.73 1401.63 176.237C1408.03 165.23 1410.39 152.47 1412.67 140.131C1414.64 129.485 1416.67 118.475 1421.29 108.658C1430.38 89.3499 1447.18 77.9228 1464.98 71.2197V69.5935L1464.45 69.7998C1454.33 73.6471 1445.53 78.6447 1438.28 84.6498C1430.33 91.2339 1424.16 99.1031 1419.96 108.039C1415.26 118.027 1413.21 129.124 1411.22 139.873C1408.97 152.09 1406.63 164.718 1400.36 175.503C1384.59 202.656 1349.04 210.891 1319.84 215.028L1317.31 215.384C1302.09 217.534 1286.36 219.751 1271.78 224.285C1255.18 229.441 1242.66 236.902 1233.49 247.095C1223.7 257.979 1218.14 271.623 1212.74 284.819L1207.76 297Z" fill="#2B465B"/>
</g>
<mask id="mask16_634_143" style="mask-type:luminance" maskUnits="userSpaceOnUse" x="1225" y="88" width="240" height="209">
<path d="M1464.98 88.9255H1225.35V297H1464.98V88.9255Z" fill="white"/>
</mask>
<g mask="url(#mask16_634_143)">
<path d="M1225.7 297H1227.29C1232.25 284.954 1237.63 272.758 1246.45 262.949C1266.58 240.571 1299.94 235.863 1329.38 231.706L1331.91 231.349C1344.19 229.608 1362.37 226.522 1378.33 219.835C1386.03 216.61 1392.77 212.735 1398.39 208.316C1404.64 203.39 1409.73 197.599 1413.5 191.106C1419.89 180.1 1422.25 167.344 1424.53 155.005C1426.5 144.355 1428.53 133.349 1433.15 123.528C1440.18 108.591 1451.82 98.3733 1464.98 91.4124V89.7426C1459.69 92.4833 1454.74 95.7397 1450.14 99.5196C1442.19 106.104 1436.02 113.977 1431.83 122.913C1427.13 132.9 1425.07 143.998 1423.09 154.743C1420.83 166.963 1418.49 179.592 1412.23 190.377C1396.45 217.53 1360.9 225.76 1331.7 229.901L1329.17 230.258C1313.97 232.404 1298.23 234.625 1283.65 239.155C1267.05 244.315 1254.53 251.776 1245.36 261.969C1236.23 272.111 1230.77 284.657 1225.7 297Z" fill="#2B465B"/>
</g>
<mask id="mask17_634_143" style="mask-type:luminance" maskUnits="userSpaceOnUse" x="1243" y="111" width="222" height="186">
<path d="M1464.98 111.264H1243.63V297H1464.98V111.264Z" fill="white"/>
</mask>
<g mask="url(#mask17_634_143)">
<path d="M1244.11 297H1245.74C1249.16 290.126 1253.14 283.562 1258.31 277.815C1278.44 255.441 1311.8 250.729 1341.23 246.576L1343.77 246.215C1356.05 244.474 1374.23 241.388 1390.19 234.705C1397.89 231.48 1404.64 227.605 1410.25 223.186C1416.5 218.256 1421.59 212.465 1425.36 205.976C1431.75 194.97 1434.11 182.214 1436.39 169.875C1438.36 159.225 1440.39 148.218 1445.01 138.402C1449.84 128.157 1456.83 120.133 1464.98 113.854V112.034C1463.96 112.799 1462.97 113.58 1462.01 114.378C1454.05 120.962 1447.89 128.835 1443.69 137.767C1438.99 147.758 1436.93 158.856 1434.95 169.601C1432.69 181.817 1430.35 194.45 1424.09 205.235C1408.32 232.388 1372.77 240.618 1343.56 244.759L1341.03 245.116C1325.83 247.262 1310.09 249.483 1295.51 254.013C1278.91 259.173 1266.39 266.634 1257.22 276.827C1251.78 282.892 1247.64 289.793 1244.11 297Z" fill="#2B465B"/>
</g>
<mask id="mask18_634_143" style="mask-type:luminance" maskUnits="userSpaceOnUse" x="1263" y="137" width="202" height="160">
<path d="M1464.98 137.664H1263.94V297H1464.98V137.664Z" fill="white"/>
</mask>
<g mask="url(#mask18_634_143)">
<path d="M1264.78 297H1266.62C1267.74 295.517 1268.92 294.077 1270.17 292.685C1290.3 270.307 1323.66 265.599 1353.1 261.442L1355.63 261.085C1367.92 259.344 1386.1 256.258 1402.06 249.571C1409.75 246.35 1416.5 242.475 1422.11 238.052C1428.37 233.126 1433.45 227.335 1437.22 220.842C1443.62 209.836 1445.97 197.08 1448.26 184.741C1450.23 174.095 1452.26 163.084 1456.88 153.268C1459.06 148.615 1461.76 144.284 1464.98 140.278V138.009C1461.19 142.467 1458.04 147.346 1455.55 152.645C1450.85 162.632 1448.8 173.738 1446.81 184.475C1444.55 196.691 1442.22 209.324 1435.95 220.108C1420.18 247.262 1384.63 255.496 1355.43 259.633L1352.9 259.994C1337.69 262.14 1321.95 264.357 1307.37 268.891C1290.77 274.047 1278.25 281.511 1269.08 291.705C1267.55 293.407 1266.12 295.176 1264.78 297Z" fill="#2B465B"/>
</g>
<mask id="mask19_634_143" style="mask-type:luminance" maskUnits="userSpaceOnUse" x="1291" y="173" width="174" height="124">
<path d="M1464.98 173.202H1291.35V297H1464.98V173.202Z" fill="white"/>
</mask>
<g mask="url(#mask19_634_143)">
<path d="M1291.64 297H1294.22C1314.16 283.483 1340.88 279.711 1364.97 276.312L1367.49 275.955C1379.78 274.209 1397.97 271.128 1413.92 264.44C1421.62 261.216 1428.36 257.341 1433.98 252.922C1440.23 247.996 1445.32 242.205 1449.09 235.712C1455.48 224.705 1457.84 211.95 1460.12 199.61C1461.45 192.407 1462.81 185.034 1464.98 177.994V173.373C1461.93 181.746 1460.28 190.666 1458.67 199.345C1456.42 211.561 1454.08 224.194 1447.81 234.974C1432.04 262.132 1396.49 270.362 1367.29 274.499L1364.76 274.856C1349.55 277.002 1333.82 279.223 1319.24 283.756C1308.35 287.14 1299.22 291.515 1291.64 297Z" fill="#2B465B"/>
</g>
<mask id="mask20_634_143" style="mask-type:luminance" maskUnits="userSpaceOnUse" x="1336" y="237" width="129" height="60">
<path d="M1464.98 237.172H1336.03V297H1464.98V237.172Z" fill="white"/>
</mask>
<g mask="url(#mask20_634_143)">
<path d="M1336.74 297H1342.92C1354.17 294.374 1365.77 292.74 1376.83 291.181L1379.36 290.824C1391.64 289.083 1409.82 285.993 1425.78 279.31C1433.48 276.085 1440.23 272.21 1445.84 267.792C1452.09 262.866 1457.18 257.075 1460.95 250.582C1462.5 247.885 1463.85 245.092 1464.98 242.197V237.929C1463.58 242.062 1461.88 246.068 1459.68 249.844C1443.91 276.998 1408.36 285.232 1379.15 289.369L1376.62 289.726C1363.35 291.598 1349.69 293.529 1336.74 297Z" fill="#2B465B"/>
</g>
<mask id="mask21_634_143" style="mask-type:luminance" maskUnits="userSpaceOnUse" x="1425" y="273" width="40" height="24">
<path d="M1464.98 273.725H1425.38V297H1464.98V273.725Z" fill="white"/>
</mask>
<g mask="url(#mask21_634_143)">
<path d="M1425.41 297H1430.2C1432.71 296.139 1435.21 295.199 1437.64 294.176C1445.34 290.951 1452.09 287.076 1457.69 282.658C1460.29 280.619 1462.72 278.39 1464.98 275.974V273.777C1454.87 285.2 1440.58 292.316 1425.41 297Z" fill="#2B465B"/>
</g>
<path d="M1172.23 270.124C1172.23 269.569 1172.2 269.017 1172.14 268.466C1172.09 267.915 1172.01 267.367 1171.9 266.824C1171.79 266.285 1171.66 265.745 1171.5 265.218C1171.33 264.686 1171.15 264.167 1170.94 263.655C1170.73 263.143 1170.49 262.643 1170.23 262.156C1169.97 261.668 1169.68 261.196 1169.38 260.736C1169.07 260.272 1168.74 259.831 1168.39 259.403C1168.03 258.975 1167.67 258.566 1167.27 258.173C1166.88 257.781 1166.47 257.412 1166.04 257.059C1165.62 256.71 1165.17 256.381 1164.71 256.071C1164.25 255.762 1163.77 255.48 1163.29 255.218C1162.8 254.957 1162.3 254.723 1161.79 254.509C1161.28 254.298 1160.75 254.112 1160.22 253.949C1159.69 253.791 1159.16 253.656 1158.61 253.549C1158.07 253.442 1157.52 253.358 1156.97 253.303C1156.42 253.251 1155.87 253.223 1155.31 253.223C1155.87 253.223 1156.42 253.196 1156.97 253.14C1157.52 253.089 1158.07 253.005 1158.61 252.898C1159.16 252.791 1159.69 252.656 1160.22 252.494C1160.75 252.335 1161.28 252.149 1161.79 251.938C1162.3 251.724 1162.8 251.49 1163.29 251.228C1163.77 250.967 1164.25 250.681 1164.71 250.376C1165.17 250.066 1165.62 249.737 1166.04 249.388C1166.47 249.035 1166.88 248.666 1167.27 248.273C1167.67 247.881 1168.03 247.472 1168.39 247.044C1168.74 246.615 1169.07 246.171 1169.38 245.711C1169.68 245.251 1169.97 244.779 1170.23 244.291C1170.49 243.803 1170.73 243.304 1170.94 242.792C1171.15 242.28 1171.33 241.761 1171.5 241.229C1171.66 240.698 1171.79 240.162 1171.9 239.619C1172.01 239.079 1172.09 238.532 1172.14 237.981C1172.2 237.429 1172.23 236.878 1172.23 236.323C1172.23 236.878 1172.25 237.429 1172.31 237.981C1172.36 238.532 1172.44 239.079 1172.55 239.619C1172.66 240.162 1172.79 240.698 1172.95 241.229C1173.12 241.761 1173.3 242.28 1173.51 242.792C1173.73 243.304 1173.96 243.803 1174.22 244.291C1174.48 244.779 1174.77 245.251 1175.07 245.711C1175.38 246.171 1175.71 246.615 1176.06 247.044C1176.42 247.472 1176.79 247.881 1177.18 248.273C1177.57 248.666 1177.98 249.035 1178.41 249.388C1178.83 249.737 1179.28 250.066 1179.74 250.376C1180.2 250.681 1180.68 250.967 1181.16 251.228C1181.65 251.49 1182.15 251.724 1182.66 251.938C1183.17 252.149 1183.7 252.335 1184.23 252.494C1184.76 252.656 1185.29 252.791 1185.84 252.898C1186.38 253.005 1186.93 253.089 1187.48 253.14C1188.03 253.196 1188.58 253.223 1189.14 253.223C1188.58 253.223 1188.03 253.251 1187.48 253.303C1186.93 253.358 1186.38 253.442 1185.84 253.549C1185.29 253.656 1184.76 253.791 1184.23 253.949C1183.7 254.112 1183.17 254.298 1182.66 254.509C1182.15 254.723 1181.65 254.957 1181.16 255.218C1180.68 255.48 1180.2 255.762 1179.74 256.071C1179.28 256.381 1178.83 256.71 1178.41 257.059C1177.98 257.412 1177.57 257.781 1177.18 258.173C1176.79 258.566 1176.42 258.975 1176.06 259.403C1175.71 259.831 1175.38 260.276 1175.07 260.736C1174.77 261.196 1174.48 261.668 1174.22 262.156C1173.96 262.643 1173.73 263.143 1173.51 263.655C1173.3 264.167 1173.12 264.686 1172.95 265.218C1172.79 265.745 1172.66 266.285 1172.55 266.824C1172.44 267.367 1172.36 267.915 1172.31 268.466C1172.25 269.017 1172.23 269.569 1172.23 270.124Z" fill="#2B465B"/>
<path d="M70.5 194.104L0 221.604V1161.5L47 1173.5L76.5 1179L121.5 1173.5L197 1175.32L234 1194.32H257.5L274.5 1213.5L298.5 1194.5L346.5 1190L410.5 1207.5L452.5 1202.5L529 1207.5H571L612.5 1195L666.5 1212H686.5L739 1219L777.5 1212L791.5 1180.5L820 1169L879 1164H926.5L978.5 1148L1060.5 1169L1100 1178.5L1146 1200.5L1212 1198L1282.5 1160L1349.5 1155.5L1386 1174.5L1419 1172L1440 1164V211.104L1340.5 213.604L1307 203.104L1274 213.604L1240 193.604L1210.5 173.104L1181 176.604L1158.5 168.104L1119 179.104L1077 201.104H1043.5L1019 215.104L991.5 205.104L957.5 209.104L925 228.104L877 241.104L840 233.104L790 236.104L736 219.604L659 231.104L617.5 216.104L585 226.604L530.5 209.604H497L479 192.104L408.5 194.604L387.5 182.104L270 187.104L203.5 154.104L168 179.104L142.5 174.604L70.5 194.104Z" fill="#2B465B"/>
<g filter="url(#filter0_d_634_143)">
<path d="M1440 1165.31V1161.83V1159.33L1431.8 1162.6C1429.4 1162.44 1427.83 1162.5 1427.08 1162.78L1417.53 1169.79L1406.58 1166.85L1402.52 1169.55C1397.21 1168.8 1393.92 1168.9 1392.64 1169.87C1389.34 1168.54 1386.24 1162.2 1386.35 1163.45L1382.26 1161.3C1380.49 1161.96 1378.4 1152.95 1377.02 1152.57L1375.16 1153.49C1373.72 1152.81 1372.33 1152.72 1370.99 1153.21L1358.98 1144.72C1356.71 1144.7 1353.42 1144.78 1349.09 1144.98L1340.86 1147.51L1336.03 1146.46C1336.25 1147.24 1334.79 1148.37 1331.65 1149.84C1328.93 1149.35 1327.07 1149.19 1326.04 1149.37L1317.77 1157.4L1307.93 1153.48L1304.13 1154.85C1303.13 1154.84 1302.19 1154.8 1301.33 1154.74L1281.83 1150.59L1262.89 1158.4L1259.21 1159.92L1259.33 1165.87C1257.13 1165.94 1255.4 1165.84 1254.14 1165.56L1248.26 1163.62L1247.58 1163.9L1244.04 1169.45C1239.17 1168.75 1236.04 1168.44 1234.63 1168.52L1226.18 1175.91L1224.44 1186.69C1222.92 1186.41 1221.99 1186.36 1221.67 1186.52L1220.18 1187.95C1214.73 1188.5 1211.96 1188.62 1210.88 1189.05L1209.26 1191.74C1209.46 1190.52 1199.42 1188.23 1179.14 1184.84C1176.31 1187.78 1169.88 1190.34 1159.82 1192.49C1157 1192.54 1148.43 1186.39 1144.93 1186.31L1129.44 1189.05L1109.6 1175.91L1096.94 1172.17L1086 1161.45C1084.27 1161.32 1082.25 1161.45 1079.93 1161.83C1073.3 1160.83 1067.17 1160.49 1061.55 1160.84L1049.77 1164.9L1029.21 1146.18C1027.48 1147.01 1024.18 1147.45 1019.34 1147.47C1016.5 1147.24 1012.15 1146.09 1006.29 1144.02L1001.18 1144.39L994.783 1145.9C994.208 1145.99 993.64 1146 993.079 1145.91C984.847 1143.33 980.462 1141.49 979.924 1140.41C972.161 1140.7 968.495 1140.56 968.911 1140L966.192 1141.64L954.764 1140.65L951.742 1142.26C951.356 1142.3 950.864 1142.28 950.258 1142.19L927.901 1153.92L901.619 1155.48C900.923 1155.6 899.317 1155.58 896.795 1155.43C889.312 1154.3 884.54 1153.79 882.488 1153.92L853.89 1160.28L828.018 1161.56H805.5L780 1179.37L772.492 1208.3L764.859 1204.23C764.859 1204.23 754.785 1210.02 752.725 1214.12L745.046 1212.88L741.213 1213.19C736.881 1212.25 731.163 1211.84 724.059 1211.94L715.424 1209.87C712.577 1210.55 706.01 1209.86 695.718 1207.79C694.18 1207.75 691.817 1207.92 688.621 1208.29C680.335 1204.5 675.556 1202.62 674.284 1202.62C673.913 1202.58 673.405 1202.54 672.754 1202.5L661.5 1207.58L631.633 1192.15C629.232 1192.33 627.111 1193.01 625.263 1194.19C617.364 1193.16 600.664 1192.14 590.5 1195.29L580 1194.41L574 1203.8C572.811 1203.89 562.438 1195.42 556.773 1194.61C555.432 1194.56 552.017 1194.79 546.526 1195.29L539.565 1198.73L520 1203.8L507.5 1199.73H491.934C475.469 1196.49 464.51 1199.82 448.499 1194.41C445.166 1194.26 437.055 1187.17 434.707 1188.46L425.597 1194.41L411.531 1202L378.585 1186.32C371.118 1186.46 363.006 1185.89 354.243 1184.59C353.297 1185.08 347.548 1185.56 336.99 1186.04C331.143 1182.84 325.259 1185.79 301.023 1184.59L293.934 1188.1L284.664 1194.41C283.172 1194.15 275.62 1201.74 274.681 1202L270.081 1188.05L261.789 1181.14C255.949 1184.33 250.511 1186.03 245.49 1186.26L237.015 1191.43C233.804 1191.62 219.246 1172.33 201.569 1164.54L181.393 1170.53C181.393 1170.53 169.905 1171.38 163.763 1168.94C153.084 1172.52 140.716 1167.34 132.074 1166.94L112.92 1168.25L89.9201 1171.34L58.3699 1171.46L46.9879 1161.83L6.78001 1156.21H0V1164.82L4.57764e-05 1167.31V1170.8L33.9999 1180.48L79.9999 1188.05L98.1637 1180.48C101.799 1180.4 110.508 1192.25 110.508 1192.25C123.08 1191.44 135.751 1190.18 141.932 1188.53C158.374 1191.27 166.736 1192.51 167.001 1192.25L184.858 1184.97L200.301 1188.05L206.5 1188.53L212 1199.11L221 1206.29H237.015H258.5L270.081 1223.82C293.34 1218.43 305.21 1203.36 324.5 1202C346.896 1201.87 352.481 1202.57 368 1203.8L424.039 1217.5C427.061 1217.84 434.43 1216.25 446.154 1212.74L466.088 1214.55L471.708 1214.47C475.078 1214.34 479.425 1215.7 483.5 1214.55C489.044 1215.54 492.013 1213.99 493.649 1213.89L517 1218.25C517 1218.25 541.985 1213.96 545.135 1213.75L574 1212.74L597 1203.8L606.5 1202.3C613.119 1202.62 630.151 1206.47 636.4 1207.58C651.562 1213.64 661.12 1216.95 665.066 1217.5C668.512 1218.05 680.531 1219.73 685 1219.25L706 1230.25C708.393 1228.98 724.305 1229.78 738.105 1226.65L752.956 1234L782.5 1220.74L789 1193.83L812 1179.37L839.23 1182.92L877.318 1173.78L894.806 1174.9L913.3 1175.86L918.276 1174.67C923.918 1175.03 927.993 1175.1 930.5 1174.9L945.5 1164.9L966.192 1157.94L991.409 1161.3L1008.88 1169.71C1011.7 1169.46 1017.54 1169.7 1026.39 1170.43L1044.41 1181.05L1063.84 1186.37C1068.29 1186.5 1075.93 1185.97 1086.76 1184.77C1087.97 1184.72 1089.35 1184.75 1090.89 1184.88L1113.89 1199.46L1141.95 1213.85L1159.82 1208.81C1177.09 1206.03 1193.93 1209.39 1212.13 1208.81L1260.09 1181.14L1273 1174.91C1277.35 1175.08 1282.86 1170.57 1289 1168.52C1292.35 1168.71 1297.68 1174.97 1298.58 1174.91L1329 1168.52L1351 1165.56L1366 1181.14C1382.76 1181.14 1408.02 1181.39 1437.81 1171.15L1440 1170.3V1167.81V1165.31Z" fill="#FEFEFE"/>
</g>
<g filter="url(#filter1_d_634_143)">
<path d="M1440 214.877V217.372L1439.32 217.983L1429.66 214.42C1427.19 214.587 1425.57 214.523 1424.8 214.234L1412.02 220.399L1400.71 223.443L1396.53 220.653C1391.06 221.428 1387.66 221.318 1386.34 220.316C1382.93 221.698 1381.28 221.737 1381.39 220.435L1377.18 222.663C1375.35 221.983 1373.72 221.844 1372.3 222.24L1370.39 221.286C1368.9 221.99 1367.47 222.085 1366.08 221.571L1355.25 223.744C1352.9 223.768 1349.5 223.681 1345.04 223.479L1336.55 220.855L1331.57 221.947C1331.8 221.14 1330.29 219.968 1327.05 218.444C1324.24 218.959 1322.32 219.125 1321.26 218.931L1312.73 210.627L1302.57 214.684L1298.65 213.263C1297.62 213.275 1292.97 218.381 1292.09 218.444L1281.45 220.534L1261.92 212.448L1258.12 210.872L1258.24 204.714C1255.97 204.643 1254.19 204.749 1252.89 205.038L1246.82 207.049L1246.12 206.752L1242.46 201.013C1237.45 201.737 1234.21 202.058 1232.76 201.979L1224.04 194.328L1222.25 183.174C1220.68 183.455 1219.72 183.511 1219.39 183.345L1217.85 181.862C1212.23 181.298 1209.37 181.176 1208.26 180.728L1206.59 177.942C1206.8 179.201 1196.44 181.579 1175.51 185.086C1172.6 182.038 1165.96 179.395 1155.58 177.162C1152.67 177.115 1143.84 183.479 1140.22 183.558L1124.24 180.724L1103.77 194.328L1090.71 198.203L1079.43 209.293C1077.64 209.428 1075.56 209.297 1073.16 208.901C1066.32 209.938 1060 210.283 1054.2 209.926L1042.04 205.719L1020.83 225.098C1019.05 224.235 1015.65 223.788 1010.65 223.764C1007.72 224.002 1000.35 208.904 994.304 211.045L989.029 210.669L983.5 208.991L981.742 208.979C981.742 208.979 973.555 211.864 973 212.984C973 212.984 964.071 210.463 964.5 211.045L953.835 221.361H944.792L934.14 232.123L911.393 238.111L900.569 243.417L891.133 243.362C890.414 243.239 888.757 243.259 886.155 243.417C878.435 244.589 873.513 245.111 871.395 244.98L841.891 238.394L828 242.059L815.2 237.072L792.274 242.059L769.103 238.394C769.103 238.394 759.676 237.866 753.894 233.9L746.018 238.111C739.799 235.527 735.626 232.115 733.501 227.876L725.578 229.158L721.624 228.834C717.155 229.807 711.255 230.239 703.926 230.132L695.019 232.273C692.081 231.565 685.306 232.281 674.688 234.423C673.101 234.466 670.663 234.296 667.366 233.912C658.818 237.83 653.887 239.782 652.575 239.774C652.192 239.817 651.669 239.861 650.997 239.904L640.256 230.132L614.729 225.933C612.252 225.747 610.064 225.042 608.158 223.823C600.008 224.888 578.499 233.789 568.013 230.536L554.074 232.97L549.088 230.536C547.861 230.441 544.11 217.7 538.266 218.539C536.883 218.591 533.359 218.357 527.694 217.843L520.513 214.272C507.042 217.72 500.799 218.12 501.776 215.472L489.462 218.298L478.757 195.889C461.77 199.237 420.469 194.93 420.469 194.93C417.031 195.077 408.663 202.414 406.24 201.088L396.841 194.93L382.331 187.065L341.746 193.408C334.042 193.261 325.674 193.859 316.633 195.204C315.657 194.694 309.726 194.191 298.834 193.7C292.802 197.013 286.731 193.962 261.727 195.204L254.414 191.564L244.85 185.041C243.311 185.306 235.52 177.445 234.551 177.176L231.785 172.988L226.222 172.628C220.197 169.331 214.587 167.566 209.407 167.332L200.663 161.981C197.35 161.783 182.332 181.744 164.095 189.806L143.28 183.608C143.28 183.608 129.364 191.229 123.027 193.75C112.01 190.046 99.2499 195.406 90.3345 195.818L79.7095 202.274H58.3324L30.2042 212.909L18.4618 222.883L0.000267029 231.348L0 226.357L0.000228882 223.362L0.000305176 220.367L0 212.88L8.14635 207.136L45.8894 188.419H61.0275C64.778 188.502 73.7625 176.244 73.7625 176.244C86.7332 177.079 90.6705 170.58 97.0464 172.286C114.01 169.444 122.636 168.162 122.91 168.439L143.396 167.473L159.328 164.291L164.095 168.922L180.29 161.341L191.542 150.071L203.918 145C203.918 145 213.967 145.316 214.97 145.316L277.05 177.205C300.155 177.348 319.712 176.786 335.722 175.519L391.5 171.058L413 185.041L450 182.538L455.798 182.617L467.646 186.426C473.366 185.401 477.07 184.938 478.757 185.041L496.384 197.641C512.691 195.729 522.474 194.878 525.724 195.092L580.281 218.599L587 218.539C593.829 218.207 613.118 199.446 619.564 198.298C619.564 198.298 638.912 213.274 642.982 212.704C646.538 212.134 652.409 216.773 657.019 217.275L686.5 212.704C688.969 214.022 703.09 213.198 717.326 216.435L732.648 208.825L759 217.275L787.5 225.933L825.502 222.664L864.797 232.123L882.838 230.963L902.943 224.456H914.328C920.149 224.088 933.01 209.407 935.596 209.617L949 205.719L985.465 191.384L1002.77 198.947C1005.67 199.204 1020.83 205.719 1020.83 205.719C1020.83 205.719 1033.16 194.383 1036 194.328L1061 191.384C1065.59 191.245 1079.43 183.174 1079.43 183.174C1080.68 183.23 1082.1 183.194 1083.68 183.06L1109.12 170.471H1137.5L1155.58 155.585L1180 165.567L1210.47 160.794L1238 185.086H1258.12L1274 204.714C1278.49 204.544 1288.5 196.513 1288.5 196.513C1291.95 196.315 1305 191.287 1297.82 191.538L1327.05 201.013L1368 204.998L1415.5 204.714L1435.78 193.898L1440 195.411V208.388V214.877Z" fill="#FEFEFE"/>
</g>
<defs>
<filter id="filter0_d_634_143" x="-30" y="1090" width="1500" height="154" filterUnits="userSpaceOnUse" color-interpolation-filters="sRGB">
<feFlood flood-opacity="0" result="BackgroundImageFix"/>
<feColorMatrix in="SourceAlpha" type="matrix" values="0 0 0 0 0 0 0 0 0 0 0 0 0 0 0 0 0 0 127 0" result="hardAlpha"/>
<feOffset dy="-20"/>
<feGaussianBlur stdDeviation="15"/>
<feComposite in2="hardAlpha" operator="out"/>
<feColorMatrix type="matrix" values="0 0 0 0 0 0 0 0 0 0 0 0 0 0 0 0 0 0 0.25 0"/>
<feBlend mode="normal" in2="BackgroundImageFix" result="effect1_dropShadow_634_143"/>
<feBlend mode="normal" in="SourceGraphic" in2="effect1_dropShadow_634_143" result="shape"/>
</filter>
<filter id="filter1_d_634_143" x="-30" y="130" width="1500" height="160" filterUnits="userSpaceOnUse" color-interpolation-filters="sRGB">
<feFlood flood-opacity="0" result="BackgroundImageFix"/>
<feColorMatrix in="SourceAlpha" type="matrix" values="0 0 0 0 0 0 0 0 0 0 0 0 0 0 0 0 0 0 127 0" result="hardAlpha"/>
<feOffset dy="15"/>
<feGaussianBlur stdDeviation="15"/>
<feComposite in2="hardAlpha" operator="out"/>
<feColorMatrix type="matrix" values="0 0 0 0 0 0 0 0 0 0 0 0 0 0 0 0 0 0 0.25 0"/>
<feBlend mode="normal" in2="BackgroundImageFix" result="effect1_dropShadow_634_143"/>
<feBlend mode="normal" in="SourceGraphic" in2="effect1_dropShadow_634_143" result="shape"/>
</filter>
</defs>
</svg>
