<svg xmlns="http://www.w3.org/2000/svg" width="1440" height="958" viewBox="0 0 1440 958" fill="none">
  <path d="M70.5 39.985L0 67.4766V900.22L47 912.217L76.5 917.715L121.5 912.217L197 914.035L234 933.029H257.5L274.5 952.204L298.5 933.21L346.5 928.712L410.5 946.206L452.5 941.208L529 946.206H571L612.5 933.71L666.5 950.705H686.5L739 957.703L777.5 950.705L791.5 919.214L820 907.718L879 902.72H926.5L978.5 886.724L1060.5 907.718L1100 917.215L1146 939.208L1212 936.709L1282.5 898.721L1349.5 894.222L1386 913.216L1419 910.717L1440 902.72V56.9798L1340.5 59.479L1307 48.9823L1274 59.479L1240 39.4852L1210.5 18.9915L1181 22.4904L1158.5 13.993L1119 24.9896L1077 46.9829H1043.5L1019 60.9786L991.5 50.9816L957.5 54.9804L925 73.9746L877 86.9706L840 78.973L790 81.9721L736 65.4772L659 76.9736L617.5 61.9783L585 72.475L530.5 55.4803H497L479 37.9856L408.5 40.4849L387.5 27.9887L270 32.9872L203.5 -0.00268555L168 24.9896L142.5 20.491L70.5 39.985Z" fill="#576589"/>
</svg>