<svg width="360" height="1106" viewBox="0 0 360 1106" fill="none" xmlns="http://www.w3.org/2000/svg">
<path d="M-92.4292 42.3854L-122 55.0254V1062.57L-102.286 1068.09L-89.9125 1070.61L-71.0375 1068.09L-39.3694 1068.92L-23.85 1077.66H-13.993L-6.8625 1086.47L3.20417 1077.74L23.3375 1075.67L50.182 1083.71L67.7986 1081.42L99.8861 1083.71H117.503L134.91 1077.97L157.56 1085.78H165.949L187.969 1089L204.118 1085.78L209.99 1071.3L221.944 1066.02L246.692 1063.72H266.615L288.426 1056.37L322.821 1066.02L339.389 1070.38L358.683 1080.5L386.367 1079.35L415.938 1061.88L444.04 1059.81L459.35 1068.55L473.192 1067.4L482 1063.72V50.1992L440.265 51.3483L426.214 46.5221L412.372 51.3483L398.111 42.1556L385.738 32.7331L373.364 34.3418L363.926 30.4349L347.358 35.4909L329.742 45.6029H315.69L305.414 52.0377L293.879 47.4414L279.618 49.2799L265.986 58.013L245.853 63.9882L230.333 60.3112L209.361 61.6901L186.711 54.1061L154.414 59.3919L137.007 52.4974L123.375 57.3235L100.515 49.5097H86.4639L78.9139 41.4661L49.3431 42.6152L40.5347 36.8698L-8.75 39.168L-36.6431 24L-51.5333 35.4909L-62.2292 33.4225L-92.4292 42.3854Z" fill="#2B465B"/>
<g filter="url(#filter0_d_507_699)">
<path d="M482 1063.85V1062.22V1061.05L478.562 1062.58C477.555 1062.5 476.897 1062.53 476.583 1062.66L472.577 1065.94L467.98 1064.57L466.281 1065.83C464.054 1065.48 462.672 1065.53 462.135 1065.98C460.75 1065.36 459.45 1062.39 459.495 1062.98L457.782 1061.97C457.039 1062.28 456.16 1058.06 455.582 1057.88L454.804 1058.31C454.2 1057.99 453.616 1057.95 453.053 1058.18L448.018 1054.21C447.065 1054.2 445.683 1054.24 443.869 1054.33L440.416 1055.52L438.392 1055.02C438.484 1055.39 437.871 1055.92 436.553 1056.61C435.412 1056.38 434.631 1056.3 434.202 1056.39L430.733 1060.14L426.603 1058.31L425.008 1058.95C424.589 1058.95 424.195 1058.93 423.836 1058.9L415.656 1056.96L407.714 1060.61L406.167 1061.33L406.218 1064.11C405.296 1064.14 404.572 1064.1 404.042 1063.96L401.576 1063.06L401.29 1063.19L399.804 1065.79C397.764 1065.46 396.449 1065.31 395.858 1065.35L392.313 1068.81L391.583 1073.85C390.945 1073.73 390.557 1073.7 390.424 1073.78L389.797 1074.45C387.51 1074.7 386.348 1074.76 385.897 1074.96L385.217 1076.22C385.303 1075.65 381.091 1074.57 372.583 1072.99C371.398 1074.37 368.698 1075.56 364.479 1076.57C363.298 1076.59 359.704 1073.71 358.234 1073.68L351.737 1074.96L343.416 1068.81L338.106 1067.06L333.517 1062.04C332.793 1061.98 331.945 1062.04 330.97 1062.22C328.19 1061.75 325.62 1061.59 323.26 1061.75L318.32 1063.66L309.695 1054.89C308.97 1055.28 307.589 1055.49 305.555 1055.5C304.364 1055.39 302.541 1054.85 300.082 1053.88L297.938 1054.05L295.256 1054.76C295.015 1054.8 294.777 1054.81 294.542 1054.77C291.088 1053.56 289.249 1052.7 289.024 1052.19C285.767 1052.33 284.23 1052.26 284.405 1052L283.264 1052.77L278.47 1052.3L277.203 1053.06C277.041 1053.08 276.835 1053.07 276.58 1053.03L267.203 1058.52L256.179 1059.25C255.887 1059.3 255.213 1059.29 254.156 1059.22C251.017 1058.69 249.016 1058.46 248.155 1058.52L236.159 1061.49L225.307 1062.09H215.862L205.167 1070.43L202.018 1083.97L198.816 1082.06C198.816 1082.06 194.591 1084.78 193.726 1086.69L190.505 1086.11L188.898 1086.26C187.081 1085.82 184.682 1085.62 181.702 1085.67L178.081 1084.7C176.886 1085.03 174.132 1084.7 169.815 1083.73C169.17 1083.71 168.179 1083.79 166.838 1083.96C163.363 1082.19 161.358 1081.31 160.825 1081.31C160.669 1081.29 160.456 1081.27 160.183 1081.25L155.462 1083.63L142.935 1076.41C141.928 1076.49 141.038 1076.81 140.263 1077.36C136.95 1076.88 129.945 1076.41 125.682 1077.88L121.278 1077.47L118.761 1081.86C118.262 1081.9 113.912 1077.94 111.535 1077.56C110.973 1077.54 109.54 1077.65 107.237 1077.88L104.318 1079.49L96.1111 1081.86L90.868 1079.96H84.3391C77.4328 1078.44 72.8361 1080 66.1204 1077.47C64.7226 1077.4 61.3202 1074.08 60.3354 1074.68L56.5141 1077.47L50.6145 1081.02L36.7955 1073.68C33.6632 1073.75 30.261 1073.48 26.5854 1072.87C26.1884 1073.1 23.7772 1073.33 19.3488 1073.55C16.8963 1072.05 14.4279 1073.43 4.26226 1072.87L1.28888 1074.52L-2.59936 1077.47C-3.22518 1077.35 -6.39261 1080.9 -6.78653 1081.02L-8.71618 1074.49L-12.1943 1071.26C-14.6435 1072.75 -16.9245 1073.55 -19.0307 1073.65L-22.5855 1076.07C-23.9324 1076.16 -30.0385 1067.13 -37.4531 1063.49L-45.9157 1066.29C-45.9157 1066.29 -50.7341 1066.69 -53.3104 1065.55C-57.7897 1067.22 -62.9776 1064.8 -66.6023 1064.61L-74.6362 1065.22L-84.2835 1066.67L-97.5171 1066.73L-102.291 1062.22L-119.156 1059.59H-122V1063.62L-122 1064.78V1066.42L-107.739 1070.95L-88.4445 1074.49L-80.8258 1070.95C-79.3009 1070.91 -75.6481 1076.46 -75.6481 1076.46C-70.3747 1076.08 -65.0598 1075.49 -62.4676 1074.72C-55.5708 1076 -52.0637 1076.58 -51.9525 1076.46L-44.4625 1073.05L-37.985 1074.49L-35.3848 1074.72L-33.0778 1079.67L-29.3028 1083.03H-22.5855H-13.5736L-8.71618 1091.24C1.03967 1088.71 6.01848 1081.66 14.1097 1081.02C23.5034 1080.96 25.8463 1081.29 32.3555 1081.86L55.8607 1088.28C57.1283 1088.44 60.2193 1087.69 65.1369 1086.05L73.498 1086.89L75.8552 1086.86C77.2689 1086.8 79.0923 1087.43 80.8014 1086.89C83.1268 1087.36 84.3722 1086.63 85.0584 1086.59L94.8528 1088.63C94.8528 1088.63 105.332 1086.62 106.654 1086.52L118.761 1086.05L128.408 1081.86L132.393 1081.16C135.17 1081.31 142.313 1083.11 144.934 1083.63C151.294 1086.47 155.303 1088.02 156.958 1088.28C158.404 1088.54 163.445 1089.32 165.319 1089.09L174.128 1094.25C175.132 1093.65 181.806 1094.02 187.594 1092.56L193.823 1096L206.215 1089.79L208.942 1077.2L218.589 1070.43L230.01 1072.09L245.986 1067.81L253.321 1068.33L261.079 1068.79L263.166 1068.23C265.532 1068.4 267.242 1068.43 268.293 1068.33L274.585 1063.66L283.264 1060.4L293.841 1061.97L301.17 1065.91C302.351 1065.79 304.801 1065.9 308.514 1066.24L316.073 1071.22L324.22 1073.7C326.088 1073.77 329.294 1073.52 333.836 1072.96C334.345 1072.93 334.923 1072.95 335.568 1073.01L345.216 1079.83L356.984 1086.57L364.479 1084.21C371.722 1082.91 378.789 1084.48 386.423 1084.21L406.537 1071.26L411.953 1068.34C413.779 1068.42 416.087 1066.31 418.664 1065.35C420.068 1065.44 422.306 1068.37 422.681 1068.34L435.442 1065.35L444.669 1063.96L450.961 1071.26C457.99 1071.26 468.588 1071.37 481.082 1066.58L482 1066.18V1065.02V1063.85Z" fill="#FEFEFE"/>
</g>
<g filter="url(#filter1_d_507_699)">
<path d="M482 51.3359V52.6336L481.716 52.951L477.665 51.0987C476.626 51.1851 475.947 51.1522 475.623 51.0019L470.264 54.2077L465.521 55.7904L463.768 54.3394C461.47 54.7428 460.045 54.6852 459.491 54.1644C458.062 54.8827 457.37 54.9033 457.416 54.2262L455.65 55.3849C454.883 55.0309 454.201 54.9589 453.605 55.1647L452.802 54.6687C452.179 55.035 451.576 55.0844 450.996 54.8169L446.45 55.9468C445.467 55.9592 444.041 55.9139 442.17 55.8089L438.607 54.4444L436.52 55.0124C436.615 54.5925 435.982 53.9833 434.622 53.1909C433.445 53.4585 432.639 53.5449 432.197 53.4441L428.618 49.1261L424.357 51.2357L422.712 50.4968C422.279 50.503 420.329 53.158 419.959 53.1909L415.499 54.2776L407.306 50.0728L405.71 49.2537L405.762 46.0512C404.812 46.0141 404.064 46.0697 403.517 46.2199L400.974 47.2655L400.679 47.1111L399.145 44.1268C397.041 44.5034 395.684 44.6702 395.074 44.629L391.417 40.6506L390.664 34.8507C390.006 34.9968 389.606 35.0256 389.468 34.9392L388.821 34.1682C386.462 33.8752 385.263 33.8113 384.798 33.5788L384.096 32.1298C384.185 32.7843 379.839 34.0213 371.062 35.8448C369.84 34.26 367.054 32.8852 362.702 31.7244C361.483 31.6997 357.775 35.0092 356.258 35.0503L349.556 33.5767L340.971 40.6506L335.493 42.6654L330.759 48.4325C330.012 48.5024 329.137 48.4345 328.131 48.2287C325.263 48.7679 322.611 48.947 320.176 48.7618L315.08 46.5739L306.182 56.6509C305.435 56.2023 304.009 55.9697 301.911 55.9574C300.682 56.0808 297.592 48.2299 295.055 49.3433L292.843 49.1478L290.524 48.2753L289.786 48.2691C289.786 48.2691 286.352 49.7692 286.12 50.3516C286.12 50.3516 282.374 49.0408 282.554 49.3433L278.081 54.7078H274.288L269.82 60.304L260.279 63.4179L255.739 66.177L251.781 66.148C251.479 66.0842 250.784 66.0945 249.693 66.1768C246.455 66.7861 244.39 67.0577 243.502 66.9898L231.126 63.565L225.3 65.4709L219.931 62.8776L210.315 65.4709L200.596 63.565C200.596 63.565 196.642 63.2903 194.217 61.228L190.913 63.4179C188.305 62.0739 186.554 60.2998 185.663 58.0955L182.34 58.7624L180.681 58.5936C178.806 59.0999 176.332 59.3242 173.258 59.2687L169.522 60.3821C168.289 60.0137 165.448 60.3862 160.994 61.4997C160.329 61.5223 159.306 61.4338 157.923 61.2342C154.338 63.2718 152.269 64.2864 151.719 64.2823C151.558 64.305 151.339 64.3276 151.057 64.3502L146.552 59.2687L135.845 57.0851C134.806 56.9883 133.888 56.622 133.088 55.9881C129.67 56.5417 120.648 61.1705 116.25 59.4787L110.403 60.7445L108.312 59.4787C107.797 59.4293 106.224 52.804 103.773 53.2404C103.192 53.2671 101.714 53.1457 99.3382 52.8781L96.3263 51.0217C90.6761 52.8143 88.0575 53.0222 88.4671 51.6453L83.3019 53.1148L78.8121 41.4623C71.687 43.2035 54.3634 40.9637 54.3634 40.9637C52.9214 41.0398 49.4112 44.8554 48.3952 44.1659L44.4529 40.9637L38.3665 36.8739L21.3437 40.1719C18.1122 40.0958 14.6021 40.4065 10.8101 41.1063C10.4005 40.8408 7.91292 40.5794 3.34424 40.3242C0.814095 42.0469 -1.73247 40.4601 -12.2201 41.1063L-15.2876 39.2131L-19.299 35.8212C-19.9447 35.9591 -23.2124 31.8714 -23.6188 31.7314L-24.7791 29.5539L-27.1125 29.3666C-29.6394 27.6522 -31.9926 26.7342 -34.1655 26.6128L-37.8329 23.8302C-39.2225 23.7273 -45.522 34.1066 -53.1714 38.2991L-61.9021 35.076C-61.9021 35.076 -67.7389 39.0391 -70.3968 40.3502C-75.018 38.4237 -80.3702 41.2113 -84.1097 41.4253L-88.5663 44.7822H-97.5328L-109.331 50.3124L-114.256 55.499L-122 59.9008L-122 57.3054L-122 55.7482L-122 54.1909L-122 50.2978L-118.583 47.3108L-102.752 37.5778H-96.4024C-94.8292 37.6211 -91.0607 31.2469 -91.0607 31.2469C-85.6203 31.6812 -83.9688 28.3017 -81.2944 29.1888C-74.1792 27.711 -70.561 27.0442 -70.4463 27.1882L-61.8532 26.686L-55.1706 25.0313L-53.1714 27.4393L-46.3782 23.4972L-41.6588 17.6371L-36.4676 15C-36.4676 15 -32.2528 15.1642 -31.8319 15.1642L-5.79308 31.7467C3.89816 31.8208 12.1015 31.5286 18.8168 30.8699L42.2125 28.55L51.2306 35.8212L66.75 34.5195L69.1818 34.5607L74.1515 36.5416C76.5506 36.0085 78.1042 35.7677 78.8121 35.8212L86.2056 42.3732C93.0455 41.3791 97.1488 40.9366 98.5122 41.0478L121.395 53.2712L124.214 53.2404C127.078 53.0675 135.169 43.3119 137.873 42.715C137.873 42.715 145.988 50.5024 147.695 50.206C149.187 49.9096 151.649 52.3218 153.583 52.5831L165.949 50.206C166.984 50.8913 172.907 50.4629 178.879 52.1464L185.305 48.189L196.358 52.5831L208.313 57.0851L224.252 55.385L240.734 60.304L248.302 59.701L256.734 56.3174H261.51C263.951 56.126 269.346 48.4917 270.431 48.6008L276.053 46.5739L291.348 39.1196L298.605 43.0523C299.824 43.1861 306.182 46.5739 306.182 46.5739C306.182 46.5739 311.355 40.6794 312.545 40.6506L323.031 39.1196C324.958 39.0476 330.759 34.8507 330.759 34.8507C331.283 34.8795 331.88 34.861 332.545 34.791L343.213 28.2449H355.118L362.702 20.5042L372.945 25.6951L385.725 23.2127L397.272 35.8448H405.71L412.372 46.0512C414.257 45.9627 418.454 41.7867 418.454 41.7867C419.903 41.6838 425.375 39.069 422.365 39.1996L434.622 44.1268L451.8 46.1989L471.724 46.0512L480.23 40.4271L482 41.2138V47.9619V51.3359Z" fill="#FEFEFE"/>
</g>
<defs>
<filter id="filter0_d_507_699" x="-152" y="1002" width="664" height="104" filterUnits="userSpaceOnUse" color-interpolation-filters="sRGB">
<feFlood flood-opacity="0" result="BackgroundImageFix"/>
<feColorMatrix in="SourceAlpha" type="matrix" values="0 0 0 0 0 0 0 0 0 0 0 0 0 0 0 0 0 0 127 0" result="hardAlpha"/>
<feOffset dy="-20"/>
<feGaussianBlur stdDeviation="15"/>
<feComposite in2="hardAlpha" operator="out"/>
<feColorMatrix type="matrix" values="0 0 0 0 0 0 0 0 0 0 0 0 0 0 0 0 0 0 0.25 0"/>
<feBlend mode="normal" in2="BackgroundImageFix" result="effect1_dropShadow_507_699"/>
<feBlend mode="normal" in="SourceGraphic" in2="effect1_dropShadow_507_699" result="shape"/>
</filter>
<filter id="filter1_d_507_699" x="-152" y="0" width="664" height="112" filterUnits="userSpaceOnUse" color-interpolation-filters="sRGB">
<feFlood flood-opacity="0" result="BackgroundImageFix"/>
<feColorMatrix in="SourceAlpha" type="matrix" values="0 0 0 0 0 0 0 0 0 0 0 0 0 0 0 0 0 0 127 0" result="hardAlpha"/>
<feOffset dy="15"/>
<feGaussianBlur stdDeviation="15"/>
<feComposite in2="hardAlpha" operator="out"/>
<feColorMatrix type="matrix" values="0 0 0 0 0 0 0 0 0 0 0 0 0 0 0 0 0 0 0.25 0"/>
<feBlend mode="normal" in2="BackgroundImageFix" result="effect1_dropShadow_507_699"/>
<feBlend mode="normal" in="SourceGraphic" in2="effect1_dropShadow_507_699" result="shape"/>
</filter>
</defs>
</svg>
