<svg xmlns="http://www.w3.org/2000/svg" width="1440" height="646" viewBox="0 0 1440 646" fill="none">
  <path d="M70.5 40L0 67.5V588.5L47 600.5L76.5 606L121.5 600.5L197 602.319L234 621.319H257.5L274.5 640.5L298.5 621.5L346.5 617L410.5 634.5L452.5 629.5L529 634.5H571L612.5 622L666.5 639H686.5L739 646L777.5 639L791.5 607.5L820 596L879 591H926.5L978.5 575L1060.5 596L1100 605.5L1146 627.5L1212 625L1282.5 587L1349.5 582.5L1386 601.5L1419 599L1440 591V57L1340.5 59.5L1307 49L1274 59.5L1240 39.5L1210.5 19L1181 22.5L1158.5 14L1119 25L1077 47H1043.5L1019 61L991.5 51L957.5 55L925 74L877 87L840 79L790 82L736 65.5L659 77L617.5 62L585 72.5L530.5 55.5H497L479 38L408.5 40.5L387.5 28L270 33L203.5 0L168 25L142.5 20.5L70.5 40Z" fill="#2B465B"/>
</svg>